<svg xmlns="http://www.w3.org/2000/svg" width="80.45" height="84.462" viewBox="0 0 80.45 84.462">
  <g id="Grupo_12302" data-name="Grupo 12302" transform="translate(-446.158 -37.773)">
    <path id="Trazado_16273" data-name="Trazado 16273" d="M525.367,43.984a4.97,4.97,0,1,1-4.97-4.969A4.97,4.97,0,0,1,525.367,43.984Z" fill="#f9cd45"/>
    <path id="Trazado_16274" data-name="Trazado 16274" d="M520.4,39.015a4.966,4.966,0,0,0-1.987.414,4.971,4.971,0,0,1,0,9.111,4.97,4.97,0,1,0,1.987-9.525Z" fill="#f8b53c"/>
    <path id="Trazado_16275" data-name="Trazado 16275" d="M510.505,80.165a24.291,24.291,0,1,0-24.29,24.459A24.374,24.374,0,0,0,510.505,80.165Z" fill="#f9cd45"/>
    <path id="Trazado_16276" data-name="Trazado 16276" d="M486.383,55.707q-1,0-1.987.08a24.459,24.459,0,0,1,0,48.756q.984.08,1.987.081a24.458,24.458,0,1,0,0-48.917Z" fill="#f8b53c"/>
    <path id="Trazado_16277" data-name="Trazado 16277" d="M484.059,96.339l.071-.122V64.662h-6.054V81.845h-5.25Z" fill="#f45a3c"/>
    <path id="Trazado_16278" data-name="Trazado 16278" d="M488.124,64.662l-.071.123V96.339h6.056V79.156h5.248Z" fill="#4890e3"/>
    <path id="Trazado_16279" data-name="Trazado 16279" d="M491.449,43.984a4.969,4.969,0,1,1-4.969-4.969A4.97,4.97,0,0,1,491.449,43.984Z" fill="#f9cd45"/>
    <path id="Trazado_16280" data-name="Trazado 16280" d="M486.48,39.015a4.971,4.971,0,0,0-1.988.414,4.97,4.97,0,0,1,0,9.111,4.97,4.97,0,1,0,1.988-9.525Z" fill="#f8b53c"/>
    <path id="Trazado_16281" data-name="Trazado 16281" d="M457.532,43.984a4.97,4.97,0,1,1-4.97-4.969A4.97,4.97,0,0,1,457.532,43.984Z" fill="#f9cd45"/>
    <path id="Trazado_16282" data-name="Trazado 16282" d="M452.562,39.015a4.966,4.966,0,0,0-1.987.414,4.97,4.97,0,0,1,0,9.111,4.97,4.97,0,1,0,1.987-9.525Z" fill="#f8b53c"/>
    <path id="Trazado_16283" data-name="Trazado 16283" d="M525.367,116.023a4.97,4.97,0,1,1-4.97-4.97A4.97,4.97,0,0,1,525.367,116.023Z" fill="#f9cd45"/>
    <path id="Trazado_16284" data-name="Trazado 16284" d="M520.4,111.053a4.966,4.966,0,0,0-1.987.414,4.971,4.971,0,0,1,0,9.111,4.97,4.97,0,1,0,1.987-9.525Z" fill="#f8b53c"/>
    <path id="Trazado_16285" data-name="Trazado 16285" d="M525.367,80.5a4.97,4.97,0,1,1-4.97-4.97A4.97,4.97,0,0,1,525.367,80.5Z" fill="#f9cd45"/>
    <path id="Trazado_16286" data-name="Trazado 16286" d="M520.4,75.531a4.949,4.949,0,0,0-1.987.414,4.971,4.971,0,0,1,0,9.111,4.97,4.97,0,1,0,1.987-9.525Z" fill="#f8b53c"/>
    <path id="Trazado_16287" data-name="Trazado 16287" d="M457.339,80.5a4.969,4.969,0,1,1-4.969-4.97A4.969,4.969,0,0,1,457.339,80.5Z" fill="#f9cd45"/>
    <path id="Trazado_16288" data-name="Trazado 16288" d="M452.37,75.531a4.954,4.954,0,0,0-1.988.414,4.97,4.97,0,0,1,0,9.111,4.97,4.97,0,1,0,1.988-9.525Z" fill="#f8b53c"/>
    <path id="Trazado_16289" data-name="Trazado 16289" d="M491.449,116.023a4.969,4.969,0,1,1-4.969-4.97A4.97,4.97,0,0,1,491.449,116.023Z" fill="#f9cd45"/>
    <path id="Trazado_16290" data-name="Trazado 16290" d="M486.48,111.053a4.971,4.971,0,0,0-1.988.414,4.97,4.97,0,0,1,0,9.111,4.97,4.97,0,1,0,1.988-9.525Z" fill="#f8b53c"/>
    <path id="Trazado_16291" data-name="Trazado 16291" d="M457.532,116.023a4.97,4.97,0,1,1-4.97-4.97A4.97,4.97,0,0,1,457.532,116.023Z" fill="#f9cd45"/>
    <path id="Trazado_16292" data-name="Trazado 16292" d="M452.562,111.053a4.966,4.966,0,0,0-1.987.414,4.97,4.97,0,0,1,0,9.111,4.97,4.97,0,1,0,1.987-9.525Z" fill="#f8b53c"/>
    <g id="Grupo_12301" data-name="Grupo 12301">
      <path id="Trazado_16293" data-name="Trazado 16293" d="M509.261,88.922a1.243,1.243,0,0,0,1.566-.8,25.6,25.6,0,0,0,1.226-6.718h2.2a6.211,6.211,0,1,0,.137-2.484h-2.335a25.6,25.6,0,0,0-6.437-15.785H520.4a1.242,1.242,0,0,0,1.242-1.241V50.071a6.212,6.212,0,1,0-2.484,0V60.655H503.093A25.578,25.578,0,0,0,487.721,54.5V50.071a6.212,6.212,0,1,0-2.483,0v4.42a25.6,25.6,0,0,0-15.565,6.163h-6.692a1.242,1.242,0,0,0,0,2.484h4.169a25.6,25.6,0,0,0-6.437,15.785h-2.335a6.214,6.214,0,1,0,.136,2.484h2.2a25.6,25.6,0,0,0,6.437,15.785H452.37a1.241,1.241,0,0,0-1.242,1.241V109.98a6.213,6.213,0,1,0,2.483-.078V99.676h16.063a25.584,25.584,0,0,0,15.564,6.163v4.1a6.212,6.212,0,1,0,2.484,0v-4.109a25.549,25.549,0,0,0,15.385-6.151h16.048v10.26a6.211,6.211,0,1,0,2.484,0v-11.5a1.242,1.242,0,0,0-1.242-1.241H505.632a25.794,25.794,0,0,0,2.979-4.119,1.241,1.241,0,1,0-2.146-1.248,23.114,23.114,0,1,1,2-4.469A1.242,1.242,0,0,0,509.261,88.922ZM520.4,76.773a3.727,3.727,0,1,1-3.728,3.728A3.732,3.732,0,0,1,520.4,76.773Zm-3.728-32.789a3.728,3.728,0,1,1,3.728,3.728A3.732,3.732,0,0,1,516.669,43.984Zm-64.3,40.244A3.727,3.727,0,1,1,456.1,80.5,3.732,3.732,0,0,1,452.37,84.228Zm3.92,31.8a3.728,3.728,0,1,1-3.728-3.728A3.732,3.732,0,0,1,456.29,116.023Zm67.834,0a3.728,3.728,0,1,1-3.727-3.728A3.731,3.731,0,0,1,524.124,116.023Zm-33.917,0a3.727,3.727,0,1,1-3.727-3.728A3.731,3.731,0,0,1,490.207,116.023Zm-7.455-72.039a3.727,3.727,0,1,1,3.728,3.728A3.732,3.732,0,0,1,482.752,43.984Z" fill="#18191b"/>
      <path id="Trazado_16294" data-name="Trazado 16294" d="M478.076,63.42a1.242,1.242,0,0,0-1.243,1.242V80.6h-4.006a1.242,1.242,0,0,0-.981,2L483.079,97.1a1.24,1.24,0,0,0,.981.481l.084,0a1.24,1.24,0,0,0,.991-.618l.071-.123a1.242,1.242,0,0,0,.167-.62V64.662a1.243,1.243,0,0,0-1.242-1.242Zm4.812,29.38-7.528-9.713h2.716a1.242,1.242,0,0,0,1.241-1.242V65.9h3.571Z" fill="#18191b"/>
      <path id="Trazado_16295" data-name="Trazado 16295" d="M488.04,63.423a1.242,1.242,0,0,0-.991.617l-.071.123a1.243,1.243,0,0,0-.166.622V96.339a1.242,1.242,0,0,0,1.241,1.243h6.056a1.243,1.243,0,0,0,1.241-1.243V80.4h4.007a1.242,1.242,0,0,0,.982-2L489.106,63.9A1.251,1.251,0,0,0,488.04,63.423ZM489.3,68.2l7.528,9.714h-2.714a1.242,1.242,0,0,0-1.243,1.241V95.1H489.3Z" fill="#18191b"/>
      <path id="Trazado_16296" data-name="Trazado 16296" d="M451.128,50.027V61.9a1.241,1.241,0,0,0,1.242,1.241h5.625a1.242,1.242,0,1,0,0-2.484h-4.384V50.106a6.212,6.212,0,1,0-2.483-.079Zm1.434-9.77a3.728,3.728,0,1,1-3.728,3.727A3.732,3.732,0,0,1,452.562,40.257Z" fill="#18191b"/>
    </g>
  </g>
</svg>
