<svg xmlns="http://www.w3.org/2000/svg" width="79.338" height="79.338" viewBox="0 0 79.338 79.338">
  <g id="Grupo_12300" data-name="Grupo 12300" transform="translate(-349.47 -40.335)">
    <path id="Trazado_16241" data-name="Trazado 16241" d="M389.013,66.12c6.5,0,12.027,5.032,12.027,11.239v6.612l5.289,6.611H401.04v6.612H390.461v6.611H377.238V77.359A11.517,11.517,0,0,1,389.013,66.12Z" fill="#dbe6fd"/>
    <path id="Trazado_16242" data-name="Trazado 16242" d="M389.139,70.748c-3.651,0-6.611,2.368-6.611,5.289h13.223C395.751,73.116,392.79,70.748,389.139,70.748Z" fill="#fccc38"/>
    <path id="Trazado_16243" data-name="Trazado 16243" d="M366.66,41.657H356.082a5.29,5.29,0,0,0-5.289,5.29v1.322a5.289,5.289,0,0,0,5.289,5.289v5.289l5.289-5.289h5.289a5.289,5.289,0,0,0,5.289-5.289V46.947A5.29,5.29,0,0,0,366.66,41.657Z" fill="#24db6a"/>
    <path id="Trazado_16244" data-name="Trazado 16244" d="M411.618,41.657H422.2a5.29,5.29,0,0,1,5.289,5.29v1.322a5.289,5.289,0,0,1-5.289,5.289v5.289l-5.289-5.289h-5.289a5.289,5.289,0,0,1-5.289-5.289V46.947A5.29,5.29,0,0,1,411.618,41.657Z" fill="#f4393d"/>
    <path id="Trazado_16245" data-name="Trazado 16245" d="M356.082,106.45H366.66a5.289,5.289,0,0,1,5.289,5.289v1.322a5.289,5.289,0,0,1-5.289,5.289H356.082a5.289,5.289,0,0,1-5.289-5.289v-1.322A5.289,5.289,0,0,1,356.082,106.45Z" fill="#ff7f00"/>
    <path id="Trazado_16246" data-name="Trazado 16246" d="M411.618,106.45H422.2a5.289,5.289,0,0,1,5.289,5.289v1.322a5.289,5.289,0,0,1-5.289,5.289H411.618a5.289,5.289,0,0,1-5.289-5.289v-1.322A5.289,5.289,0,0,1,411.618,106.45Z" fill="#17afdc"/>
    <path id="Trazado_16247" data-name="Trazado 16247" d="M391.784,80h6.611v2.644h-6.611Z"/>
    <path id="Trazado_16248" data-name="Trazado 16248" d="M390.461,105.127H377.238a1.322,1.322,0,0,1-1.322-1.32V77.359a12.852,12.852,0,0,1,13.1-12.561c7.361,0,13.35,5.635,13.35,12.561v6.148l5,6.249a1.322,1.322,0,0,1-1.033,2.148h-3.967v5.29a1.322,1.322,0,0,1-1.321,1.322h-9.257v5.289a1.321,1.321,0,0,1-1.321,1.322Zm-11.9-2.644h10.578V97.194a1.323,1.323,0,0,1,1.321-1.323h9.257V90.582a1.321,1.321,0,0,1,1.321-1.322h2.539l-3.57-4.463a1.322,1.322,0,0,1-.29-.826V77.359c0-5.375-4.9-9.917-10.705-9.917a10.206,10.206,0,0,0-10.451,9.917Z"/>
    <path id="Trazado_16249" data-name="Trazado 16249" d="M395.751,77.359H382.528a1.322,1.322,0,0,1-1.323-1.321h0c0-3.645,3.559-6.611,7.934-6.611s7.934,2.966,7.934,6.611a1.321,1.321,0,0,1-1.321,1.322Zm-11.6-2.644h9.974a6.024,6.024,0,0,0-9.974,0Z"/>
    <path id="Trazado_16250" data-name="Trazado 16250" d="M356.082,60.17a1.323,1.323,0,0,1-1.322-1.323v-4.1a6.624,6.624,0,0,1-5.29-6.478V46.947a6.62,6.62,0,0,1,6.612-6.612H366.66a6.62,6.62,0,0,1,6.612,6.612v1.322a6.619,6.619,0,0,1-6.612,6.611h-4.742l-4.9,4.9A1.322,1.322,0,0,1,356.082,60.17Zm0-17.19a3.971,3.971,0,0,0-3.967,3.967v1.322a3.971,3.971,0,0,0,3.967,3.967,1.321,1.321,0,0,1,1.322,1.321h0v2.1l3.032-3.032a1.321,1.321,0,0,1,.935-.387h5.289a3.971,3.971,0,0,0,3.967-3.967V46.947a3.971,3.971,0,0,0-3.967-3.967Z"/>
    <path id="Trazado_16251" data-name="Trazado 16251" d="M422.2,60.17a1.324,1.324,0,0,1-.935-.388l-4.9-4.9h-4.742a6.618,6.618,0,0,1-6.611-6.611V46.947a6.618,6.618,0,0,1,6.611-6.612H422.2a6.62,6.62,0,0,1,6.612,6.612v1.322a6.622,6.622,0,0,1-5.289,6.478v4.1A1.323,1.323,0,0,1,422.2,60.17ZM411.618,42.98a3.971,3.971,0,0,0-3.967,3.967v1.322a3.971,3.971,0,0,0,3.967,3.967h5.289a1.321,1.321,0,0,1,.935.387l3.032,3.032v-2.1a1.321,1.321,0,0,1,1.321-1.322h0a3.971,3.971,0,0,0,3.967-3.967V46.947A3.971,3.971,0,0,0,422.2,42.98Z"/>
    <path id="Trazado_16252" data-name="Trazado 16252" d="M354.76,45.624h7.933v2.645H354.76Z"/>
    <path id="Trazado_16253" data-name="Trazado 16253" d="M365.338,45.624h2.644v2.645h-2.644Z"/>
    <path id="Trazado_16254" data-name="Trazado 16254" d="M366.66,119.673H356.082a6.621,6.621,0,0,1-6.612-6.612v-1.322a6.621,6.621,0,0,1,6.612-6.612H366.66a6.621,6.621,0,0,1,6.612,6.612v1.322A6.621,6.621,0,0,1,366.66,119.673Zm-10.578-11.9a3.971,3.971,0,0,0-3.967,3.967v1.322a3.971,3.971,0,0,0,3.967,3.967H366.66a3.971,3.971,0,0,0,3.967-3.967v-1.322a3.971,3.971,0,0,0-3.967-3.967Z"/>
    <path id="Trazado_16255" data-name="Trazado 16255" d="M360.049,110.417h7.933v2.644h-7.933Z"/>
    <path id="Trazado_16256" data-name="Trazado 16256" d="M354.76,110.417H357.4v2.644H354.76Z"/>
    <path id="Trazado_16257" data-name="Trazado 16257" d="M422.2,119.673H411.618a6.619,6.619,0,0,1-6.611-6.612v-1.322a6.619,6.619,0,0,1,6.611-6.612H422.2a6.621,6.621,0,0,1,6.612,6.612v1.322A6.621,6.621,0,0,1,422.2,119.673Zm-10.578-11.9a3.971,3.971,0,0,0-3.967,3.967v1.322a3.971,3.971,0,0,0,3.967,3.967H422.2a3.971,3.971,0,0,0,3.967-3.967v-1.322a3.971,3.971,0,0,0-3.967-3.967Z"/>
    <path id="Trazado_16258" data-name="Trazado 16258" d="M415.585,110.417h7.934v2.644h-7.934Z"/>
    <path id="Trazado_16259" data-name="Trazado 16259" d="M410.3,110.417h2.644v2.644H410.3Z"/>
    <path id="Trazado_16260" data-name="Trazado 16260" d="M410.3,45.624h2.644v2.645H410.3Z"/>
    <path id="Trazado_16261" data-name="Trazado 16261" d="M415.585,45.624h7.934v2.645h-7.934Z"/>
    <path id="Trazado_16262" data-name="Trazado 16262" d="M354.76,62.814H357.4v3.967H354.76Z"/>
    <path id="SVGCleanerId_0" data-name="SVGCleanerId 0" d="M354.76,69.426H357.4v3.966H354.76Z"/>
    <g id="Grupo_12290" data-name="Grupo 12290">
      <path id="SVGCleanerId_0-2" data-name="SVGCleanerId 0" d="M354.76,69.426H357.4v3.966H354.76Z"/>
    </g>
    <path id="SVGCleanerId_1" data-name="SVGCleanerId 1" d="M360.049,70.748h3.967v2.644h-3.967Z"/>
    <g id="Grupo_12291" data-name="Grupo 12291">
      <path id="SVGCleanerId_1-2" data-name="SVGCleanerId 1" d="M360.049,70.748h3.967v2.644h-3.967Z"/>
    </g>
    <path id="Trazado_16263" data-name="Trazado 16263" d="M366.131,77.094l-1.586-2.115,3.878-2.909-3.878-2.909,1.586-2.115,5.289,3.966a1.322,1.322,0,0,1,.266,1.85,1.369,1.369,0,0,1-.266.266Z"/>
    <path id="Trazado_16264" data-name="Trazado 16264" d="M386.494,61.492a1.324,1.324,0,0,1-1.038-.5l-3.967-5.037,2.077-1.638,2.928,3.719,2.929-3.719,2.077,1.638-3.967,5.037A1.324,1.324,0,0,1,386.494,61.492Z"/>
    <path id="Trazado_16265" data-name="Trazado 16265" d="M354.76,98.516H357.4v3.967H354.76Z"/>
    <path id="SVGCleanerId_2" data-name="SVGCleanerId 2" d="M354.76,91.9H357.4v3.967H354.76Z"/>
    <g id="Grupo_12292" data-name="Grupo 12292">
      <path id="SVGCleanerId_2-2" data-name="SVGCleanerId 2" d="M354.76,91.9H357.4v3.967H354.76Z"/>
    </g>
    <path id="SVGCleanerId_3" data-name="SVGCleanerId 3" d="M354.76,85.293H357.4V89.26H354.76Z"/>
    <g id="Grupo_12293" data-name="Grupo 12293">
      <path id="SVGCleanerId_3-2" data-name="SVGCleanerId 3" d="M354.76,85.293H357.4V89.26H354.76Z"/>
    </g>
    <path id="SVGCleanerId_4" data-name="SVGCleanerId 4" d="M360.049,85.293h3.967v2.645h-3.967Z"/>
    <g id="Grupo_12294" data-name="Grupo 12294">
      <path id="SVGCleanerId_4-2" data-name="SVGCleanerId 4" d="M360.049,85.293h3.967v2.645h-3.967Z"/>
    </g>
    <path id="Trazado_16266" data-name="Trazado 16266" d="M366.131,91.64l-1.586-2.115,3.878-2.91-3.878-2.909,1.586-2.115,5.289,3.967a1.321,1.321,0,0,1,.266,1.849,1.341,1.341,0,0,1-.266.266Z"/>
    <path id="Trazado_16267" data-name="Trazado 16267" d="M419.552,77.359H422.2v3.967h-2.644Z"/>
    <path id="SVGCleanerId_5" data-name="SVGCleanerId 5" d="M419.552,70.748H422.2v3.967h-2.644Z"/>
    <g id="Grupo_12295" data-name="Grupo 12295">
      <path id="SVGCleanerId_5-2" data-name="SVGCleanerId 5" d="M419.552,70.748H422.2v3.967h-2.644Z"/>
    </g>
    <path id="Trazado_16268" data-name="Trazado 16268" d="M419.552,90.582H422.2v3.967h-2.644Z"/>
    <path id="SVGCleanerId_6" data-name="SVGCleanerId 6" d="M419.552,83.971H422.2v3.967h-2.644Z"/>
    <g id="Grupo_12296" data-name="Grupo 12296">
      <path id="SVGCleanerId_6-2" data-name="SVGCleanerId 6" d="M419.552,83.971H422.2v3.967h-2.644Z"/>
    </g>
    <path id="SVGCleanerId_7" data-name="SVGCleanerId 7" d="M419.552,97.194H422.2v3.966h-2.644Z"/>
    <g id="Grupo_12297" data-name="Grupo 12297">
      <path id="SVGCleanerId_7-2" data-name="SVGCleanerId 7" d="M419.552,97.194H422.2v3.966h-2.644Z"/>
    </g>
    <path id="Trazado_16269" data-name="Trazado 16269" d="M391.784,45.624h3.967v2.645h-3.967Z"/>
    <path id="Trazado_16270" data-name="Trazado 16270" d="M385.172,45.624h3.967v2.645h-3.967Z"/>
    <path id="Trazado_16271" data-name="Trazado 16271" d="M398.395,45.624h3.967v2.645h-3.967Z"/>
    <path id="SVGCleanerId_8" data-name="SVGCleanerId 8" d="M385.172,50.913h2.645V54.88h-2.645Z"/>
    <g id="Grupo_12298" data-name="Grupo 12298">
      <path id="SVGCleanerId_8-2" data-name="SVGCleanerId 8" d="M385.172,50.913h2.645V54.88h-2.645Z"/>
    </g>
    <path id="SVGCleanerId_9" data-name="SVGCleanerId 9" d="M412.94,70.748h3.967v2.644H412.94Z"/>
    <g id="Grupo_12299" data-name="Grupo 12299">
      <path id="SVGCleanerId_9-2" data-name="SVGCleanerId 9" d="M412.94,70.748h3.967v2.644H412.94Z"/>
    </g>
    <path id="Trazado_16272" data-name="Trazado 16272" d="M410.825,77.094l-5.289-3.966a1.323,1.323,0,0,1,0-2.116l5.289-3.966,1.586,2.115-3.878,2.909,3.878,2.909Z"/>
  </g>
</svg>
