<svg xmlns="http://www.w3.org/2000/svg" width="121.875" height="121.876" viewBox="0 0 121.875 121.876">
  <g id="Grupo_12326" data-name="Grupo 12326" transform="translate(-548.571 -28.53)">
    <g id="Grupo_12306" data-name="Grupo 12306" transform="translate(619.665 99.624)">
      <g id="Grupo_12303" data-name="Grupo 12303">
        <path id="Trazado_16297" data-name="Trazado 16297" d="M605.184,105.456A20.313,20.313,0,1,1,625.5,125.769,20.312,20.312,0,0,1,605.184,105.456Z" transform="translate(-602.645 -82.604)" fill="#fdb2b0"/>
        <path id="Trazado_16298" data-name="Trazado 16298" d="M626.083,128.893a22.851,22.851,0,1,1,22.852-22.85A22.876,22.876,0,0,1,626.083,128.893Zm0-40.623a17.773,17.773,0,1,0,17.773,17.773A17.793,17.793,0,0,0,626.083,88.27Z" transform="translate(-603.232 -83.191)" fill="#fd3e5f"/>
      </g>
      <g id="Grupo_12305" data-name="Grupo 12305" transform="translate(20.312 10.157)">
        <g id="Grupo_12304" data-name="Grupo 12304">
          <path id="Trazado_16299" data-name="Trazado 16299" d="M621.388,116.39a2.539,2.539,0,1,1,2.54-2.538A2.546,2.546,0,0,1,621.388,116.39Zm0-10.155a2.546,2.546,0,0,1-2.539-2.539V93.539a2.539,2.539,0,0,1,5.079,0V103.7A2.548,2.548,0,0,1,621.388,106.234Z" transform="translate(-618.849 -91)" fill="#fd3e5f"/>
        </g>
      </g>
    </g>
    <g id="Grupo_12307" data-name="Grupo 12307" transform="translate(619.665 33.609)">
      <path id="Trazado_16300" data-name="Trazado 16300" d="M605.184,54.7A20.313,20.313,0,1,1,625.5,75.013,20.312,20.312,0,0,1,605.184,54.7Z" transform="translate(-602.645 -31.848)" fill="#fcc18a"/>
      <path id="Trazado_16301" data-name="Trazado 16301" d="M626.083,78.137a22.851,22.851,0,1,1,22.852-22.851A22.885,22.885,0,0,1,626.083,78.137Zm0-40.624a17.774,17.774,0,1,0,17.773,17.773,17.856,17.856,0,0,0-17.773-17.773Z" transform="translate(-603.232 -32.435)" fill="#fc801c"/>
    </g>
    <g id="Grupo_12309" data-name="Grupo 12309" transform="translate(553.65 33.609)">
      <g id="Grupo_12308" data-name="Grupo 12308">
        <path id="Trazado_16302" data-name="Trazado 16302" d="M554.427,54.7A20.313,20.313,0,1,1,574.74,75.013,20.313,20.313,0,0,1,554.427,54.7Z" transform="translate(-551.889 -31.848)" fill="#a8ffa8"/>
        <path id="Trazado_16303" data-name="Trazado 16303" d="M575.327,78.137a22.851,22.851,0,1,1,22.852-22.851A22.877,22.877,0,0,1,575.327,78.137Zm0-40.624A17.774,17.774,0,1,0,593.1,55.286,17.794,17.794,0,0,0,575.327,37.513Z" transform="translate(-552.476 -32.435)" fill="#04b46f"/>
      </g>
    </g>
    <g id="Grupo_12312" data-name="Grupo 12312" transform="translate(548.571 28.53)">
      <g id="Grupo_12310" data-name="Grupo 12310" transform="translate(58.399)">
        <path id="Trazado_16304" data-name="Trazado 16304" d="M596.01,150.407a2.548,2.548,0,0,1-2.539-2.54V71.694a2.539,2.539,0,1,1,5.078,0v76.172A2.548,2.548,0,0,1,596.01,150.407Zm0-86.329a2.54,2.54,0,1,1,2.539-2.54A2.548,2.548,0,0,1,596.01,64.078Zm0-10.157a2.546,2.546,0,0,1-2.539-2.539V31.07a2.539,2.539,0,1,1,5.078,0V51.382A2.547,2.547,0,0,1,596.01,53.921Z" transform="translate(-593.471 -28.53)" fill="#0056cf"/>
      </g>
      <g id="Grupo_12311" data-name="Grupo 12311" transform="translate(0 58.399)">
        <path id="Trazado_16305" data-name="Trazado 16305" d="M667.907,78.509h-116.8a2.54,2.54,0,1,1,0-5.079h116.8a2.54,2.54,0,0,1,0,5.079Z" transform="translate(-548.571 -73.43)" fill="#0056cf"/>
      </g>
    </g>
    <g id="Grupo_12317" data-name="Grupo 12317" transform="translate(553.65 99.624)">
      <g id="Grupo_12314" data-name="Grupo 12314">
        <g id="Grupo_12313" data-name="Grupo 12313">
          <path id="Trazado_16306" data-name="Trazado 16306" d="M554.427,105.456a20.313,20.313,0,1,1,20.313,20.312A20.314,20.314,0,0,1,554.427,105.456Z" transform="translate(-551.889 -82.604)" fill="#92ebfd"/>
          <path id="Trazado_16307" data-name="Trazado 16307" d="M575.327,128.893a22.851,22.851,0,1,1,22.852-22.85A22.876,22.876,0,0,1,575.327,128.893Zm0-40.623A17.773,17.773,0,1,0,593.1,106.043,17.793,17.793,0,0,0,575.327,88.27Z" transform="translate(-552.476 -83.191)" fill="#0ab5fd"/>
        </g>
      </g>
      <g id="Grupo_12315" data-name="Grupo 12315" transform="translate(12.694 20.312)">
        <path id="Trazado_16308" data-name="Trazado 16308" d="M580.01,103.887H564.776a2.539,2.539,0,1,1,0-5.079H580.01a2.539,2.539,0,0,1,0,5.079Z" transform="translate(-562.236 -98.808)" fill="#0ab5fd"/>
      </g>
      <g id="Grupo_12316" data-name="Grupo 12316" transform="translate(20.312 12.696)">
        <path id="Trazado_16309" data-name="Trazado 16309" d="M570.632,113.265a2.539,2.539,0,0,1-2.539-2.54V95.491a2.539,2.539,0,0,1,5.079,0v15.234A2.539,2.539,0,0,1,570.632,113.265Z" transform="translate(-568.093 -92.952)" fill="#0ab5fd"/>
      </g>
    </g>
    <g id="Grupo_12321" data-name="Grupo 12321" transform="translate(633.848 43.764)">
      <g id="Grupo_12319" data-name="Grupo 12319" transform="translate(6.129)">
        <g id="Grupo_12318" data-name="Grupo 12318">
          <path id="Trazado_16310" data-name="Trazado 16310" d="M620.8,62.507v0Z" transform="translate(-618.262 -39.656)" fill="#fcc18a"/>
          <path id="Trazado_16311" data-name="Trazado 16311" d="M621.388,65.634a2.539,2.539,0,0,1-2.539-2.54V42.783a2.539,2.539,0,1,1,5.079,0V63.094A2.539,2.539,0,0,1,621.388,65.634Z" transform="translate(-618.849 -40.243)" fill="#fc801c"/>
        </g>
      </g>
      <g id="Grupo_12320" data-name="Grupo 12320" transform="translate(0 11.643)">
        <path id="Trazado_16312" data-name="Trazado 16312" d="M622.8,62.943a2.535,2.535,0,0,1-2.072-1.073L614.6,53.2a2.538,2.538,0,1,1,4.144-2.932l4.057,5.736,4.057-5.736a2.539,2.539,0,1,1,4.146,2.932l-6.13,8.669A2.535,2.535,0,0,1,622.8,62.943Z" transform="translate(-614.136 -49.195)" fill="#fc801c"/>
      </g>
    </g>
    <g id="Grupo_12325" data-name="Grupo 12325" transform="translate(567.832 43.764)">
      <g id="Grupo_12323" data-name="Grupo 12323" transform="translate(6.13)">
        <g id="Grupo_12322" data-name="Grupo 12322">
          <path id="Trazado_16313" data-name="Trazado 16313" d="M570.632,65.634a2.538,2.538,0,0,1-2.539-2.54V42.783a2.539,2.539,0,1,1,5.079,0V63.094A2.539,2.539,0,0,1,570.632,65.634Z" transform="translate(-568.093 -40.243)" fill="#04b46f"/>
        </g>
      </g>
      <g id="Grupo_12324" data-name="Grupo 12324" transform="translate(0 0.061)">
        <path id="Trazado_16314" data-name="Trazado 16314" d="M578.18,53.975a2.532,2.532,0,0,1-2.075-1.073l-4.057-5.735L567.992,52.9a2.539,2.539,0,0,1-4.146-2.932l6.131-8.669a2.629,2.629,0,0,1,4.145,0l6.13,8.669a2.539,2.539,0,0,1-2.072,4Z" transform="translate(-563.38 -40.29)" fill="#04b46f"/>
      </g>
    </g>
  </g>
</svg>
