<svg id="Grupo_12271" data-name="Grupo 12271" xmlns="http://www.w3.org/2000/svg" width="66.947" height="66.946" viewBox="0 0 66.947 66.946">
  <g id="Grupo_12270" data-name="Grupo 12270">
    <g id="Grupo_12269" data-name="Grupo 12269">
      <path id="Trazado_16214" data-name="Trazado 16214" d="M1034.079,428.384a1.395,1.395,0,1,0,0,2.789c.545,0,1.212,1.084,1.465,1.829a1.392,1.392,0,0,0,1.324.961,1.377,1.377,0,0,0,.436-.07,1.393,1.393,0,0,0,.888-1.76C1038.067,431.749,1036.882,428.384,1034.079,428.384Z" transform="translate(-1010.368 -378.175)"/>
      <path id="Trazado_16215" data-name="Trazado 16215" d="M1058.126,428.384c-2.8,0-3.988,3.365-4.114,3.749a1.393,1.393,0,1,0,2.648.869c.218-.657.891-1.83,1.466-1.83a1.394,1.394,0,1,0,0-2.789Z" transform="translate(-1014.889 -378.175)"/>
      <path id="Trazado_16216" data-name="Trazado 16216" d="M1071.052,390.338c-3.574-5.362-7.634-7.513-11.264-8.387,4.78-3.273,5.309-9.512,5.631-13.308a23.193,23.193,0,0,1,.265-2.368,1.4,1.4,0,0,0-2.659-.8c-2.916,7.011-10.019,9.635-14.109,10.154a17.387,17.387,0,0,0-9.707-2.645h-2.789a17.382,17.382,0,0,0-9.706,2.645c-4.092-.519-11.194-3.143-14.11-10.154a1.4,1.4,0,0,0-2.659.8,23.467,23.467,0,0,1,.264,2.368c.322,3.8.851,10.038,5.633,13.31-3.633.874-7.695,3.027-11.267,8.385a1.393,1.393,0,0,0,.537,2.021,35.022,35.022,0,0,0,13.215,2.883c-.013.483-.039.952-.039,1.448,0,2.327,1.084,4.021,2.133,5.658s2.052,3.205,2.052,5.5v5.736a10.175,10.175,0,0,0-1.4,5.421c0,2.19.917,5.621,6.259,6.658.355.372.7.749,1.038,1.13,1.972,2.232,4.206,4.764,9.439,4.764s7.466-2.532,9.438-4.764c.335-.381.683-.758,1.038-1.13,5.343-1.037,6.259-4.467,6.259-6.658a10.182,10.182,0,0,0-1.394-5.421v-5.736c0-2.3,1-3.852,2.051-5.5s2.133-3.331,2.133-5.658c0-.5-.025-.965-.04-1.448a35.012,35.012,0,0,0,13.215-2.883,1.393,1.393,0,0,0,.537-2.021Zm-34.633-14.569h2.789c9.714,0,13.539,6.679,14.8,14.092-.355.056-.711.115-1.072.206a13.032,13.032,0,0,0-9.545,12.847v6.327h-11.157v-6.327a13.032,13.032,0,0,0-9.545-12.847c-.36-.091-.716-.15-1.071-.206C1022.881,382.448,1026.705,375.769,1036.419,375.769Zm-17.934,16.7a34.912,34.912,0,0,1-10.589-1.979,15.009,15.009,0,0,1,12.34-6.316A31.832,31.832,0,0,0,1018.485,392.472Zm-5.111-20.687a21.887,21.887,0,0,0,10.593,6.157,16.888,16.888,0,0,0-2.31,3.184C1015.941,380.322,1014.119,376.507,1013.374,371.785Zm9.4,29.058c-.907-1.419-1.692-2.645-1.692-4.154,0-1.316.058-2.666.178-4.016.253.041.489.033.748.1a9.149,9.149,0,0,1,3.3,1.641,2.682,2.682,0,0,0-1.441,2.276,1.393,1.393,0,0,0,1.394,1.394h3.048a10.963,10.963,0,0,1,1.137,4.831v6.439a11.041,11.041,0,0,0-4.185,1.467v-2.974A12.233,12.233,0,0,0,1022.769,400.844Zm15.045,27.924a7.786,7.786,0,0,1-6.464-2.847,6.957,6.957,0,0,0,3.647-1.566,3.985,3.985,0,0,1,5.633,0,6.957,6.957,0,0,0,3.648,1.566A7.787,7.787,0,0,1,1037.814,428.767Zm6.973-5.579a3.948,3.948,0,0,1-2.5-1.079,6.7,6.7,0,0,0-8.94,0,3.949,3.949,0,0,1-2.5,1.079c-4.628,0-6.973-1.408-6.973-4.184a6.752,6.752,0,0,1,1.787-5.006,7.789,7.789,0,0,1,5.186-1.967h13.972a8.015,8.015,0,0,1,5.162,1.967A6.751,6.751,0,0,1,1051.76,419C1051.76,421.781,1049.415,423.188,1044.787,423.188Zm8.072-22.345a12.228,12.228,0,0,0-2.493,7v2.971a10.925,10.925,0,0,0-4.185-1.464v-6.439a10.967,10.967,0,0,1,1.137-4.832h3.048a1.393,1.393,0,0,0,1.394-1.394,2.682,2.682,0,0,0-1.441-2.276,9.144,9.144,0,0,1,3.3-1.641c.259-.066.5-.058.748-.1.121,1.35.178,2.7.178,4.016C1054.55,398.2,1053.766,399.424,1052.859,400.844Zm1.111-19.718a16.9,16.9,0,0,0-2.31-3.184,21.892,21.892,0,0,0,10.594-6.157C1061.509,376.507,1059.686,380.322,1053.97,381.126Zm3.172,11.347a31.816,31.816,0,0,0-1.752-8.3,15,15,0,0,1,12.344,6.319A34.747,34.747,0,0,1,1057.142,392.473Z" transform="translate(-1004.34 -364.611)"/>
    </g>
  </g>
</svg>
