<svg id="Grupo_12288" data-name="Grupo 12288" xmlns="http://www.w3.org/2000/svg" width="44.613" height="67.48" viewBox="0 0 44.613 67.48">
  <path id="Trazado_16208" data-name="Trazado 16208" d="M1207.3,232.832v-3.848a14.3,14.3,0,0,1,1.789-7.406,18.773,18.773,0,0,1,6.354-5.884,23.868,23.868,0,0,0,5.213-4.117,6.242,6.242,0,0,0,1.589-4.207,3.38,3.38,0,0,0-1.7-2.975,8.048,8.048,0,0,0-4.429-1.1q-6.759,0-15.8,4.788l-6.22-12.171a46.324,46.324,0,0,1,23.268-6.354q9.979,0,15.662,4.386a14.28,14.28,0,0,1,5.683,11.947,17.06,17.06,0,0,1-2.528,9.375,25.739,25.739,0,0,1-8.077,7.5,31.226,31.226,0,0,0-5.884,4.452,5.017,5.017,0,0,0-1.187,3.333v2.282Zm-1.925,15.661a8.269,8.269,0,0,1,2.4-6.354q2.392-2.237,7.046-2.237,4.475,0,6.869,2.26a8.29,8.29,0,0,1,2.394,6.332,8.055,8.055,0,0,1-2.484,6.31,9.756,9.756,0,0,1-6.78,2.238,10.108,10.108,0,0,1-6.935-2.216A8,8,0,0,1,1205.374,248.494Z" transform="translate(-1194.098 -189.561)"/>
</svg>
