<svg xmlns="http://www.w3.org/2000/svg" width="544.686" height="545.083" viewBox="0 0 544.686 545.083">
  <g id="Grupo_13483" data-name="Grupo 13483" transform="translate(-428.467 -877)">
    <g id="Grupo_12273" data-name="Grupo 12273" transform="translate(-437.066 738.873)">
      <rect id="Rectángulo_2740" data-name="Rectángulo 2740" width="197.229" height="197.229" rx="20" transform="translate(1212.99 138.127)" fill="#cb4f24"/>
      <rect id="Rectángulo_2741" data-name="Rectángulo 2741" width="197.229" height="197.229" rx="20" transform="translate(994.622 138.127)" fill="#416fb3"/>
      <rect id="Rectángulo_2742" data-name="Rectángulo 2742" width="197.229" height="197.229" rx="20" transform="translate(994.622 354.998)" fill="#6aa842"/>
      <rect id="Rectángulo_2743" data-name="Rectángulo 2743" width="197.229" height="197.229" rx="20" transform="translate(1212.99 354.998)" fill="#f4e93e"/>
      <path id="Trazado_20477" data-name="Trazado 20477" d="M-68.656-6.425h.847a2.82,2.82,0,0,0,1.776-.469,1.641,1.641,0,0,0,.589-1.365A1.683,1.683,0,0,0-65.937-9.6a2.314,2.314,0,0,0-1.548-.432h-1.17Zm5.811-1.926a3.709,3.709,0,0,1-1.224,3,5.236,5.236,0,0,1-3.482,1.038h-1.1V0h-2.573V-12.136h3.876a5.156,5.156,0,0,1,3.358.95A3.466,3.466,0,0,1-62.845-8.351Zm7.271-1.1a4.083,4.083,0,0,1,.855.075l-.191,2.374a2.9,2.9,0,0,0-.747-.083,2.685,2.685,0,0,0-1.888.623,2.25,2.25,0,0,0-.677,1.743V0h-2.532V-9.28h1.917l.374,1.561h.125a3.489,3.489,0,0,1,1.166-1.258A2.876,2.876,0,0,1-55.574-9.455Zm4.217,4.8A3.9,3.9,0,0,0-50.9-2.573a1.618,1.618,0,0,0,1.473.706,1.592,1.592,0,0,0,1.457-.7,3.951,3.951,0,0,0,.444-2.088,3.833,3.833,0,0,0-.448-2.067,1.621,1.621,0,0,0-1.469-.689,1.616,1.616,0,0,0-1.461.685A3.83,3.83,0,0,0-51.357-4.657Zm6.417,0a4.987,4.987,0,0,1-1.2,3.544A4.334,4.334,0,0,1-49.464.166a4.656,4.656,0,0,1-2.357-.585A3.894,3.894,0,0,1-53.391-2.1a5.648,5.648,0,0,1-.548-2.557,4.96,4.96,0,0,1,1.187-3.536,4.359,4.359,0,0,1,3.337-1.262,4.683,4.683,0,0,1,2.357.581,3.878,3.878,0,0,1,1.569,1.668A5.6,5.6,0,0,1-44.94-4.657ZM-39.91.166A3.014,3.014,0,0,1-42.479-1.1a5.839,5.839,0,0,1-.934-3.52,5.844,5.844,0,0,1,.95-3.557,3.087,3.087,0,0,1,2.619-1.274,3.027,3.027,0,0,1,2.673,1.361h.083a10.35,10.35,0,0,1-.191-1.851v-2.972h2.54V0h-1.942l-.49-1.2h-.108A2.9,2.9,0,0,1-39.91.166Zm.888-2.017A1.716,1.716,0,0,0-37.6-2.416,3.283,3.283,0,0,0-37.1-4.333v-.274a3.8,3.8,0,0,0-.461-2.142,1.711,1.711,0,0,0-1.5-.647,1.486,1.486,0,0,0-1.316.718,3.831,3.831,0,0,0-.469,2.088,3.63,3.63,0,0,0,.473,2.054A1.546,1.546,0,0,0-39.022-1.851ZM-25.517,0l-.34-1.187h-.133a2.671,2.671,0,0,1-1.154,1,3.939,3.939,0,0,1-1.7.353A3.24,3.24,0,0,1-31.311-.71a3.524,3.524,0,0,1-.83-2.519V-9.28h2.532v5.42a2.6,2.6,0,0,0,.357,1.507,1.3,1.3,0,0,0,1.137.5,1.71,1.71,0,0,0,1.536-.71,4.4,4.4,0,0,0,.473-2.353V-9.28h2.532V0Zm8.367.166q-4.333,0-4.333-4.756A5.073,5.073,0,0,1-20.3-8.205a4.422,4.422,0,0,1,3.378-1.249,6.441,6.441,0,0,1,2.889.631l-.747,1.959q-.6-.241-1.112-.394a3.584,3.584,0,0,0-1.029-.154q-1.976,0-1.976,2.806,0,2.723,1.976,2.723a4.5,4.5,0,0,0,1.353-.2,4.885,4.885,0,0,0,1.245-.61V-.523a4.08,4.08,0,0,1-1.241.54A6.979,6.979,0,0,1-17.149.166Zm8.882-2.017a5.488,5.488,0,0,0,1.594-.291V-.257A5.682,5.682,0,0,1-9,.166,2.845,2.845,0,0,1-11.21-.6a3.342,3.342,0,0,1-.693-2.3V-7.379h-1.212V-8.45l1.395-.847.73-1.959h1.619V-9.28h2.6v1.9h-2.6v4.474a.988.988,0,0,0,.3.8A1.2,1.2,0,0,0-8.268-1.851Zm5.487-2.806a3.9,3.9,0,0,0,.452,2.083,1.618,1.618,0,0,0,1.473.706A1.592,1.592,0,0,0,.6-2.569a3.951,3.951,0,0,0,.444-2.088A3.833,3.833,0,0,0,.6-6.724,1.621,1.621,0,0,0-.872-7.413a1.616,1.616,0,0,0-1.461.685A3.83,3.83,0,0,0-2.781-4.657Zm6.417,0a4.987,4.987,0,0,1-1.2,3.544A4.334,4.334,0,0,1-.888.166,4.656,4.656,0,0,1-3.246-.419,3.894,3.894,0,0,1-4.814-2.1a5.648,5.648,0,0,1-.548-2.557A4.96,4.96,0,0,1-4.175-8.193,4.359,4.359,0,0,1-.838-9.455a4.683,4.683,0,0,1,2.357.581A3.878,3.878,0,0,1,3.088-7.205,5.6,5.6,0,0,1,3.636-4.657Zm10.351-3a1.606,1.606,0,0,0-1.262.51A2.363,2.363,0,0,0,12.2-5.694h3.553a2.11,2.11,0,0,0-.49-1.448A1.658,1.658,0,0,0,13.987-7.653ZM14.344.166a4.79,4.79,0,0,1-3.5-1.237,4.683,4.683,0,0,1-1.262-3.5A5.151,5.151,0,0,1,10.745-8.18,4.153,4.153,0,0,1,13.97-9.455a4.088,4.088,0,0,1,3.063,1.121,4.239,4.239,0,0,1,1.1,3.1v1.229H12.144a2.437,2.437,0,0,0,.639,1.685,2.249,2.249,0,0,0,1.677.606,6.961,6.961,0,0,0,1.585-.174,7.933,7.933,0,0,0,1.561-.556V-.49A5.945,5.945,0,0,1,16.187,0,8.95,8.95,0,0,1,14.344.166ZM26.662-2.756A2.555,2.555,0,0,1,25.67-.581,4.9,4.9,0,0,1,22.7.166,9.321,9.321,0,0,1,20.976.029a6.531,6.531,0,0,1-1.336-.4V-2.465a8.826,8.826,0,0,0,1.59.556,6.437,6.437,0,0,0,1.556.224q1.378,0,1.378-.8a.665.665,0,0,0-.183-.486,2.648,2.648,0,0,0-.631-.423q-.448-.237-1.2-.552a7.509,7.509,0,0,1-1.573-.83,2.337,2.337,0,0,1-.73-.876,2.891,2.891,0,0,1-.228-1.216,2.2,2.2,0,0,1,.959-1.913A4.67,4.67,0,0,1,23.3-9.455a7.716,7.716,0,0,1,3.262.73L25.8-6.9q-.7-.3-1.3-.49a4.092,4.092,0,0,0-1.237-.191q-1.121,0-1.121.606a.712.712,0,0,0,.361.589,9.82,9.82,0,0,0,1.581.739,7.346,7.346,0,0,1,1.594.822,2.431,2.431,0,0,1,.747.88A2.7,2.7,0,0,1,26.662-2.756Zm5.885.9a5.488,5.488,0,0,0,1.594-.291V-.257a5.682,5.682,0,0,1-2.324.423A2.845,2.845,0,0,1,29.6-.6a3.342,3.342,0,0,1-.693-2.3V-7.379H27.7V-8.45L29.094-9.3l.73-1.959h1.619V-9.28h2.6v1.9h-2.6v4.474a.988.988,0,0,0,.3.8A1.2,1.2,0,0,0,32.547-1.851Zm8.649-7.6a4.083,4.083,0,0,1,.855.075l-.191,2.374a2.9,2.9,0,0,0-.747-.083,2.685,2.685,0,0,0-1.888.623,2.25,2.25,0,0,0-.677,1.743V0H36.017V-9.28h1.917l.374,1.561h.125A3.489,3.489,0,0,1,39.6-8.977,2.876,2.876,0,0,1,41.2-9.455Zm6.043,1.8a1.606,1.606,0,0,0-1.262.51,2.363,2.363,0,0,0-.523,1.448h3.553a2.11,2.11,0,0,0-.49-1.448A1.658,1.658,0,0,0,47.24-7.653ZM47.6.166a4.79,4.79,0,0,1-3.5-1.237,4.683,4.683,0,0,1-1.262-3.5A5.151,5.151,0,0,1,44-8.18a4.153,4.153,0,0,1,3.225-1.274,4.088,4.088,0,0,1,3.063,1.121,4.239,4.239,0,0,1,1.1,3.1v1.229H45.4a2.437,2.437,0,0,0,.639,1.685,2.249,2.249,0,0,0,1.677.606A6.961,6.961,0,0,0,49.3-1.893a7.933,7.933,0,0,0,1.561-.556V-.49A5.945,5.945,0,0,1,49.439,0,8.95,8.95,0,0,1,47.6.166ZM55.972,0H53.44V-12.916h2.532ZM61.16,0H58.628V-12.916H61.16Zm8.55,0-.49-1.262h-.066A3.739,3.739,0,0,1,67.838-.145a4.252,4.252,0,0,1-1.764.311A2.852,2.852,0,0,1,63.97-.6,2.933,2.933,0,0,1,63.2-2.772a2.449,2.449,0,0,1,1.033-2.179,5.988,5.988,0,0,1,3.117-.776l1.61-.05v-.407A1.262,1.262,0,0,0,67.519-7.6a6.582,6.582,0,0,0-2.615.672l-.838-1.71a7.544,7.544,0,0,1,3.553-.838,4.425,4.425,0,0,1,2.864.813,3.006,3.006,0,0,1,1,2.474V0Zm-.747-4.3-.979.033a3.137,3.137,0,0,0-1.644.4,1.251,1.251,0,0,0-.54,1.112q0,1.071,1.229,1.071a1.946,1.946,0,0,0,1.407-.506,1.779,1.779,0,0,0,.527-1.345Z" transform="translate(1091.612 183.082)" fill="#fff"/>
      <path id="Trazado_20480" data-name="Trazado 20480" d="M-38.438,0h-2.407V-20.7H-29.3v2.138h-9.133v7.576h8.581V-8.85h-8.581Zm14.415-15.52V-5.452a4.051,4.051,0,0,0,.864,2.832,3.519,3.519,0,0,0,2.7.935,4.413,4.413,0,0,0,3.561-1.331,6.715,6.715,0,0,0,1.126-4.347V-15.52h2.351V0h-1.94l-.34-2.082h-.127a4.685,4.685,0,0,1-2,1.756,6.734,6.734,0,0,1-2.924.609,5.933,5.933,0,0,1-4.241-1.345,5.726,5.726,0,0,1-1.409-4.3V-15.52ZM-1.876.283a7.13,7.13,0,0,1-5.43-2.1A8.113,8.113,0,0,1-9.3-7.632a9,9,0,0,1,1.848-5.961A6.138,6.138,0,0,1-2.485-15.8a5.853,5.853,0,0,1,4.616,1.919,7.354,7.354,0,0,1,1.7,5.062v1.487H-6.861A6.152,6.152,0,0,0-5.48-3.186,4.775,4.775,0,0,0-1.791-1.77,12.5,12.5,0,0,0,3.165-2.818v2.1A12.439,12.439,0,0,1,.807.05,13.249,13.249,0,0,1-1.876.283Zm-.637-14.118a3.839,3.839,0,0,0-2.981,1.218A5.613,5.613,0,0,0-6.8-9.247H1.31a5.168,5.168,0,0,0-.991-3.406A3.489,3.489,0,0,0-2.513-13.834ZM14.918-15.8a9.2,9.2,0,0,1,1.855.17l-.326,2.181a8.007,8.007,0,0,0-1.7-.212,4.136,4.136,0,0,0-3.221,1.529,5.576,5.576,0,0,0-1.338,3.809V0H7.838V-15.52h1.94l.269,2.875h.113a6.822,6.822,0,0,1,2.082-2.336A4.686,4.686,0,0,1,14.918-15.8ZM24.688-1.657a7.678,7.678,0,0,0,1.2-.092,7.791,7.791,0,0,0,.92-.191v1.8a4.3,4.3,0,0,1-1.126.3,8.454,8.454,0,0,1-1.338.12q-4.5,0-4.5-4.744v-9.232H17.622v-1.133l2.223-.977.991-3.313H22.2v3.6h4.5v1.827H22.2V-4.56a3.142,3.142,0,0,0,.666,2.152A2.316,2.316,0,0,0,24.688-1.657ZM36.469.283a7.13,7.13,0,0,1-5.43-2.1,8.113,8.113,0,0,1-1.99-5.82A9,9,0,0,1,30.9-13.594,6.138,6.138,0,0,1,35.861-15.8a5.853,5.853,0,0,1,4.616,1.919,7.354,7.354,0,0,1,1.7,5.062v1.487H31.485a6.152,6.152,0,0,0,1.381,4.149A4.775,4.775,0,0,0,36.554-1.77,12.5,12.5,0,0,0,41.51-2.818v2.1A12.439,12.439,0,0,1,39.153.05,13.249,13.249,0,0,1,36.469.283Zm-.637-14.118a3.839,3.839,0,0,0-2.981,1.218,5.613,5.613,0,0,0-1.31,3.37h8.114a5.168,5.168,0,0,0-.991-3.406A3.489,3.489,0,0,0,35.832-13.834Z" transform="translate(1092.461 601.625)"/>
      <path id="Trazado_20474" data-name="Trazado 20474" d="M-10.861,0l-2.577-6.584h-8.3L-24.285,0H-26.72l8.185-20.787h2.025L-8.369,0Zm-3.328-8.751L-16.6-15.166q-.467-1.218-.963-2.988a26.829,26.829,0,0,1-.892,2.988l-2.436,6.415ZM-3.526,0H-5.876V-22.033h2.351Zm10-1.657a7.678,7.678,0,0,0,1.2-.092A7.791,7.791,0,0,0,8.6-1.94v1.8a4.3,4.3,0,0,1-1.126.3,8.454,8.454,0,0,1-1.338.12q-4.5,0-4.5-4.744v-9.232H-.595v-1.133L1.628-15.8l.991-3.313H3.979v3.6h4.5v1.827h-4.5V-4.56a3.142,3.142,0,0,0,.666,2.152A2.316,2.316,0,0,0,6.471-1.657ZM25.092-7.774A8.561,8.561,0,0,1,23.18-1.848,6.732,6.732,0,0,1,17.9.283a7,7,0,0,1-3.7-.977A6.448,6.448,0,0,1,11.71-3.5a9.771,9.771,0,0,1-.878-4.276,8.548,8.548,0,0,1,1.9-5.912A6.711,6.711,0,0,1,18-15.8a6.565,6.565,0,0,1,5.176,2.167A8.524,8.524,0,0,1,25.092-7.774Zm-11.824,0a7.366,7.366,0,0,0,1.189,4.531,4.129,4.129,0,0,0,3.5,1.558,4.156,4.156,0,0,0,3.5-1.551,7.329,7.329,0,0,0,1.2-4.538,7.211,7.211,0,0,0-1.2-4.5,4.2,4.2,0,0,0-3.533-1.536,4.137,4.137,0,0,0-3.483,1.515A7.292,7.292,0,0,0,13.268-7.774Z" transform="translate(968.41 237.104) rotate(-90)"/>
      <path id="Trazado_20481" data-name="Trazado 20481" d="M-16.091-10.913q0,5.3-2.878,8.108T-27.253,0h-5.933V-21.416h6.563q5,0,7.764,2.769T-16.091-10.913Zm-2.637.088q0-4.189-2.1-6.313t-6.248-2.124H-30.7V-2.153h3.032q4.453,0,6.694-2.19T-18.728-10.825ZM-4.9.293a7.376,7.376,0,0,1-5.618-2.168A8.393,8.393,0,0,1-12.576-7.9a9.308,9.308,0,0,1,1.912-6.167A6.35,6.35,0,0,1-5.53-16.348,6.055,6.055,0,0,1-.754-14.363,7.607,7.607,0,0,1,1-9.126v1.538h-11.06A6.364,6.364,0,0,0-8.628-3.3,4.94,4.94,0,0,0-4.812-1.831,12.931,12.931,0,0,0,.315-2.915V-.747a12.868,12.868,0,0,1-2.439.8A13.706,13.706,0,0,1-4.9.293Zm-.659-14.6a3.971,3.971,0,0,0-3.083,1.26A5.807,5.807,0,0,0-10-9.565H-1.6a5.346,5.346,0,0,0-1.025-3.523A3.609,3.609,0,0,0-5.559-14.312Zm-1.8-4.233q.7-.908,1.516-2.2a25.146,25.146,0,0,0,1.282-2.241H-1.6v.308a21.654,21.654,0,0,1-1.919,2.344,21.786,21.786,0,0,1-2.212,2.153H-7.361Zm19.98,2.227a5.969,5.969,0,0,1,4.915,2.161,9.484,9.484,0,0,1,1.75,6.116A9.553,9.553,0,0,1,17.52-1.9a5.944,5.944,0,0,1-4.9,2.19A6.948,6.948,0,0,1,9.756-.286a5.386,5.386,0,0,1-2.175-1.78H7.4L6.892,0H5.149V-22.793H7.581v5.537q0,1.86-.117,3.34h.117A5.772,5.772,0,0,1,12.62-16.318Zm-.352,2.036a4.246,4.246,0,0,0-3.589,1.428q-1.1,1.428-1.1,4.812T8.708-3.2a4.29,4.29,0,0,0,3.618,1.458,3.75,3.75,0,0,0,3.34-1.633,8.4,8.4,0,0,0,1.1-4.695,8.067,8.067,0,0,0-1.1-4.673A3.893,3.893,0,0,0,12.268-14.282ZM25.964,0H23.533V-16.055h2.432ZM23.328-20.405a1.615,1.615,0,0,1,.41-1.223,1.433,1.433,0,0,1,1.025-.388,1.433,1.433,0,0,1,1.011.4,1.586,1.586,0,0,1,.425,1.216,1.611,1.611,0,0,1-.425,1.223,1.419,1.419,0,0,1-1.011.4,1.4,1.4,0,0,1-1.025-.4A1.645,1.645,0,0,1,23.328-20.405ZM33.552,0H31.121V-22.793h2.432Z" transform="translate(1311.536 602.625)"/>
      <path id="Trazado_20475" data-name="Trazado 20475" d="M-27.971-21.416h6.05q4.263,0,6.167,1.274a4.5,4.5,0,0,1,1.9,4.028,4.655,4.655,0,0,1-1.062,3.142,5.113,5.113,0,0,1-3.1,1.6v.146q4.878.835,4.878,5.127a5.506,5.506,0,0,1-1.941,4.482A8.261,8.261,0,0,1-20.5,0h-7.471Zm2.49,9.17h4.1a6.677,6.677,0,0,0,3.794-.828,3.2,3.2,0,0,0,1.157-2.791,2.824,2.824,0,0,0-1.289-2.6,8.055,8.055,0,0,0-4.1-.8h-3.662Zm0,2.109v8.013h4.468a6.364,6.364,0,0,0,3.9-1A3.7,3.7,0,0,0-15.8-6.27a3.327,3.327,0,0,0-1.34-2.93,7.164,7.164,0,0,0-4.08-.937ZM.974,0,.491-2.285H.374a6.756,6.756,0,0,1-2.4,2.043A7.3,7.3,0,0,1-5,.293,5.362,5.362,0,0,1-8.745-.937a4.488,4.488,0,0,1-1.355-3.5q0-4.863,7.778-5.1L.4-9.624v-1A4.07,4.07,0,0,0-.41-13.411a3.344,3.344,0,0,0-2.6-.9,10.594,10.594,0,0,0-4.541,1.23l-.747-1.86a11.426,11.426,0,0,1,2.6-1.011,11.261,11.261,0,0,1,2.834-.366,6.116,6.116,0,0,1,4.255,1.274,5.32,5.32,0,0,1,1.384,4.087V0ZM-4.519-1.714A4.936,4.936,0,0,0-.952-2.959a4.606,4.606,0,0,0,1.3-3.486V-7.9l-2.432.1a8.845,8.845,0,0,0-4.182.9A2.716,2.716,0,0,0-7.551-4.409a2.505,2.505,0,0,0,.8,2.007A3.314,3.314,0,0,0-4.519-1.714ZM5.837,7.207a5.853,5.853,0,0,1-2.256-.366V4.863a7.132,7.132,0,0,0,1.992.293,2.094,2.094,0,0,0,1.677-.623,2.856,2.856,0,0,0,.535-1.9V-16.055h2.432V2.461Q10.217,7.207,5.837,7.207ZM7.581-20.405a1.615,1.615,0,0,1,.41-1.223,1.433,1.433,0,0,1,1.025-.388,1.433,1.433,0,0,1,1.011.4,1.586,1.586,0,0,1,.425,1.216,1.611,1.611,0,0,1-.425,1.223,1.419,1.419,0,0,1-1.011.4,1.4,1.4,0,0,1-1.025-.4A1.645,1.645,0,0,1,7.581-20.405ZM29.231-8.042a8.857,8.857,0,0,1-1.978,6.13A6.965,6.965,0,0,1,21.79.293,7.237,7.237,0,0,1,17.966-.718a6.671,6.671,0,0,1-2.578-2.9,10.108,10.108,0,0,1-.908-4.424,8.843,8.843,0,0,1,1.963-6.116,6.942,6.942,0,0,1,5.449-2.19,6.792,6.792,0,0,1,5.354,2.241A8.818,8.818,0,0,1,29.231-8.042ZM17-8.042a7.62,7.62,0,0,0,1.23,4.688,4.271,4.271,0,0,0,3.618,1.611,4.3,4.3,0,0,0,3.625-1.6,7.581,7.581,0,0,0,1.238-4.695,7.459,7.459,0,0,0-1.238-4.651,4.349,4.349,0,0,0-3.655-1.589,4.28,4.28,0,0,0-3.6,1.567A7.543,7.543,0,0,0,17-8.042Z" transform="translate(969.41 453.705) rotate(-90)"/>
      <path id="Trazado_20478" data-name="Trazado 20478" d="M-76.3-6.425h.847a2.82,2.82,0,0,0,1.776-.469,1.641,1.641,0,0,0,.589-1.365A1.683,1.683,0,0,0-73.586-9.6a2.314,2.314,0,0,0-1.548-.432H-76.3Zm5.811-1.926a3.709,3.709,0,0,1-1.224,3A5.236,5.236,0,0,1-75.2-4.316h-1.1V0h-2.573V-12.136H-75a5.156,5.156,0,0,1,3.358.95A3.466,3.466,0,0,1-70.494-8.351Zm7.271-1.1a4.083,4.083,0,0,1,.855.075l-.191,2.374a2.9,2.9,0,0,0-.747-.083,2.685,2.685,0,0,0-1.888.623,2.25,2.25,0,0,0-.677,1.743V0H-68.4V-9.28h1.917l.374,1.561h.125a3.489,3.489,0,0,1,1.166-1.258A2.876,2.876,0,0,1-63.223-9.455Zm4.217,4.8a3.9,3.9,0,0,0,.452,2.083,1.618,1.618,0,0,0,1.473.706,1.592,1.592,0,0,0,1.457-.7,3.951,3.951,0,0,0,.444-2.088,3.833,3.833,0,0,0-.448-2.067A1.621,1.621,0,0,0-57.1-7.413a1.616,1.616,0,0,0-1.461.685A3.83,3.83,0,0,0-59.006-4.657Zm6.417,0a4.987,4.987,0,0,1-1.2,3.544A4.334,4.334,0,0,1-57.114.166a4.656,4.656,0,0,1-2.357-.585A3.894,3.894,0,0,1-61.04-2.1a5.648,5.648,0,0,1-.548-2.557A4.96,4.96,0,0,1-60.4-8.193a4.359,4.359,0,0,1,3.337-1.262,4.683,4.683,0,0,1,2.357.581,3.878,3.878,0,0,1,1.569,1.668A5.6,5.6,0,0,1-52.59-4.657Zm5.03,4.823A3.014,3.014,0,0,1-50.128-1.1a5.839,5.839,0,0,1-.934-3.52,5.844,5.844,0,0,1,.95-3.557,3.087,3.087,0,0,1,2.619-1.274A3.027,3.027,0,0,1-44.82-8.093h.083a10.35,10.35,0,0,1-.191-1.851v-2.972h2.54V0H-44.33l-.49-1.2h-.108A2.9,2.9,0,0,1-47.559.166Zm.888-2.017a1.716,1.716,0,0,0,1.424-.564,3.283,3.283,0,0,0,.494-1.917v-.274a3.8,3.8,0,0,0-.461-2.142,1.711,1.711,0,0,0-1.5-.647,1.486,1.486,0,0,0-1.316.718A3.831,3.831,0,0,0-48.5-4.59a3.63,3.63,0,0,0,.473,2.054A1.546,1.546,0,0,0-46.671-1.851ZM-33.166,0l-.34-1.187h-.133a2.671,2.671,0,0,1-1.154,1,3.939,3.939,0,0,1-1.7.353A3.24,3.24,0,0,1-38.96-.71a3.524,3.524,0,0,1-.83-2.519V-9.28h2.532v5.42A2.6,2.6,0,0,0-36.9-2.353a1.3,1.3,0,0,0,1.137.5,1.71,1.71,0,0,0,1.536-.71,4.4,4.4,0,0,0,.473-2.353V-9.28h2.532V0ZM-24.8.166q-4.333,0-4.333-4.756a5.073,5.073,0,0,1,1.179-3.615,4.422,4.422,0,0,1,3.378-1.249,6.441,6.441,0,0,1,2.889.631l-.747,1.959q-.6-.241-1.112-.394a3.584,3.584,0,0,0-1.029-.154q-1.976,0-1.976,2.806,0,2.723,1.976,2.723a4.5,4.5,0,0,0,1.353-.2,4.885,4.885,0,0,0,1.245-.61V-.523a4.08,4.08,0,0,1-1.241.54A6.979,6.979,0,0,1-24.8.166Zm8.882-2.017a5.488,5.488,0,0,0,1.594-.291V-.257a5.682,5.682,0,0,1-2.324.423A2.845,2.845,0,0,1-18.859-.6a3.342,3.342,0,0,1-.693-2.3V-7.379h-1.212V-8.45L-19.37-9.3l.73-1.959h1.619V-9.28h2.6v1.9h-2.6v4.474a.988.988,0,0,0,.3.8A1.2,1.2,0,0,0-15.917-1.851Zm5.487-2.806a3.9,3.9,0,0,0,.452,2.083A1.618,1.618,0,0,0-8.5-1.868a1.592,1.592,0,0,0,1.457-.7A3.951,3.951,0,0,0-6.6-4.657a3.833,3.833,0,0,0-.448-2.067,1.621,1.621,0,0,0-1.469-.689,1.616,1.616,0,0,0-1.461.685A3.83,3.83,0,0,0-10.43-4.657Zm6.417,0a4.987,4.987,0,0,1-1.2,3.544A4.334,4.334,0,0,1-8.537.166a4.656,4.656,0,0,1-2.357-.585A3.894,3.894,0,0,1-12.464-2.1a5.648,5.648,0,0,1-.548-2.557,4.96,4.96,0,0,1,1.187-3.536A4.359,4.359,0,0,1-8.488-9.455a4.683,4.683,0,0,1,2.357.581A3.878,3.878,0,0,1-4.561-7.205,5.6,5.6,0,0,1-4.013-4.657Zm6.4-7.022q0-1.237,1.378-1.237t1.378,1.237a1.206,1.206,0,0,1-.344.917,1.448,1.448,0,0,1-1.033.328Q2.386-10.434,2.386-11.679ZM5.026,0H2.494V-9.28H5.026ZM16.249,0H13.717V-5.42a2.6,2.6,0,0,0-.357-1.507,1.3,1.3,0,0,0-1.137-.5,1.71,1.71,0,0,0-1.536.71,4.4,4.4,0,0,0-.473,2.353V0H7.682V-9.28H9.616l.34,1.187H10.1A2.675,2.675,0,0,1,11.264-9.11a3.971,3.971,0,0,1,1.689-.344,3.245,3.245,0,0,1,2.457.876,3.514,3.514,0,0,1,.838,2.528Zm6.375.166q-4.333,0-4.333-4.756a5.073,5.073,0,0,1,1.179-3.615,4.422,4.422,0,0,1,3.378-1.249,6.441,6.441,0,0,1,2.889.631L24.99-6.865q-.6-.241-1.112-.394a3.584,3.584,0,0,0-1.029-.154q-1.976,0-1.976,2.806,0,2.723,1.976,2.723a4.5,4.5,0,0,0,1.353-.2,4.885,4.885,0,0,0,1.245-.61V-.523a4.08,4.08,0,0,1-1.241.54A6.979,6.979,0,0,1,22.624.166Zm6.989-4.823a3.9,3.9,0,0,0,.452,2.083,1.618,1.618,0,0,0,1.473.706A1.592,1.592,0,0,0,33-2.569a3.951,3.951,0,0,0,.444-2.088,3.833,3.833,0,0,0-.448-2.067,1.621,1.621,0,0,0-1.469-.689,1.616,1.616,0,0,0-1.461.685A3.83,3.83,0,0,0,29.613-4.657Zm6.417,0a4.987,4.987,0,0,1-1.2,3.544A4.334,4.334,0,0,1,31.506.166a4.656,4.656,0,0,1-2.357-.585A3.894,3.894,0,0,1,27.579-2.1a5.648,5.648,0,0,1-.548-2.557,4.96,4.96,0,0,1,1.187-3.536,4.359,4.359,0,0,1,3.337-1.262,4.683,4.683,0,0,1,2.357.581,3.878,3.878,0,0,1,1.569,1.668A5.6,5.6,0,0,1,36.03-4.657ZM30.144-10.3v-.224a23.37,23.37,0,0,0,1.951-2.5h2.839v.174q-.432.432-1.473,1.282T31.829-10.3ZM46.2-9.28v1.287l-1.453.374a2.532,2.532,0,0,1,.4,1.395A2.815,2.815,0,0,1,44.1-3.9a4.512,4.512,0,0,1-2.893.834l-.457-.025-.374-.042a.842.842,0,0,0-.39.664q0,.548,1.395.548h1.577a3.6,3.6,0,0,1,2.328.656,2.344,2.344,0,0,1,.8,1.926,2.856,2.856,0,0,1-1.357,2.523,7.068,7.068,0,0,1-3.9.9,5.4,5.4,0,0,1-2.968-.677,2.148,2.148,0,0,1-1.025-1.9,1.986,1.986,0,0,1,.523-1.4A2.969,2.969,0,0,1,38.9-.7a1.694,1.694,0,0,1-.681-.544,1.292,1.292,0,0,1-.291-.8,1.3,1.3,0,0,1,.307-.884,3.551,3.551,0,0,1,.888-.693,2.491,2.491,0,0,1-1.158-1.013,3.082,3.082,0,0,1-.427-1.644,2.9,2.9,0,0,1,.988-2.349,4.271,4.271,0,0,1,2.822-.83,7.223,7.223,0,0,1,.926.071q.535.071.685.1ZM39.034,1.312a.918.918,0,0,0,.5.822,2.763,2.763,0,0,0,1.407.3,4.984,4.984,0,0,0,2.133-.374,1.138,1.138,0,0,0,.772-1.021.723.723,0,0,0-.457-.722,3.739,3.739,0,0,0-1.411-.2H40.67A1.986,1.986,0,0,0,39.5.444,1.011,1.011,0,0,0,39.034,1.312Zm.921-7.554a1.89,1.89,0,0,0,.344,1.2,1.251,1.251,0,0,0,1.05.44,1.225,1.225,0,0,0,1.046-.44,1.94,1.94,0,0,0,.332-1.2q0-1.677-1.378-1.677Q39.956-7.919,39.956-6.242ZM56.292,0H53.76V-5.42A2.6,2.6,0,0,0,53.4-6.927a1.3,1.3,0,0,0-1.137-.5,1.71,1.71,0,0,0-1.536.71,4.4,4.4,0,0,0-.473,2.353V0H47.725V-9.28h1.934L50-8.093h.141A2.675,2.675,0,0,1,51.307-9.11,3.971,3.971,0,0,1,53-9.455a3.245,3.245,0,0,1,2.457.876,3.514,3.514,0,0,1,.838,2.528Zm2.5-11.679q0-1.237,1.378-1.237t1.378,1.237a1.206,1.206,0,0,1-.344.917,1.448,1.448,0,0,1-1.033.328Q58.79-10.434,58.79-11.679ZM61.43,0H58.9V-9.28H61.43ZM68-1.851a5.488,5.488,0,0,0,1.594-.291V-.257a5.682,5.682,0,0,1-2.324.423A2.845,2.845,0,0,1,65.053-.6a3.342,3.342,0,0,1-.693-2.3V-7.379H63.148V-8.45L64.543-9.3l.73-1.959h1.619V-9.28h2.6v1.9h-2.6v4.474a.988.988,0,0,0,.3.8A1.2,1.2,0,0,0,68-1.851ZM77.359,0l-.49-1.262H76.8A3.739,3.739,0,0,1,75.487-.145a4.252,4.252,0,0,1-1.764.311,2.852,2.852,0,0,1-2.1-.764,2.933,2.933,0,0,1-.768-2.175,2.449,2.449,0,0,1,1.033-2.179A5.988,5.988,0,0,1,75-5.728l1.61-.05v-.407A1.262,1.262,0,0,0,75.168-7.6a6.582,6.582,0,0,0-2.615.672l-.838-1.71a7.544,7.544,0,0,1,3.553-.838,4.425,4.425,0,0,1,2.864.813,3.006,3.006,0,0,1,1,2.474V0Zm-.747-4.3-.979.033a3.137,3.137,0,0,0-1.644.4,1.251,1.251,0,0,0-.54,1.112q0,1.071,1.229,1.071a1.946,1.946,0,0,0,1.407-.506,1.779,1.779,0,0,0,.527-1.345Z" transform="translate(1309.518 183.082)" fill="#fff"/>
      <path id="Trazado_20476" data-name="Trazado 20476" d="M-56.159-6.425h.847a2.82,2.82,0,0,0,1.776-.469,1.641,1.641,0,0,0,.589-1.365A1.683,1.683,0,0,0-53.44-9.6a2.314,2.314,0,0,0-1.548-.432h-1.17Zm5.811-1.926a3.709,3.709,0,0,1-1.224,3,5.236,5.236,0,0,1-3.482,1.038h-1.1V0h-2.573V-12.136h3.876a5.156,5.156,0,0,1,3.358.95A3.466,3.466,0,0,1-50.348-8.351Zm7.271-1.1a4.083,4.083,0,0,1,.855.075l-.191,2.374a2.9,2.9,0,0,0-.747-.083,2.685,2.685,0,0,0-1.888.623,2.25,2.25,0,0,0-.677,1.743V0h-2.532V-9.28h1.917l.374,1.561h.125a3.489,3.489,0,0,1,1.166-1.258A2.876,2.876,0,0,1-43.077-9.455Zm4.217,4.8a3.9,3.9,0,0,0,.452,2.083,1.618,1.618,0,0,0,1.473.706,1.592,1.592,0,0,0,1.457-.7,3.951,3.951,0,0,0,.444-2.088,3.833,3.833,0,0,0-.448-2.067,1.621,1.621,0,0,0-1.469-.689,1.616,1.616,0,0,0-1.461.685A3.83,3.83,0,0,0-38.86-4.657Zm6.417,0a4.987,4.987,0,0,1-1.2,3.544A4.334,4.334,0,0,1-36.968.166a4.656,4.656,0,0,1-2.357-.585A3.894,3.894,0,0,1-40.894-2.1a5.648,5.648,0,0,1-.548-2.557,4.96,4.96,0,0,1,1.187-3.536,4.359,4.359,0,0,1,3.337-1.262,4.683,4.683,0,0,1,2.357.581,3.878,3.878,0,0,1,1.569,1.668A5.6,5.6,0,0,1-32.444-4.657Zm5.03,4.823A3.014,3.014,0,0,1-29.982-1.1a5.839,5.839,0,0,1-.934-3.52,5.844,5.844,0,0,1,.95-3.557,3.087,3.087,0,0,1,2.619-1.274,3.027,3.027,0,0,1,2.673,1.361h.083a10.35,10.35,0,0,1-.191-1.851v-2.972h2.54V0h-1.942l-.49-1.2h-.108A2.9,2.9,0,0,1-27.413.166Zm.888-2.017A1.716,1.716,0,0,0-25.1-2.416a3.283,3.283,0,0,0,.494-1.917v-.274a3.8,3.8,0,0,0-.461-2.142,1.711,1.711,0,0,0-1.5-.647,1.486,1.486,0,0,0-1.316.718,3.831,3.831,0,0,0-.469,2.088,3.63,3.63,0,0,0,.473,2.054A1.546,1.546,0,0,0-26.525-1.851ZM-13.02,0l-.34-1.187h-.133a2.671,2.671,0,0,1-1.154,1,3.939,3.939,0,0,1-1.7.353A3.24,3.24,0,0,1-18.814-.71a3.524,3.524,0,0,1-.83-2.519V-9.28h2.532v5.42a2.6,2.6,0,0,0,.357,1.507,1.3,1.3,0,0,0,1.137.5,1.71,1.71,0,0,0,1.536-.71,4.4,4.4,0,0,0,.473-2.353V-9.28h2.532V0Zm8.367.166q-4.333,0-4.333-4.756A5.073,5.073,0,0,1-7.807-8.205,4.422,4.422,0,0,1-4.428-9.455a6.441,6.441,0,0,1,2.889.631l-.747,1.959q-.6-.241-1.112-.394a3.584,3.584,0,0,0-1.029-.154Q-6.4-7.413-6.4-4.607q0,2.723,1.976,2.723a4.5,4.5,0,0,0,1.353-.2,4.885,4.885,0,0,0,1.245-.61V-.523a4.08,4.08,0,0,1-1.241.54A6.979,6.979,0,0,1-4.653.166ZM4.229-1.851a5.488,5.488,0,0,0,1.594-.291V-.257A5.682,5.682,0,0,1,3.5.166,2.845,2.845,0,0,1,1.287-.6a3.342,3.342,0,0,1-.693-2.3V-7.379H-.618V-8.45L.776-9.3l.73-1.959H3.125V-9.28h2.6v1.9h-2.6v4.474a.988.988,0,0,0,.3.8A1.2,1.2,0,0,0,4.229-1.851ZM9.716-4.657a3.9,3.9,0,0,0,.452,2.083,1.618,1.618,0,0,0,1.473.706,1.592,1.592,0,0,0,1.457-.7,3.951,3.951,0,0,0,.444-2.088,3.833,3.833,0,0,0-.448-2.067,1.621,1.621,0,0,0-1.469-.689,1.616,1.616,0,0,0-1.461.685A3.83,3.83,0,0,0,9.716-4.657Zm6.417,0a4.987,4.987,0,0,1-1.2,3.544A4.334,4.334,0,0,1,11.609.166,4.656,4.656,0,0,1,9.251-.419,3.894,3.894,0,0,1,7.682-2.1a5.648,5.648,0,0,1-.548-2.557A4.96,4.96,0,0,1,8.322-8.193a4.359,4.359,0,0,1,3.337-1.262,4.683,4.683,0,0,1,2.357.581,3.878,3.878,0,0,1,1.569,1.668A5.6,5.6,0,0,1,16.133-4.657ZM24.848,0,21.312-9.28H23.96l1.793,5.288a9.435,9.435,0,0,1,.374,1.9h.05a8.266,8.266,0,0,1,.374-1.9L28.335-9.28h2.648L27.447,0ZM38.2,0l-.49-1.262h-.066A3.739,3.739,0,0,1,36.333-.145a4.252,4.252,0,0,1-1.764.311,2.852,2.852,0,0,1-2.1-.764A2.933,2.933,0,0,1,31.7-2.772,2.449,2.449,0,0,1,32.73-4.951a5.988,5.988,0,0,1,3.117-.776l1.61-.05v-.407A1.262,1.262,0,0,0,36.013-7.6a6.582,6.582,0,0,0-2.615.672l-.838-1.71a7.544,7.544,0,0,1,3.553-.838,4.425,4.425,0,0,1,2.864.813,3.006,3.006,0,0,1,1,2.474V0Zm-.747-4.3-.979.033a3.137,3.137,0,0,0-1.644.4,1.251,1.251,0,0,0-.54,1.112q0,1.071,1.229,1.071a1.946,1.946,0,0,0,1.407-.506,1.779,1.779,0,0,0,.527-1.345ZM46.347.166q-4.333,0-4.333-4.756a5.073,5.073,0,0,1,1.179-3.615,4.422,4.422,0,0,1,3.378-1.249,6.441,6.441,0,0,1,2.889.631l-.747,1.959q-.6-.241-1.112-.394a3.584,3.584,0,0,0-1.029-.154q-1.976,0-1.976,2.806,0,2.723,1.976,2.723a4.5,4.5,0,0,0,1.353-.2,4.885,4.885,0,0,0,1.245-.61V-.523a4.08,4.08,0,0,1-1.241.54A6.979,6.979,0,0,1,46.347.166ZM57.213,0l-.49-1.262h-.066A3.739,3.739,0,0,1,55.341-.145a4.252,4.252,0,0,1-1.764.311,2.852,2.852,0,0,1-2.1-.764,2.933,2.933,0,0,1-.768-2.175,2.449,2.449,0,0,1,1.033-2.179,5.988,5.988,0,0,1,3.117-.776l1.61-.05v-.407A1.262,1.262,0,0,0,55.022-7.6a6.582,6.582,0,0,0-2.615.672l-.838-1.71a7.544,7.544,0,0,1,3.553-.838,4.425,4.425,0,0,1,2.864.813,3.006,3.006,0,0,1,1,2.474V0Zm-.747-4.3-.979.033a3.137,3.137,0,0,0-1.644.4,1.251,1.251,0,0,0-.54,1.112q0,1.071,1.229,1.071a1.946,1.946,0,0,0,1.407-.506,1.779,1.779,0,0,0,.527-1.345Z" transform="translate(1091.049 403.207)" fill="#fff"/>
      <path id="Trazado_20479" data-name="Trazado 20479" d="M-59.9-6.425h.847a2.82,2.82,0,0,0,1.776-.469,1.641,1.641,0,0,0,.589-1.365A1.683,1.683,0,0,0-57.18-9.6a2.314,2.314,0,0,0-1.548-.432H-59.9Zm5.811-1.926a3.709,3.709,0,0,1-1.224,3,5.236,5.236,0,0,1-3.482,1.038h-1.1V0h-2.573V-12.136H-58.6a5.156,5.156,0,0,1,3.358.95A3.466,3.466,0,0,1-54.088-8.351Zm7.271-1.1a4.083,4.083,0,0,1,.855.075l-.191,2.374a2.9,2.9,0,0,0-.747-.083,2.685,2.685,0,0,0-1.888.623,2.25,2.25,0,0,0-.677,1.743V0H-52V-9.28h1.917l.374,1.561h.125a3.489,3.489,0,0,1,1.166-1.258A2.876,2.876,0,0,1-46.816-9.455Zm4.217,4.8a3.9,3.9,0,0,0,.452,2.083,1.618,1.618,0,0,0,1.473.706,1.592,1.592,0,0,0,1.457-.7,3.951,3.951,0,0,0,.444-2.088,3.833,3.833,0,0,0-.448-2.067,1.621,1.621,0,0,0-1.469-.689,1.616,1.616,0,0,0-1.461.685A3.83,3.83,0,0,0-42.6-4.657Zm6.417,0a4.987,4.987,0,0,1-1.2,3.544A4.334,4.334,0,0,1-40.707.166a4.656,4.656,0,0,1-2.357-.585A3.894,3.894,0,0,1-44.633-2.1a5.648,5.648,0,0,1-.548-2.557,4.96,4.96,0,0,1,1.187-3.536,4.359,4.359,0,0,1,3.337-1.262,4.683,4.683,0,0,1,2.357.581,3.878,3.878,0,0,1,1.569,1.668A5.6,5.6,0,0,1-36.183-4.657Zm5.03,4.823A3.014,3.014,0,0,1-33.722-1.1a5.839,5.839,0,0,1-.934-3.52,5.844,5.844,0,0,1,.95-3.557,3.087,3.087,0,0,1,2.619-1.274,3.027,3.027,0,0,1,2.673,1.361h.083a10.35,10.35,0,0,1-.191-1.851v-2.972h2.54V0h-1.942l-.49-1.2h-.108A2.9,2.9,0,0,1-31.153.166Zm.888-2.017a1.716,1.716,0,0,0,1.424-.564,3.283,3.283,0,0,0,.494-1.917v-.274a3.8,3.8,0,0,0-.461-2.142,1.711,1.711,0,0,0-1.5-.647,1.486,1.486,0,0,0-1.316.718,3.831,3.831,0,0,0-.469,2.088,3.63,3.63,0,0,0,.473,2.054A1.546,1.546,0,0,0-30.265-1.851ZM-16.759,0l-.34-1.187h-.133a2.671,2.671,0,0,1-1.154,1,3.939,3.939,0,0,1-1.7.353A3.24,3.24,0,0,1-22.553-.71a3.524,3.524,0,0,1-.83-2.519V-9.28h2.532v5.42a2.6,2.6,0,0,0,.357,1.507,1.3,1.3,0,0,0,1.137.5,1.71,1.71,0,0,0,1.536-.71,4.4,4.4,0,0,0,.473-2.353V-9.28h2.532V0Zm8.367.166q-4.333,0-4.333-4.756a5.073,5.073,0,0,1,1.179-3.615A4.422,4.422,0,0,1-8.168-9.455a6.441,6.441,0,0,1,2.889.631l-.747,1.959q-.6-.241-1.112-.394a3.584,3.584,0,0,0-1.029-.154q-1.976,0-1.976,2.806,0,2.723,1.976,2.723a4.5,4.5,0,0,0,1.353-.2,4.885,4.885,0,0,0,1.245-.61V-.523a4.08,4.08,0,0,1-1.241.54A6.979,6.979,0,0,1-8.392.166ZM.49-1.851a5.488,5.488,0,0,0,1.594-.291V-.257A5.682,5.682,0,0,1-.241.166,2.845,2.845,0,0,1-2.453-.6a3.342,3.342,0,0,1-.693-2.3V-7.379H-4.358V-8.45L-2.963-9.3l.73-1.959H-.614V-9.28h2.6v1.9h-2.6v4.474a.988.988,0,0,0,.3.8A1.2,1.2,0,0,0,.49-1.851ZM5.977-4.657a3.9,3.9,0,0,0,.452,2.083A1.618,1.618,0,0,0,7.9-1.868a1.592,1.592,0,0,0,1.457-.7A3.951,3.951,0,0,0,9.8-4.657a3.833,3.833,0,0,0-.448-2.067,1.621,1.621,0,0,0-1.469-.689,1.616,1.616,0,0,0-1.461.685A3.83,3.83,0,0,0,5.977-4.657Zm6.417,0a4.987,4.987,0,0,1-1.2,3.544A4.334,4.334,0,0,1,7.869.166,4.656,4.656,0,0,1,5.512-.419,3.894,3.894,0,0,1,3.943-2.1,5.648,5.648,0,0,1,3.4-4.657,4.96,4.96,0,0,1,4.582-8.193,4.359,4.359,0,0,1,7.919-9.455a4.683,4.683,0,0,1,2.357.581,3.878,3.878,0,0,1,1.569,1.668A5.6,5.6,0,0,1,12.393-4.657ZM24,.166a3.078,3.078,0,0,1-2.565-1.187H21.3q.133,1.162.133,1.345v3.76H18.9V-9.28h2.059l.357,1.2h.116a2.929,2.929,0,0,1,2.631-1.378,3.011,3.011,0,0,1,2.573,1.27,5.874,5.874,0,0,1,.93,3.528,6.966,6.966,0,0,1-.436,2.582A3.621,3.621,0,0,1,25.89-.407,3.18,3.18,0,0,1,24,.166Zm-.747-7.6a1.6,1.6,0,0,0-1.37.577,3.312,3.312,0,0,0-.448,1.905v.274a3.91,3.91,0,0,0,.444,2.142,1.585,1.585,0,0,0,1.407.647q1.7,0,1.7-2.806a4.006,4.006,0,0,0-.419-2.054A1.431,1.431,0,0,0,23.25-7.429ZM33.5-7.653a1.606,1.606,0,0,0-1.262.51,2.363,2.363,0,0,0-.523,1.448H35.27a2.11,2.11,0,0,0-.49-1.448A1.658,1.658,0,0,0,33.5-7.653ZM33.859.166a4.79,4.79,0,0,1-3.5-1.237,4.683,4.683,0,0,1-1.262-3.5A5.151,5.151,0,0,1,30.26-8.18a4.153,4.153,0,0,1,3.225-1.274,4.088,4.088,0,0,1,3.063,1.121,4.239,4.239,0,0,1,1.1,3.1v1.229H31.659A2.437,2.437,0,0,0,32.3-2.324a2.249,2.249,0,0,0,1.677.606,6.961,6.961,0,0,0,1.585-.174,7.933,7.933,0,0,0,1.561-.556V-.49A5.945,5.945,0,0,1,35.7,0,8.95,8.95,0,0,1,33.859.166ZM44.882-9.455a4.083,4.083,0,0,1,.855.075l-.191,2.374a2.9,2.9,0,0,0-.747-.083,2.685,2.685,0,0,0-1.888.623,2.25,2.25,0,0,0-.677,1.743V0H39.7V-9.28H41.62l.374,1.561h.125a3.489,3.489,0,0,1,1.166-1.258A2.876,2.876,0,0,1,44.882-9.455Zm7.72,0a4.083,4.083,0,0,1,.855.075l-.191,2.374a2.9,2.9,0,0,0-.747-.083,2.685,2.685,0,0,0-1.888.623,2.25,2.25,0,0,0-.677,1.743V0H47.422V-9.28H49.34l.374,1.561h.125A3.489,3.489,0,0,1,51-8.977,2.876,2.876,0,0,1,52.6-9.455Zm4.217,4.8a3.9,3.9,0,0,0,.452,2.083,1.618,1.618,0,0,0,1.473.706,1.592,1.592,0,0,0,1.457-.7,3.951,3.951,0,0,0,.444-2.088A3.833,3.833,0,0,0,60.2-6.724a1.621,1.621,0,0,0-1.469-.689,1.616,1.616,0,0,0-1.461.685A3.83,3.83,0,0,0,56.819-4.657Zm6.417,0a4.987,4.987,0,0,1-1.2,3.544A4.334,4.334,0,0,1,58.711.166a4.656,4.656,0,0,1-2.357-.585A3.894,3.894,0,0,1,54.785-2.1a5.648,5.648,0,0,1-.548-2.557,4.96,4.96,0,0,1,1.187-3.536,4.359,4.359,0,0,1,3.337-1.262,4.683,4.683,0,0,1,2.357.581,3.878,3.878,0,0,1,1.569,1.668A5.6,5.6,0,0,1,63.235-4.657Z" transform="translate(1309.687 407.415)"/>
      <path id="Trazado_20482" data-name="Trazado 20482" d="M-194.228-10.96h1.444a4.81,4.81,0,0,0,3.03-.8,2.8,2.8,0,0,0,1.005-2.329,2.871,2.871,0,0,0-.843-2.28,3.948,3.948,0,0,0-2.641-.736h-2Zm9.912-3.285A6.327,6.327,0,0,1-186.4-9.133a8.933,8.933,0,0,1-5.94,1.77h-1.883V0h-4.39V-20.7H-192a8.8,8.8,0,0,1,5.728,1.621A5.912,5.912,0,0,1-184.316-14.245ZM-170.694,0l-.835-2.152h-.113a6.379,6.379,0,0,1-2.244,1.9A7.253,7.253,0,0,1-176.9.283a4.866,4.866,0,0,1-3.59-1.3,5,5,0,0,1-1.31-3.71,4.178,4.178,0,0,1,1.763-3.717,10.215,10.215,0,0,1,5.317-1.324l2.747-.085v-.694a2.153,2.153,0,0,0-2.464-2.407,11.228,11.228,0,0,0-4.46,1.147l-1.43-2.917a12.87,12.87,0,0,1,6.061-1.43,7.549,7.549,0,0,1,4.885,1.388,5.128,5.128,0,0,1,1.7,4.22V0Zm-1.274-7.335-1.671.057a5.351,5.351,0,0,0-2.8.68,2.135,2.135,0,0,0-.92,1.9q0,1.827,2.1,1.827a3.319,3.319,0,0,0,2.4-.864,3.034,3.034,0,0,0,.9-2.294Zm17.573-8.793a6.965,6.965,0,0,1,1.458.127l-.326,4.05a4.948,4.948,0,0,0-1.274-.142,4.58,4.58,0,0,0-3.221,1.062,3.839,3.839,0,0,0-1.154,2.974V0h-4.319V-15.831h3.271l.637,2.662h.212a5.951,5.951,0,0,1,1.99-2.145A4.906,4.906,0,0,1-154.4-16.128Zm11,12.971a9.362,9.362,0,0,0,2.719-.5V-.439a9.694,9.694,0,0,1-3.965.722,4.853,4.853,0,0,1-3.774-1.31,5.7,5.7,0,0,1-1.182-3.929v-7.632h-2.067v-1.827l2.379-1.444,1.246-3.342h2.761v3.37h4.432v3.243h-4.432v7.632a1.686,1.686,0,0,0,.517,1.359A2.039,2.039,0,0,0-143.393-3.158Zm5.735-16.766q0-2.11,2.351-2.11t2.351,2.11a2.057,2.057,0,0,1-.588,1.565,2.47,2.47,0,0,1-1.763.559Q-137.658-17.8-137.658-19.923ZM-133.155,0h-4.319V-15.831h4.319Zm10.96.283q-7.392,0-7.392-8.114A8.655,8.655,0,0,1-127.576-14a7.543,7.543,0,0,1,5.763-2.131,10.987,10.987,0,0,1,4.928,1.076l-1.274,3.342q-1.02-.411-1.9-.673a6.114,6.114,0,0,0-1.756-.262q-3.37,0-3.37,4.786,0,4.645,3.37,4.645a7.684,7.684,0,0,0,2.308-.333,8.334,8.334,0,0,0,2.124-1.041v3.7a6.961,6.961,0,0,1-2.117.92A11.9,11.9,0,0,1-122.2.283Zm8.3-20.207q0-2.11,2.351-2.11t2.351,2.11a2.057,2.057,0,0,1-.588,1.565,2.47,2.47,0,0,1-1.763.559Q-113.9-17.8-113.9-19.923ZM-109.394,0h-4.319V-15.831h4.319Zm13.226.283a5.25,5.25,0,0,1-4.375-2.025h-.227q.227,1.982.227,2.294V6.967h-4.319v-22.8h3.512l.609,2.053h.2a5,5,0,0,1,4.489-2.351,5.137,5.137,0,0,1,4.39,2.167A10.02,10.02,0,0,1-90.08-7.944a11.883,11.883,0,0,1-.743,4.4A6.177,6.177,0,0,1-92.94-.694,5.425,5.425,0,0,1-96.169.283Zm-1.274-12.957a2.727,2.727,0,0,0-2.336.984,5.65,5.65,0,0,0-.765,3.25v.467a6.67,6.67,0,0,0,.758,3.653,2.7,2.7,0,0,0,2.4,1.1q2.9,0,2.9-4.786a6.835,6.835,0,0,0-.715-3.5A2.441,2.441,0,0,0-97.443-12.673ZM-76.458,0l-.835-2.152h-.113a6.379,6.379,0,0,1-2.244,1.9A7.253,7.253,0,0,1-82.66.283a4.866,4.866,0,0,1-3.59-1.3,5,5,0,0,1-1.31-3.71A4.178,4.178,0,0,1-85.8-8.447a10.215,10.215,0,0,1,5.317-1.324l2.747-.085v-.694A2.153,2.153,0,0,0-80.2-12.957a11.228,11.228,0,0,0-4.46,1.147l-1.43-2.917a12.87,12.87,0,0,1,6.061-1.43,7.549,7.549,0,0,1,4.885,1.388,5.128,5.128,0,0,1,1.7,4.22V0Zm-1.274-7.335-1.671.057a5.351,5.351,0,0,0-2.8.68,2.135,2.135,0,0,0-.92,1.9q0,1.827,2.1,1.827a3.319,3.319,0,0,0,2.4-.864,3.034,3.034,0,0,0,.9-2.294ZM-62.567.283q-7.392,0-7.392-8.114A8.655,8.655,0,0,1-67.948-14a7.543,7.543,0,0,1,5.763-2.131,10.987,10.987,0,0,1,4.928,1.076l-1.274,3.342q-1.02-.411-1.9-.673a6.114,6.114,0,0,0-1.756-.262q-3.37,0-3.37,4.786,0,4.645,3.37,4.645a7.684,7.684,0,0,0,2.308-.333,8.334,8.334,0,0,0,2.124-1.041v3.7a6.961,6.961,0,0,1-2.117.92A11.9,11.9,0,0,1-62.567.283Zm8.3-20.207q0-2.11,2.351-2.11t2.351,2.11a2.057,2.057,0,0,1-.588,1.565,2.47,2.47,0,0,1-1.763.559Q-54.269-17.8-54.269-19.923ZM-49.766,0h-4.319V-15.831h4.319Zm7.972-7.944a6.645,6.645,0,0,0,.772,3.554,2.76,2.76,0,0,0,2.513,1.2,2.716,2.716,0,0,0,2.485-1.2,6.74,6.74,0,0,0,.758-3.561,6.539,6.539,0,0,0-.765-3.526,2.765,2.765,0,0,0-2.506-1.175,2.756,2.756,0,0,0-2.492,1.168A6.533,6.533,0,0,0-41.794-7.944Zm10.946,0A8.507,8.507,0,0,1-32.887-1.9,7.393,7.393,0,0,1-38.565.283a7.943,7.943,0,0,1-4.021-1,6.643,6.643,0,0,1-2.676-2.867A9.635,9.635,0,0,1-46.2-7.944a8.46,8.46,0,0,1,2.025-6.032,7.436,7.436,0,0,1,5.692-2.152,7.988,7.988,0,0,1,4.021.991,6.616,6.616,0,0,1,2.676,2.846A9.546,9.546,0,0,1-30.848-7.944Zm-10.04-9.629v-.382a39.867,39.867,0,0,0,3.328-4.262h4.843v.3q-.736.736-2.513,2.188t-2.782,2.159ZM-12.666,0h-4.319V-9.247a4.441,4.441,0,0,0-.609-2.57,2.215,2.215,0,0,0-1.94-.857,2.917,2.917,0,0,0-2.62,1.211,7.509,7.509,0,0,0-.807,4.014V0H-27.28V-15.831h3.3l.581,2.025h.241a4.564,4.564,0,0,1,1.99-1.735,6.775,6.775,0,0,1,2.882-.588A5.536,5.536,0,0,1-14.1-14.635a6,6,0,0,1,1.43,4.312ZM5.869-13.056a2.739,2.739,0,0,0-2.152.871,4.03,4.03,0,0,0-.892,2.471H8.885a3.6,3.6,0,0,0-.835-2.471A2.829,2.829,0,0,0,5.869-13.056ZM6.478.283A8.171,8.171,0,0,1,.5-1.827,7.989,7.989,0,0,1-1.65-7.8,8.786,8.786,0,0,1,.34-13.955a7.084,7.084,0,0,1,5.5-2.174,6.973,6.973,0,0,1,5.225,1.912,7.232,7.232,0,0,1,1.869,5.282v2.1H2.726a4.157,4.157,0,0,0,1.09,2.875,3.836,3.836,0,0,0,2.86,1.034,11.874,11.874,0,0,0,2.7-.3,13.533,13.533,0,0,0,2.662-.949V-.835A10.141,10.141,0,0,1,9.622.007,15.267,15.267,0,0,1,6.478.283ZM31.06,0H26.741V-9.247a4.441,4.441,0,0,0-.609-2.57,2.215,2.215,0,0,0-1.94-.857,2.917,2.917,0,0,0-2.62,1.211,7.509,7.509,0,0,0-.807,4.014V0H16.447V-15.831h3.3l.581,2.025h.241a4.564,4.564,0,0,1,1.99-1.735,6.775,6.775,0,0,1,2.882-.588,5.536,5.536,0,0,1,4.191,1.494,6,6,0,0,1,1.43,4.312ZM49.6-13.056a2.739,2.739,0,0,0-2.152.871,4.03,4.03,0,0,0-.892,2.471h6.061a3.6,3.6,0,0,0-.835-2.471A2.829,2.829,0,0,0,49.6-13.056ZM50.2.283a8.171,8.171,0,0,1-5.976-2.11A7.989,7.989,0,0,1,42.077-7.8a8.786,8.786,0,0,1,1.99-6.153,7.084,7.084,0,0,1,5.5-2.174,6.973,6.973,0,0,1,5.225,1.912,7.232,7.232,0,0,1,1.869,5.282v2.1H46.452a4.157,4.157,0,0,0,1.09,2.875A3.836,3.836,0,0,0,50.4-2.931a11.874,11.874,0,0,0,2.7-.3,13.533,13.533,0,0,0,2.662-.949V-.835a10.141,10.141,0,0,1-2.421.843A15.267,15.267,0,0,1,50.2.283ZM64.492,0H60.174V-22.033h4.319ZM90.731,0H86.412V-9.247a4.658,4.658,0,0,0-.573-2.57,2.017,2.017,0,0,0-1.805-.857,2.615,2.615,0,0,0-2.407,1.218,7.988,7.988,0,0,0-.75,4.007V0H76.557V-15.831h3.3l.581,2.025h.241a4.388,4.388,0,0,1,1.841-1.706,5.977,5.977,0,0,1,2.761-.616q3.554,0,4.814,2.322h.382a4.277,4.277,0,0,1,1.876-1.713,6.257,6.257,0,0,1,2.8-.609,5.52,5.52,0,0,1,4.071,1.381,6.063,6.063,0,0,1,1.381,4.425V0H96.268V-9.247a4.658,4.658,0,0,0-.573-2.57,2.017,2.017,0,0,0-1.805-.857,2.694,2.694,0,0,0-2.372,1.133,6.428,6.428,0,0,0-.786,3.6Zm20.858-13.056a2.739,2.739,0,0,0-2.152.871,4.031,4.031,0,0,0-.892,2.471h6.061a3.6,3.6,0,0,0-.835-2.471A2.829,2.829,0,0,0,111.589-13.056ZM112.2.283a8.171,8.171,0,0,1-5.976-2.11A7.989,7.989,0,0,1,104.07-7.8a8.786,8.786,0,0,1,1.99-6.153,7.084,7.084,0,0,1,5.5-2.174,6.973,6.973,0,0,1,5.225,1.912,7.232,7.232,0,0,1,1.869,5.282v2.1H108.446a4.157,4.157,0,0,0,1.09,2.875,3.836,3.836,0,0,0,2.86,1.034,11.874,11.874,0,0,0,2.7-.3,13.533,13.533,0,0,0,2.662-.949V-.835a10.141,10.141,0,0,1-2.421.843A15.267,15.267,0,0,1,112.2.283ZM131-16.128a6.965,6.965,0,0,1,1.458.127l-.326,4.05a4.948,4.948,0,0,0-1.274-.142,4.58,4.58,0,0,0-3.221,1.062,3.839,3.839,0,0,0-1.154,2.974V0h-4.319V-15.831h3.271l.637,2.662h.212a5.951,5.951,0,0,1,1.99-2.145A4.906,4.906,0,0,1,131-16.128ZM141.184.283q-7.392,0-7.392-8.114A8.655,8.655,0,0,1,135.8-14a7.543,7.543,0,0,1,5.763-2.131,10.987,10.987,0,0,1,4.928,1.076l-1.274,3.342q-1.02-.411-1.9-.673a6.114,6.114,0,0,0-1.756-.262q-3.37,0-3.37,4.786,0,4.645,3.37,4.645a7.684,7.684,0,0,0,2.308-.333A8.334,8.334,0,0,0,146-4.588v3.7a6.961,6.961,0,0,1-2.117.92A11.9,11.9,0,0,1,141.184.283ZM159.719,0l-.835-2.152h-.113a6.379,6.379,0,0,1-2.244,1.9,7.253,7.253,0,0,1-3.009.531,4.866,4.866,0,0,1-3.59-1.3,5,5,0,0,1-1.31-3.71,4.178,4.178,0,0,1,1.763-3.717A10.215,10.215,0,0,1,155.7-9.771l2.747-.085v-.694a2.153,2.153,0,0,0-2.464-2.407,11.228,11.228,0,0,0-4.46,1.147l-1.43-2.917a12.87,12.87,0,0,1,6.061-1.43,7.549,7.549,0,0,1,4.885,1.388,5.128,5.128,0,0,1,1.7,4.22V0Zm-1.274-7.335-1.671.057a5.351,5.351,0,0,0-2.8.68,2.135,2.135,0,0,0-.92,1.9q0,1.827,2.1,1.827a3.319,3.319,0,0,0,2.4-.864,3.034,3.034,0,0,0,.9-2.294ZM172.195.283a5.142,5.142,0,0,1-4.383-2.167,9.96,9.96,0,0,1-1.593-6,9.97,9.97,0,0,1,1.621-6.068,5.266,5.266,0,0,1,4.468-2.174,5.164,5.164,0,0,1,4.56,2.322h.142a17.657,17.657,0,0,1-.326-3.158v-5.069h4.333V0H177.7l-.835-2.053h-.184A4.942,4.942,0,0,1,172.195.283Zm1.515-3.441a2.927,2.927,0,0,0,2.428-.963,5.6,5.6,0,0,0,.843-3.271v-.467a6.473,6.473,0,0,0-.786-3.653,2.919,2.919,0,0,0-2.556-1.1,2.535,2.535,0,0,0-2.244,1.225,6.535,6.535,0,0,0-.8,3.561,6.193,6.193,0,0,0,.807,3.5A2.637,2.637,0,0,0,173.71-3.158Zm15.265-4.786a6.645,6.645,0,0,0,.772,3.554,2.76,2.76,0,0,0,2.513,1.2,2.716,2.716,0,0,0,2.485-1.2,6.74,6.74,0,0,0,.758-3.561,6.539,6.539,0,0,0-.765-3.526,2.765,2.765,0,0,0-2.506-1.175,2.756,2.756,0,0,0-2.492,1.168A6.533,6.533,0,0,0,188.974-7.944Zm10.946,0A8.507,8.507,0,0,1,197.881-1.9,7.393,7.393,0,0,1,192.2.283a7.943,7.943,0,0,1-4.021-1,6.643,6.643,0,0,1-2.676-2.867,9.635,9.635,0,0,1-.935-4.361,8.46,8.46,0,0,1,2.025-6.032,7.436,7.436,0,0,1,5.692-2.152,7.988,7.988,0,0,1,4.021.991,6.616,6.616,0,0,1,2.676,2.846A9.546,9.546,0,0,1,199.92-7.944Z" transform="translate(1195.716 676.243)"/>
      <path id="Trazado_20473" data-name="Trazado 20473" d="M-184.769-17.346a4.473,4.473,0,0,0-3.837,1.862,8.663,8.663,0,0,0-1.359,5.19q0,6.924,5.2,6.924a16.428,16.428,0,0,0,5.282-1.09V-.779A14.668,14.668,0,0,1-185.179.283a8.682,8.682,0,0,1-6.91-2.74q-2.393-2.74-2.393-7.866a12.845,12.845,0,0,1,1.175-5.657A8.494,8.494,0,0,1-189.93-19.7a9.991,9.991,0,0,1,5.161-1.3,13.93,13.93,0,0,1,6.061,1.458l-1.416,3.568a23.441,23.441,0,0,0-2.336-.963A6.97,6.97,0,0,0-184.769-17.346Zm18.182,1.218a6.965,6.965,0,0,1,1.458.127l-.326,4.05a4.948,4.948,0,0,0-1.274-.142,4.58,4.58,0,0,0-3.221,1.062A3.839,3.839,0,0,0-171.1-8.057V0h-4.319V-15.831h3.271l.637,2.662h.212a5.951,5.951,0,0,1,1.99-2.145A4.906,4.906,0,0,1-166.587-16.128Zm10.309,3.073a2.739,2.739,0,0,0-2.152.871,4.03,4.03,0,0,0-.892,2.471h6.061a3.6,3.6,0,0,0-.835-2.471A2.829,2.829,0,0,0-156.279-13.056ZM-155.67.283a8.171,8.171,0,0,1-5.976-2.11A7.989,7.989,0,0,1-163.8-7.8a8.786,8.786,0,0,1,1.99-6.153,7.084,7.084,0,0,1,5.5-2.174,6.973,6.973,0,0,1,5.225,1.912,7.232,7.232,0,0,1,1.869,5.282v2.1h-10.209a4.157,4.157,0,0,0,1.09,2.875,3.836,3.836,0,0,0,2.86,1.034,11.874,11.874,0,0,0,2.7-.3,13.533,13.533,0,0,0,2.662-.949V-.835a10.141,10.141,0,0,1-2.421.843A15.267,15.267,0,0,1-155.67.283Zm16.4,0q-7.392,0-7.392-8.114A8.655,8.655,0,0,1-144.653-14a7.543,7.543,0,0,1,5.763-2.131,10.987,10.987,0,0,1,4.928,1.076l-1.274,3.342q-1.02-.411-1.9-.673a6.114,6.114,0,0,0-1.756-.262q-3.37,0-3.37,4.786,0,4.645,3.37,4.645a7.684,7.684,0,0,0,2.308-.333,8.334,8.334,0,0,0,2.124-1.041v3.7a6.961,6.961,0,0,1-2.117.92A11.9,11.9,0,0,1-139.272.283Zm8.3-20.207q0-2.11,2.351-2.11t2.351,2.11a2.057,2.057,0,0,1-.588,1.565,2.47,2.47,0,0,1-1.763.559Q-130.974-17.8-130.974-19.923ZM-126.471,0h-4.319V-15.831h4.319Zm18.706,0h-4.319V-9.247a4.658,4.658,0,0,0-.573-2.57,2.017,2.017,0,0,0-1.805-.857,2.615,2.615,0,0,0-2.407,1.218,7.988,7.988,0,0,0-.75,4.007V0h-4.319V-15.831h3.3l.581,2.025h.241a4.388,4.388,0,0,1,1.841-1.706,5.977,5.977,0,0,1,2.761-.616q3.554,0,4.814,2.322h.382a4.277,4.277,0,0,1,1.876-1.713,6.257,6.257,0,0,1,2.8-.609,5.52,5.52,0,0,1,4.071,1.381A6.063,6.063,0,0,1-97.9-10.323V0h-4.333V-9.247a4.658,4.658,0,0,0-.573-2.57,2.017,2.017,0,0,0-1.805-.857,2.694,2.694,0,0,0-2.372,1.133,6.428,6.428,0,0,0-.786,3.6Zm14.118-19.923q0-2.11,2.351-2.11t2.351,2.11a2.057,2.057,0,0,1-.588,1.565A2.47,2.47,0,0,1-91.3-17.8Q-93.648-17.8-93.648-19.923ZM-89.145,0h-4.319V-15.831h4.319Zm11.087-13.056a2.739,2.739,0,0,0-2.152.871A4.031,4.031,0,0,0-81.1-9.714h6.061a3.6,3.6,0,0,0-.835-2.471A2.829,2.829,0,0,0-78.058-13.056ZM-77.449.283a8.171,8.171,0,0,1-5.976-2.11A7.989,7.989,0,0,1-85.577-7.8a8.786,8.786,0,0,1,1.99-6.153,7.084,7.084,0,0,1,5.5-2.174,6.973,6.973,0,0,1,5.225,1.912,7.232,7.232,0,0,1,1.869,5.282v2.1H-81.2a4.157,4.157,0,0,0,1.09,2.875,3.836,3.836,0,0,0,2.86,1.034,11.874,11.874,0,0,0,2.7-.3,13.533,13.533,0,0,0,2.662-.949V-.835a10.141,10.141,0,0,1-2.421.843A15.267,15.267,0,0,1-77.449.283ZM-52.867,0h-4.319V-9.247a4.441,4.441,0,0,0-.609-2.57,2.215,2.215,0,0,0-1.94-.857,2.917,2.917,0,0,0-2.62,1.211,7.509,7.509,0,0,0-.807,4.014V0H-67.48V-15.831h3.3l.581,2.025h.241a4.564,4.564,0,0,1,1.99-1.735,6.775,6.775,0,0,1,2.882-.588A5.536,5.536,0,0,1-54.3-14.635a6,6,0,0,1,1.43,4.312Zm11.116-3.158a9.362,9.362,0,0,0,2.719-.5V-.439A9.694,9.694,0,0,1-43,.283a4.853,4.853,0,0,1-3.774-1.31,5.7,5.7,0,0,1-1.182-3.929v-7.632h-2.067v-1.827l2.379-1.444L-46.4-19.2h2.761v3.37H-39.2v3.243h-4.432v7.632A1.686,1.686,0,0,0-43.118-3.6,2.039,2.039,0,0,0-41.751-3.158Zm9.36-4.786A6.645,6.645,0,0,0-31.62-4.39a2.76,2.76,0,0,0,2.513,1.2,2.716,2.716,0,0,0,2.485-1.2,6.74,6.74,0,0,0,.758-3.561,6.539,6.539,0,0,0-.765-3.526,2.765,2.765,0,0,0-2.506-1.175,2.756,2.756,0,0,0-2.492,1.168A6.533,6.533,0,0,0-32.391-7.944Zm10.946,0A8.507,8.507,0,0,1-23.485-1.9,7.393,7.393,0,0,1-29.163.283a7.943,7.943,0,0,1-4.021-1,6.643,6.643,0,0,1-2.676-2.867A9.635,9.635,0,0,1-36.8-7.944a8.46,8.46,0,0,1,2.025-6.032,7.436,7.436,0,0,1,5.692-2.152,7.988,7.988,0,0,1,4.021.991,6.616,6.616,0,0,1,2.676,2.846A9.546,9.546,0,0,1-21.446-7.944ZM-5.331.283A5.142,5.142,0,0,1-9.714-1.883a9.96,9.96,0,0,1-1.593-6,9.97,9.97,0,0,1,1.621-6.068,5.266,5.266,0,0,1,4.468-2.174,5.164,5.164,0,0,1,4.56,2.322h.142a17.656,17.656,0,0,1-.326-3.158v-5.069H3.49V0H.177L-.658-2.053H-.843A4.942,4.942,0,0,1-5.331.283Zm1.515-3.441a2.927,2.927,0,0,0,2.428-.963A5.6,5.6,0,0,0-.545-7.392v-.467a6.473,6.473,0,0,0-.786-3.653,2.919,2.919,0,0,0-2.556-1.1,2.535,2.535,0,0,0-2.244,1.225,6.535,6.535,0,0,0-.8,3.561,6.193,6.193,0,0,0,.807,3.5A2.637,2.637,0,0,0-3.816-3.158Zm18.38-9.9a2.739,2.739,0,0,0-2.152.871,4.03,4.03,0,0,0-.892,2.471H17.58a3.6,3.6,0,0,0-.835-2.471A2.829,2.829,0,0,0,14.564-13.056ZM15.173.283A8.171,8.171,0,0,1,9.2-1.827,7.989,7.989,0,0,1,7.045-7.8a8.786,8.786,0,0,1,1.99-6.153,7.084,7.084,0,0,1,5.5-2.174,6.973,6.973,0,0,1,5.225,1.912A7.232,7.232,0,0,1,21.63-8.935v2.1H11.42a4.157,4.157,0,0,0,1.09,2.875,3.836,3.836,0,0,0,2.86,1.034,11.874,11.874,0,0,0,2.7-.3,13.533,13.533,0,0,0,2.662-.949V-.835a10.141,10.141,0,0,1-2.421.843A15.267,15.267,0,0,1,15.173.283ZM36.993,0H32.675V-22.033h4.319ZM51.578,0l-.835-2.152H50.63a6.379,6.379,0,0,1-2.244,1.9,7.253,7.253,0,0,1-3.009.531,4.866,4.866,0,0,1-3.59-1.3,5,5,0,0,1-1.31-3.71A4.178,4.178,0,0,1,42.24-8.447a10.215,10.215,0,0,1,5.317-1.324L50.3-9.855v-.694a2.153,2.153,0,0,0-2.464-2.407,11.228,11.228,0,0,0-4.46,1.147l-1.43-2.917a12.87,12.87,0,0,1,6.061-1.43A7.549,7.549,0,0,1,52.9-14.769a5.128,5.128,0,0,1,1.7,4.22V0ZM50.3-7.335l-1.671.057a5.351,5.351,0,0,0-2.8.68,2.135,2.135,0,0,0-.92,1.9q0,1.827,2.1,1.827a3.319,3.319,0,0,0,2.4-.864,3.034,3.034,0,0,0,.9-2.294ZM66.39-19.923q0-2.11,2.351-2.11t2.351,2.11a2.057,2.057,0,0,1-.588,1.565,2.47,2.47,0,0,1-1.763.559Q66.39-17.8,66.39-19.923ZM70.893,0H66.574V-15.831h4.319ZM90.037,0H85.719V-9.247a4.441,4.441,0,0,0-.609-2.57,2.215,2.215,0,0,0-1.94-.857,2.917,2.917,0,0,0-2.62,1.211,7.509,7.509,0,0,0-.807,4.014V0H75.424V-15.831h3.3l.581,2.025h.241a4.564,4.564,0,0,1,1.99-1.735,6.775,6.775,0,0,1,2.882-.588,5.536,5.536,0,0,1,4.191,1.494,6,6,0,0,1,1.43,4.312ZM99.5.283a5.142,5.142,0,0,1-4.383-2.167,9.96,9.96,0,0,1-1.593-6,9.97,9.97,0,0,1,1.621-6.068,5.266,5.266,0,0,1,4.468-2.174,5.164,5.164,0,0,1,4.56,2.322h.142a17.656,17.656,0,0,1-.326-3.158v-5.069h4.333V0H105l-.835-2.053h-.184A4.942,4.942,0,0,1,99.5.283Zm1.515-3.441a2.927,2.927,0,0,0,2.428-.963,5.6,5.6,0,0,0,.843-3.271v-.467a6.473,6.473,0,0,0-.786-3.653,2.919,2.919,0,0,0-2.556-1.1A2.535,2.535,0,0,0,98.7-11.392a6.535,6.535,0,0,0-.8,3.561,6.193,6.193,0,0,0,.807,3.5A2.637,2.637,0,0,0,101.011-3.158ZM124.05,0l-.581-2.025h-.227a4.557,4.557,0,0,1-1.968,1.706,6.72,6.72,0,0,1-2.9.6,5.528,5.528,0,0,1-4.206-1.494,6.011,6.011,0,0,1-1.416-4.3V-15.831h4.319v9.247a4.441,4.441,0,0,0,.609,2.57,2.215,2.215,0,0,0,1.94.857,2.917,2.917,0,0,0,2.62-1.211,7.509,7.509,0,0,0,.807-4.014v-7.448h4.319V0Zm18.89-4.7a4.359,4.359,0,0,1-1.692,3.71A8.361,8.361,0,0,1,136.185.283,15.9,15.9,0,0,1,133.24.05a11.141,11.141,0,0,1-2.28-.687V-4.206a15.056,15.056,0,0,0,2.712.949,10.98,10.98,0,0,0,2.655.382q2.351,0,2.351-1.359a1.135,1.135,0,0,0-.312-.828,4.517,4.517,0,0,0-1.076-.722q-.765-.4-2.039-.942a12.809,12.809,0,0,1-2.683-1.416,3.986,3.986,0,0,1-1.246-1.494,4.931,4.931,0,0,1-.389-2.074,3.761,3.761,0,0,1,1.635-3.264,7.967,7.967,0,0,1,4.637-1.154,13.163,13.163,0,0,1,5.565,1.246l-1.3,3.115q-1.189-.51-2.223-.835a6.981,6.981,0,0,0-2.11-.326q-1.912,0-1.912,1.034a1.215,1.215,0,0,0,.616,1.005,16.751,16.751,0,0,0,2.7,1.26,12.532,12.532,0,0,1,2.719,1.4,4.146,4.146,0,0,1,1.274,1.5A4.612,4.612,0,0,1,142.94-4.7Zm10.04,1.543a9.362,9.362,0,0,0,2.719-.5V-.439a9.694,9.694,0,0,1-3.965.722,4.853,4.853,0,0,1-3.774-1.31,5.7,5.7,0,0,1-1.182-3.929v-7.632H144.71v-1.827l2.379-1.444,1.246-3.342H151.1v3.37h4.432v3.243H151.1v7.632a1.686,1.686,0,0,0,.517,1.359A2.039,2.039,0,0,0,152.979-3.158Zm14.755-12.971a6.965,6.965,0,0,1,1.458.127l-.326,4.05a4.948,4.948,0,0,0-1.274-.142,4.58,4.58,0,0,0-3.221,1.062,3.839,3.839,0,0,0-1.154,2.974V0H158.9V-15.831h3.271l.637,2.662h.212a5.951,5.951,0,0,1,1.99-2.145A4.906,4.906,0,0,1,167.734-16.128Zm4.149-3.795q0-2.11,2.351-2.11t2.351,2.11A2.057,2.057,0,0,1,176-18.359a2.47,2.47,0,0,1-1.763.559Q171.883-17.8,171.883-19.923ZM176.386,0h-4.319V-15.831h4.319Zm14.585,0-.835-2.152h-.113a6.379,6.379,0,0,1-2.244,1.9,7.253,7.253,0,0,1-3.009.531,4.866,4.866,0,0,1-3.59-1.3,5,5,0,0,1-1.31-3.71,4.178,4.178,0,0,1,1.763-3.717,10.215,10.215,0,0,1,5.317-1.324l2.747-.085v-.694a2.153,2.153,0,0,0-2.464-2.407,11.228,11.228,0,0,0-4.46,1.147l-1.43-2.917a12.87,12.87,0,0,1,6.061-1.43,7.549,7.549,0,0,1,4.885,1.388,5.128,5.128,0,0,1,1.7,4.22V0ZM189.7-7.335l-1.671.057a5.351,5.351,0,0,0-2.8.68,2.135,2.135,0,0,0-.92,1.9q0,1.827,2.1,1.827a3.319,3.319,0,0,0,2.4-.864,3.034,3.034,0,0,0,.9-2.294Zm-306.079,20.5h4.729l2.988,8.907a12.358,12.358,0,0,1,.524,2.747h.085a12.139,12.139,0,0,1,.609-2.747l2.931-8.907h4.63l-6.7,17.856a7.731,7.731,0,0,1-2.627,3.71,6.63,6.63,0,0,1-3.986,1.232,10.024,10.024,0,0,1-2.195-.241V32.3a7.383,7.383,0,0,0,1.7.184,3.069,3.069,0,0,0,2-.7,4.544,4.544,0,0,0,1.338-2.117l.255-.779ZM-88.048,8.3-95.765,29h-3.922L-91.97,8.3ZM-82.2,21.056a6.645,6.645,0,0,0,.772,3.554,2.76,2.76,0,0,0,2.513,1.2,2.716,2.716,0,0,0,2.485-1.2,6.74,6.74,0,0,0,.758-3.561,6.539,6.539,0,0,0-.765-3.526,2.765,2.765,0,0,0-2.506-1.175,2.756,2.756,0,0,0-2.492,1.168A6.533,6.533,0,0,0-82.2,21.056Zm10.946,0A8.507,8.507,0,0,1-73.293,27.1a7.393,7.393,0,0,1-5.678,2.181,7.943,7.943,0,0,1-4.021-1,6.643,6.643,0,0,1-2.676-2.867,9.635,9.635,0,0,1-.935-4.361,8.46,8.46,0,0,1,2.025-6.032,7.436,7.436,0,0,1,5.692-2.152,7.988,7.988,0,0,1,4.021.991,6.616,6.616,0,0,1,2.676,2.846A9.546,9.546,0,0,1-71.254,21.056Zm16.114,8.227a5.142,5.142,0,0,1-4.383-2.167,9.96,9.96,0,0,1-1.593-6,9.97,9.97,0,0,1,1.621-6.068,5.266,5.266,0,0,1,4.468-2.174,5.164,5.164,0,0,1,4.56,2.322h.142a17.656,17.656,0,0,1-.326-3.158V6.967h4.333V29h-3.313l-.835-2.053h-.184A4.942,4.942,0,0,1-55.14,29.283Zm1.515-3.441a2.927,2.927,0,0,0,2.428-.963,5.6,5.6,0,0,0,.843-3.271v-.467a6.473,6.473,0,0,0-.786-3.653,2.919,2.919,0,0,0-2.556-1.1,2.535,2.535,0,0,0-2.244,1.225,6.535,6.535,0,0,0-.8,3.561,6.193,6.193,0,0,0,.807,3.5A2.637,2.637,0,0,0-53.625,25.842Zm18.38-9.9a2.739,2.739,0,0,0-2.152.871,4.03,4.03,0,0,0-.892,2.471h6.061a3.6,3.6,0,0,0-.835-2.471A2.829,2.829,0,0,0-35.245,15.944Zm.609,13.339a8.171,8.171,0,0,1-5.976-2.11A7.989,7.989,0,0,1-42.764,21.2a8.786,8.786,0,0,1,1.99-6.153,7.084,7.084,0,0,1,5.5-2.174,6.973,6.973,0,0,1,5.225,1.912,7.232,7.232,0,0,1,1.869,5.282v2.1H-38.388a4.157,4.157,0,0,0,1.09,2.875,3.836,3.836,0,0,0,2.86,1.034,11.874,11.874,0,0,0,2.7-.3,13.533,13.533,0,0,0,2.662-.949v3.342a10.141,10.141,0,0,1-2.421.843A15.267,15.267,0,0,1-34.636,29.283ZM-20.348,29h-4.319V6.967h4.319ZM5.891,29H1.572V19.753A4.658,4.658,0,0,0,1,17.183a2.017,2.017,0,0,0-1.805-.857,2.615,2.615,0,0,0-2.407,1.218,7.988,7.988,0,0,0-.75,4.007V29H-8.284V13.169h3.3l.581,2.025h.241a4.388,4.388,0,0,1,1.841-1.706,5.977,5.977,0,0,1,2.761-.616q3.554,0,4.814,2.322h.382A4.277,4.277,0,0,1,7.512,13.48a6.257,6.257,0,0,1,2.8-.609,5.52,5.52,0,0,1,4.071,1.381,6.063,6.063,0,0,1,1.381,4.425V29H11.427V19.753a4.658,4.658,0,0,0-.573-2.57,2.017,2.017,0,0,0-1.805-.857,2.693,2.693,0,0,0-2.372,1.133,6.428,6.428,0,0,0-.786,3.6ZM26.749,15.944a2.739,2.739,0,0,0-2.152.871,4.03,4.03,0,0,0-.892,2.471h6.061a3.6,3.6,0,0,0-.835-2.471A2.829,2.829,0,0,0,26.749,15.944Zm.609,13.339a8.171,8.171,0,0,1-5.976-2.11A7.989,7.989,0,0,1,19.229,21.2a8.786,8.786,0,0,1,1.99-6.153,7.084,7.084,0,0,1,5.5-2.174,6.973,6.973,0,0,1,5.225,1.912,7.232,7.232,0,0,1,1.869,5.282v2.1H23.6a4.157,4.157,0,0,0,1.09,2.875,3.836,3.836,0,0,0,2.86,1.034,11.874,11.874,0,0,0,2.7-.3,13.533,13.533,0,0,0,2.662-.949v3.342a10.141,10.141,0,0,1-2.421.843A15.267,15.267,0,0,1,27.357,29.283Zm18.8-16.412A6.965,6.965,0,0,1,47.621,13l-.326,4.05a4.948,4.948,0,0,0-1.274-.142A4.58,4.58,0,0,0,42.8,17.969a3.839,3.839,0,0,0-1.154,2.974V29H37.326V13.169H40.6l.637,2.662h.212a5.951,5.951,0,0,1,1.99-2.145A4.906,4.906,0,0,1,46.162,12.872ZM56.343,29.283q-7.392,0-7.392-8.114A8.655,8.655,0,0,1,50.962,15a7.543,7.543,0,0,1,5.763-2.131,10.987,10.987,0,0,1,4.928,1.076L60.379,17.29q-1.02-.411-1.9-.673a6.114,6.114,0,0,0-1.756-.262q-3.37,0-3.37,4.786,0,4.645,3.37,4.645a7.684,7.684,0,0,0,2.308-.333,8.334,8.334,0,0,0,2.124-1.041v3.7a6.961,6.961,0,0,1-2.117.92A11.9,11.9,0,0,1,56.343,29.283ZM74.879,29l-.835-2.152H73.93a6.379,6.379,0,0,1-2.244,1.9,7.253,7.253,0,0,1-3.009.531,4.866,4.866,0,0,1-3.59-1.3,5,5,0,0,1-1.31-3.71,4.178,4.178,0,0,1,1.763-3.717,10.215,10.215,0,0,1,5.317-1.324l2.747-.085v-.694a2.153,2.153,0,0,0-2.464-2.407,11.228,11.228,0,0,0-4.46,1.147l-1.43-2.917a12.87,12.87,0,0,1,6.061-1.43A7.549,7.549,0,0,1,76.2,14.231a5.128,5.128,0,0,1,1.7,4.22V29ZM73.6,21.665l-1.671.057a5.351,5.351,0,0,0-2.8.68,2.135,2.135,0,0,0-.92,1.9q0,1.827,2.1,1.827a3.319,3.319,0,0,0,2.4-.864,3.034,3.034,0,0,0,.9-2.294Zm13.75,7.618a5.142,5.142,0,0,1-4.383-2.167,9.96,9.96,0,0,1-1.593-6A9.97,9.97,0,0,1,83,15.045a5.266,5.266,0,0,1,4.468-2.174,5.164,5.164,0,0,1,4.56,2.322h.142a17.656,17.656,0,0,1-.326-3.158V6.967h4.333V29H92.862l-.835-2.053h-.184A4.942,4.942,0,0,1,87.354,29.283Zm1.515-3.441a2.927,2.927,0,0,0,2.428-.963,5.6,5.6,0,0,0,.843-3.271v-.467a6.473,6.473,0,0,0-.786-3.653,2.919,2.919,0,0,0-2.556-1.1,2.535,2.535,0,0,0-2.244,1.225,6.535,6.535,0,0,0-.8,3.561,6.193,6.193,0,0,0,.807,3.5A2.637,2.637,0,0,0,88.869,25.842Zm15.265-4.786a6.645,6.645,0,0,0,.772,3.554,2.76,2.76,0,0,0,2.513,1.2,2.716,2.716,0,0,0,2.485-1.2,6.74,6.74,0,0,0,.758-3.561,6.539,6.539,0,0,0-.765-3.526,3.251,3.251,0,0,0-5-.007A6.533,6.533,0,0,0,104.134,21.056Zm10.946,0a8.507,8.507,0,0,1-2.039,6.046,7.393,7.393,0,0,1-5.678,2.181,7.943,7.943,0,0,1-4.021-1,6.643,6.643,0,0,1-2.676-2.867,9.635,9.635,0,0,1-.935-4.361,8.46,8.46,0,0,1,2.025-6.032,7.436,7.436,0,0,1,5.692-2.152,7.988,7.988,0,0,1,4.021.991,6.616,6.616,0,0,1,2.676,2.846A9.546,9.546,0,0,1,115.08,21.056Z" transform="translate(887.567 350.661) rotate(-90)"/>
      <line id="Línea_150" data-name="Línea 150" y1="414.1" transform="translate(932.435 138.127)" fill="none" stroke="#000" stroke-miterlimit="10" stroke-width="2"/>
      <line id="Línea_151" data-name="Línea 151" x2="414.1" transform="translate(994.622 614.414)" fill="none" stroke="#000" stroke-miterlimit="10" stroke-width="2"/>
      <g id="Grupo_12266" data-name="Grupo 12266" transform="translate(1276.367 202.097)">
        <path id="Trazado_16208" data-name="Trazado 16208" d="M1214.952,257.918V251.84a22.6,22.6,0,0,1,2.826-11.7q2.826-4.772,10.038-9.3a37.7,37.7,0,0,0,8.235-6.5,9.861,9.861,0,0,0,2.51-6.645,5.34,5.34,0,0,0-2.686-4.7,12.713,12.713,0,0,0-7-1.733q-10.677,0-24.953,7.563L1194.1,199.6a73.178,73.178,0,0,1,36.757-10.038q15.764,0,24.742,6.929t8.977,18.874a26.95,26.95,0,0,1-3.994,14.809q-3.992,6.257-12.76,11.84-7.421,4.806-9.3,7.033a7.926,7.926,0,0,0-1.874,5.266v3.606Zm-3.041,24.74q0-6.5,3.783-10.038t11.131-3.533q7.069,0,10.852,3.57t3.782,10q0,6.433-3.924,9.967t-10.71,3.536q-7,0-10.955-3.5T1211.911,282.658Z" transform="translate(-1194.098 -189.561)" fill="#fff"/>
      </g>
      <g id="Grupo_12272" data-name="Grupo 12272" transform="translate(1037.193 202.097)">
        <path id="Trazado_16209" data-name="Trazado 16209" d="M1057.839,189.561l17.318,35.091,38.725,5.627-28.022,27.314,6.615,38.568-34.637-18.21-34.636,18.21,6.615-38.568L1001.8,230.279l38.725-5.627Z" transform="translate(-1001.795 -189.561)"/>
        <g id="Grupo_12268" data-name="Grupo 12268" transform="translate(210.965 229.065)">
          <g id="Grupo_12267" data-name="Grupo 12267">
            <path id="Trazado_16210" data-name="Trazado 16210" d="M1211.962,400.252a2.479,2.479,0,0,0-3.387.907c-.761,1.321-4.422,1.787-5.418,1.332a2.478,2.478,0,0,0-2.591,4.225,7.312,7.312,0,0,0,3.8.886,13.321,13.321,0,0,0,3.164-.392,8.288,8.288,0,0,0,5.341-3.572,2.48,2.48,0,0,0-.907-3.385Z" transform="translate(-1164.598 -367.354)"/>
            <path id="Trazado_16211" data-name="Trazado 16211" d="M1289.718,395.867c-12.4-12.287-23.166-22.958-35.376-17.227-4.094-2.817-9.745-4.9-19.478-4.9s-15.383,2.087-19.477,4.9c-12.211-5.73-22.978,4.939-35.376,17.227a28.461,28.461,0,0,0-8.521,22.736,40.946,40.946,0,0,0,5.909,18.1,25.793,25.793,0,0,0,7.909,7.685c3.081,2.163,5.513,3.871,6.487,8.007.958,4.067,3.245,4.668,4.513,4.668a3.641,3.641,0,0,0,.771-.078c4.032-.873,5.872-7.694,6.476-10.587a52.556,52.556,0,0,0,.534-16.238c4.969,3.188,5.572,6.272,5.638,6.777-.073,2.144-.374,4.6-.694,7.2-.79,6.413-1.606,13.044.811,17.193,2.484,4.265,6.082,6.811,9.625,6.811,1.842,0,4.375-.689,6.783-3.625a17.377,17.377,0,0,0,17.222,0c2.408,2.936,4.94,3.625,6.782,3.625,3.543,0,7.141-2.546,9.625-6.811,2.417-4.149,1.6-10.781.811-17.193-.32-2.6-.621-5.053-.694-7.2.067-.5.669-3.589,5.638-6.777a52.55,52.55,0,0,0,.53,16.218c.6,2.9,2.443,9.73,6.479,10.607a3.655,3.655,0,0,0,.772.078c1.27,0,3.557-.6,4.515-4.668.973-4.137,3.406-5.844,6.487-8.007,2.606-1.83,5.56-3.9,7.908-7.686a40.9,40.9,0,0,0,5.909-18.1,28.455,28.455,0,0,0-8.52-22.736Zm-90.845,48.662a20.35,20.35,0,0,1-2.25,6.74l0-.007c-1.406-5.972-4.994-8.491-8.464-10.927-2.433-1.708-4.731-3.321-6.546-6.244-1.291-2.079-12.211-20.727,1.89-34.7,11.937-11.833,19.667-18.963,27.514-17.06-.6.587-1.181,1.182-1.761,1.774-.489.5-.981,1-1.489,1.5-5.725,5.675-13.335,14.4-13.335,24.661,0,.522,0,1.025,0,1.51-.021,6.446-.033,10.632,4.082,14.511a50.612,50.612,0,0,1,.363,18.242Zm30.086,15.841a14.425,14.425,0,0,1,3.211-3.856,2.827,2.827,0,0,1,2.063-.432c.415.01.847.01,1.262,0a2.829,2.829,0,0,1,2.063.432,14.435,14.435,0,0,1,3.211,3.856,12.58,12.58,0,0,1-11.812,0Zm5.905-18.223c-1.976,0-2.257-.349-3.006-1.281a9.637,9.637,0,0,0-2.256-2.177,10.353,10.353,0,0,0-3.178-1.287,5.812,5.812,0,0,1-1.382-.478,1.54,1.54,0,0,1-.091-.665c0-2.591,5-5.231,9.913-5.231s9.914,2.641,9.914,5.231a1.763,1.763,0,0,1-.082.654,5.494,5.494,0,0,1-1.39.489,10.354,10.354,0,0,0-3.178,1.287,9.633,9.633,0,0,0-2.256,2.177c-.749.932-1.03,1.281-3.007,1.281Zm20.737,16.688c-1.515,2.6-3.663,4.349-5.342,4.349-1.7,0-3.128-1.839-4.027-3.383-2.227-3.824-4.028-6.093-5.839-7.354a7.042,7.042,0,0,0-3.05-1.236v-4.343a7.128,7.128,0,0,0,4.392-2.9,5.1,5.1,0,0,1,1.142-1.158,6.344,6.344,0,0,1,1.721-.628c1.8-.485,5.138-1.387,5.138-5.928,0-6.093-7.689-10.187-14.871-10.187s-14.87,4.094-14.87,10.187c0,4.541,3.342,5.443,5.137,5.928a6.333,6.333,0,0,1,1.722.628,5.125,5.125,0,0,1,1.142,1.158,7.127,7.127,0,0,0,4.392,2.9v4.343a7.045,7.045,0,0,0-3.05,1.236c-1.811,1.261-3.612,3.53-5.839,7.354-.9,1.544-2.327,3.383-4.027,3.383-1.68,0-3.827-1.747-5.342-4.349-1.576-2.706-.832-8.756-.174-14.093.325-2.645.662-5.38.734-7.783.185-6.1,4.54-13,11.365-18,3.944-2.889,5.872-8.786,6.443-19.715a2.478,2.478,0,1,0-4.95-.259c-.17,3.275-.693,13.242-4.422,15.975a34.144,34.144,0,0,0-11.887,14.74,23.292,23.292,0,0,0-5.746-4.482c-6.138-3.512-6.132-5.415-6.107-13.425,0-.49,0-1,0-1.525,0-8.4,6.773-16.089,11.869-21.14.529-.525,1.043-1.051,1.542-1.56,4.66-4.762,8.685-8.874,22.066-8.874.742,0,1.451.014,2.137.039.019,2.132.016,4.31.012,6.433-.021,14.854-.042,28.883,6.663,33.795,6.826,5,11.18,11.9,11.364,18,.073,2.4.409,5.137.735,7.782.657,5.337,1.4,11.386-.174,14.093Zm2.892-29.136A34.147,34.147,0,0,0,1246.6,414.96c-4.674-3.423-4.653-17.43-4.635-29.788,0-1.975,0-4-.009-5.994,7.948,1.22,11.26,4.6,14.971,8.389.5.509,1.012,1.035,1.542,1.56,5.094,5.05,11.868,12.736,11.868,21.14,0,.527,0,1.035,0,1.525.019,6.217.025,8.755-2.843,11.222a2.742,2.742,0,0,0-.3.25,22.791,22.791,0,0,1-2.963,1.953A23.251,23.251,0,0,0,1258.492,429.7Zm29.625,4.39c-1.813,2.923-4.112,4.536-6.544,6.244-3.47,2.436-7.058,4.955-8.464,10.927l0,.009a20.367,20.367,0,0,1-2.252-6.758,50.585,50.585,0,0,1,.366-18.223c4.115-3.88,4.1-8.066,4.082-14.512,0-.486,0-.989,0-1.51,0-10.256-7.61-18.986-13.335-24.661-.508-.5-1-1-1.489-1.506-.58-.591-1.162-1.185-1.76-1.774,7.847-1.9,15.58,5.234,27.514,17.062C1300.328,413.364,1289.409,432.011,1288.117,434.091Z" transform="translate(-1171.417 -373.736)"/>
            <path id="Trazado_16212" data-name="Trazado 16212" d="M1244.409,402.49c-1,.456-4.657-.01-5.419-1.331a2.478,2.478,0,1,0-4.292,2.479,8.286,8.286,0,0,0,5.34,3.572,13.322,13.322,0,0,0,3.163.392,7.309,7.309,0,0,0,3.8-.886,2.478,2.478,0,0,0-2.589-4.226Z" transform="translate(-1156.074 -367.354)"/>
            <path id="Trazado_16213" data-name="Trazado 16213" d="M1219.2,383.183h0a2.479,2.479,0,1,0,2.48,2.479A2.478,2.478,0,0,0,1219.2,383.183Z" transform="translate(-1160.376 -371.433)"/>
          </g>
        </g>
        <g id="Grupo_12271" data-name="Grupo 12271" transform="translate(3.165 217.717)">
          <g id="Grupo_12270" data-name="Grupo 12270">
            <g id="Grupo_12269" data-name="Grupo 12269">
              <path id="Trazado_16214" data-name="Trazado 16214" d="M1034.888,428.384a2.2,2.2,0,1,0,0,4.407c.86,0,1.914,1.713,2.314,2.889a2.2,2.2,0,0,0,2.091,1.517,2.175,2.175,0,0,0,.689-.111,2.2,2.2,0,0,0,1.4-2.78C1041.188,433.7,1039.316,428.384,1034.888,428.384Z" transform="translate(-997.431 -349.068)"/>
              <path id="Trazado_16215" data-name="Trazado 16215" d="M1060.551,428.384c-4.428,0-6.3,5.316-6.5,5.923a2.2,2.2,0,1,0,4.183,1.373c.344-1.037,1.408-2.89,2.316-2.89a2.2,2.2,0,1,0,0-4.405Z" transform="translate(-992.25 -349.068)"/>
              <path id="Trazado_16216" data-name="Trazado 16216" d="M1109.726,405.253c-5.647-8.47-12.059-11.869-17.794-13.248,7.551-5.17,8.387-15.027,8.9-21.023a36.655,36.655,0,0,1,.418-3.741,2.205,2.205,0,0,0-4.2-1.267c-4.607,11.075-15.826,15.221-22.289,16.04a27.466,27.466,0,0,0-15.334-4.179h-4.406a27.459,27.459,0,0,0-15.333,4.179c-6.464-.82-17.683-4.965-22.289-16.04a2.205,2.205,0,0,0-4.2,1.267,37.048,37.048,0,0,1,.417,3.741c.509,6,1.344,15.856,8.9,21.025-5.74,1.381-12.155,4.782-17.8,13.246a2.2,2.2,0,0,0,.848,3.193c.358.179,8.52,4.118,20.876,4.555-.021.762-.062,1.5-.062,2.287,0,3.675,1.713,6.352,3.369,8.938,1.665,2.6,3.241,5.063,3.241,8.689v9.062a16.074,16.074,0,0,0-2.2,8.563c0,3.46,1.449,8.879,9.888,10.517.561.587,1.112,1.183,1.641,1.785,3.116,3.526,6.644,7.526,14.911,7.526s11.794-4,14.91-7.526c.529-.6,1.08-1.2,1.64-1.785,8.44-1.638,9.888-7.057,9.888-10.517a16.085,16.085,0,0,0-2.2-8.563v-9.062c0-3.626,1.575-6.084,3.24-8.689,1.657-2.586,3.369-5.262,3.369-8.938,0-.784-.04-1.525-.062-2.287,12.358-.437,20.519-4.375,20.876-4.555a2.2,2.2,0,0,0,.848-3.193Zm-54.711-23.015h4.406c15.345,0,21.387,10.551,23.381,22.262-.561.088-1.123.182-1.693.326-8.878,2.252-15.079,10.6-15.079,20.3v9.995h-17.625V425.12c0-9.7-6.2-18.043-15.079-20.3-.568-.144-1.132-.238-1.693-.326C1033.629,392.788,1039.671,382.237,1055.015,382.237Zm-28.33,26.386a55.149,55.149,0,0,1-16.728-3.127c6.5-8.4,13.587-9.751,19.494-9.977A50.285,50.285,0,0,0,1026.685,408.623Zm-8.074-32.679a34.576,34.576,0,0,0,16.735,9.726,26.679,26.679,0,0,0-3.649,5.03C1022.667,389.43,1019.787,383.4,1018.611,375.944Zm14.841,45.9c-1.433-2.241-2.673-4.178-2.673-6.562,0-2.078.092-4.211.281-6.344.4.065.772.052,1.182.157a14.453,14.453,0,0,1,5.22,2.592,4.237,4.237,0,0,0-2.276,3.6,2.2,2.2,0,0,0,2.2,2.2h4.814a17.32,17.32,0,0,1,1.8,7.632v10.171a17.443,17.443,0,0,0-6.611,2.317v-4.7C1037.389,428,1035.3,424.731,1033.452,421.848Zm23.766,44.112a12.3,12.3,0,0,1-10.211-4.5,10.989,10.989,0,0,0,5.761-2.474c1.4-1.029,2.505-1.842,4.45-1.842s3.051.813,4.449,1.842a10.99,10.99,0,0,0,5.762,2.474A12.3,12.3,0,0,1,1057.219,465.959Zm11.016-8.813c-1.636,0-2.608-.716-3.955-1.705a10.58,10.58,0,0,0-14.123,0c-1.347.989-2.32,1.705-3.955,1.705-7.311,0-11.016-2.224-11.016-6.609,0-3.4.951-6.058,2.823-7.908a12.3,12.3,0,0,1,8.193-3.108h22.071c.052,0,4.961-.041,8.155,3.108,1.872,1.849,2.822,4.509,2.822,7.908C1079.25,454.922,1075.545,457.146,1068.235,457.146Zm12.751-35.3c-1.847,2.883-3.938,6.149-3.938,11.064v4.694a17.256,17.256,0,0,0-6.61-2.313V425.121a17.325,17.325,0,0,1,1.8-7.633h4.815a2.2,2.2,0,0,0,2.2-2.2,4.237,4.237,0,0,0-2.276-3.6,14.444,14.444,0,0,1,5.22-2.592c.409-.1.782-.092,1.182-.157.19,2.133.281,4.266.281,6.344C1083.657,417.669,1082.418,419.605,1080.985,421.848Zm1.755-31.148a26.689,26.689,0,0,0-3.649-5.03,34.585,34.585,0,0,0,16.736-9.726C1094.65,383.4,1091.77,389.43,1082.74,390.7Zm5.011,17.925a50.259,50.259,0,0,0-2.767-13.106c5.9.224,12.993,1.572,19.5,9.982A54.89,54.89,0,0,1,1087.751,408.624Z" transform="translate(-1004.34 -364.611)"/>
            </g>
          </g>
        </g>
      </g>
    </g>
  </g>
</svg>
