<svg xmlns="http://www.w3.org/2000/svg" width="532.823" height="531.352" viewBox="0 0 532.823 531.352">
  <g id="Grupo_13482" data-name="Grupo 13482" transform="translate(-424.33 -1710.33)">
    <g id="Grupo_12256" data-name="Grupo 12256" transform="translate(-745.045 1574.436)">
      <rect id="Rectángulo_2736" data-name="Rectángulo 2736" width="193.687" height="193.687" rx="20" transform="translate(1508.51 260.582)" fill="#cb4f24"/>
      <rect id="Rectángulo_2737" data-name="Rectángulo 2737" width="193.687" height="193.687" rx="20" transform="translate(1294.063 260.582)" fill="#416fb3"/>
      <rect id="Rectángulo_2738" data-name="Rectángulo 2738" width="193.687" height="193.687" rx="20" transform="translate(1294.063 473.559)" fill="#6aa842"/>
      <rect id="Rectángulo_2739" data-name="Rectángulo 2739" width="193.687" height="193.687" rx="20" transform="translate(1508.51 473.559)" fill="#f4e93e"/>
      <path id="Trazado_20469" data-name="Trazado 20469" d="M-51.386-5.291h.7a2.322,2.322,0,0,0,1.463-.386A1.352,1.352,0,0,0-48.74-6.8a1.386,1.386,0,0,0-.407-1.1,1.906,1.906,0,0,0-1.275-.355h-.964ZM-46.6-6.877a3.055,3.055,0,0,1-1.008,2.468,4.312,4.312,0,0,1-2.868.854h-.909V0H-53.5V-9.994h3.192a4.246,4.246,0,0,1,2.765.783A2.854,2.854,0,0,1-46.6-6.877Zm4.888.574a1.322,1.322,0,0,0-1.039.42,1.946,1.946,0,0,0-.431,1.193h2.926a1.738,1.738,0,0,0-.4-1.193A1.366,1.366,0,0,0-41.713-6.3Zm.294,6.439A3.945,3.945,0,0,1-44.3-.882a3.857,3.857,0,0,1-1.039-2.885,4.242,4.242,0,0,1,.96-2.97,3.42,3.42,0,0,1,2.656-1.049,3.366,3.366,0,0,1,2.522.923,3.491,3.491,0,0,1,.9,2.55V-3.3H-43.23A2.007,2.007,0,0,0-42.7-1.914a1.852,1.852,0,0,0,1.381.5,5.732,5.732,0,0,0,1.306-.144,6.533,6.533,0,0,0,1.285-.458V-.4A4.9,4.9,0,0,1-39.9,0,7.37,7.37,0,0,1-41.419.137ZM-29.552,0h-2.085V-4.464A2.144,2.144,0,0,0-31.931-5.7a1.069,1.069,0,0,0-.937-.414,1.408,1.408,0,0,0-1.265.584,3.625,3.625,0,0,0-.39,1.938V0h-2.085V-7.643h1.593l.28.978h.116a2.2,2.2,0,0,1,.96-.837,3.271,3.271,0,0,1,1.391-.284,2.673,2.673,0,0,1,2.023.721,2.894,2.894,0,0,1,.69,2.082Zm5.312-6.3a1.322,1.322,0,0,0-1.039.42,1.946,1.946,0,0,0-.431,1.193h2.926a1.738,1.738,0,0,0-.4-1.193A1.366,1.366,0,0,0-24.24-6.3Zm.294,6.439A3.945,3.945,0,0,1-26.831-.882,3.857,3.857,0,0,1-27.87-3.767a4.242,4.242,0,0,1,.96-2.97,3.42,3.42,0,0,1,2.656-1.049,3.366,3.366,0,0,1,2.522.923,3.491,3.491,0,0,1,.9,2.55V-3.3h-4.929a2.007,2.007,0,0,0,.526,1.388,1.852,1.852,0,0,0,1.381.5,5.732,5.732,0,0,0,1.306-.144,6.533,6.533,0,0,0,1.285-.458V-.4A4.9,4.9,0,0,1-22.429,0,7.37,7.37,0,0,1-23.946.137Zm8.032-1.661A4.52,4.52,0,0,0-14.6-1.764V-.212a4.68,4.68,0,0,1-1.914.349A2.343,2.343,0,0,1-18.337-.5a2.752,2.752,0,0,1-.571-1.9V-6.077h-1v-.882l1.148-.7.6-1.613h1.333v1.627h2.14v1.565h-2.14v3.685a.814.814,0,0,0,.25.656A.984.984,0,0,0-15.914-1.524Zm7.123-6.262a3.362,3.362,0,0,1,.7.062L-8.244-5.77a2.388,2.388,0,0,0-.615-.068,2.211,2.211,0,0,0-1.555.513,1.853,1.853,0,0,0-.557,1.436V0h-2.085V-7.643h1.579l.308,1.285h.1a2.873,2.873,0,0,1,.96-1.036A2.368,2.368,0,0,1-8.791-7.786ZM-2.126,0l-.4-1.039h-.055A3.079,3.079,0,0,1-3.667-.12,3.5,3.5,0,0,1-5.12.137,2.349,2.349,0,0,1-6.853-.492a2.415,2.415,0,0,1-.632-1.791,2.017,2.017,0,0,1,.851-1.794,4.932,4.932,0,0,1,2.567-.639l1.326-.041v-.335A1.039,1.039,0,0,0-3.931-6.255,5.42,5.42,0,0,0-6.084-5.7l-.69-1.408A6.213,6.213,0,0,1-3.849-7.8a3.644,3.644,0,0,1,2.358.67A2.476,2.476,0,0,1-.67-5.093V0Zm-.615-3.541-.807.027A2.583,2.583,0,0,0-4.9-3.186a1.031,1.031,0,0,0-.444.916q0,.882,1.012.882A1.6,1.6,0,0,0-3.175-1.8a1.465,1.465,0,0,0,.434-1.107ZM4.58.137Q1.012.137,1.012-3.78a4.178,4.178,0,0,1,.971-2.977A3.641,3.641,0,0,1,4.765-7.786a5.3,5.3,0,0,1,2.379.52L6.528-5.653q-.492-.2-.916-.325A2.951,2.951,0,0,0,4.765-6.1q-1.627,0-1.627,2.311,0,2.242,1.627,2.242a3.709,3.709,0,0,0,1.114-.161,4.023,4.023,0,0,0,1.025-.5V-.431A3.36,3.36,0,0,1,5.882.014,5.747,5.747,0,0,1,4.58.137ZM8.586-9.618q0-1.019,1.135-1.019t1.135,1.019a.993.993,0,0,1-.284.755,1.192,1.192,0,0,1-.851.27Q8.586-8.593,8.586-9.618ZM10.76,0H8.675V-7.643H10.76Zm3.849-3.835a3.208,3.208,0,0,0,.373,1.716,1.332,1.332,0,0,0,1.213.581,1.311,1.311,0,0,0,1.2-.578,3.254,3.254,0,0,0,.366-1.719,3.157,3.157,0,0,0-.369-1.7,1.335,1.335,0,0,0-1.21-.567,1.33,1.33,0,0,0-1.2.564A3.154,3.154,0,0,0,14.608-3.835Zm5.284,0a4.107,4.107,0,0,1-.984,2.919A3.569,3.569,0,0,1,16.167.137a3.835,3.835,0,0,1-1.941-.482,3.207,3.207,0,0,1-1.292-1.384,4.652,4.652,0,0,1-.451-2.105,4.084,4.084,0,0,1,.978-2.912,3.59,3.59,0,0,1,2.748-1.039,3.856,3.856,0,0,1,1.941.479,3.194,3.194,0,0,1,1.292,1.374A4.608,4.608,0,0,1,19.893-3.835ZM15.046-8.483v-.185a19.246,19.246,0,0,0,1.606-2.058H18.99v.144q-.355.355-1.213,1.056T16.434-8.483ZM28.67,0H26.585V-4.464A2.144,2.144,0,0,0,26.291-5.7a1.069,1.069,0,0,0-.937-.414,1.408,1.408,0,0,0-1.265.584A3.625,3.625,0,0,0,23.7-3.6V0H21.615V-7.643h1.593l.28.978H23.6a2.2,2.2,0,0,1,.96-.837,3.271,3.271,0,0,1,1.391-.284,2.673,2.673,0,0,1,2.023.721,2.894,2.894,0,0,1,.69,2.082Zm8.2.137A2.482,2.482,0,0,1,34.757-.909a4.808,4.808,0,0,1-.769-2.9,4.813,4.813,0,0,1,.783-2.929,2.542,2.542,0,0,1,2.157-1.049,2.493,2.493,0,0,1,2.2,1.121H39.2a8.524,8.524,0,0,1-.157-1.524v-2.447h2.092V0h-1.6l-.4-.991H39.04A2.386,2.386,0,0,1,36.873.137ZM37.6-1.524a1.413,1.413,0,0,0,1.172-.465,2.7,2.7,0,0,0,.407-1.579v-.226A3.125,3.125,0,0,0,38.8-5.558a1.409,1.409,0,0,0-1.234-.533,1.224,1.224,0,0,0-1.083.591A3.155,3.155,0,0,0,36.1-3.78a2.99,2.99,0,0,0,.39,1.692A1.273,1.273,0,0,0,37.6-1.524ZM46.478-6.3a1.322,1.322,0,0,0-1.039.42,1.946,1.946,0,0,0-.431,1.193h2.926a1.738,1.738,0,0,0-.4-1.193A1.366,1.366,0,0,0,46.478-6.3ZM46.771.137A3.945,3.945,0,0,1,43.887-.882a3.857,3.857,0,0,1-1.039-2.885,4.242,4.242,0,0,1,.96-2.97,3.42,3.42,0,0,1,2.656-1.049,3.366,3.366,0,0,1,2.522.923,3.491,3.491,0,0,1,.9,2.55V-3.3H44.96a2.007,2.007,0,0,0,.526,1.388,1.852,1.852,0,0,0,1.381.5,5.732,5.732,0,0,0,1.306-.144,6.533,6.533,0,0,0,1.285-.458V-.4A4.9,4.9,0,0,1,48.289,0,7.37,7.37,0,0,1,46.771.137ZM53.669,0H51.584V-10.637h2.085ZM-22.7,14h-2.085V9.536A2.249,2.249,0,0,0-25.064,8.3a.974.974,0,0,0-.872-.414A1.262,1.262,0,0,0-27.1,8.47,3.856,3.856,0,0,0-27.46,10.4V14h-2.085V6.357h1.593l.28.978h.116a2.118,2.118,0,0,1,.889-.824,2.885,2.885,0,0,1,1.333-.3A2.4,2.4,0,0,1-23.01,7.335h.185a2.065,2.065,0,0,1,.906-.827,3.021,3.021,0,0,1,1.35-.294A2.665,2.665,0,0,1-18.6,6.88a2.927,2.927,0,0,1,.667,2.136V14h-2.092V9.536A2.249,2.249,0,0,0-20.306,8.3a.974.974,0,0,0-.872-.414,1.3,1.3,0,0,0-1.145.547,3.1,3.1,0,0,0-.379,1.736Zm10.069-6.3a1.322,1.322,0,0,0-1.039.42A1.946,1.946,0,0,0-14.1,9.311h2.926a1.738,1.738,0,0,0-.4-1.193A1.366,1.366,0,0,0-12.633,7.7Zm.294,6.439a3.945,3.945,0,0,1-2.885-1.019,3.857,3.857,0,0,1-1.039-2.885,4.242,4.242,0,0,1,.96-2.97,3.42,3.42,0,0,1,2.656-1.049,3.366,3.366,0,0,1,2.522.923,3.491,3.491,0,0,1,.9,2.55V10.7H-14.15a2.007,2.007,0,0,0,.526,1.388,1.852,1.852,0,0,0,1.381.5,5.732,5.732,0,0,0,1.306-.144,6.533,6.533,0,0,0,1.285-.458V13.6A4.9,4.9,0,0,1-10.821,14,7.37,7.37,0,0,1-12.339,14.137Zm9.078-7.923a3.362,3.362,0,0,1,.7.062L-2.714,8.23a2.388,2.388,0,0,0-.615-.068,2.211,2.211,0,0,0-1.555.513,1.853,1.853,0,0,0-.557,1.436V14H-7.526V6.357h1.579l.308,1.285h.1a2.873,2.873,0,0,1,.96-1.036A2.368,2.368,0,0,1-3.261,6.214Zm4.915,7.923q-3.568,0-3.568-3.917A4.178,4.178,0,0,1-.943,7.243,3.641,3.641,0,0,1,1.839,6.214a5.3,5.3,0,0,1,2.379.52L3.6,8.347q-.492-.2-.916-.325A2.951,2.951,0,0,0,1.839,7.9Q.212,7.9.212,10.206q0,2.242,1.627,2.242a3.709,3.709,0,0,0,1.114-.161,4.023,4.023,0,0,0,1.025-.5v1.784a3.36,3.36,0,0,1-1.022.444A5.747,5.747,0,0,1,1.654,14.137ZM10.6,14l-.4-1.039h-.055a3.079,3.079,0,0,1-1.083.919,3.5,3.5,0,0,1-1.453.256,2.349,2.349,0,0,1-1.733-.629,2.415,2.415,0,0,1-.632-1.791,2.017,2.017,0,0,1,.851-1.794,4.932,4.932,0,0,1,2.567-.639l1.326-.041V8.907A1.039,1.039,0,0,0,8.8,7.745,5.42,5.42,0,0,0,6.645,8.3l-.69-1.408A6.213,6.213,0,0,1,8.88,6.2a3.644,3.644,0,0,1,2.358.67,2.476,2.476,0,0,1,.82,2.037V14Zm-.615-3.541-.807.027a2.583,2.583,0,0,0-1.354.328,1.031,1.031,0,0,0-.444.916q0,.882,1.012.882A1.6,1.6,0,0,0,9.553,12.2a1.465,1.465,0,0,0,.434-1.107Zm6.638,3.678a2.482,2.482,0,0,1-2.116-1.046,4.808,4.808,0,0,1-.769-2.9,4.813,4.813,0,0,1,.783-2.929A2.542,2.542,0,0,1,16.68,6.214a2.493,2.493,0,0,1,2.2,1.121h.068a8.524,8.524,0,0,1-.157-1.524V3.363h2.092V14h-1.6l-.4-.991h-.089A2.386,2.386,0,0,1,16.625,14.137Zm.731-1.661a1.413,1.413,0,0,0,1.172-.465,2.7,2.7,0,0,0,.407-1.579v-.226a3.125,3.125,0,0,0-.379-1.764,1.409,1.409,0,0,0-1.234-.533,1.224,1.224,0,0,0-1.083.591,3.155,3.155,0,0,0-.386,1.719,2.99,2.99,0,0,0,.39,1.692A1.273,1.273,0,0,0,17.356,12.476Zm7.369-2.311a3.208,3.208,0,0,0,.373,1.716,1.332,1.332,0,0,0,1.213.581,1.311,1.311,0,0,0,1.2-.578,3.254,3.254,0,0,0,.366-1.719,3.157,3.157,0,0,0-.369-1.7,1.57,1.57,0,0,0-2.413,0A3.154,3.154,0,0,0,24.726,10.165Zm5.284,0a4.107,4.107,0,0,1-.984,2.919,3.569,3.569,0,0,1-2.741,1.053,3.835,3.835,0,0,1-1.941-.482,3.207,3.207,0,0,1-1.292-1.384,4.652,4.652,0,0,1-.451-2.105,4.084,4.084,0,0,1,.978-2.912,3.59,3.59,0,0,1,2.748-1.039,3.856,3.856,0,0,1,1.941.479,3.194,3.194,0,0,1,1.292,1.374A4.608,4.608,0,0,1,30.01,10.165Z" transform="translate(1388.501 353.352)" fill="#fff"/>
      <path id="Trazado_20464" data-name="Trazado 20464" d="M-41.022,0-43.6-6.584h-8.3L-54.446,0h-2.436L-48.7-20.787h2.025L-38.53,0ZM-44.35-8.751l-2.407-6.415q-.467-1.218-.963-2.988a26.83,26.83,0,0,1-.892,2.988l-2.436,6.415ZM-29.835.283a6.624,6.624,0,0,1-5.218-2.074A8.531,8.531,0,0,1-36.9-7.661a8.8,8.8,0,0,1,1.876-6.018A6.755,6.755,0,0,1-29.68-15.8a10.608,10.608,0,0,1,2.237.241A7.37,7.37,0,0,1-25.687-15l-.722,2a11.052,11.052,0,0,0-1.7-.517,7.587,7.587,0,0,0-1.628-.205q-4.729,0-4.729,6.032A7.183,7.183,0,0,0-33.312-3.3a4.015,4.015,0,0,0,3.42,1.529,10.456,10.456,0,0,0,3.979-.835V-.524A8.48,8.48,0,0,1-29.835.283Zm12.617-1.94a7.678,7.678,0,0,0,1.2-.092,7.791,7.791,0,0,0,.92-.191v1.8a4.3,4.3,0,0,1-1.126.3,8.454,8.454,0,0,1-1.338.12q-4.5,0-4.5-4.744v-9.232h-2.223v-1.133l2.223-.977.991-3.313h1.359v3.6h4.5v1.827h-4.5V-4.56a3.142,3.142,0,0,0,.666,2.152A2.316,2.316,0,0,0-17.219-1.657ZM-9.785-15.52V-5.452A4.051,4.051,0,0,0-8.921-2.62a3.519,3.519,0,0,0,2.7.935A4.413,4.413,0,0,0-2.655-3.016,6.715,6.715,0,0,0-1.529-7.363V-15.52H.821V0h-1.94l-.34-2.082h-.127a4.685,4.685,0,0,1-2,1.756A6.734,6.734,0,0,1-6.514.283a5.933,5.933,0,0,1-4.241-1.345,5.726,5.726,0,0,1-1.409-4.3V-15.52ZM15.35,0l-.467-2.209h-.113A6.531,6.531,0,0,1,12.454-.234,7.057,7.057,0,0,1,9.572.283,5.183,5.183,0,0,1,5.954-.906a4.338,4.338,0,0,1-1.31-3.384q0-4.7,7.519-4.928L14.8-9.3v-.963a3.935,3.935,0,0,0-.786-2.7,3.232,3.232,0,0,0-2.513-.871,10.241,10.241,0,0,0-4.39,1.189l-.722-1.8A11.046,11.046,0,0,1,8.9-15.42a10.886,10.886,0,0,1,2.74-.354,5.912,5.912,0,0,1,4.114,1.232,5.142,5.142,0,0,1,1.338,3.951V0ZM10.04-1.657a4.771,4.771,0,0,0,3.448-1.2,4.453,4.453,0,0,0,1.253-3.37v-1.4l-2.351.1a8.55,8.55,0,0,0-4.043.871,2.626,2.626,0,0,0-1.239,2.4,2.422,2.422,0,0,0,.772,1.94A3.2,3.2,0,0,0,10.04-1.657ZM24.285,0H21.934V-22.033h2.351ZM35.825.283a7.13,7.13,0,0,1-5.43-2.1,8.113,8.113,0,0,1-1.99-5.82,9,9,0,0,1,1.848-5.961A6.138,6.138,0,0,1,35.216-15.8a5.853,5.853,0,0,1,4.616,1.919,7.354,7.354,0,0,1,1.7,5.062v1.487H30.841a6.152,6.152,0,0,0,1.381,4.149A4.775,4.775,0,0,0,35.91-1.77a12.5,12.5,0,0,0,4.956-1.048v2.1A12.439,12.439,0,0,1,38.509.05,13.249,13.249,0,0,1,35.825.283Zm-.637-14.118a3.839,3.839,0,0,0-2.981,1.218,5.613,5.613,0,0,0-1.31,3.37h8.114a5.168,5.168,0,0,0-.991-3.406A3.489,3.489,0,0,0,35.188-13.834Zm20.362,9.6A3.887,3.887,0,0,1,53.936-.892,7.588,7.588,0,0,1,49.4.283,9.853,9.853,0,0,1,44.59-.694V-2.875a11.643,11.643,0,0,0,2.4.892,10.023,10.023,0,0,0,2.471.326,5.6,5.6,0,0,0,2.832-.588,1.943,1.943,0,0,0,.991-1.791A1.944,1.944,0,0,0,52.5-5.586a12.362,12.362,0,0,0-3.066-1.522,16.624,16.624,0,0,1-3.08-1.409,4.207,4.207,0,0,1-1.359-1.366,3.564,3.564,0,0,1-.446-1.827,3.482,3.482,0,0,1,1.543-2.995,7.192,7.192,0,0,1,4.234-1.1,12.388,12.388,0,0,1,4.9,1.02l-.835,1.912a11.246,11.246,0,0,0-4.234-.963,4.871,4.871,0,0,0-2.521.524,1.62,1.62,0,0,0-.85,1.444A1.759,1.759,0,0,0,47.1-10.8a3.144,3.144,0,0,0,1.027.835,22.942,22.942,0,0,0,2.719,1.147A10.157,10.157,0,0,1,54.58-6.8,3.571,3.571,0,0,1,55.55-4.234Z" transform="translate(1390.501 235.398)"/>
      <path id="Trazado_20466" data-name="Trazado 20466" d="M-41.022,0-43.6-6.584h-8.3L-54.446,0h-2.436L-48.7-20.787h2.025L-38.53,0ZM-44.35-8.751l-2.407-6.415q-.467-1.218-.963-2.988a26.83,26.83,0,0,1-.892,2.988l-2.436,6.415ZM-29.835.283a6.624,6.624,0,0,1-5.218-2.074A8.531,8.531,0,0,1-36.9-7.661a8.8,8.8,0,0,1,1.876-6.018A6.755,6.755,0,0,1-29.68-15.8a10.608,10.608,0,0,1,2.237.241A7.37,7.37,0,0,1-25.687-15l-.722,2a11.052,11.052,0,0,0-1.7-.517,7.587,7.587,0,0,0-1.628-.205q-4.729,0-4.729,6.032A7.183,7.183,0,0,0-33.312-3.3a4.015,4.015,0,0,0,3.42,1.529,10.456,10.456,0,0,0,3.979-.835V-.524A8.48,8.48,0,0,1-29.835.283Zm12.617-1.94a7.678,7.678,0,0,0,1.2-.092,7.791,7.791,0,0,0,.92-.191v1.8a4.3,4.3,0,0,1-1.126.3,8.454,8.454,0,0,1-1.338.12q-4.5,0-4.5-4.744v-9.232h-2.223v-1.133l2.223-.977.991-3.313h1.359v3.6h4.5v1.827h-4.5V-4.56a3.142,3.142,0,0,0,.666,2.152A2.316,2.316,0,0,0-17.219-1.657ZM-9.785-15.52V-5.452A4.051,4.051,0,0,0-8.921-2.62a3.519,3.519,0,0,0,2.7.935A4.413,4.413,0,0,0-2.655-3.016,6.715,6.715,0,0,0-1.529-7.363V-15.52H.821V0h-1.94l-.34-2.082h-.127a4.685,4.685,0,0,1-2,1.756A6.734,6.734,0,0,1-6.514.283a5.933,5.933,0,0,1-4.241-1.345,5.726,5.726,0,0,1-1.409-4.3V-15.52ZM15.35,0l-.467-2.209h-.113A6.531,6.531,0,0,1,12.454-.234,7.057,7.057,0,0,1,9.572.283,5.183,5.183,0,0,1,5.954-.906a4.338,4.338,0,0,1-1.31-3.384q0-4.7,7.519-4.928L14.8-9.3v-.963a3.935,3.935,0,0,0-.786-2.7,3.232,3.232,0,0,0-2.513-.871,10.241,10.241,0,0,0-4.39,1.189l-.722-1.8A11.046,11.046,0,0,1,8.9-15.42a10.886,10.886,0,0,1,2.74-.354,5.912,5.912,0,0,1,4.114,1.232,5.142,5.142,0,0,1,1.338,3.951V0ZM10.04-1.657a4.771,4.771,0,0,0,3.448-1.2,4.453,4.453,0,0,0,1.253-3.37v-1.4l-2.351.1a8.55,8.55,0,0,0-4.043.871,2.626,2.626,0,0,0-1.239,2.4,2.422,2.422,0,0,0,.772,1.94A3.2,3.2,0,0,0,10.04-1.657ZM24.285,0H21.934V-22.033h2.351ZM35.825.283a7.13,7.13,0,0,1-5.43-2.1,8.113,8.113,0,0,1-1.99-5.82,9,9,0,0,1,1.848-5.961A6.138,6.138,0,0,1,35.216-15.8a5.853,5.853,0,0,1,4.616,1.919,7.354,7.354,0,0,1,1.7,5.062v1.487H30.841a6.152,6.152,0,0,0,1.381,4.149A4.775,4.775,0,0,0,35.91-1.77a12.5,12.5,0,0,0,4.956-1.048v2.1A12.439,12.439,0,0,1,38.509.05,13.249,13.249,0,0,1,35.825.283Zm-.637-14.118a3.839,3.839,0,0,0-2.981,1.218,5.613,5.613,0,0,0-1.31,3.37h8.114a5.168,5.168,0,0,0-.991-3.406A3.489,3.489,0,0,0,35.188-13.834Zm20.362,9.6A3.887,3.887,0,0,1,53.936-.892,7.588,7.588,0,0,1,49.4.283,9.853,9.853,0,0,1,44.59-.694V-2.875a11.643,11.643,0,0,0,2.4.892,10.023,10.023,0,0,0,2.471.326,5.6,5.6,0,0,0,2.832-.588,1.943,1.943,0,0,0,.991-1.791A1.944,1.944,0,0,0,52.5-5.586a12.362,12.362,0,0,0-3.066-1.522,16.624,16.624,0,0,1-3.08-1.409,4.207,4.207,0,0,1-1.359-1.366,3.564,3.564,0,0,1-.446-1.827,3.482,3.482,0,0,1,1.543-2.995,7.192,7.192,0,0,1,4.234-1.1,12.388,12.388,0,0,1,4.9,1.02l-.835,1.912a11.246,11.246,0,0,0-4.234-.963,4.871,4.871,0,0,0-2.521.524,1.62,1.62,0,0,0-.85,1.444A1.759,1.759,0,0,0,47.1-10.8a3.144,3.144,0,0,0,1.027.835,22.942,22.942,0,0,0,2.719,1.147A10.157,10.157,0,0,1,54.58-6.8,3.571,3.571,0,0,1,55.55-4.234Z" transform="translate(1268.879 357.833) rotate(-90)"/>
      <path id="Trazado_20465" data-name="Trazado 20465" d="M-31.6,0h-2.747L-45.659-17.375h-.113q.227,3.059.227,5.607V0h-2.223V-20.7h2.719L-33.765-3.4h.113q-.028-.382-.127-2.457t-.071-2.967V-20.7H-31.6Zm7.547-15.52V-5.452a4.051,4.051,0,0,0,.864,2.832,3.519,3.519,0,0,0,2.7.935,4.413,4.413,0,0,0,3.561-1.331A6.715,6.715,0,0,0-15.8-7.363V-15.52h2.351V0h-1.94l-.34-2.082h-.127a4.685,4.685,0,0,1-2,1.756A6.734,6.734,0,0,1-20.78.283a5.933,5.933,0,0,1-4.241-1.345,5.726,5.726,0,0,1-1.409-4.3V-15.52ZM-1.9.283a7.13,7.13,0,0,1-5.43-2.1,8.113,8.113,0,0,1-1.99-5.82,9,9,0,0,1,1.848-5.961A6.138,6.138,0,0,1-2.513-15.8,5.853,5.853,0,0,1,2.1-13.884,7.354,7.354,0,0,1,3.8-8.822v1.487H-6.889A6.152,6.152,0,0,0-5.508-3.186,4.775,4.775,0,0,0-1.82-1.77,12.5,12.5,0,0,0,3.136-2.818v2.1A12.439,12.439,0,0,1,.779.05,13.249,13.249,0,0,1-1.9.283Zm-.637-14.118a3.839,3.839,0,0,0-2.981,1.218,5.613,5.613,0,0,0-1.31,3.37H1.281A5.168,5.168,0,0,0,.29-12.652,3.489,3.489,0,0,0-2.542-13.834ZM10.627,0,4.737-15.52H7.257l3.342,9.2A43.564,43.564,0,0,1,11.93-2.124h.113a31.659,31.659,0,0,1,.984-3.108q.828-2.358,3.717-10.287h2.521L13.374,0ZM35.153-7.774a8.561,8.561,0,0,1-1.912,5.926A6.732,6.732,0,0,1,27.959.283a7,7,0,0,1-3.7-.977,6.448,6.448,0,0,1-2.492-2.8,9.771,9.771,0,0,1-.878-4.276,8.548,8.548,0,0,1,1.9-5.912A6.711,6.711,0,0,1,28.058-15.8a6.565,6.565,0,0,1,5.176,2.167A8.524,8.524,0,0,1,35.153-7.774Zm-11.824,0a7.366,7.366,0,0,0,1.189,4.531,4.129,4.129,0,0,0,3.5,1.558,4.156,4.156,0,0,0,3.5-1.551,7.329,7.329,0,0,0,1.2-4.538,7.211,7.211,0,0,0-1.2-4.5,4.2,4.2,0,0,0-3.533-1.536A4.137,4.137,0,0,0,24.5-12.291,7.292,7.292,0,0,0,23.329-7.774Zm25.956,3.54A3.887,3.887,0,0,1,47.67-.892,7.588,7.588,0,0,1,43.139.283a9.853,9.853,0,0,1-4.814-.977V-2.875a11.643,11.643,0,0,0,2.4.892,10.023,10.023,0,0,0,2.471.326,5.6,5.6,0,0,0,2.832-.588,1.943,1.943,0,0,0,.991-1.791,1.944,1.944,0,0,0-.786-1.551,12.362,12.362,0,0,0-3.066-1.522,16.624,16.624,0,0,1-3.08-1.409,4.207,4.207,0,0,1-1.359-1.366,3.564,3.564,0,0,1-.446-1.827,3.482,3.482,0,0,1,1.543-2.995,7.192,7.192,0,0,1,4.234-1.1,12.388,12.388,0,0,1,4.9,1.02l-.835,1.912a11.246,11.246,0,0,0-4.234-.963,4.871,4.871,0,0,0-2.521.524,1.62,1.62,0,0,0-.85,1.444,1.759,1.759,0,0,0,.319,1.062,3.144,3.144,0,0,0,1.027.835,22.942,22.942,0,0,0,2.719,1.147A10.157,10.157,0,0,1,48.314-6.8,3.571,3.571,0,0,1,49.284-4.234Z" transform="translate(1605.055 235.398)"/>
      <path id="Trazado_20467" data-name="Trazado 20467" d="M-31.6,0h-2.747L-45.659-17.375h-.113q.227,3.059.227,5.607V0h-2.223V-20.7h2.719L-33.765-3.4h.113q-.028-.382-.127-2.457t-.071-2.967V-20.7H-31.6Zm7.547-15.52V-5.452a4.051,4.051,0,0,0,.864,2.832,3.519,3.519,0,0,0,2.7.935,4.413,4.413,0,0,0,3.561-1.331A6.715,6.715,0,0,0-15.8-7.363V-15.52h2.351V0h-1.94l-.34-2.082h-.127a4.685,4.685,0,0,1-2,1.756A6.734,6.734,0,0,1-20.78.283a5.933,5.933,0,0,1-4.241-1.345,5.726,5.726,0,0,1-1.409-4.3V-15.52ZM-1.9.283a7.13,7.13,0,0,1-5.43-2.1,8.113,8.113,0,0,1-1.99-5.82,9,9,0,0,1,1.848-5.961A6.138,6.138,0,0,1-2.513-15.8,5.853,5.853,0,0,1,2.1-13.884,7.354,7.354,0,0,1,3.8-8.822v1.487H-6.889A6.152,6.152,0,0,0-5.508-3.186,4.775,4.775,0,0,0-1.82-1.77,12.5,12.5,0,0,0,3.136-2.818v2.1A12.439,12.439,0,0,1,.779.05,13.249,13.249,0,0,1-1.9.283Zm-.637-14.118a3.839,3.839,0,0,0-2.981,1.218,5.613,5.613,0,0,0-1.31,3.37H1.281A5.168,5.168,0,0,0,.29-12.652,3.489,3.489,0,0,0-2.542-13.834ZM10.627,0,4.737-15.52H7.257l3.342,9.2A43.564,43.564,0,0,1,11.93-2.124h.113a31.659,31.659,0,0,1,.984-3.108q.828-2.358,3.717-10.287h2.521L13.374,0ZM35.153-7.774a8.561,8.561,0,0,1-1.912,5.926A6.732,6.732,0,0,1,27.959.283a7,7,0,0,1-3.7-.977,6.448,6.448,0,0,1-2.492-2.8,9.771,9.771,0,0,1-.878-4.276,8.548,8.548,0,0,1,1.9-5.912A6.711,6.711,0,0,1,28.058-15.8a6.565,6.565,0,0,1,5.176,2.167A8.524,8.524,0,0,1,35.153-7.774Zm-11.824,0a7.366,7.366,0,0,0,1.189,4.531,4.129,4.129,0,0,0,3.5,1.558,4.156,4.156,0,0,0,3.5-1.551,7.329,7.329,0,0,0,1.2-4.538,7.211,7.211,0,0,0-1.2-4.5,4.2,4.2,0,0,0-3.533-1.536A4.137,4.137,0,0,0,24.5-12.291,7.292,7.292,0,0,0,23.329-7.774Zm25.956,3.54A3.887,3.887,0,0,1,47.67-.892,7.588,7.588,0,0,1,43.139.283a9.853,9.853,0,0,1-4.814-.977V-2.875a11.643,11.643,0,0,0,2.4.892,10.023,10.023,0,0,0,2.471.326,5.6,5.6,0,0,0,2.832-.588,1.943,1.943,0,0,0,.991-1.791,1.944,1.944,0,0,0-.786-1.551,12.362,12.362,0,0,0-3.066-1.522,16.624,16.624,0,0,1-3.08-1.409,4.207,4.207,0,0,1-1.359-1.366,3.564,3.564,0,0,1-.446-1.827,3.482,3.482,0,0,1,1.543-2.995,7.192,7.192,0,0,1,4.234-1.1,12.388,12.388,0,0,1,4.9,1.02l-.835,1.912a11.246,11.246,0,0,0-4.234-.963,4.871,4.871,0,0,0-2.521.524,1.62,1.62,0,0,0-.85,1.444,1.759,1.759,0,0,0,.319,1.062,3.144,3.144,0,0,0,1.027.835,22.942,22.942,0,0,0,2.719,1.147A10.157,10.157,0,0,1,48.314-6.8,3.571,3.571,0,0,1,49.284-4.234Z" transform="translate(1268.879 570.7) rotate(-90)"/>
      <path id="Trazado_20470" data-name="Trazado 20470" d="M-37.017-5.093a4.922,4.922,0,0,1-1.4,3.78A5.729,5.729,0,0,1-42.479,0h-2.83V-9.994h3.138A5.284,5.284,0,0,1-38.37-8.7,4.752,4.752,0,0,1-37.017-5.093Zm-2.2.055q0-3.22-2.844-3.22h-1.128V-1.75h.909Q-39.218-1.75-39.218-5.038ZM-31.944-6.3a1.322,1.322,0,0,0-1.039.42,1.946,1.946,0,0,0-.431,1.193h2.926a1.738,1.738,0,0,0-.4-1.193A1.366,1.366,0,0,0-31.944-6.3ZM-31.65.137A3.945,3.945,0,0,1-34.535-.882a3.857,3.857,0,0,1-1.039-2.885,4.242,4.242,0,0,1,.96-2.97,3.42,3.42,0,0,1,2.656-1.049,3.366,3.366,0,0,1,2.522.923,3.491,3.491,0,0,1,.9,2.55V-3.3h-4.929a2.007,2.007,0,0,0,.526,1.388,1.852,1.852,0,0,0,1.381.5,5.732,5.732,0,0,0,1.306-.144,6.533,6.533,0,0,0,1.285-.458V-.4A4.9,4.9,0,0,1-30.133,0,7.37,7.37,0,0,1-31.65.137ZM-21.506-2.27a2.1,2.1,0,0,1-.817,1.791,4.036,4.036,0,0,1-2.444.615A7.676,7.676,0,0,1-26.188.024a5.378,5.378,0,0,1-1.1-.332V-2.03a7.268,7.268,0,0,0,1.309.458,5.3,5.3,0,0,0,1.282.185q1.135,0,1.135-.656a.548.548,0,0,0-.15-.4,2.18,2.18,0,0,0-.52-.349q-.369-.195-.984-.455a6.184,6.184,0,0,1-1.3-.684,1.924,1.924,0,0,1-.6-.721,2.381,2.381,0,0,1-.188-1,1.815,1.815,0,0,1,.79-1.576,3.846,3.846,0,0,1,2.239-.557,6.355,6.355,0,0,1,2.687.6l-.629,1.5q-.574-.246-1.073-.4a3.37,3.37,0,0,0-1.019-.157q-.923,0-.923.5a.587.587,0,0,0,.3.485,8.087,8.087,0,0,0,1.3.608,6.05,6.05,0,0,1,1.313.677,2,2,0,0,1,.615.725A2.227,2.227,0,0,1-21.506-2.27ZM-15.025,0l-.4-1.039h-.055a3.079,3.079,0,0,1-1.083.919A3.5,3.5,0,0,1-18.02.137a2.349,2.349,0,0,1-1.733-.629,2.415,2.415,0,0,1-.632-1.791,2.017,2.017,0,0,1,.851-1.794,4.932,4.932,0,0,1,2.567-.639l1.326-.041v-.335A1.039,1.039,0,0,0-16.83-6.255a5.42,5.42,0,0,0-2.153.554l-.69-1.408a6.213,6.213,0,0,1,2.926-.69,3.644,3.644,0,0,1,2.358.67,2.476,2.476,0,0,1,.82,2.037V0Zm-.615-3.541-.807.027a2.583,2.583,0,0,0-1.354.328,1.031,1.031,0,0,0-.444.916q0,.882,1.012.882A1.6,1.6,0,0,0-16.075-1.8a1.465,1.465,0,0,0,.434-1.107Zm8.483-4.245a3.362,3.362,0,0,1,.7.062L-6.61-5.77a2.388,2.388,0,0,0-.615-.068,2.211,2.211,0,0,0-1.555.513A1.853,1.853,0,0,0-9.338-3.89V0h-2.085V-7.643h1.579l.308,1.285h.1a2.873,2.873,0,0,1,.96-1.036A2.368,2.368,0,0,1-7.157-7.786Zm6.357,0a3.362,3.362,0,0,1,.7.062L-.253-5.77a2.388,2.388,0,0,0-.615-.068,2.211,2.211,0,0,0-1.555.513A1.853,1.853,0,0,0-2.98-3.89V0H-5.065V-7.643h1.579l.308,1.285h.1a2.873,2.873,0,0,1,.96-1.036A2.368,2.368,0,0,1-.8-7.786ZM2.673-3.835a3.208,3.208,0,0,0,.373,1.716,1.332,1.332,0,0,0,1.213.581,1.311,1.311,0,0,0,1.2-.578,3.254,3.254,0,0,0,.366-1.719,3.157,3.157,0,0,0-.369-1.7A1.335,1.335,0,0,0,4.245-6.1a1.33,1.33,0,0,0-1.2.564A3.154,3.154,0,0,0,2.673-3.835Zm5.284,0A4.107,4.107,0,0,1,6.973-.916,3.569,3.569,0,0,1,4.231.137,3.835,3.835,0,0,1,2.29-.345,3.207,3.207,0,0,1,1-1.729,4.652,4.652,0,0,1,.547-3.835a4.084,4.084,0,0,1,.978-2.912A3.59,3.59,0,0,1,4.272-7.786a3.856,3.856,0,0,1,1.941.479A3.194,3.194,0,0,1,7.506-5.934,4.608,4.608,0,0,1,7.957-3.835ZM11.765,0H9.68V-10.637h2.085Zm4.272,0H13.952V-10.637h2.085Zm3.849-3.835a3.208,3.208,0,0,0,.373,1.716,1.332,1.332,0,0,0,1.213.581,1.311,1.311,0,0,0,1.2-.578,3.254,3.254,0,0,0,.366-1.719,3.157,3.157,0,0,0-.369-1.7,1.335,1.335,0,0,0-1.21-.567,1.33,1.33,0,0,0-1.2.564A3.154,3.154,0,0,0,19.886-3.835Zm5.284,0a4.107,4.107,0,0,1-.984,2.919A3.569,3.569,0,0,1,21.444.137,3.835,3.835,0,0,1,19.5-.345a3.207,3.207,0,0,1-1.292-1.384,4.652,4.652,0,0,1-.451-2.105,4.084,4.084,0,0,1,.978-2.912,3.59,3.59,0,0,1,2.748-1.039,3.856,3.856,0,0,1,1.941.479,3.194,3.194,0,0,1,1.292,1.374A4.608,4.608,0,0,1,25.17-3.835ZM32.949.137A2.482,2.482,0,0,1,30.833-.909a4.808,4.808,0,0,1-.769-2.9,4.813,4.813,0,0,1,.783-2.929A2.542,2.542,0,0,1,33-7.786a2.493,2.493,0,0,1,2.2,1.121h.068a8.524,8.524,0,0,1-.157-1.524v-2.447h2.092V0h-1.6l-.4-.991h-.089A2.386,2.386,0,0,1,32.949.137Zm.731-1.661a1.413,1.413,0,0,0,1.172-.465,2.7,2.7,0,0,0,.407-1.579v-.226a3.125,3.125,0,0,0-.379-1.764,1.409,1.409,0,0,0-1.234-.533,1.224,1.224,0,0,0-1.083.591,3.155,3.155,0,0,0-.386,1.719,2.99,2.99,0,0,0,.39,1.692A1.273,1.273,0,0,0,33.681-1.524ZM42.554-6.3a1.322,1.322,0,0,0-1.039.42,1.946,1.946,0,0,0-.431,1.193H44.01a1.738,1.738,0,0,0-.4-1.193A1.366,1.366,0,0,0,42.554-6.3ZM42.848.137A3.945,3.945,0,0,1,39.963-.882a3.857,3.857,0,0,1-1.039-2.885,4.242,4.242,0,0,1,.96-2.97A3.42,3.42,0,0,1,42.54-7.786a3.366,3.366,0,0,1,2.522.923,3.491,3.491,0,0,1,.9,2.55V-3.3H41.036a2.007,2.007,0,0,0,.526,1.388,1.852,1.852,0,0,0,1.381.5,5.732,5.732,0,0,0,1.306-.144,6.533,6.533,0,0,0,1.285-.458V-.4A4.9,4.9,0,0,1,44.365,0,7.37,7.37,0,0,1,42.848.137Zm-72.84,14a2.535,2.535,0,0,1-2.112-.978h-.109q.109.957.109,1.107v3.1H-34.19V6.357h1.7l.294.991h.1a2.412,2.412,0,0,1,2.167-1.135A2.48,2.48,0,0,1-27.819,7.26a4.837,4.837,0,0,1,.766,2.905,5.737,5.737,0,0,1-.359,2.126,2.982,2.982,0,0,1-1.022,1.374A2.619,2.619,0,0,1-29.993,14.137Zm-.615-6.255a1.316,1.316,0,0,0-1.128.475A2.728,2.728,0,0,0-32.1,9.926v.226a3.22,3.22,0,0,0,.366,1.764,1.305,1.305,0,0,0,1.159.533q1.4,0,1.4-2.311a3.3,3.3,0,0,0-.345-1.692A1.178,1.178,0,0,0-30.608,7.882Zm9.543-1.668a3.362,3.362,0,0,1,.7.062l-.157,1.955a2.388,2.388,0,0,0-.615-.068,2.211,2.211,0,0,0-1.555.513,1.853,1.853,0,0,0-.557,1.436V14h-2.085V6.357h1.579l.308,1.285h.1a2.873,2.873,0,0,1,.96-1.036A2.368,2.368,0,0,1-21.065,6.214Zm3.473,3.951a3.208,3.208,0,0,0,.373,1.716,1.332,1.332,0,0,0,1.213.581,1.311,1.311,0,0,0,1.2-.578,3.254,3.254,0,0,0,.366-1.719,3.157,3.157,0,0,0-.369-1.7A1.335,1.335,0,0,0-16.02,7.9a1.33,1.33,0,0,0-1.2.564A3.154,3.154,0,0,0-17.592,10.165Zm5.284,0a4.107,4.107,0,0,1-.984,2.919,3.569,3.569,0,0,1-2.741,1.053,3.835,3.835,0,0,1-1.941-.482,3.207,3.207,0,0,1-1.292-1.384,4.652,4.652,0,0,1-.451-2.105,4.084,4.084,0,0,1,.978-2.912,3.59,3.59,0,0,1,2.748-1.039,3.856,3.856,0,0,1,1.941.479,3.194,3.194,0,0,1,1.292,1.374A4.608,4.608,0,0,1-12.308,10.165Zm4.143,3.972a2.482,2.482,0,0,1-2.116-1.046,4.808,4.808,0,0,1-.769-2.9,4.813,4.813,0,0,1,.783-2.929A2.542,2.542,0,0,1-8.111,6.214a2.493,2.493,0,0,1,2.2,1.121h.068A8.524,8.524,0,0,1-6,5.811V3.363h2.092V14h-1.6l-.4-.991H-6A2.386,2.386,0,0,1-8.166,14.137Zm.731-1.661a1.413,1.413,0,0,0,1.172-.465,2.7,2.7,0,0,0,.407-1.579v-.226a3.125,3.125,0,0,0-.379-1.764,1.409,1.409,0,0,0-1.234-.533A1.224,1.224,0,0,0-8.552,8.5a3.155,3.155,0,0,0-.386,1.719,2.99,2.99,0,0,0,.39,1.692A1.273,1.273,0,0,0-7.434,12.476ZM3.688,14l-.28-.978H3.3a2.2,2.2,0,0,1-.95.824,3.244,3.244,0,0,1-1.4.291,2.669,2.669,0,0,1-2.03-.721,2.9,2.9,0,0,1-.684-2.075V6.357H.318v4.464a2.144,2.144,0,0,0,.294,1.241,1.069,1.069,0,0,0,.937.414,1.408,1.408,0,0,0,1.265-.584A3.625,3.625,0,0,0,3.2,9.953v-3.6H5.288V14Zm6.891.137q-3.568,0-3.568-3.917a4.178,4.178,0,0,1,.971-2.977,3.641,3.641,0,0,1,2.782-1.029,5.3,5.3,0,0,1,2.379.52l-.615,1.613q-.492-.2-.916-.325a2.951,2.951,0,0,0-.848-.126q-1.627,0-1.627,2.311,0,2.242,1.627,2.242a3.709,3.709,0,0,0,1.114-.161,4.023,4.023,0,0,0,1.025-.5v1.784a3.36,3.36,0,0,1-1.022.444A5.747,5.747,0,0,1,10.579,14.137Zm7.314-1.661a4.52,4.52,0,0,0,1.313-.239v1.552a4.68,4.68,0,0,1-1.914.349A2.343,2.343,0,0,1,15.47,13.5a2.752,2.752,0,0,1-.571-1.9V7.923h-1V7.041l1.148-.7.6-1.613h1.333V6.357h2.14V7.923h-2.14v3.685a.814.814,0,0,0,.25.656A.984.984,0,0,0,17.893,12.476Zm4.519-2.311a3.208,3.208,0,0,0,.373,1.716A1.332,1.332,0,0,0,24,12.462a1.311,1.311,0,0,0,1.2-.578,3.254,3.254,0,0,0,.366-1.719,3.157,3.157,0,0,0-.369-1.7,1.57,1.57,0,0,0-2.413,0A3.154,3.154,0,0,0,22.412,10.165Zm5.284,0a4.107,4.107,0,0,1-.984,2.919,3.569,3.569,0,0,1-2.741,1.053,3.835,3.835,0,0,1-1.941-.482,3.207,3.207,0,0,1-1.292-1.384,4.652,4.652,0,0,1-.451-2.105,4.084,4.084,0,0,1,.978-2.912,3.59,3.59,0,0,1,2.748-1.039,3.856,3.856,0,0,1,1.941.479,3.194,3.194,0,0,1,1.292,1.374A4.608,4.608,0,0,1,27.7,10.165ZM34.75,11.73a2.1,2.1,0,0,1-.817,1.791,4.036,4.036,0,0,1-2.444.615,7.676,7.676,0,0,1-1.422-.113,5.378,5.378,0,0,1-1.1-.332V11.97a7.268,7.268,0,0,0,1.309.458,5.3,5.3,0,0,0,1.282.185q1.135,0,1.135-.656a.548.548,0,0,0-.15-.4,2.18,2.18,0,0,0-.52-.349q-.369-.195-.984-.455a6.184,6.184,0,0,1-1.3-.684,1.924,1.924,0,0,1-.6-.721,2.381,2.381,0,0,1-.188-1,1.815,1.815,0,0,1,.79-1.576,3.846,3.846,0,0,1,2.239-.557,6.355,6.355,0,0,1,2.687.6l-.629,1.5q-.574-.246-1.073-.4a3.37,3.37,0,0,0-1.019-.157q-.923,0-.923.5a.587.587,0,0,0,.3.485,8.087,8.087,0,0,0,1.3.608,6.05,6.05,0,0,1,1.313.677,2,2,0,0,1,.615.725A2.227,2.227,0,0,1,34.75,11.73Z" transform="translate(1603.497 353.352)" fill="#fff"/>
      <path id="Trazado_20471" data-name="Trazado 20471" d="M-37.017-5.093a4.922,4.922,0,0,1-1.4,3.78A5.729,5.729,0,0,1-42.479,0h-2.83V-9.994h3.138A5.284,5.284,0,0,1-38.37-8.7,4.752,4.752,0,0,1-37.017-5.093Zm-2.2.055q0-3.22-2.844-3.22h-1.128V-1.75h.909Q-39.218-1.75-39.218-5.038ZM-31.944-6.3a1.322,1.322,0,0,0-1.039.42,1.946,1.946,0,0,0-.431,1.193h2.926a1.738,1.738,0,0,0-.4-1.193A1.366,1.366,0,0,0-31.944-6.3ZM-31.65.137A3.945,3.945,0,0,1-34.535-.882a3.857,3.857,0,0,1-1.039-2.885,4.242,4.242,0,0,1,.96-2.97,3.42,3.42,0,0,1,2.656-1.049,3.366,3.366,0,0,1,2.522.923,3.491,3.491,0,0,1,.9,2.55V-3.3h-4.929a2.007,2.007,0,0,0,.526,1.388,1.852,1.852,0,0,0,1.381.5,5.732,5.732,0,0,0,1.306-.144,6.533,6.533,0,0,0,1.285-.458V-.4A4.9,4.9,0,0,1-30.133,0,7.37,7.37,0,0,1-31.65.137ZM-21.506-2.27a2.1,2.1,0,0,1-.817,1.791,4.036,4.036,0,0,1-2.444.615A7.676,7.676,0,0,1-26.188.024a5.378,5.378,0,0,1-1.1-.332V-2.03a7.268,7.268,0,0,0,1.309.458,5.3,5.3,0,0,0,1.282.185q1.135,0,1.135-.656a.548.548,0,0,0-.15-.4,2.18,2.18,0,0,0-.52-.349q-.369-.195-.984-.455a6.184,6.184,0,0,1-1.3-.684,1.924,1.924,0,0,1-.6-.721,2.381,2.381,0,0,1-.188-1,1.815,1.815,0,0,1,.79-1.576,3.846,3.846,0,0,1,2.239-.557,6.355,6.355,0,0,1,2.687.6l-.629,1.5q-.574-.246-1.073-.4a3.37,3.37,0,0,0-1.019-.157q-.923,0-.923.5a.587.587,0,0,0,.3.485,8.087,8.087,0,0,0,1.3.608,6.05,6.05,0,0,1,1.313.677,2,2,0,0,1,.615.725A2.227,2.227,0,0,1-21.506-2.27ZM-15.025,0l-.4-1.039h-.055a3.079,3.079,0,0,1-1.083.919A3.5,3.5,0,0,1-18.02.137a2.349,2.349,0,0,1-1.733-.629,2.415,2.415,0,0,1-.632-1.791,2.017,2.017,0,0,1,.851-1.794,4.932,4.932,0,0,1,2.567-.639l1.326-.041v-.335A1.039,1.039,0,0,0-16.83-6.255a5.42,5.42,0,0,0-2.153.554l-.69-1.408a6.213,6.213,0,0,1,2.926-.69,3.644,3.644,0,0,1,2.358.67,2.476,2.476,0,0,1,.82,2.037V0Zm-.615-3.541-.807.027a2.583,2.583,0,0,0-1.354.328,1.031,1.031,0,0,0-.444.916q0,.882,1.012.882A1.6,1.6,0,0,0-16.075-1.8a1.465,1.465,0,0,0,.434-1.107Zm8.483-4.245a3.362,3.362,0,0,1,.7.062L-6.61-5.77a2.388,2.388,0,0,0-.615-.068,2.211,2.211,0,0,0-1.555.513A1.853,1.853,0,0,0-9.338-3.89V0h-2.085V-7.643h1.579l.308,1.285h.1a2.873,2.873,0,0,1,.96-1.036A2.368,2.368,0,0,1-7.157-7.786Zm6.357,0a3.362,3.362,0,0,1,.7.062L-.253-5.77a2.388,2.388,0,0,0-.615-.068,2.211,2.211,0,0,0-1.555.513A1.853,1.853,0,0,0-2.98-3.89V0H-5.065V-7.643h1.579l.308,1.285h.1a2.873,2.873,0,0,1,.96-1.036A2.368,2.368,0,0,1-.8-7.786ZM2.673-3.835a3.208,3.208,0,0,0,.373,1.716,1.332,1.332,0,0,0,1.213.581,1.311,1.311,0,0,0,1.2-.578,3.254,3.254,0,0,0,.366-1.719,3.157,3.157,0,0,0-.369-1.7A1.335,1.335,0,0,0,4.245-6.1a1.33,1.33,0,0,0-1.2.564A3.154,3.154,0,0,0,2.673-3.835Zm5.284,0A4.107,4.107,0,0,1,6.973-.916,3.569,3.569,0,0,1,4.231.137,3.835,3.835,0,0,1,2.29-.345,3.207,3.207,0,0,1,1-1.729,4.652,4.652,0,0,1,.547-3.835a4.084,4.084,0,0,1,.978-2.912A3.59,3.59,0,0,1,4.272-7.786a3.856,3.856,0,0,1,1.941.479A3.194,3.194,0,0,1,7.506-5.934,4.608,4.608,0,0,1,7.957-3.835ZM11.765,0H9.68V-10.637h2.085Zm4.272,0H13.952V-10.637h2.085Zm3.849-3.835a3.208,3.208,0,0,0,.373,1.716,1.332,1.332,0,0,0,1.213.581,1.311,1.311,0,0,0,1.2-.578,3.254,3.254,0,0,0,.366-1.719,3.157,3.157,0,0,0-.369-1.7,1.335,1.335,0,0,0-1.21-.567,1.33,1.33,0,0,0-1.2.564A3.154,3.154,0,0,0,19.886-3.835Zm5.284,0a4.107,4.107,0,0,1-.984,2.919A3.569,3.569,0,0,1,21.444.137,3.835,3.835,0,0,1,19.5-.345a3.207,3.207,0,0,1-1.292-1.384,4.652,4.652,0,0,1-.451-2.105,4.084,4.084,0,0,1,.978-2.912,3.59,3.59,0,0,1,2.748-1.039,3.856,3.856,0,0,1,1.941.479,3.194,3.194,0,0,1,1.292,1.374A4.608,4.608,0,0,1,25.17-3.835ZM32.949.137A2.482,2.482,0,0,1,30.833-.909a4.808,4.808,0,0,1-.769-2.9,4.813,4.813,0,0,1,.783-2.929A2.542,2.542,0,0,1,33-7.786a2.493,2.493,0,0,1,2.2,1.121h.068a8.524,8.524,0,0,1-.157-1.524v-2.447h2.092V0h-1.6l-.4-.991h-.089A2.386,2.386,0,0,1,32.949.137Zm.731-1.661a1.413,1.413,0,0,0,1.172-.465,2.7,2.7,0,0,0,.407-1.579v-.226a3.125,3.125,0,0,0-.379-1.764,1.409,1.409,0,0,0-1.234-.533,1.224,1.224,0,0,0-1.083.591,3.155,3.155,0,0,0-.386,1.719,2.99,2.99,0,0,0,.39,1.692A1.273,1.273,0,0,0,33.681-1.524ZM42.554-6.3a1.322,1.322,0,0,0-1.039.42,1.946,1.946,0,0,0-.431,1.193H44.01a1.738,1.738,0,0,0-.4-1.193A1.366,1.366,0,0,0,42.554-6.3ZM42.848.137A3.945,3.945,0,0,1,39.963-.882a3.857,3.857,0,0,1-1.039-2.885,4.242,4.242,0,0,1,.96-2.97A3.42,3.42,0,0,1,42.54-7.786a3.366,3.366,0,0,1,2.522.923,3.491,3.491,0,0,1,.9,2.55V-3.3H41.036a2.007,2.007,0,0,0,.526,1.388,1.852,1.852,0,0,0,1.381.5,5.732,5.732,0,0,0,1.306-.144,6.533,6.533,0,0,0,1.285-.458V-.4A4.9,4.9,0,0,1,44.365,0,7.37,7.37,0,0,1,42.848.137ZM-26.182,14h-2.085V9.536A2.249,2.249,0,0,0-28.543,8.3a.974.974,0,0,0-.872-.414,1.262,1.262,0,0,0-1.162.588,3.856,3.856,0,0,0-.362,1.935V14h-2.085V6.357h1.593l.28.978h.116a2.118,2.118,0,0,1,.889-.824,2.885,2.885,0,0,1,1.333-.3,2.4,2.4,0,0,1,2.324,1.121h.185a2.065,2.065,0,0,1,.906-.827,3.021,3.021,0,0,1,1.35-.294,2.665,2.665,0,0,1,1.965.667,2.927,2.927,0,0,1,.667,2.136V14h-2.092V9.536A2.249,2.249,0,0,0-23.786,8.3a.974.974,0,0,0-.872-.414,1.3,1.3,0,0,0-1.145.547,3.1,3.1,0,0,0-.379,1.736Zm10.069-6.3a1.322,1.322,0,0,0-1.039.42,1.946,1.946,0,0,0-.431,1.193h2.926a1.738,1.738,0,0,0-.4-1.193A1.366,1.366,0,0,0-16.112,7.7Zm.294,6.439A3.945,3.945,0,0,1-18.7,13.118a3.857,3.857,0,0,1-1.039-2.885,4.242,4.242,0,0,1,.96-2.97,3.42,3.42,0,0,1,2.656-1.049,3.366,3.366,0,0,1,2.522.923,3.491,3.491,0,0,1,.9,2.55V10.7H-17.63a2.007,2.007,0,0,0,.526,1.388,1.852,1.852,0,0,0,1.381.5,5.732,5.732,0,0,0,1.306-.144,6.533,6.533,0,0,0,1.285-.458V13.6A4.9,4.9,0,0,1-14.3,14,7.37,7.37,0,0,1-15.818,14.137ZM-6.74,6.214a3.362,3.362,0,0,1,.7.062L-6.193,8.23a2.388,2.388,0,0,0-.615-.068,2.211,2.211,0,0,0-1.555.513,1.853,1.853,0,0,0-.557,1.436V14h-2.085V6.357h1.579l.308,1.285h.1a2.873,2.873,0,0,1,.96-1.036A2.368,2.368,0,0,1-6.74,6.214Zm4.915,7.923q-3.568,0-3.568-3.917a4.178,4.178,0,0,1,.971-2.977A3.641,3.641,0,0,1-1.641,6.214a5.3,5.3,0,0,1,2.379.52L.123,8.347q-.492-.2-.916-.325A2.951,2.951,0,0,0-1.641,7.9q-1.627,0-1.627,2.311,0,2.242,1.627,2.242a3.709,3.709,0,0,0,1.114-.161,4.023,4.023,0,0,0,1.025-.5v1.784a3.36,3.36,0,0,1-1.022.444A5.747,5.747,0,0,1-1.825,14.137ZM7.123,14l-.4-1.039H6.665a3.079,3.079,0,0,1-1.083.919,3.5,3.5,0,0,1-1.453.256A2.349,2.349,0,0,1,2.4,13.508a2.415,2.415,0,0,1-.632-1.791,2.017,2.017,0,0,1,.851-1.794,4.932,4.932,0,0,1,2.567-.639l1.326-.041V8.907A1.039,1.039,0,0,0,5.318,7.745,5.42,5.42,0,0,0,3.165,8.3l-.69-1.408A6.213,6.213,0,0,1,5.4,6.2a3.644,3.644,0,0,1,2.358.67,2.476,2.476,0,0,1,.82,2.037V14Zm-.615-3.541-.807.027a2.583,2.583,0,0,0-1.354.328,1.031,1.031,0,0,0-.444.916q0,.882,1.012.882A1.6,1.6,0,0,0,6.074,12.2a1.465,1.465,0,0,0,.434-1.107Zm6.638,3.678a2.482,2.482,0,0,1-2.116-1.046,4.808,4.808,0,0,1-.769-2.9,4.813,4.813,0,0,1,.783-2.929A2.542,2.542,0,0,1,13.2,6.214a2.493,2.493,0,0,1,2.2,1.121h.068a8.524,8.524,0,0,1-.157-1.524V3.363H17.4V14H15.8l-.4-.991h-.089A2.386,2.386,0,0,1,13.146,14.137Zm.731-1.661a1.413,1.413,0,0,0,1.172-.465,2.7,2.7,0,0,0,.407-1.579v-.226a3.125,3.125,0,0,0-.379-1.764,1.409,1.409,0,0,0-1.234-.533,1.224,1.224,0,0,0-1.083.591,3.155,3.155,0,0,0-.386,1.719,2.99,2.99,0,0,0,.39,1.692A1.273,1.273,0,0,0,13.877,12.476Zm7.369-2.311a3.208,3.208,0,0,0,.373,1.716,1.332,1.332,0,0,0,1.213.581,1.311,1.311,0,0,0,1.2-.578,3.254,3.254,0,0,0,.366-1.719,3.157,3.157,0,0,0-.369-1.7,1.57,1.57,0,0,0-2.413,0A3.154,3.154,0,0,0,21.246,10.165Zm5.284,0a4.107,4.107,0,0,1-.984,2.919A3.569,3.569,0,0,1,22.8,14.137a3.835,3.835,0,0,1-1.941-.482,3.207,3.207,0,0,1-1.292-1.384,4.652,4.652,0,0,1-.451-2.105A4.084,4.084,0,0,1,20.1,7.253a3.59,3.59,0,0,1,2.748-1.039,3.856,3.856,0,0,1,1.941.479,3.194,3.194,0,0,1,1.292,1.374A4.608,4.608,0,0,1,26.53,10.165Zm7.055,1.565a2.1,2.1,0,0,1-.817,1.791,4.036,4.036,0,0,1-2.444.615,7.676,7.676,0,0,1-1.422-.113,5.378,5.378,0,0,1-1.1-.332V11.97a7.268,7.268,0,0,0,1.309.458,5.3,5.3,0,0,0,1.282.185q1.135,0,1.135-.656a.548.548,0,0,0-.15-.4,2.18,2.18,0,0,0-.52-.349q-.369-.195-.984-.455a6.184,6.184,0,0,1-1.3-.684,1.924,1.924,0,0,1-.6-.721,2.381,2.381,0,0,1-.188-1,1.815,1.815,0,0,1,.79-1.576,3.846,3.846,0,0,1,2.239-.557,6.355,6.355,0,0,1,2.687.6l-.629,1.5q-.574-.246-1.073-.4a3.37,3.37,0,0,0-1.019-.157q-.923,0-.923.5a.587.587,0,0,0,.3.485,8.087,8.087,0,0,0,1.3.608,6.05,6.05,0,0,1,1.313.677,2,2,0,0,1,.615.725A2.227,2.227,0,0,1,33.585,11.73Z" transform="translate(1389.051 569.524)" fill="#fff"/>
      <path id="Trazado_20472" data-name="Trazado 20472" d="M-42.021-5.093a4.922,4.922,0,0,1-1.4,3.78A5.729,5.729,0,0,1-47.482,0h-2.83V-9.994h3.138a5.284,5.284,0,0,1,3.8,1.292A4.752,4.752,0,0,1-42.021-5.093Zm-2.2.055q0-3.22-2.844-3.22h-1.128V-1.75h.909Q-44.222-1.75-44.222-5.038Zm4.02-4.58q0-1.019,1.135-1.019t1.135,1.019a.993.993,0,0,1-.284.755,1.192,1.192,0,0,1-.851.27Q-40.2-8.593-40.2-9.618ZM-38.028,0h-2.085V-7.643h2.085Zm4.006,0-2.912-7.643h2.181l1.477,4.354a7.77,7.77,0,0,1,.308,1.565h.041a6.807,6.807,0,0,1,.308-1.565l1.47-4.354h2.181L-31.883,0Zm9.311-6.3a1.322,1.322,0,0,0-1.039.42,1.946,1.946,0,0,0-.431,1.193h2.926a1.738,1.738,0,0,0-.4-1.193A1.366,1.366,0,0,0-24.712-6.3Zm.294,6.439A3.945,3.945,0,0,1-27.3-.882a3.857,3.857,0,0,1-1.039-2.885,4.242,4.242,0,0,1,.96-2.97,3.42,3.42,0,0,1,2.656-1.049,3.366,3.366,0,0,1,2.522.923,3.491,3.491,0,0,1,.9,2.55V-3.3h-4.929A2.007,2.007,0,0,0-25.7-1.914a1.852,1.852,0,0,0,1.381.5,5.732,5.732,0,0,0,1.306-.144,6.533,6.533,0,0,0,1.285-.458V-.4A4.9,4.9,0,0,1-22.9,0,7.37,7.37,0,0,1-24.418.137Zm9.078-7.923a3.362,3.362,0,0,1,.7.062l-.157,1.955a2.388,2.388,0,0,0-.615-.068,2.211,2.211,0,0,0-1.555.513,1.853,1.853,0,0,0-.557,1.436V0h-2.085V-7.643h1.579l.308,1.285h.1a2.873,2.873,0,0,1,.96-1.036A2.368,2.368,0,0,1-15.34-7.786ZM-7.916-2.27A2.1,2.1,0,0,1-8.733-.479a4.036,4.036,0,0,1-2.444.615A7.676,7.676,0,0,1-12.6.024a5.378,5.378,0,0,1-1.1-.332V-2.03a7.268,7.268,0,0,0,1.309.458,5.3,5.3,0,0,0,1.282.185q1.135,0,1.135-.656a.548.548,0,0,0-.15-.4,2.18,2.18,0,0,0-.52-.349q-.369-.195-.984-.455a6.184,6.184,0,0,1-1.3-.684,1.924,1.924,0,0,1-.6-.721,2.381,2.381,0,0,1-.188-1,1.815,1.815,0,0,1,.79-1.576,3.846,3.846,0,0,1,2.239-.557A6.355,6.355,0,0,1-8-7.185l-.629,1.5q-.574-.246-1.073-.4a3.37,3.37,0,0,0-1.019-.157q-.923,0-.923.5a.587.587,0,0,0,.3.485,8.087,8.087,0,0,0,1.3.608,6.05,6.05,0,0,1,1.313.677,2,2,0,0,1,.615.725A2.227,2.227,0,0,1-7.916-2.27Zm1.538-7.349q0-1.019,1.135-1.019t1.135,1.019a.993.993,0,0,1-.284.755,1.192,1.192,0,0,1-.851.27Q-6.378-8.593-6.378-9.618ZM-4.2,0H-6.289V-7.643H-4.2ZM2.208-6.077H.4V0H-1.682V-6.077H-2.83v-1l1.148-.561V-8.2a2.5,2.5,0,0,1,.643-1.907,2.945,2.945,0,0,1,2.058-.6,5.355,5.355,0,0,1,1.921.321L2.406-8.859a3.886,3.886,0,0,0-1.162-.2A.752.752,0,0,0,.6-8.794a1.089,1.089,0,0,0-.2.673v.479h1.8ZM3.315-9.618q0-1.019,1.135-1.019T5.585-9.618a.993.993,0,0,1-.284.755,1.192,1.192,0,0,1-.851.27Q3.315-8.593,3.315-9.618ZM5.489,0H3.4V-7.643H5.489Zm5.284.137Q7.205.137,7.205-3.78a4.178,4.178,0,0,1,.971-2.977,3.641,3.641,0,0,1,2.782-1.029,5.3,5.3,0,0,1,2.379.52l-.615,1.613q-.492-.2-.916-.325a2.951,2.951,0,0,0-.848-.126q-1.627,0-1.627,2.311,0,2.242,1.627,2.242a3.709,3.709,0,0,0,1.114-.161,4.023,4.023,0,0,0,1.025-.5V-.431a3.36,3.36,0,0,1-1.022.444A5.747,5.747,0,0,1,10.773.137ZM19.722,0l-.4-1.039h-.055A3.079,3.079,0,0,1,18.18-.12a3.5,3.5,0,0,1-1.453.256,2.349,2.349,0,0,1-1.733-.629,2.415,2.415,0,0,1-.632-1.791,2.017,2.017,0,0,1,.851-1.794,4.932,4.932,0,0,1,2.567-.639l1.326-.041v-.335a1.039,1.039,0,0,0-1.189-1.162,5.42,5.42,0,0,0-2.153.554l-.69-1.408A6.213,6.213,0,0,1,18-7.8a3.644,3.644,0,0,1,2.358.67,2.476,2.476,0,0,1,.82,2.037V0Zm-.615-3.541-.807.027a2.583,2.583,0,0,0-1.354.328,1.031,1.031,0,0,0-.444.916q0,.882,1.012.882A1.6,1.6,0,0,0,18.672-1.8a1.465,1.465,0,0,0,.434-1.107ZM26.428.137q-3.568,0-3.568-3.917a4.178,4.178,0,0,1,.971-2.977,3.641,3.641,0,0,1,2.782-1.029,5.3,5.3,0,0,1,2.379.52l-.615,1.613q-.492-.2-.916-.325a2.951,2.951,0,0,0-.848-.126q-1.627,0-1.627,2.311,0,2.242,1.627,2.242a3.709,3.709,0,0,0,1.114-.161,4.023,4.023,0,0,0,1.025-.5V-.431A3.36,3.36,0,0,1,27.73.014,5.747,5.747,0,0,1,26.428.137Zm4.006-9.755q0-1.019,1.135-1.019T32.7-9.618a.993.993,0,0,1-.284.755,1.192,1.192,0,0,1-.851.27Q30.434-8.593,30.434-9.618ZM32.607,0H30.522V-7.643h2.085Zm3.849-3.835a3.208,3.208,0,0,0,.373,1.716,1.332,1.332,0,0,0,1.213.581,1.311,1.311,0,0,0,1.2-.578,3.254,3.254,0,0,0,.366-1.719,3.157,3.157,0,0,0-.369-1.7,1.335,1.335,0,0,0-1.21-.567,1.33,1.33,0,0,0-1.2.564A3.154,3.154,0,0,0,36.456-3.835Zm5.284,0a4.107,4.107,0,0,1-.984,2.919A3.569,3.569,0,0,1,38.015.137a3.835,3.835,0,0,1-1.941-.482,3.207,3.207,0,0,1-1.292-1.384,4.652,4.652,0,0,1-.451-2.105,4.084,4.084,0,0,1,.978-2.912,3.59,3.59,0,0,1,2.748-1.039A3.856,3.856,0,0,1,40-7.308a3.194,3.194,0,0,1,1.292,1.374A4.608,4.608,0,0,1,41.74-3.835ZM36.894-8.483v-.185A19.246,19.246,0,0,0,38.5-10.726h2.338v.144q-.355.355-1.213,1.056T38.281-8.483ZM50.518,0H48.433V-4.464A2.144,2.144,0,0,0,48.139-5.7a1.069,1.069,0,0,0-.937-.414,1.408,1.408,0,0,0-1.265.584,3.625,3.625,0,0,0-.39,1.938V0H43.463V-7.643h1.593l.28.978h.116a2.2,2.2,0,0,1,.96-.837A3.271,3.271,0,0,1,47.8-7.786a2.673,2.673,0,0,1,2.023.721,2.894,2.894,0,0,1,.69,2.082Z" transform="translate(1603.613 573.657)" fill="#fff"/>
      <path id="Trazado_20463" data-name="Trazado 20463" d="M-97.894-16.251h2.142a7.132,7.132,0,0,0,4.493-1.186,4.152,4.152,0,0,0,1.491-3.454,4.257,4.257,0,0,0-1.249-3.38,5.854,5.854,0,0,0-3.916-1.092h-2.96Zm14.7-4.871q0,4.955-3.1,7.58T-95.1-10.918h-2.792V0H-104.4V-30.7H-94.6q5.585,0,8.493,2.4T-83.2-21.122ZM-64.8-23.915a10.327,10.327,0,0,1,2.163.189l-.483,6a7.336,7.336,0,0,0-1.89-.21,6.791,6.791,0,0,0-4.777,1.575A5.692,5.692,0,0,0-71.5-11.947V0h-6.4V-23.474h4.85l.945,3.947h.315a8.824,8.824,0,0,1,2.95-3.181A7.274,7.274,0,0,1-64.8-23.915Zm10.666,12.136a9.852,9.852,0,0,0,1.144,5.27,4.092,4.092,0,0,0,3.727,1.785A4.027,4.027,0,0,0-45.583-6.5a9.994,9.994,0,0,0,1.123-5.281,9.7,9.7,0,0,0-1.134-5.228,4.1,4.1,0,0,0-3.716-1.743A4.086,4.086,0,0,0-53-17.017,9.687,9.687,0,0,0-54.138-11.779Zm16.23,0q0,5.732-3.023,8.965T-49.351.42a11.778,11.778,0,0,1-5.963-1.48,9.85,9.85,0,0,1-3.968-4.252,14.287,14.287,0,0,1-1.386-6.467q0-5.753,3-8.944t8.44-3.191a11.844,11.844,0,0,1,5.963,1.47,9.81,9.81,0,0,1,3.968,4.22A14.155,14.155,0,0,1-37.908-11.779ZM-25.185.42a7.624,7.624,0,0,1-6.5-3.212q-2.362-3.212-2.362-8.9,0-5.774,2.4-9a7.808,7.808,0,0,1,6.624-3.223,7.658,7.658,0,0,1,6.761,3.443h.21a26.18,26.18,0,0,1-.483-4.682V-32.67H-12.1V0h-4.913l-1.239-3.044h-.273A7.328,7.328,0,0,1-25.185.42Zm2.247-5.1a4.339,4.339,0,0,0,3.6-1.428q1.144-1.428,1.249-4.85v-.693q0-3.779-1.165-5.417a4.328,4.328,0,0,0-3.79-1.638,3.759,3.759,0,0,0-3.328,1.816,9.69,9.69,0,0,0-1.186,5.281,9.183,9.183,0,0,0,1.2,5.2A3.91,3.91,0,0,0-22.938-4.682ZM11.222,0l-.861-3h-.336A6.756,6.756,0,0,1,7.107-.472,9.964,9.964,0,0,1,2.8.42Q-1.333.42-3.433-1.8a8.913,8.913,0,0,1-2.1-6.372V-23.474h6.4v13.71a6.585,6.585,0,0,0,.9,3.811,3.285,3.285,0,0,0,2.876,1.27,4.325,4.325,0,0,0,3.884-1.8q1.2-1.8,1.2-5.952V-23.474h6.4V0ZM32.386.42q-10.96,0-10.96-12.031,0-5.984,2.981-9.144t8.545-3.16a16.291,16.291,0,0,1,7.307,1.6l-1.89,4.955q-1.512-.609-2.813-1a9.065,9.065,0,0,0-2.6-.388q-5,0-5,7.1,0,6.887,5,6.887a11.393,11.393,0,0,0,3.422-.493A12.357,12.357,0,0,0,39.525-6.8v5.48A10.321,10.321,0,0,1,36.386.042,17.652,17.652,0,0,1,32.386.42Zm22.466-5.1a13.882,13.882,0,0,0,4.031-.735V-.651A14.373,14.373,0,0,1,53,.42q-3.842,0-5.6-1.942T45.656-7.349V-18.666H42.591v-2.708l3.527-2.142,1.848-4.955H52.06v5h6.572v4.808H52.06V-7.349a2.5,2.5,0,0,0,.766,2.016A3.024,3.024,0,0,0,54.852-4.682Zm13.878-7.1a9.852,9.852,0,0,0,1.144,5.27A4.092,4.092,0,0,0,73.6-4.724,4.027,4.027,0,0,0,77.287-6.5a9.994,9.994,0,0,0,1.123-5.281,9.7,9.7,0,0,0-1.134-5.228A4.1,4.1,0,0,0,73.56-18.75a4.086,4.086,0,0,0-3.7,1.732A9.687,9.687,0,0,0,68.731-11.779Zm16.23,0q0,5.732-3.023,8.965T73.518.42a11.778,11.778,0,0,1-5.963-1.48,9.85,9.85,0,0,1-3.968-4.252A14.287,14.287,0,0,1,62.2-11.779q0-5.753,3-8.944t8.44-3.191a11.844,11.844,0,0,1,5.963,1.47,9.81,9.81,0,0,1,3.968,4.22A14.155,14.155,0,0,1,84.961-11.779Zm21.668,4.808a6.463,6.463,0,0,1-2.509,5.5Q101.611.42,96.614.42A23.576,23.576,0,0,1,92.246.073a16.519,16.519,0,0,1-3.38-1.018V-6.236a22.324,22.324,0,0,0,4.021,1.407,16.281,16.281,0,0,0,3.937.567q3.485,0,3.485-2.016a1.682,1.682,0,0,0-.462-1.228,6.7,6.7,0,0,0-1.6-1.071q-1.134-.6-3.023-1.4a18.993,18.993,0,0,1-3.979-2.1A5.91,5.91,0,0,1,89.4-14.288a7.312,7.312,0,0,1-.577-3.076,5.576,5.576,0,0,1,2.425-4.84,11.813,11.813,0,0,1,6.876-1.711,19.518,19.518,0,0,1,8.251,1.848l-1.932,4.619q-1.764-.756-3.3-1.239a10.351,10.351,0,0,0-3.128-.483q-2.834,0-2.834,1.533a1.8,1.8,0,0,0,.913,1.491,24.838,24.838,0,0,0,4,1.869A18.582,18.582,0,0,1,104.13-12.2a6.148,6.148,0,0,1,1.89,2.226A6.839,6.839,0,0,1,106.629-6.971Z" transform="translate(1494.983 168.564)"/>
      <path id="Trazado_20468" data-name="Trazado 20468" d="M-87.092,0l-7.391-24.083h-.189q.4,7.349.4,9.805V0h-5.816V-30.7h8.86l7.265,23.474h.126L-76.132-30.7h8.86V0h-6.068V-14.529q0-1.029.031-2.373t.283-7.139h-.189L-81.129,0Zm36.764-19.358a4.062,4.062,0,0,0-3.191,1.291A5.976,5.976,0,0,0-54.842-14.4h8.986a5.338,5.338,0,0,0-1.239-3.664A4.194,4.194,0,0,0-50.328-19.358Zm.9,19.778q-5.669,0-8.86-3.128t-3.191-8.86q0-5.9,2.95-9.123a10.5,10.5,0,0,1,8.157-3.223q4.976,0,7.748,2.834a10.723,10.723,0,0,1,2.771,7.832v3.107H-54.989a6.164,6.164,0,0,0,1.617,4.262,5.688,5.688,0,0,0,4.241,1.533,17.607,17.607,0,0,0,4.01-.441,20.066,20.066,0,0,0,3.947-1.407v4.955A15.037,15.037,0,0,1-44.764.01,22.637,22.637,0,0,1-49.425.42Zm27.883-24.334a10.327,10.327,0,0,1,2.163.189l-.483,6a7.336,7.336,0,0,0-1.89-.21,6.791,6.791,0,0,0-4.777,1.575,5.692,5.692,0,0,0-1.711,4.409V0h-6.4V-23.474h4.85l.945,3.947h.315a8.824,8.824,0,0,1,2.95-3.181A7.274,7.274,0,0,1-21.542-23.915ZM-6.446.42q-10.96,0-10.96-12.031,0-5.984,2.981-9.144t8.545-3.16a16.291,16.291,0,0,1,7.307,1.6l-1.89,4.955q-1.512-.609-2.813-1a9.065,9.065,0,0,0-2.6-.388q-5,0-5,7.1,0,6.887,5,6.887A11.393,11.393,0,0,0-2.457-5.26,12.357,12.357,0,0,0,.693-6.8v5.48A10.321,10.321,0,0,1-2.446.042,17.652,17.652,0,0,1-6.446.42ZM21.038,0,19.8-3.191h-.168A9.458,9.458,0,0,1,16.3-.367,10.755,10.755,0,0,1,11.842.42,7.215,7.215,0,0,1,6.519-1.512a7.418,7.418,0,0,1-1.942-5.5,6.194,6.194,0,0,1,2.614-5.511q2.614-1.774,7.884-1.963l4.073-.126v-1.029q0-3.569-3.653-3.569a16.648,16.648,0,0,0-6.614,1.7L6.761-21.836a19.083,19.083,0,0,1,8.986-2.121q4.724,0,7.244,2.058t2.52,6.257V0Zm-1.89-10.876-2.478.084a7.934,7.934,0,0,0-4.157,1.008,3.165,3.165,0,0,0-1.365,2.813q0,2.708,3.107,2.708a4.921,4.921,0,0,0,3.559-1.281,4.5,4.5,0,0,0,1.333-3.4ZM39.536.42a7.624,7.624,0,0,1-6.5-3.212Q30.675-6,30.675-11.695q0-5.774,2.4-9A7.808,7.808,0,0,1,39.7-23.915a7.658,7.658,0,0,1,6.761,3.443h.21a26.18,26.18,0,0,1-.483-4.682V-32.67h6.425V0H47.7L46.464-3.044h-.273A7.328,7.328,0,0,1,39.536.42Zm2.247-5.1a4.339,4.339,0,0,0,3.6-1.428q1.144-1.428,1.249-4.85v-.693q0-3.779-1.165-5.417a4.328,4.328,0,0,0-3.79-1.638,3.759,3.759,0,0,0-3.328,1.816,9.69,9.69,0,0,0-1.186,5.281,9.183,9.183,0,0,0,1.2,5.2A3.91,3.91,0,0,0,41.782-4.682Zm22.634-7.1a9.852,9.852,0,0,0,1.144,5.27,4.092,4.092,0,0,0,3.727,1.785A4.027,4.027,0,0,0,72.972-6.5,9.994,9.994,0,0,0,74.1-11.779a9.7,9.7,0,0,0-1.134-5.228,4.1,4.1,0,0,0-3.716-1.743,4.086,4.086,0,0,0-3.7,1.732A9.687,9.687,0,0,0,64.416-11.779Zm16.23,0q0,5.732-3.023,8.965T69.2.42A11.778,11.778,0,0,1,63.24-1.06a9.85,9.85,0,0,1-3.968-4.252,14.287,14.287,0,0,1-1.386-6.467q0-5.753,3-8.944t8.44-3.191a11.844,11.844,0,0,1,5.963,1.47,9.81,9.81,0,0,1,3.968,4.22A14.155,14.155,0,0,1,80.646-11.779Zm21.668,4.808A6.463,6.463,0,0,1,99.8-1.47Q97.3.42,92.3.42A23.576,23.576,0,0,1,87.932.073a16.519,16.519,0,0,1-3.38-1.018V-6.236a22.324,22.324,0,0,0,4.021,1.407,16.281,16.281,0,0,0,3.937.567q3.485,0,3.485-2.016a1.682,1.682,0,0,0-.462-1.228,6.7,6.7,0,0,0-1.6-1.071q-1.134-.6-3.023-1.4a18.993,18.993,0,0,1-3.979-2.1,5.91,5.91,0,0,1-1.848-2.215,7.312,7.312,0,0,1-.577-3.076,5.576,5.576,0,0,1,2.425-4.84,11.813,11.813,0,0,1,6.876-1.711,19.518,19.518,0,0,1,8.251,1.848l-1.932,4.619q-1.764-.756-3.3-1.239a10.351,10.351,0,0,0-3.128-.483q-2.834,0-2.834,1.533a1.8,1.8,0,0,0,.913,1.491,24.838,24.838,0,0,0,4,1.869A18.582,18.582,0,0,1,99.815-12.2a6.148,6.148,0,0,1,1.89,2.226A6.839,6.839,0,0,1,102.314-6.971Z" transform="translate(1202.045 466.175) rotate(-90)"/>
      <line id="Línea_148" data-name="Línea 148" y1="406.663" transform="translate(1232.994 260.582)" fill="none" stroke="#000" stroke-miterlimit="10" stroke-width="2"/>
      <line id="Línea_149" data-name="Línea 149" x2="406.663" transform="translate(1294.063 199.512)" fill="none" stroke="#000" stroke-miterlimit="10" stroke-width="2"/>
    </g>
  </g>
</svg>
