<svg xmlns="http://www.w3.org/2000/svg" width="1027" height="318.827" viewBox="0 0 1027 318.827">
  <g id="Grupo_13484" data-name="Grupo 13484" transform="translate(-234 -1640)">
    <g id="Grupo_12289" data-name="Grupo 12289" transform="translate(-1151.719 1284.409)">
      <rect id="Rectángulo_2744" data-name="Rectángulo 2744" width="145.64" height="90.522" transform="translate(1386.719 356.591)" fill="#f0f0f0" stroke="#000" stroke-miterlimit="10" stroke-width="2"/>
      <rect id="Rectángulo_2745" data-name="Rectángulo 2745" width="125.623" height="90.522" transform="translate(1532.359 356.591)" fill="#f0f0f0" stroke="#000" stroke-miterlimit="10" stroke-width="2"/>
      <rect id="Rectángulo_2746" data-name="Rectángulo 2746" width="125.623" height="90.522" transform="translate(1657.982 356.591)" fill="#f0f0f0" stroke="#000" stroke-miterlimit="10" stroke-width="2"/>
      <rect id="Rectángulo_2747" data-name="Rectángulo 2747" width="125.623" height="90.522" transform="translate(1783.605 356.591)" fill="#f0f0f0" stroke="#000" stroke-miterlimit="10" stroke-width="2"/>
      <rect id="Rectángulo_2748" data-name="Rectángulo 2748" width="125.623" height="90.522" transform="translate(1909.228 356.591)" fill="#f0f0f0" stroke="#000" stroke-miterlimit="10" stroke-width="2"/>
      <rect id="Rectángulo_2749" data-name="Rectángulo 2749" width="125.623" height="90.522" transform="translate(2034.851 356.591)" fill="#f0f0f0" stroke="#000" stroke-miterlimit="10" stroke-width="2"/>
      <rect id="Rectángulo_2750" data-name="Rectángulo 2750" width="125.623" height="90.522" transform="translate(2160.473 356.591)" fill="#f0f0f0" stroke="#000" stroke-miterlimit="10" stroke-width="2"/>
      <rect id="Rectángulo_2751" data-name="Rectángulo 2751" width="125.623" height="90.522" transform="translate(2286.096 356.591)" fill="#f0f0f0" stroke="#000" stroke-miterlimit="10" stroke-width="2"/>
      <rect id="Rectángulo_2752" data-name="Rectángulo 2752" width="145.64" height="45.261" transform="translate(1386.719 447.113)" fill="#f4e93e" stroke="#000" stroke-miterlimit="10" stroke-width="2"/>
      <rect id="Rectángulo_2753" data-name="Rectángulo 2753" width="125.623" height="45.261" transform="translate(1532.359 447.113)" fill="#6aa842" stroke="#000" stroke-miterlimit="10" stroke-width="2"/>
      <rect id="Rectángulo_2754" data-name="Rectángulo 2754" width="125.623" height="45.261" transform="translate(1657.982 447.113)" fill="#6aa842" stroke="#000" stroke-miterlimit="10" stroke-width="2"/>
      <rect id="Rectángulo_2755" data-name="Rectángulo 2755" width="125.623" height="45.261" transform="translate(1783.605 447.113)" fill="#6aa842" stroke="#000" stroke-miterlimit="10" stroke-width="2"/>
      <rect id="Rectángulo_2756" data-name="Rectángulo 2756" width="125.623" height="45.261" transform="translate(1909.228 447.113)" fill="#6aa842" stroke="#000" stroke-miterlimit="10" stroke-width="2"/>
      <rect id="Rectángulo_2757" data-name="Rectángulo 2757" width="125.623" height="45.261" transform="translate(2034.851 447.113)" fill="#6aa842" stroke="#000" stroke-miterlimit="10" stroke-width="2"/>
      <rect id="Rectángulo_2758" data-name="Rectángulo 2758" width="125.623" height="45.261" transform="translate(2160.473 447.113)" fill="#416fb3" stroke="#000" stroke-miterlimit="10" stroke-width="2"/>
      <rect id="Rectángulo_2759" data-name="Rectángulo 2759" width="125.623" height="45.261" transform="translate(2286.096 447.113)" fill="#cb4f24" stroke="#000" stroke-miterlimit="10" stroke-width="2"/>
      <rect id="Rectángulo_2760" data-name="Rectángulo 2760" width="145.64" height="45.261" transform="translate(1386.719 492.374)" fill="#f4e93e" stroke="#000" stroke-miterlimit="10" stroke-width="2"/>
      <rect id="Rectángulo_2761" data-name="Rectángulo 2761" width="125.623" height="45.261" transform="translate(1532.359 492.374)" fill="#6aa842" stroke="#000" stroke-miterlimit="10" stroke-width="2"/>
      <rect id="Rectángulo_2762" data-name="Rectángulo 2762" width="125.623" height="45.261" transform="translate(1657.982 492.374)" fill="#6aa842" stroke="#000" stroke-miterlimit="10" stroke-width="2"/>
      <rect id="Rectángulo_2763" data-name="Rectángulo 2763" width="125.623" height="45.261" transform="translate(1783.605 492.374)" fill="#6aa842" stroke="#000" stroke-miterlimit="10" stroke-width="2"/>
      <rect id="Rectángulo_2764" data-name="Rectángulo 2764" width="125.623" height="45.261" transform="translate(1909.228 492.374)" fill="#6aa842" stroke="#000" stroke-miterlimit="10" stroke-width="2"/>
      <rect id="Rectángulo_2765" data-name="Rectángulo 2765" width="125.623" height="45.261" transform="translate(2034.851 492.374)" fill="#6aa842" stroke="#000" stroke-miterlimit="10" stroke-width="2"/>
      <rect id="Rectángulo_2766" data-name="Rectángulo 2766" width="125.623" height="45.261" transform="translate(2160.473 492.374)" fill="#416fb3" stroke="#000" stroke-miterlimit="10" stroke-width="2"/>
      <rect id="Rectángulo_2767" data-name="Rectángulo 2767" width="125.623" height="45.261" transform="translate(2286.096 492.374)" fill="#cb4f24" stroke="#000" stroke-miterlimit="10" stroke-width="2"/>
      <rect id="Rectángulo_2768" data-name="Rectángulo 2768" width="145.64" height="45.261" transform="translate(1386.719 537.635)" fill="#f4e93e" stroke="#000" stroke-miterlimit="10" stroke-width="2"/>
      <rect id="Rectángulo_2769" data-name="Rectángulo 2769" width="125.623" height="45.261" transform="translate(1532.359 537.635)" fill="#6aa842" stroke="#000" stroke-miterlimit="10" stroke-width="2"/>
      <rect id="Rectángulo_2770" data-name="Rectángulo 2770" width="125.623" height="45.261" transform="translate(1657.982 537.635)" fill="#6aa842" stroke="#000" stroke-miterlimit="10" stroke-width="2"/>
      <rect id="Rectángulo_2771" data-name="Rectángulo 2771" width="125.623" height="45.261" transform="translate(1783.605 537.635)" fill="#6aa842" stroke="#000" stroke-miterlimit="10" stroke-width="2"/>
      <rect id="Rectángulo_2772" data-name="Rectángulo 2772" width="125.623" height="45.261" transform="translate(1909.228 537.635)" fill="#6aa842" stroke="#000" stroke-miterlimit="10" stroke-width="2"/>
      <rect id="Rectángulo_2773" data-name="Rectángulo 2773" width="125.623" height="45.261" transform="translate(2034.851 537.635)" fill="#6aa842" stroke="#000" stroke-miterlimit="10" stroke-width="2"/>
      <rect id="Rectángulo_2774" data-name="Rectángulo 2774" width="125.623" height="45.261" transform="translate(2160.473 537.635)" fill="#416fb3" stroke="#000" stroke-miterlimit="10" stroke-width="2"/>
      <rect id="Rectángulo_2775" data-name="Rectángulo 2775" width="125.623" height="45.261" transform="translate(2286.096 537.635)" fill="#cb4f24" stroke="#000" stroke-miterlimit="10" stroke-width="2"/>
      <rect id="Rectángulo_2776" data-name="Rectángulo 2776" width="145.64" height="45.261" transform="translate(1386.719 582.896)" fill="#f4e93e" stroke="#000" stroke-miterlimit="10" stroke-width="2"/>
      <rect id="Rectángulo_2777" data-name="Rectángulo 2777" width="125.623" height="45.261" transform="translate(1532.359 582.896)" fill="#6aa842" stroke="#000" stroke-miterlimit="10" stroke-width="2"/>
      <rect id="Rectángulo_2778" data-name="Rectángulo 2778" width="125.623" height="45.261" transform="translate(1657.982 582.896)" fill="#6aa842" stroke="#000" stroke-miterlimit="10" stroke-width="2"/>
      <rect id="Rectángulo_2779" data-name="Rectángulo 2779" width="125.623" height="45.261" transform="translate(1783.605 582.896)" fill="#6aa842" stroke="#000" stroke-miterlimit="10" stroke-width="2"/>
      <rect id="Rectángulo_2780" data-name="Rectángulo 2780" width="125.623" height="45.261" transform="translate(1909.228 582.896)" fill="#6aa842" stroke="#000" stroke-miterlimit="10" stroke-width="2"/>
      <rect id="Rectángulo_2781" data-name="Rectángulo 2781" width="125.623" height="45.261" transform="translate(2034.851 582.896)" fill="#6aa842" stroke="#000" stroke-miterlimit="10" stroke-width="2"/>
      <rect id="Rectángulo_2782" data-name="Rectángulo 2782" width="125.623" height="45.261" transform="translate(2160.473 582.896)" fill="#416fb3" stroke="#000" stroke-miterlimit="10" stroke-width="2"/>
      <rect id="Rectángulo_2783" data-name="Rectángulo 2783" width="125.623" height="45.261" transform="translate(2286.096 582.896)" fill="#cb4f24" stroke="#000" stroke-miterlimit="10" stroke-width="2"/>
      <rect id="Rectángulo_2784" data-name="Rectángulo 2784" width="145.64" height="45.261" transform="translate(1386.719 628.157)" fill="#f4e93e" stroke="#000" stroke-miterlimit="10" stroke-width="2"/>
      <rect id="Rectángulo_2785" data-name="Rectángulo 2785" width="125.623" height="45.261" transform="translate(1532.359 628.157)" fill="#6aa842" stroke="#000" stroke-miterlimit="10" stroke-width="2"/>
      <rect id="Rectángulo_2786" data-name="Rectángulo 2786" width="125.623" height="45.261" transform="translate(1657.982 628.157)" fill="#6aa842" stroke="#000" stroke-miterlimit="10" stroke-width="2"/>
      <rect id="Rectángulo_2787" data-name="Rectángulo 2787" width="125.623" height="45.261" transform="translate(1783.605 628.157)" fill="#6aa842" stroke="#000" stroke-miterlimit="10" stroke-width="2"/>
      <rect id="Rectángulo_2788" data-name="Rectángulo 2788" width="125.623" height="45.261" transform="translate(1909.228 628.157)" fill="#6aa842" stroke="#000" stroke-miterlimit="10" stroke-width="2"/>
      <rect id="Rectángulo_2789" data-name="Rectángulo 2789" width="125.623" height="45.261" transform="translate(2034.851 628.157)" fill="#6aa842" stroke="#000" stroke-miterlimit="10" stroke-width="2"/>
      <rect id="Rectángulo_2790" data-name="Rectángulo 2790" width="125.623" height="45.261" transform="translate(2160.473 628.157)" fill="#416fb3" stroke="#000" stroke-miterlimit="10" stroke-width="2"/>
      <rect id="Rectángulo_2791" data-name="Rectángulo 2791" width="125.623" height="45.261" transform="translate(2286.096 628.157)" fill="#cb4f24" stroke="#000" stroke-miterlimit="10" stroke-width="2"/>
      <path id="Trazado_20483" data-name="Trazado 20483" d="M-35.843,0h-8.9V-14.991h8.9v3.25h-4.85v2.358H-36.2v3.25h-4.491V-3.3h4.85ZM-19.19,0V-6.316a3.79,3.79,0,0,0-.323-1.769,1.082,1.082,0,0,0-1.02-.59,1.436,1.436,0,0,0-1.354.79,5.384,5.384,0,0,0-.431,2.471V0h-4.02V-6.316a3.955,3.955,0,0,0-.308-1.769,1.042,1.042,0,0,0-.995-.59,1.441,1.441,0,0,0-1.374.841,6.423,6.423,0,0,0-.431,2.748V0h-4.009V-11.618h3.025l.5,1.436h.236a3,3,0,0,1,1.338-1.22,4.557,4.557,0,0,1,1.994-.42,3.917,3.917,0,0,1,3.527,1.528h.318a3.285,3.285,0,0,1,1.369-1.123,4.553,4.553,0,0,1,1.933-.405,3.977,3.977,0,0,1,3.045,1.056,4.567,4.567,0,0,1,.984,3.209V0ZM-5.481.205A4.052,4.052,0,0,1-7.06-.087,4.021,4.021,0,0,1-8.444-1.138h-.185A14.752,14.752,0,0,1-8.444.379V5.045h-4.009V-11.618h3.261l.564,1.477h.185a3.514,3.514,0,0,1,3.086-1.682,3.474,3.474,0,0,1,3.025,1.6,7.663,7.663,0,0,1,1.1,4.389A7.539,7.539,0,0,1-2.379-1.41,3.606,3.606,0,0,1-5.481.205Zm-1.343-8.88a1.3,1.3,0,0,0-1.236.631,4.131,4.131,0,0,0-.385,1.871v.318a4.393,4.393,0,0,0,.4,2.164,1.364,1.364,0,0,0,1.261.667,1.174,1.174,0,0,0,1.118-.661,5.01,5.01,0,0,0,.349-2.189,4.843,4.843,0,0,0-.349-2.148A1.211,1.211,0,0,0-6.824-8.675ZM8.065-11.823a5.8,5.8,0,0,1,.995.082l.226.041L8.926-7.916a5.9,5.9,0,0,0-1.364-.123,2.6,2.6,0,0,0-1.907.6A2.351,2.351,0,0,0,5.06-5.711V0H1.051V-11.618H4.035L4.66-9.762h.195a4.015,4.015,0,0,1,1.4-1.492A3.35,3.35,0,0,1,8.065-11.823ZM16.094.205a6.237,6.237,0,0,1-4.507-1.543,5.811,5.811,0,0,1-1.6-4.394,6.33,6.33,0,0,1,1.487-4.517,5.559,5.559,0,0,1,4.245-1.574,5.632,5.632,0,0,1,4.055,1.369A5.2,5.2,0,0,1,21.2-6.511v1.784H14.032A1.988,1.988,0,0,0,14.745-3.2a2.792,2.792,0,0,0,1.83.554,8.838,8.838,0,0,0,1.943-.2,9.625,9.625,0,0,0,1.923-.682V-.646a7.074,7.074,0,0,1-1.948.667A13.482,13.482,0,0,1,16.094.205Zm-.236-9.3a1.667,1.667,0,0,0-1.184.446,2.094,2.094,0,0,0-.559,1.4H17.56a2,2,0,0,0-.477-1.343A1.574,1.574,0,0,0,15.858-9.1ZM32.438-3.568a3.3,3.3,0,0,1-1.271,2.82,6,6,0,0,1-3.65.954A15.854,15.854,0,0,1,25.271.067a9.539,9.539,0,0,1-1.948-.508V-3.65a12.063,12.063,0,0,0,2.046.677,8.621,8.621,0,0,0,1.984.267q1.3,0,1.3-.595a.673.673,0,0,0-.364-.549,16.614,16.614,0,0,0-2.117-.938,5.276,5.276,0,0,1-2.235-1.492A3.4,3.4,0,0,1,23.3-8.4a2.933,2.933,0,0,1,1.251-2.522,5.973,5.973,0,0,1,3.538-.9,8.919,8.919,0,0,1,2.158.251,12.833,12.833,0,0,1,2.1.733L31.259-8.254a12.213,12.213,0,0,0-1.692-.61,5.63,5.63,0,0,0-1.456-.251q-.984,0-.984.482a.6.6,0,0,0,.344.508,18.492,18.492,0,0,0,1.984.856,7.623,7.623,0,0,1,1.82.984,2.948,2.948,0,0,1,.882,1.133A3.98,3.98,0,0,1,32.438-3.568ZM42.241,0l-.769-1.538H41.39A4.566,4.566,0,0,1,39.739-.164a5.453,5.453,0,0,1-2.174.369,3.41,3.41,0,0,1-2.584-.984,3.84,3.84,0,0,1-.943-2.769A3.149,3.149,0,0,1,35.33-6.311a7.064,7.064,0,0,1,3.743-1.02l1.938-.062v-.164A1.26,1.26,0,0,0,39.6-8.993a8.462,8.462,0,0,0-3.23.861l-1.159-2.646a11.145,11.145,0,0,1,5.127-1.046,4.982,4.982,0,0,1,3.461,1.107,3.961,3.961,0,0,1,1.225,3.1V0ZM39.267-2.625a1.808,1.808,0,0,0,1.246-.461,1.532,1.532,0,0,0,.518-1.2v-.9l-.923.041q-1.979.072-1.979,1.456Q38.129-2.625,39.267-2.625Z" transform="translate(1454.786 406.113)"/>
      <path id="Trazado_20493" data-name="Trazado 20493" d="M-45.5,0-48.59-10.081h-.079Q-48.5-7-48.5-5.977V0h-2.435V-12.85h3.709l3.041,9.826h.053l3.226-9.826H-37.2V0h-2.54V-6.082q0-.431.013-.993t.119-2.988h-.079L-43,0Zm11.206-12.366q0-1.31,1.459-1.31t1.459,1.31a1.277,1.277,0,0,1-.365.971,1.533,1.533,0,0,1-1.094.347Q-34.291-11.048-34.291-12.366ZM-31.5,0h-2.681V-9.826H-31.5Zm11.558-8.1a1.7,1.7,0,0,0-1.336.541,2.5,2.5,0,0,0-.554,1.534h3.762a2.235,2.235,0,0,0-.519-1.534A1.756,1.756,0,0,0-19.938-8.1ZM-19.56.176a5.072,5.072,0,0,1-3.709-1.31A4.959,4.959,0,0,1-24.6-4.843,5.454,5.454,0,0,1-23.37-8.662a4.4,4.4,0,0,1,3.415-1.349,4.328,4.328,0,0,1,3.243,1.187,4.489,4.489,0,0,1,1.16,3.278v1.3h-6.337a2.58,2.58,0,0,0,.677,1.784,2.381,2.381,0,0,0,1.775.642A7.37,7.37,0,0,0-17.758-2a8.4,8.4,0,0,0,1.652-.589V-.519a6.294,6.294,0,0,1-1.5.523A9.476,9.476,0,0,1-19.56.176ZM-4.575,0H-7.255V-5.739a2.891,2.891,0,0,0-.356-1.6,1.252,1.252,0,0,0-1.121-.532,1.623,1.623,0,0,0-1.494.756,4.958,4.958,0,0,0-.466,2.487V0h-2.681V-9.826h2.048l.36,1.257h.149A2.724,2.724,0,0,1-9.672-9.628a3.71,3.71,0,0,1,1.714-.382A3.087,3.087,0,0,1-4.97-8.569h.237A2.655,2.655,0,0,1-3.568-9.633a3.884,3.884,0,0,1,1.736-.378,3.426,3.426,0,0,1,2.527.857,3.763,3.763,0,0,1,.857,2.747V0H-1.138V-5.739a2.891,2.891,0,0,0-.356-1.6,1.252,1.252,0,0,0-1.121-.532,1.672,1.672,0,0,0-1.472.7,3.99,3.99,0,0,0-.488,2.232ZM9.7.176A3.259,3.259,0,0,1,6.983-1.081H6.842Q6.983.149,6.983.343V4.324H4.3V-9.826h2.18L6.86-8.552h.123a3.1,3.1,0,0,1,2.786-1.459,3.189,3.189,0,0,1,2.725,1.345,6.219,6.219,0,0,1,.984,3.735A7.376,7.376,0,0,1,13.017-2.2,3.834,3.834,0,0,1,11.7-.431,3.367,3.367,0,0,1,9.7.176ZM8.908-7.866a1.693,1.693,0,0,0-1.45.611,3.507,3.507,0,0,0-.475,2.017v.29a4.14,4.14,0,0,0,.47,2.268A1.678,1.678,0,0,0,8.943-2q1.8,0,1.8-2.971A4.242,4.242,0,0,0,10.3-7.141,1.515,1.515,0,0,0,8.908-7.866Zm12.27-2.145a4.323,4.323,0,0,1,.905.079l-.2,2.514a3.071,3.071,0,0,0-.791-.088,2.843,2.843,0,0,0-2,.659A2.383,2.383,0,0,0,18.374-5V0H15.693V-9.826h2.03l.4,1.652h.132a3.694,3.694,0,0,1,1.235-1.332A3.045,3.045,0,0,1,21.177-10.011Zm6.4,1.907a1.7,1.7,0,0,0-1.336.541,2.5,2.5,0,0,0-.554,1.534h3.762a2.235,2.235,0,0,0-.519-1.534A1.756,1.756,0,0,0,27.576-8.1ZM27.954.176a5.072,5.072,0,0,1-3.709-1.31,4.959,4.959,0,0,1-1.336-3.709,5.454,5.454,0,0,1,1.235-3.819,4.4,4.4,0,0,1,3.415-1.349A4.328,4.328,0,0,1,30.8-8.824a4.489,4.489,0,0,1,1.16,3.278v1.3H25.625A2.58,2.58,0,0,0,26.3-2.461a2.381,2.381,0,0,0,1.775.642A7.37,7.37,0,0,0,29.755-2a8.4,8.4,0,0,0,1.652-.589V-.519A6.294,6.294,0,0,1,29.9,0,9.476,9.476,0,0,1,27.954.176ZM41-2.918a2.705,2.705,0,0,1-1.05,2.3A5.19,5.19,0,0,1,36.8.176,9.869,9.869,0,0,1,34.976.031,6.915,6.915,0,0,1,33.561-.4V-2.61a9.345,9.345,0,0,0,1.683.589,6.815,6.815,0,0,0,1.648.237q1.459,0,1.459-.844a.7.7,0,0,0-.193-.514,2.8,2.8,0,0,0-.668-.448q-.475-.25-1.266-.584a7.951,7.951,0,0,1-1.666-.879,2.474,2.474,0,0,1-.773-.927,3.061,3.061,0,0,1-.242-1.288,2.334,2.334,0,0,1,1.015-2.026,4.945,4.945,0,0,1,2.878-.716,8.17,8.17,0,0,1,3.454.773L40.083-7.3q-.738-.316-1.38-.519a4.333,4.333,0,0,0-1.31-.2q-1.187,0-1.187.642a.754.754,0,0,0,.382.624,10.4,10.4,0,0,0,1.674.782,7.778,7.778,0,0,1,1.688.87,2.573,2.573,0,0,1,.791.932A2.863,2.863,0,0,1,41-2.918ZM49.329,0,48.81-1.336h-.07A3.959,3.959,0,0,1,47.347-.154a4.5,4.5,0,0,1-1.868.33,3.02,3.02,0,0,1-2.228-.809,3.105,3.105,0,0,1-.813-2.3,2.593,2.593,0,0,1,1.094-2.307,6.341,6.341,0,0,1,3.3-.822l1.705-.053v-.431a1.336,1.336,0,0,0-1.529-1.494,6.969,6.969,0,0,0-2.769.712l-.888-1.811a7.988,7.988,0,0,1,3.762-.888,4.686,4.686,0,0,1,3.032.861A3.183,3.183,0,0,1,51.2-6.548V0Zm-.791-4.553L47.5-4.518a3.321,3.321,0,0,0-1.74.422,1.325,1.325,0,0,0-.571,1.178q0,1.134,1.3,1.134a2.06,2.06,0,0,0,1.49-.536,1.883,1.883,0,0,0,.558-1.424Z" transform="translate(1454.063 473.381)"/>
      <path id="Trazado_20494" data-name="Trazado 20494" d="M-20.544-10.767a2.776,2.776,0,0,0-2.382,1.156A5.377,5.377,0,0,0-23.77-6.39q0,4.3,3.226,4.3a10.2,10.2,0,0,0,3.278-.677V-.483A9.1,9.1,0,0,1-20.8.176a5.389,5.389,0,0,1-4.289-1.7,7.2,7.2,0,0,1-1.485-4.882,7.973,7.973,0,0,1,.729-3.511,5.272,5.272,0,0,1,2.1-2.312,6.2,6.2,0,0,1,3.2-.8,8.646,8.646,0,0,1,3.762.905l-.879,2.215a14.549,14.549,0,0,0-1.45-.6A4.326,4.326,0,0,0-20.544-10.767Zm7.937,5.836a4.124,4.124,0,0,0,.479,2.206,1.713,1.713,0,0,0,1.56.747A1.686,1.686,0,0,0-9.026-2.72a4.183,4.183,0,0,0,.47-2.21,4.059,4.059,0,0,0-.475-2.188,1.716,1.716,0,0,0-1.556-.729,1.711,1.711,0,0,0-1.547.725A4.055,4.055,0,0,0-12.608-4.931Zm6.794,0A5.28,5.28,0,0,1-7.08-1.178,4.589,4.589,0,0,1-10.6.176a4.93,4.93,0,0,1-2.5-.62,4.123,4.123,0,0,1-1.661-1.78,5.981,5.981,0,0,1-.58-2.707,5.251,5.251,0,0,1,1.257-3.744,4.616,4.616,0,0,1,3.533-1.336,4.958,4.958,0,0,1,2.5.615A4.106,4.106,0,0,1-6.394-7.629,5.925,5.925,0,0,1-5.814-4.931ZM5.2,0H2.518V-5.739a2.891,2.891,0,0,0-.356-1.6,1.252,1.252,0,0,0-1.121-.532A1.623,1.623,0,0,0-.453-7.11,4.958,4.958,0,0,0-.918-4.623V0H-3.6V-9.826h2.048l.36,1.257h.149A2.724,2.724,0,0,1,.1-9.628a3.71,3.71,0,0,1,1.714-.382A3.087,3.087,0,0,1,4.8-8.569h.237A2.655,2.655,0,0,1,6.205-9.633a3.884,3.884,0,0,1,1.736-.378,3.426,3.426,0,0,1,2.527.857,3.763,3.763,0,0,1,.857,2.747V0H8.635V-5.739a2.891,2.891,0,0,0-.356-1.6,1.252,1.252,0,0,0-1.121-.532,1.672,1.672,0,0,0-1.472.7A3.99,3.99,0,0,0,5.2-4.931ZM24.781,0H22.065V-7.436l.026-1.222.044-1.336q-.677.677-.94.888L19.718-7.919l-1.31-1.635,4.14-3.3h2.232Z" transform="translate(1456.646 518.642)"/>
      <path id="Trazado_20495" data-name="Trazado 20495" d="M-20.544-10.767a2.776,2.776,0,0,0-2.382,1.156A5.377,5.377,0,0,0-23.77-6.39q0,4.3,3.226,4.3a10.2,10.2,0,0,0,3.278-.677V-.483A9.1,9.1,0,0,1-20.8.176a5.389,5.389,0,0,1-4.289-1.7,7.2,7.2,0,0,1-1.485-4.882,7.973,7.973,0,0,1,.729-3.511,5.272,5.272,0,0,1,2.1-2.312,6.2,6.2,0,0,1,3.2-.8,8.646,8.646,0,0,1,3.762.905l-.879,2.215a14.549,14.549,0,0,0-1.45-.6A4.326,4.326,0,0,0-20.544-10.767Zm7.937,5.836a4.124,4.124,0,0,0,.479,2.206,1.713,1.713,0,0,0,1.56.747A1.686,1.686,0,0,0-9.026-2.72a4.183,4.183,0,0,0,.47-2.21,4.059,4.059,0,0,0-.475-2.188,1.716,1.716,0,0,0-1.556-.729,1.711,1.711,0,0,0-1.547.725A4.055,4.055,0,0,0-12.608-4.931Zm6.794,0A5.28,5.28,0,0,1-7.08-1.178,4.589,4.589,0,0,1-10.6.176a4.93,4.93,0,0,1-2.5-.62,4.123,4.123,0,0,1-1.661-1.78,5.981,5.981,0,0,1-.58-2.707,5.251,5.251,0,0,1,1.257-3.744,4.616,4.616,0,0,1,3.533-1.336,4.958,4.958,0,0,1,2.5.615A4.106,4.106,0,0,1-6.394-7.629,5.925,5.925,0,0,1-5.814-4.931ZM5.2,0H2.518V-5.739a2.891,2.891,0,0,0-.356-1.6,1.252,1.252,0,0,0-1.121-.532A1.623,1.623,0,0,0-.453-7.11,4.958,4.958,0,0,0-.918-4.623V0H-3.6V-9.826h2.048l.36,1.257h.149A2.724,2.724,0,0,1,.1-9.628a3.71,3.71,0,0,1,1.714-.382A3.087,3.087,0,0,1,4.8-8.569h.237A2.655,2.655,0,0,1,6.205-9.633a3.884,3.884,0,0,1,1.736-.378,3.426,3.426,0,0,1,2.527.857,3.763,3.763,0,0,1,.857,2.747V0H8.635V-5.739a2.891,2.891,0,0,0-.356-1.6,1.252,1.252,0,0,0-1.121-.532,1.672,1.672,0,0,0-1.472.7A3.99,3.99,0,0,0,5.2-4.931Zm21.85,0H18.066V-1.89L21.292-5.15q1.433-1.468,1.872-2.035a4.475,4.475,0,0,0,.633-1.05,2.674,2.674,0,0,0,.193-1,1.46,1.46,0,0,0-.426-1.151,1.653,1.653,0,0,0-1.138-.378,3.273,3.273,0,0,0-1.45.343,7.484,7.484,0,0,0-1.468.976L18.031-11.2A9.633,9.633,0,0,1,19.6-12.34a5.775,5.775,0,0,1,1.362-.514,6.98,6.98,0,0,1,1.652-.18,4.892,4.892,0,0,1,2.127.439,3.393,3.393,0,0,1,1.433,1.23,3.269,3.269,0,0,1,.51,1.811,4.432,4.432,0,0,1-.312,1.666,6.4,6.4,0,0,1-.967,1.6A23.635,23.635,0,0,1,23.1-3.964L21.45-2.408v.123h5.6Z" transform="translate(1456.646 563.902)"/>
      <path id="Trazado_20496" data-name="Trazado 20496" d="M-20.544-10.767a2.776,2.776,0,0,0-2.382,1.156A5.377,5.377,0,0,0-23.77-6.39q0,4.3,3.226,4.3a10.2,10.2,0,0,0,3.278-.677V-.483A9.1,9.1,0,0,1-20.8.176a5.389,5.389,0,0,1-4.289-1.7,7.2,7.2,0,0,1-1.485-4.882,7.973,7.973,0,0,1,.729-3.511,5.272,5.272,0,0,1,2.1-2.312,6.2,6.2,0,0,1,3.2-.8,8.646,8.646,0,0,1,3.762.905l-.879,2.215a14.549,14.549,0,0,0-1.45-.6A4.326,4.326,0,0,0-20.544-10.767Zm7.937,5.836a4.124,4.124,0,0,0,.479,2.206,1.713,1.713,0,0,0,1.56.747A1.686,1.686,0,0,0-9.026-2.72a4.183,4.183,0,0,0,.47-2.21,4.059,4.059,0,0,0-.475-2.188,1.716,1.716,0,0,0-1.556-.729,1.711,1.711,0,0,0-1.547.725A4.055,4.055,0,0,0-12.608-4.931Zm6.794,0A5.28,5.28,0,0,1-7.08-1.178,4.589,4.589,0,0,1-10.6.176a4.93,4.93,0,0,1-2.5-.62,4.123,4.123,0,0,1-1.661-1.78,5.981,5.981,0,0,1-.58-2.707,5.251,5.251,0,0,1,1.257-3.744,4.616,4.616,0,0,1,3.533-1.336,4.958,4.958,0,0,1,2.5.615A4.106,4.106,0,0,1-6.394-7.629,5.925,5.925,0,0,1-5.814-4.931ZM5.2,0H2.518V-5.739a2.891,2.891,0,0,0-.356-1.6,1.252,1.252,0,0,0-1.121-.532A1.623,1.623,0,0,0-.453-7.11,4.958,4.958,0,0,0-.918-4.623V0H-3.6V-9.826h2.048l.36,1.257h.149A2.724,2.724,0,0,1,.1-9.628a3.71,3.71,0,0,1,1.714-.382A3.087,3.087,0,0,1,4.8-8.569h.237A2.655,2.655,0,0,1,6.205-9.633a3.884,3.884,0,0,1,1.736-.378,3.426,3.426,0,0,1,2.527.857,3.763,3.763,0,0,1,.857,2.747V0H8.635V-5.739a2.891,2.891,0,0,0-.356-1.6,1.252,1.252,0,0,0-1.121-.532,1.672,1.672,0,0,0-1.472.7A3.99,3.99,0,0,0,5.2-4.931ZM26.547-9.976a3.024,3.024,0,0,1-.729,2.048,3.781,3.781,0,0,1-2.048,1.16v.053a4.092,4.092,0,0,1,2.355.945,2.647,2.647,0,0,1,.8,2.026A3.433,3.433,0,0,1,25.581-.857,6.2,6.2,0,0,1,21.74.176a9.326,9.326,0,0,1-3.709-.694V-2.83a8.383,8.383,0,0,0,1.644.615,6.916,6.916,0,0,0,1.775.237,3.453,3.453,0,0,0,1.986-.457A1.677,1.677,0,0,0,24.078-3.9a1.326,1.326,0,0,0-.738-1.283,5.462,5.462,0,0,0-2.355-.378h-.976V-7.646H21a4.619,4.619,0,0,0,2.184-.391,1.412,1.412,0,0,0,.69-1.34q0-1.459-1.828-1.459a4.184,4.184,0,0,0-1.288.211,6.29,6.29,0,0,0-1.455.729l-1.257-1.872a6.983,6.983,0,0,1,4.192-1.266,5.413,5.413,0,0,1,3.151.809A2.593,2.593,0,0,1,26.547-9.976Z" transform="translate(1456.646 609.164)"/>
      <path id="Trazado_20497" data-name="Trazado 20497" d="M-20.544-10.767a2.776,2.776,0,0,0-2.382,1.156A5.377,5.377,0,0,0-23.77-6.39q0,4.3,3.226,4.3a10.2,10.2,0,0,0,3.278-.677V-.483A9.1,9.1,0,0,1-20.8.176a5.389,5.389,0,0,1-4.289-1.7,7.2,7.2,0,0,1-1.485-4.882,7.973,7.973,0,0,1,.729-3.511,5.272,5.272,0,0,1,2.1-2.312,6.2,6.2,0,0,1,3.2-.8,8.646,8.646,0,0,1,3.762.905l-.879,2.215a14.549,14.549,0,0,0-1.45-.6A4.326,4.326,0,0,0-20.544-10.767Zm7.937,5.836a4.124,4.124,0,0,0,.479,2.206,1.713,1.713,0,0,0,1.56.747A1.686,1.686,0,0,0-9.026-2.72a4.183,4.183,0,0,0,.47-2.21,4.059,4.059,0,0,0-.475-2.188,1.716,1.716,0,0,0-1.556-.729,1.711,1.711,0,0,0-1.547.725A4.055,4.055,0,0,0-12.608-4.931Zm6.794,0A5.28,5.28,0,0,1-7.08-1.178,4.589,4.589,0,0,1-10.6.176a4.93,4.93,0,0,1-2.5-.62,4.123,4.123,0,0,1-1.661-1.78,5.981,5.981,0,0,1-.58-2.707,5.251,5.251,0,0,1,1.257-3.744,4.616,4.616,0,0,1,3.533-1.336,4.958,4.958,0,0,1,2.5.615A4.106,4.106,0,0,1-6.394-7.629,5.925,5.925,0,0,1-5.814-4.931ZM5.2,0H2.518V-5.739a2.891,2.891,0,0,0-.356-1.6,1.252,1.252,0,0,0-1.121-.532A1.623,1.623,0,0,0-.453-7.11,4.958,4.958,0,0,0-.918-4.623V0H-3.6V-9.826h2.048l.36,1.257h.149A2.724,2.724,0,0,1,.1-9.628a3.71,3.71,0,0,1,1.714-.382A3.087,3.087,0,0,1,4.8-8.569h.237A2.655,2.655,0,0,1,6.205-9.633a3.884,3.884,0,0,1,1.736-.378,3.426,3.426,0,0,1,2.527.857,3.763,3.763,0,0,1,.857,2.747V0H8.635V-5.739a2.891,2.891,0,0,0-.356-1.6,1.252,1.252,0,0,0-1.121-.532,1.672,1.672,0,0,0-1.472.7A3.99,3.99,0,0,0,5.2-4.931Zm22.14-2.663H25.792V0H23.137V-2.663H17.653v-1.89l5.634-8.3h2.5v8.077h1.547Zm-4.2-2.109v-2.18q0-.545.044-1.582t.07-1.2h-.07A9.8,9.8,0,0,1,22.4-8.332l-2.355,3.56Z" transform="translate(1456.646 654.425)"/>
      <path id="Trazado_20484" data-name="Trazado 20484" d="M-37.581,0h-3.989V-14.991h8.859v3.25h-4.871V-8.88h4.491v3.25h-4.491Zm14.673,0-.769-1.538h-.082A4.566,4.566,0,0,1-25.409-.164a5.453,5.453,0,0,1-2.174.369,3.41,3.41,0,0,1-2.584-.984,3.84,3.84,0,0,1-.943-2.769,3.149,3.149,0,0,1,1.292-2.763,7.064,7.064,0,0,1,3.743-1.02l1.938-.062v-.164a1.26,1.26,0,0,0-1.415-1.436,8.462,8.462,0,0,0-3.23.861l-1.159-2.646a11.145,11.145,0,0,1,5.127-1.046,4.982,4.982,0,0,1,3.461,1.107,3.961,3.961,0,0,1,1.225,3.1V0Zm-2.974-2.625a1.808,1.808,0,0,0,1.246-.461,1.532,1.532,0,0,0,.518-1.2v-.9l-.923.041q-1.979.072-1.979,1.456Q-27.019-2.625-25.881-2.625ZM-12.11.205a5.707,5.707,0,0,1-4.322-1.538A6.145,6.145,0,0,1-17.9-5.752a6.059,6.059,0,0,1,1.589-4.481,6.117,6.117,0,0,1,4.522-1.589,8.472,8.472,0,0,1,3.8.882L-9.167-7.978a12.857,12.857,0,0,0-1.343-.508,4.325,4.325,0,0,0-1.282-.19,1.735,1.735,0,0,0-1.507.759,3.691,3.691,0,0,0-.533,2.143q0,2.789,2.061,2.789A6.235,6.235,0,0,0-8.388-4.009V-.82A6.588,6.588,0,0,1-12.11.205ZM-.39-2.963a5.963,5.963,0,0,0,1.938-.4V-.441a7.891,7.891,0,0,1-1.543.5A8.732,8.732,0,0,1-1.712.205a3.752,3.752,0,0,1-2.912-.99,4.431,4.431,0,0,1-.892-3.04V-8.613h-1.4v-1.63L-5.137-11.5l1.036-2.44h2.625v2.328H1.374v3H-1.477v4.522Q-1.477-2.963-.39-2.963ZM14.673-5.834A6.15,6.15,0,0,1,13.14-1.389,5.673,5.673,0,0,1,8.849.205,5.559,5.559,0,0,1,4.64-1.425,6.1,6.1,0,0,1,3.076-5.834a6.062,6.062,0,0,1,1.533-4.414,5.728,5.728,0,0,1,4.3-1.574,6.133,6.133,0,0,1,3.025.728,4.97,4.97,0,0,1,2.025,2.087A6.738,6.738,0,0,1,14.673-5.834Zm-7.526,0a5.16,5.16,0,0,0,.4,2.281,1.39,1.39,0,0,0,1.343.784,1.35,1.35,0,0,0,1.318-.784,5.341,5.341,0,0,0,.385-2.281A5.071,5.071,0,0,0,10.2-8.08,1.376,1.376,0,0,0,8.87-8.839a1.382,1.382,0,0,0-1.323.754A4.952,4.952,0,0,0,7.147-5.834Zm16.827-5.988a5.8,5.8,0,0,1,.995.082l.226.041-.359,3.784a5.9,5.9,0,0,0-1.364-.123,2.6,2.6,0,0,0-1.907.6,2.351,2.351,0,0,0-.595,1.728V0H16.96V-11.618h2.984l.625,1.856h.195a4.015,4.015,0,0,1,1.4-1.492A3.35,3.35,0,0,1,23.974-11.823ZM40.544,0H36.432V-7.937q0-1.446.062-2.646a8.794,8.794,0,0,1-.943.964l-1.7,1.4-2.1-2.584,5.147-4.194h3.65Z" transform="translate(1590.728 406.113)"/>
      <path id="Trazado_20485" data-name="Trazado 20485" d="M-37.581,0h-3.989V-14.991h8.859v3.25h-4.871V-8.88h4.491v3.25h-4.491Zm14.673,0-.769-1.538h-.082A4.566,4.566,0,0,1-25.409-.164a5.453,5.453,0,0,1-2.174.369,3.41,3.41,0,0,1-2.584-.984,3.84,3.84,0,0,1-.943-2.769,3.149,3.149,0,0,1,1.292-2.763,7.064,7.064,0,0,1,3.743-1.02l1.938-.062v-.164a1.26,1.26,0,0,0-1.415-1.436,8.462,8.462,0,0,0-3.23.861l-1.159-2.646a11.145,11.145,0,0,1,5.127-1.046,4.982,4.982,0,0,1,3.461,1.107,3.961,3.961,0,0,1,1.225,3.1V0Zm-2.974-2.625a1.808,1.808,0,0,0,1.246-.461,1.532,1.532,0,0,0,.518-1.2v-.9l-.923.041q-1.979.072-1.979,1.456Q-27.019-2.625-25.881-2.625ZM-12.11.205a5.707,5.707,0,0,1-4.322-1.538A6.145,6.145,0,0,1-17.9-5.752a6.059,6.059,0,0,1,1.589-4.481,6.117,6.117,0,0,1,4.522-1.589,8.472,8.472,0,0,1,3.8.882L-9.167-7.978a12.857,12.857,0,0,0-1.343-.508,4.325,4.325,0,0,0-1.282-.19,1.735,1.735,0,0,0-1.507.759,3.691,3.691,0,0,0-.533,2.143q0,2.789,2.061,2.789A6.235,6.235,0,0,0-8.388-4.009V-.82A6.588,6.588,0,0,1-12.11.205ZM-.39-2.963a5.963,5.963,0,0,0,1.938-.4V-.441a7.891,7.891,0,0,1-1.543.5A8.732,8.732,0,0,1-1.712.205a3.752,3.752,0,0,1-2.912-.99,4.431,4.431,0,0,1-.892-3.04V-8.613h-1.4v-1.63L-5.137-11.5l1.036-2.44h2.625v2.328H1.374v3H-1.477v4.522Q-1.477-2.963-.39-2.963ZM14.673-5.834A6.15,6.15,0,0,1,13.14-1.389,5.673,5.673,0,0,1,8.849.205,5.559,5.559,0,0,1,4.64-1.425,6.1,6.1,0,0,1,3.076-5.834a6.062,6.062,0,0,1,1.533-4.414,5.728,5.728,0,0,1,4.3-1.574,6.133,6.133,0,0,1,3.025.728,4.97,4.97,0,0,1,2.025,2.087A6.738,6.738,0,0,1,14.673-5.834Zm-7.526,0a5.16,5.16,0,0,0,.4,2.281,1.39,1.39,0,0,0,1.343.784,1.35,1.35,0,0,0,1.318-.784,5.341,5.341,0,0,0,.385-2.281A5.071,5.071,0,0,0,10.2-8.08,1.376,1.376,0,0,0,8.87-8.839a1.382,1.382,0,0,0-1.323.754A4.952,4.952,0,0,0,7.147-5.834Zm16.827-5.988a5.8,5.8,0,0,1,.995.082l.226.041-.359,3.784a5.9,5.9,0,0,0-1.364-.123,2.6,2.6,0,0,0-1.907.6,2.351,2.351,0,0,0-.595,1.728V0H16.96V-11.618h2.984l.625,1.856h.195a4.015,4.015,0,0,1,1.4-1.492A3.35,3.35,0,0,1,23.974-11.823ZM42.39,0H31.51V-2.666l3.661-3.7q1.569-1.641,2.051-2.24a4.908,4.908,0,0,0,.672-1.031,2.215,2.215,0,0,0,.19-.9,1.174,1.174,0,0,0-.379-.923,1.548,1.548,0,0,0-1.066-.338,2.91,2.91,0,0,0-1.43.405A10.26,10.26,0,0,0,33.571-10.2l-2.225-2.6a12,12,0,0,1,1.948-1.482,6.958,6.958,0,0,1,1.718-.682,8.485,8.485,0,0,1,2.087-.236,6.289,6.289,0,0,1,2.6.513,4.068,4.068,0,0,1,1.774,1.461A3.758,3.758,0,0,1,42.1-11.1a5.751,5.751,0,0,1-.22,1.63A5.758,5.758,0,0,1,41.2-8,10.172,10.172,0,0,1,39.975-6.48q-.764.8-3.256,3.035v.1h5.67Z" transform="translate(1716.35 406.113)"/>
      <path id="Trazado_20486" data-name="Trazado 20486" d="M-37.581,0h-3.989V-14.991h8.859v3.25h-4.871V-8.88h4.491v3.25h-4.491Zm14.673,0-.769-1.538h-.082A4.566,4.566,0,0,1-25.409-.164a5.453,5.453,0,0,1-2.174.369,3.41,3.41,0,0,1-2.584-.984,3.84,3.84,0,0,1-.943-2.769,3.149,3.149,0,0,1,1.292-2.763,7.064,7.064,0,0,1,3.743-1.02l1.938-.062v-.164a1.26,1.26,0,0,0-1.415-1.436,8.462,8.462,0,0,0-3.23.861l-1.159-2.646a11.145,11.145,0,0,1,5.127-1.046,4.982,4.982,0,0,1,3.461,1.107,3.961,3.961,0,0,1,1.225,3.1V0Zm-2.974-2.625a1.808,1.808,0,0,0,1.246-.461,1.532,1.532,0,0,0,.518-1.2v-.9l-.923.041q-1.979.072-1.979,1.456Q-27.019-2.625-25.881-2.625ZM-12.11.205a5.707,5.707,0,0,1-4.322-1.538A6.145,6.145,0,0,1-17.9-5.752a6.059,6.059,0,0,1,1.589-4.481,6.117,6.117,0,0,1,4.522-1.589,8.472,8.472,0,0,1,3.8.882L-9.167-7.978a12.857,12.857,0,0,0-1.343-.508,4.325,4.325,0,0,0-1.282-.19,1.735,1.735,0,0,0-1.507.759,3.691,3.691,0,0,0-.533,2.143q0,2.789,2.061,2.789A6.235,6.235,0,0,0-8.388-4.009V-.82A6.588,6.588,0,0,1-12.11.205ZM-.39-2.963a5.963,5.963,0,0,0,1.938-.4V-.441a7.891,7.891,0,0,1-1.543.5A8.732,8.732,0,0,1-1.712.205a3.752,3.752,0,0,1-2.912-.99,4.431,4.431,0,0,1-.892-3.04V-8.613h-1.4v-1.63L-5.137-11.5l1.036-2.44h2.625v2.328H1.374v3H-1.477v4.522Q-1.477-2.963-.39-2.963ZM14.673-5.834A6.15,6.15,0,0,1,13.14-1.389,5.673,5.673,0,0,1,8.849.205,5.559,5.559,0,0,1,4.64-1.425,6.1,6.1,0,0,1,3.076-5.834a6.062,6.062,0,0,1,1.533-4.414,5.728,5.728,0,0,1,4.3-1.574,6.133,6.133,0,0,1,3.025.728,4.97,4.97,0,0,1,2.025,2.087A6.738,6.738,0,0,1,14.673-5.834Zm-7.526,0a5.16,5.16,0,0,0,.4,2.281,1.39,1.39,0,0,0,1.343.784,1.35,1.35,0,0,0,1.318-.784,5.341,5.341,0,0,0,.385-2.281A5.071,5.071,0,0,0,10.2-8.08,1.376,1.376,0,0,0,8.87-8.839a1.382,1.382,0,0,0-1.323.754A4.952,4.952,0,0,0,7.147-5.834Zm16.827-5.988a5.8,5.8,0,0,1,.995.082l.226.041-.359,3.784a5.9,5.9,0,0,0-1.364-.123,2.6,2.6,0,0,0-1.907.6,2.351,2.351,0,0,0-.595,1.728V0H16.96V-11.618h2.984l.625,1.856h.195a4.015,4.015,0,0,1,1.4-1.492A3.35,3.35,0,0,1,23.974-11.823Zm17.914.082a3.572,3.572,0,0,1-.851,2.394A4.844,4.844,0,0,1,38.575-7.9v.062q3.753.472,3.753,3.548A3.845,3.845,0,0,1,40.672-.995a7.717,7.717,0,0,1-4.6,1.2,13.457,13.457,0,0,1-2.24-.174A11.7,11.7,0,0,1,31.6-.6V-3.968a8.9,8.9,0,0,0,2,.743,8.229,8.229,0,0,0,1.882.241,3.848,3.848,0,0,0,1.943-.374,1.278,1.278,0,0,0,.61-1.174,1.32,1.32,0,0,0-.318-.948,2.056,2.056,0,0,0-1.025-.5,8.19,8.19,0,0,0-1.846-.169H33.93V-9.2h.943q3.086,0,3.086-1.579a.969.969,0,0,0-.456-.882,2.281,2.281,0,0,0-1.225-.287,5.608,5.608,0,0,0-2.974.964l-1.682-2.707a8.164,8.164,0,0,1,2.435-1.169,10.623,10.623,0,0,1,2.856-.349,6.3,6.3,0,0,1,3.65.923A2.934,2.934,0,0,1,41.887-11.741Z" transform="translate(1841.971 406.113)"/>
      <path id="Trazado_20487" data-name="Trazado 20487" d="M-37.581,0h-3.989V-14.991h8.859v3.25h-4.871V-8.88h4.491v3.25h-4.491Zm14.673,0-.769-1.538h-.082A4.566,4.566,0,0,1-25.409-.164a5.453,5.453,0,0,1-2.174.369,3.41,3.41,0,0,1-2.584-.984,3.84,3.84,0,0,1-.943-2.769,3.149,3.149,0,0,1,1.292-2.763,7.064,7.064,0,0,1,3.743-1.02l1.938-.062v-.164a1.26,1.26,0,0,0-1.415-1.436,8.462,8.462,0,0,0-3.23.861l-1.159-2.646a11.145,11.145,0,0,1,5.127-1.046,4.982,4.982,0,0,1,3.461,1.107,3.961,3.961,0,0,1,1.225,3.1V0Zm-2.974-2.625a1.808,1.808,0,0,0,1.246-.461,1.532,1.532,0,0,0,.518-1.2v-.9l-.923.041q-1.979.072-1.979,1.456Q-27.019-2.625-25.881-2.625ZM-12.11.205a5.707,5.707,0,0,1-4.322-1.538A6.145,6.145,0,0,1-17.9-5.752a6.059,6.059,0,0,1,1.589-4.481,6.117,6.117,0,0,1,4.522-1.589,8.472,8.472,0,0,1,3.8.882L-9.167-7.978a12.857,12.857,0,0,0-1.343-.508,4.325,4.325,0,0,0-1.282-.19,1.735,1.735,0,0,0-1.507.759,3.691,3.691,0,0,0-.533,2.143q0,2.789,2.061,2.789A6.235,6.235,0,0,0-8.388-4.009V-.82A6.588,6.588,0,0,1-12.11.205ZM-.39-2.963a5.963,5.963,0,0,0,1.938-.4V-.441a7.891,7.891,0,0,1-1.543.5A8.732,8.732,0,0,1-1.712.205a3.752,3.752,0,0,1-2.912-.99,4.431,4.431,0,0,1-.892-3.04V-8.613h-1.4v-1.63L-5.137-11.5l1.036-2.44h2.625v2.328H1.374v3H-1.477v4.522Q-1.477-2.963-.39-2.963ZM14.673-5.834A6.15,6.15,0,0,1,13.14-1.389,5.673,5.673,0,0,1,8.849.205,5.559,5.559,0,0,1,4.64-1.425,6.1,6.1,0,0,1,3.076-5.834a6.062,6.062,0,0,1,1.533-4.414,5.728,5.728,0,0,1,4.3-1.574,6.133,6.133,0,0,1,3.025.728,4.97,4.97,0,0,1,2.025,2.087A6.738,6.738,0,0,1,14.673-5.834Zm-7.526,0a5.16,5.16,0,0,0,.4,2.281,1.39,1.39,0,0,0,1.343.784,1.35,1.35,0,0,0,1.318-.784,5.341,5.341,0,0,0,.385-2.281A5.071,5.071,0,0,0,10.2-8.08,1.376,1.376,0,0,0,8.87-8.839a1.382,1.382,0,0,0-1.323.754A4.952,4.952,0,0,0,7.147-5.834Zm16.827-5.988a5.8,5.8,0,0,1,.995.082l.226.041-.359,3.784a5.9,5.9,0,0,0-1.364-.123,2.6,2.6,0,0,0-1.907.6,2.351,2.351,0,0,0-.595,1.728V0H16.96V-11.618h2.984l.625,1.856h.195a4.015,4.015,0,0,1,1.4-1.492A3.35,3.35,0,0,1,23.974-11.823ZM42.872-2.9H41.221V0h-4V-2.9H31.244V-5.875l6.234-9.116h3.743v9.064h1.651Zm-5.65-3.025V-7.67q0-.492.036-1.328a8.617,8.617,0,0,1,.056-.877H37.2a10.82,10.82,0,0,1-.79,1.477L34.75-5.927Z" transform="translate(1967.593 406.113)"/>
      <path id="Trazado_20488" data-name="Trazado 20488" d="M-37.581,0h-3.989V-14.991h8.859v3.25h-4.871V-8.88h4.491v3.25h-4.491Zm14.673,0-.769-1.538h-.082A4.566,4.566,0,0,1-25.409-.164a5.453,5.453,0,0,1-2.174.369,3.41,3.41,0,0,1-2.584-.984,3.84,3.84,0,0,1-.943-2.769,3.149,3.149,0,0,1,1.292-2.763,7.064,7.064,0,0,1,3.743-1.02l1.938-.062v-.164a1.26,1.26,0,0,0-1.415-1.436,8.462,8.462,0,0,0-3.23.861l-1.159-2.646a11.145,11.145,0,0,1,5.127-1.046,4.982,4.982,0,0,1,3.461,1.107,3.961,3.961,0,0,1,1.225,3.1V0Zm-2.974-2.625a1.808,1.808,0,0,0,1.246-.461,1.532,1.532,0,0,0,.518-1.2v-.9l-.923.041q-1.979.072-1.979,1.456Q-27.019-2.625-25.881-2.625ZM-12.11.205a5.707,5.707,0,0,1-4.322-1.538A6.145,6.145,0,0,1-17.9-5.752a6.059,6.059,0,0,1,1.589-4.481,6.117,6.117,0,0,1,4.522-1.589,8.472,8.472,0,0,1,3.8.882L-9.167-7.978a12.857,12.857,0,0,0-1.343-.508,4.325,4.325,0,0,0-1.282-.19,1.735,1.735,0,0,0-1.507.759,3.691,3.691,0,0,0-.533,2.143q0,2.789,2.061,2.789A6.235,6.235,0,0,0-8.388-4.009V-.82A6.588,6.588,0,0,1-12.11.205ZM-.39-2.963a5.963,5.963,0,0,0,1.938-.4V-.441a7.891,7.891,0,0,1-1.543.5A8.732,8.732,0,0,1-1.712.205a3.752,3.752,0,0,1-2.912-.99,4.431,4.431,0,0,1-.892-3.04V-8.613h-1.4v-1.63L-5.137-11.5l1.036-2.44h2.625v2.328H1.374v3H-1.477v4.522Q-1.477-2.963-.39-2.963ZM14.673-5.834A6.15,6.15,0,0,1,13.14-1.389,5.673,5.673,0,0,1,8.849.205,5.559,5.559,0,0,1,4.64-1.425,6.1,6.1,0,0,1,3.076-5.834a6.062,6.062,0,0,1,1.533-4.414,5.728,5.728,0,0,1,4.3-1.574,6.133,6.133,0,0,1,3.025.728,4.97,4.97,0,0,1,2.025,2.087A6.738,6.738,0,0,1,14.673-5.834Zm-7.526,0a5.16,5.16,0,0,0,.4,2.281,1.39,1.39,0,0,0,1.343.784,1.35,1.35,0,0,0,1.318-.784,5.341,5.341,0,0,0,.385-2.281A5.071,5.071,0,0,0,10.2-8.08,1.376,1.376,0,0,0,8.87-8.839a1.382,1.382,0,0,0-1.323.754A4.952,4.952,0,0,0,7.147-5.834Zm16.827-5.988a5.8,5.8,0,0,1,.995.082l.226.041-.359,3.784a5.9,5.9,0,0,0-1.364-.123,2.6,2.6,0,0,0-1.907.6,2.351,2.351,0,0,0-.595,1.728V0H16.96V-11.618h2.984l.625,1.856h.195a4.015,4.015,0,0,1,1.4-1.492A3.35,3.35,0,0,1,23.974-11.823Zm13.72,2a4.587,4.587,0,0,1,2.333.6,4.149,4.149,0,0,1,1.62,1.7,5.344,5.344,0,0,1,.579,2.533,4.886,4.886,0,0,1-1.512,3.855A6.726,6.726,0,0,1,36.135.205,9.8,9.8,0,0,1,31.849-.6V-3.927a10.789,10.789,0,0,0,2.015.677,8.559,8.559,0,0,0,1.933.267,2.746,2.746,0,0,0,1.733-.477,1.686,1.686,0,0,0,.6-1.41,1.61,1.61,0,0,0-.615-1.343A3,3,0,0,0,35.653-6.7a6.712,6.712,0,0,0-2.061.359L32.1-7.075l.564-7.916h8.552v3.374H36.114L35.93-9.639a9.182,9.182,0,0,1,1.138-.169Q37.406-9.823,37.693-9.823Z" transform="translate(2093.215 406.113)"/>
      <path id="Trazado_20489" data-name="Trazado 20489" d="M-18.693,0h-4.05V-11.679H-26.4v-3.312h11.361v3.312h-3.65ZM-3.507-5.834A6.15,6.15,0,0,1-5.04-1.389,5.673,5.673,0,0,1-9.331.205a5.559,5.559,0,0,1-4.209-1.63A6.1,6.1,0,0,1-15.1-5.834a6.062,6.062,0,0,1,1.533-4.414,5.728,5.728,0,0,1,4.3-1.574,6.133,6.133,0,0,1,3.025.728A4.97,4.97,0,0,1-4.219-9.008,6.738,6.738,0,0,1-3.507-5.834Zm-7.526,0a5.16,5.16,0,0,0,.4,2.281,1.39,1.39,0,0,0,1.343.784,1.35,1.35,0,0,0,1.318-.784,5.341,5.341,0,0,0,.385-2.281,5.071,5.071,0,0,0-.39-2.246,1.376,1.376,0,0,0-1.333-.759,1.382,1.382,0,0,0-1.323.754A4.952,4.952,0,0,0-11.033-5.834Zm15.5,2.871a5.963,5.963,0,0,0,1.938-.4V-.441a7.891,7.891,0,0,1-1.543.5A8.732,8.732,0,0,1,3.148.205,3.752,3.752,0,0,1,.236-.784a4.431,4.431,0,0,1-.892-3.04V-8.613h-1.4v-1.63L-.277-11.5l1.036-2.44H3.384v2.328H6.234v3H3.384v4.522Q3.384-2.963,4.471-2.963ZM16.017,0l-.769-1.538h-.082A4.566,4.566,0,0,1,13.515-.164a5.453,5.453,0,0,1-2.174.369A3.41,3.41,0,0,1,8.757-.779a3.84,3.84,0,0,1-.943-2.769A3.149,3.149,0,0,1,9.105-6.311a7.064,7.064,0,0,1,3.743-1.02l1.938-.062v-.164a1.26,1.26,0,0,0-1.415-1.436,8.462,8.462,0,0,0-3.23.861L8.982-10.777a11.145,11.145,0,0,1,5.127-1.046,4.982,4.982,0,0,1,3.461,1.107,3.961,3.961,0,0,1,1.225,3.1V0ZM13.043-2.625a1.808,1.808,0,0,0,1.246-.461,1.532,1.532,0,0,0,.518-1.2v-.9l-.923.041Q11.9-5.076,11.9-3.691,11.9-2.625,13.043-2.625ZM25.532,0H21.523V-15.955h4.009Z" transform="translate(2220.491 406.113)"/>
      <path id="Trazado_20492" data-name="Trazado 20492" d="M-21.157-2.577a2.4,2.4,0,0,1-.9,1.98,3.929,3.929,0,0,1-2.517.724,5.911,5.911,0,0,1-2.628-.559V-2.26a10.83,10.83,0,0,0,1.59.59,4.705,4.705,0,0,0,1.19.171,1.692,1.692,0,0,0,.993-.248.847.847,0,0,0,.346-.736.813.813,0,0,0-.152-.486,1.7,1.7,0,0,0-.448-.409,11.51,11.51,0,0,0-1.2-.628,5.7,5.7,0,0,1-1.276-.768,2.883,2.883,0,0,1-.679-.857A2.445,2.445,0,0,1-27.1-6.773a2.4,2.4,0,0,1,.835-1.936,3.468,3.468,0,0,1,2.307-.7,5.449,5.449,0,0,1,1.381.171A9.49,9.49,0,0,1-21.2-8.76l-.635,1.53a9.287,9.287,0,0,0-1.228-.425,3.954,3.954,0,0,0-.955-.121,1.265,1.265,0,0,0-.857.26.858.858,0,0,0-.3.679.841.841,0,0,0,.121.454,1.326,1.326,0,0,0,.384.375,11.874,11.874,0,0,0,1.247.651A4.963,4.963,0,0,1-21.639-4.11,2.434,2.434,0,0,1-21.157-2.577ZM-14.6,0l-.26-.908h-.1a2.043,2.043,0,0,1-.882.765,3.012,3.012,0,0,1-1.3.27,2.478,2.478,0,0,1-1.885-.67,2.7,2.7,0,0,1-.635-1.927V-7.1h1.936v4.145A1.991,1.991,0,0,0-17.456-1.8a.993.993,0,0,0,.87.384,1.307,1.307,0,0,0,1.174-.543,3.366,3.366,0,0,0,.362-1.8V-7.1h1.936V0Zm9.871,0H-6.665V-4.145A2.088,2.088,0,0,0-6.922-5.3a.9.9,0,0,0-.809-.384,1.172,1.172,0,0,0-1.079.546,3.581,3.581,0,0,0-.336,1.8V0h-1.936V-7.1H-9.6l.26.908h.108a1.967,1.967,0,0,1,.825-.765A2.679,2.679,0,0,1-7.173-7.23,2.23,2.23,0,0,1-5.015-6.189h.171A1.917,1.917,0,0,1-4-6.957,2.8,2.8,0,0,1-2.749-7.23a2.475,2.475,0,0,1,1.825.619A2.718,2.718,0,0,1-.3-4.627V0H-2.247V-4.145A2.088,2.088,0,0,0-2.5-5.3a.9.9,0,0,0-.809-.384,1.207,1.207,0,0,0-1.063.508,2.881,2.881,0,0,0-.352,1.612ZM6.189,0,5.814-.965H5.764a2.859,2.859,0,0,1-1.006.854A3.251,3.251,0,0,1,3.409.127,2.181,2.181,0,0,1,1.8-.457,2.243,2.243,0,0,1,1.212-2.12,1.873,1.873,0,0,1,2-3.786,4.579,4.579,0,0,1,4.386-4.38l1.231-.038v-.311a.965.965,0,0,0-1.1-1.079,5.033,5.033,0,0,0-2,.514L1.873-6.6a5.769,5.769,0,0,1,2.717-.641,3.384,3.384,0,0,1,2.19.622,2.3,2.3,0,0,1,.762,1.892V0ZM5.618-3.288l-.749.025a2.4,2.4,0,0,0-1.257.3.957.957,0,0,0-.413.851q0,.819.939.819a1.488,1.488,0,0,0,1.076-.387,1.36,1.36,0,0,0,.4-1.028ZM15.158.127a2.305,2.305,0,0,1-1.965-.971,4.465,4.465,0,0,1-.714-2.691,4.469,4.469,0,0,1,.727-2.72,2.361,2.361,0,0,1,2-.974,2.315,2.315,0,0,1,2.044,1.041h.063A7.915,7.915,0,0,1,17.17-7.6V-9.877h1.942V0H17.627l-.375-.92H17.17A2.215,2.215,0,0,1,15.158.127Zm.679-1.542a1.312,1.312,0,0,0,1.089-.432A2.511,2.511,0,0,0,17.3-3.313v-.209a2.9,2.9,0,0,0-.352-1.638,1.308,1.308,0,0,0-1.146-.5,1.136,1.136,0,0,0-1.006.549,2.929,2.929,0,0,0-.359,1.6A2.776,2.776,0,0,0,14.8-1.939,1.182,1.182,0,0,0,15.837-1.416Zm8.239-4.437a1.228,1.228,0,0,0-.965.39,1.807,1.807,0,0,0-.4,1.108h2.717a1.614,1.614,0,0,0-.375-1.108A1.268,1.268,0,0,0,24.077-5.853ZM24.35.127a3.663,3.663,0,0,1-2.679-.946A3.581,3.581,0,0,1,20.706-3.5,3.939,3.939,0,0,1,21.6-6.256a3.176,3.176,0,0,1,2.466-.974,3.126,3.126,0,0,1,2.342.857,3.242,3.242,0,0,1,.838,2.368v.939H22.667a1.864,1.864,0,0,0,.489,1.289,1.72,1.72,0,0,0,1.282.463,5.323,5.323,0,0,0,1.212-.133,6.066,6.066,0,0,0,1.193-.425v1.5A4.546,4.546,0,0,1,25.759,0,6.844,6.844,0,0,1,24.35.127ZM-34.5,13h-1.936V3.123H-34.5Zm3.574-3.561a2.979,2.979,0,0,0,.346,1.593,1.237,1.237,0,0,0,1.127.54,1.218,1.218,0,0,0,1.114-.536,3.021,3.021,0,0,0,.34-1.6,2.931,2.931,0,0,0-.343-1.581,1.239,1.239,0,0,0-1.124-.527,1.235,1.235,0,0,0-1.117.524A2.929,2.929,0,0,0-30.926,9.439Zm4.907,0a3.814,3.814,0,0,1-.914,2.71,3.314,3.314,0,0,1-2.545.978,3.561,3.561,0,0,1-1.8-.448,2.978,2.978,0,0,1-1.2-1.285A4.319,4.319,0,0,1-32.9,9.439a3.793,3.793,0,0,1,.908-2.7A3.333,3.333,0,0,1-29.44,5.77a3.581,3.581,0,0,1,1.8.444,2.966,2.966,0,0,1,1.2,1.276A4.279,4.279,0,0,1-26.019,9.439Zm6.551,1.454a1.954,1.954,0,0,1-.759,1.663,3.748,3.748,0,0,1-2.269.571,7.128,7.128,0,0,1-1.32-.1,4.994,4.994,0,0,1-1.022-.308v-1.6a6.749,6.749,0,0,0,1.216.425,4.922,4.922,0,0,0,1.19.171q1.054,0,1.054-.609a.509.509,0,0,0-.14-.371A2.025,2.025,0,0,0-22,10.407q-.343-.181-.914-.422a5.742,5.742,0,0,1-1.2-.635,1.787,1.787,0,0,1-.559-.67,2.211,2.211,0,0,1-.175-.93,1.686,1.686,0,0,1,.733-1.463,3.571,3.571,0,0,1,2.079-.517,5.9,5.9,0,0,1,2.495.559l-.584,1.4q-.533-.229-1-.375a3.129,3.129,0,0,0-.946-.146q-.857,0-.857.463a.545.545,0,0,0,.276.451,7.509,7.509,0,0,0,1.209.565,5.618,5.618,0,0,1,1.219.628,1.859,1.859,0,0,1,.571.673A2.068,2.068,0,0,1-19.468,10.893Zm8.811-3.536h-1.676V13H-14.27V7.357h-1.066V6.424L-14.27,5.9V5.383a2.325,2.325,0,0,1,.6-1.771,2.734,2.734,0,0,1,1.911-.559,4.973,4.973,0,0,1,1.784.3l-.5,1.422a3.609,3.609,0,0,0-1.079-.184.7.7,0,0,0-.6.244,1.011,1.011,0,0,0-.184.625V5.9h1.676ZM-5.04,13l-.375-.965h-.051a2.859,2.859,0,0,1-1.006.854,3.251,3.251,0,0,1-1.349.238,2.181,2.181,0,0,1-1.609-.584,2.243,2.243,0,0,1-.587-1.663,1.873,1.873,0,0,1,.79-1.666A4.579,4.579,0,0,1-6.843,8.62l1.231-.038V8.271a.965.965,0,0,0-1.1-1.079,5.033,5.033,0,0,0-2,.514L-9.356,6.4A5.769,5.769,0,0,1-6.64,5.757a3.384,3.384,0,0,1,2.19.622,2.3,2.3,0,0,1,.762,1.892V13Zm-.571-3.288-.749.025a2.4,2.4,0,0,0-1.257.3.957.957,0,0,0-.413.851q0,.819.939.819a1.488,1.488,0,0,0,1.076-.387,1.36,1.36,0,0,0,.4-1.028Zm6.8,3.415q-3.313,0-3.313-3.637a3.88,3.88,0,0,1,.9-2.764A3.381,3.381,0,0,1,1.358,5.77a4.925,4.925,0,0,1,2.209.482L3,7.75q-.457-.184-.851-.3a2.741,2.741,0,0,0-.787-.117q-1.511,0-1.511,2.146,0,2.082,1.511,2.082a3.445,3.445,0,0,0,1.035-.149,3.736,3.736,0,0,0,.952-.467V12.6a3.12,3.12,0,0,1-.949.413A5.337,5.337,0,0,1,1.187,13.127Zm6.792-1.542A4.2,4.2,0,0,0,9.2,11.362V12.8a4.345,4.345,0,0,1-1.777.324,2.175,2.175,0,0,1-1.692-.587,2.556,2.556,0,0,1-.53-1.761V7.357H4.272V6.538l1.066-.647.559-1.5H7.135V5.9H9.122V7.357H7.135v3.421a.756.756,0,0,0,.232.609A.914.914,0,0,0,7.979,11.584Zm4.2-2.146a2.979,2.979,0,0,0,.346,1.593,1.237,1.237,0,0,0,1.127.54,1.218,1.218,0,0,0,1.114-.536,3.021,3.021,0,0,0,.34-1.6,2.931,2.931,0,0,0-.343-1.581,1.239,1.239,0,0,0-1.124-.527,1.235,1.235,0,0,0-1.117.524A2.929,2.929,0,0,0,12.175,9.439Zm4.907,0a3.814,3.814,0,0,1-.914,2.71,3.314,3.314,0,0,1-2.545.978,3.561,3.561,0,0,1-1.8-.448,2.978,2.978,0,0,1-1.2-1.285A4.319,4.319,0,0,1,10.2,9.439a3.793,3.793,0,0,1,.908-2.7A3.333,3.333,0,0,1,13.66,5.77a3.581,3.581,0,0,1,1.8.444,2.966,2.966,0,0,1,1.2,1.276A4.279,4.279,0,0,1,17.082,9.439ZM22.642,5.77a3.122,3.122,0,0,1,.654.057L23.15,7.643a2.218,2.218,0,0,0-.571-.063,2.053,2.053,0,0,0-1.444.476,1.721,1.721,0,0,0-.517,1.333V13H18.681V5.9h1.466L20.433,7.1h.1a2.668,2.668,0,0,1,.892-.962A2.2,2.2,0,0,1,22.642,5.77Zm4.621,1.377a1.228,1.228,0,0,0-.965.39,1.807,1.807,0,0,0-.4,1.108h2.717a1.614,1.614,0,0,0-.375-1.108A1.268,1.268,0,0,0,27.263,7.147Zm.273,5.979a3.663,3.663,0,0,1-2.679-.946A3.581,3.581,0,0,1,23.893,9.5a3.939,3.939,0,0,1,.892-2.758A3.176,3.176,0,0,1,27.25,5.77a3.126,3.126,0,0,1,2.342.857,3.242,3.242,0,0,1,.838,2.368v.939H25.854a1.864,1.864,0,0,0,.489,1.289,1.72,1.72,0,0,0,1.282.463,5.323,5.323,0,0,0,1.212-.133,6.066,6.066,0,0,0,1.193-.425v1.5A4.546,4.546,0,0,1,28.945,13,6.844,6.844,0,0,1,27.536,13.127Zm9.42-2.234a1.954,1.954,0,0,1-.759,1.663,3.748,3.748,0,0,1-2.269.571,7.128,7.128,0,0,1-1.32-.1,4.994,4.994,0,0,1-1.022-.308v-1.6a6.749,6.749,0,0,0,1.216.425,4.922,4.922,0,0,0,1.19.171q1.054,0,1.054-.609a.509.509,0,0,0-.14-.371,2.025,2.025,0,0,0-.482-.324q-.343-.181-.914-.422a5.742,5.742,0,0,1-1.2-.635,1.787,1.787,0,0,1-.559-.67,2.211,2.211,0,0,1-.175-.93,1.686,1.686,0,0,1,.733-1.463,3.571,3.571,0,0,1,2.079-.517,5.9,5.9,0,0,1,2.495.559l-.584,1.4q-.533-.229-1-.375a3.129,3.129,0,0,0-.946-.146q-.857,0-.857.463a.545.545,0,0,0,.276.451,7.509,7.509,0,0,0,1.209.565,5.618,5.618,0,0,1,1.219.628,1.859,1.859,0,0,1,.571.673A2.068,2.068,0,0,1,36.956,10.893Z" transform="translate(2221.667 466.514)"/>
      <path id="Trazado_20491" data-name="Trazado 20491" d="M-30.507-4.535h.6a1.99,1.99,0,0,0,1.254-.331,1.159,1.159,0,0,0,.416-.964,1.188,1.188,0,0,0-.349-.943,1.634,1.634,0,0,0-1.093-.3h-.826Zm4.1-1.359a2.618,2.618,0,0,1-.864,2.115,3.7,3.7,0,0,1-2.458.732h-.779V0h-1.816V-8.566h2.736a3.64,3.64,0,0,1,2.37.671A2.446,2.446,0,0,1-26.405-5.895ZM-20.288,0l-.24-.838h-.094a1.885,1.885,0,0,1-.814.706,2.781,2.781,0,0,1-1.2.249A2.287,2.287,0,0,1-24.378-.5a2.487,2.487,0,0,1-.586-1.778V-6.551h1.787v3.826a1.838,1.838,0,0,0,.252,1.063.917.917,0,0,0,.8.354,1.207,1.207,0,0,0,1.084-.5A3.107,3.107,0,0,0-20.7-3.469V-6.551h1.787V0Zm5.959-5.4a1.134,1.134,0,0,0-.891.36,1.668,1.668,0,0,0-.369,1.022h2.508a1.49,1.49,0,0,0-.346-1.022A1.17,1.17,0,0,0-14.329-5.4Zm.252,5.52A3.381,3.381,0,0,1-16.55-.756a3.306,3.306,0,0,1-.891-2.473,3.636,3.636,0,0,1,.823-2.546,2.931,2.931,0,0,1,2.276-.9,2.885,2.885,0,0,1,2.162.791A2.993,2.993,0,0,1-11.405-3.7v.867H-15.63a1.72,1.72,0,0,0,.451,1.189A1.587,1.587,0,0,0-14-1.213a4.914,4.914,0,0,0,1.119-.123,5.6,5.6,0,0,0,1.1-.393V-.346a4.2,4.2,0,0,1-1,.349A6.317,6.317,0,0,1-14.077.117Zm8.7-2.062a1.8,1.8,0,0,1-.7,1.535A3.46,3.46,0,0,1-8.177.117,6.579,6.579,0,0,1-9.4.021a4.61,4.61,0,0,1-.943-.284V-1.74a6.23,6.23,0,0,0,1.122.393,4.543,4.543,0,0,0,1.1.158q.973,0,.973-.562a.469.469,0,0,0-.129-.343,1.869,1.869,0,0,0-.445-.3q-.316-.167-.844-.39a5.3,5.3,0,0,1-1.11-.586,1.649,1.649,0,0,1-.516-.618,2.041,2.041,0,0,1-.161-.858A1.556,1.556,0,0,1-9.674-6.2a3.3,3.3,0,0,1,1.919-.478,5.447,5.447,0,0,1,2.3.516l-.539,1.289q-.492-.211-.92-.346a2.889,2.889,0,0,0-.873-.135q-.791,0-.791.428a.5.5,0,0,0,.255.416A6.932,6.932,0,0,0-7.2-3.984a5.186,5.186,0,0,1,1.125.58,1.716,1.716,0,0,1,.527.621A1.909,1.909,0,0,1-5.382-1.945Zm4.154.639A3.874,3.874,0,0,0-.1-1.512v1.33a4.011,4.011,0,0,1-1.641.3A2.008,2.008,0,0,1-3.3-.425a2.359,2.359,0,0,1-.489-1.626V-5.209h-.855v-.756l.984-.6.516-1.383h1.143v1.395H-.173v1.342H-2.007v3.158a.7.7,0,0,0,.214.563A.844.844,0,0,0-1.228-1.307Zm3.873-1.98a2.749,2.749,0,0,0,.319,1.471,1.142,1.142,0,0,0,1.04.5,1.124,1.124,0,0,0,1.028-.5,2.789,2.789,0,0,0,.313-1.474A2.706,2.706,0,0,0,5.03-4.746a1.144,1.144,0,0,0-1.037-.486,1.14,1.14,0,0,0-1.031.483A2.7,2.7,0,0,0,2.646-3.287Zm4.529,0a3.52,3.52,0,0,1-.844,2.5,3.059,3.059,0,0,1-2.35.9A3.287,3.287,0,0,1,2.317-.3,2.749,2.749,0,0,1,1.21-1.482a3.987,3.987,0,0,1-.387-1.8,3.5,3.5,0,0,1,.838-2.5,3.077,3.077,0,0,1,2.355-.891,3.305,3.305,0,0,1,1.664.41A2.738,2.738,0,0,1,6.788-5.086,3.95,3.95,0,0,1,7.175-3.287Zm7.307,2a1.208,1.208,0,0,0,1-.39,2.326,2.326,0,0,0,.346-1.362v-.217A2.679,2.679,0,0,0,15.5-4.764a1.2,1.2,0,0,0-1.046-.457q-1.26,0-1.26,1.98a2.754,2.754,0,0,0,.313,1.471A1.078,1.078,0,0,0,14.481-1.283Zm-.639,1.4a2.128,2.128,0,0,1-1.816-.894,4.133,4.133,0,0,1-.656-2.487,4.128,4.128,0,0,1,.671-2.508,2.165,2.165,0,0,1,1.837-.9,2.37,2.37,0,0,1,1.084.234,2.265,2.265,0,0,1,.814.727h.047l.158-.838h1.512V2.883H15.7V.135a8.674,8.674,0,0,1,.076-.984H15.7a1.9,1.9,0,0,1-.762.721A2.347,2.347,0,0,1,13.843.117ZM24,0l-.24-.838h-.094a1.885,1.885,0,0,1-.814.706,2.781,2.781,0,0,1-1.2.249A2.287,2.287,0,0,1,19.913-.5a2.487,2.487,0,0,1-.586-1.778V-6.551h1.787v3.826a1.838,1.838,0,0,0,.252,1.063.917.917,0,0,0,.8.354,1.207,1.207,0,0,0,1.084-.5,3.107,3.107,0,0,0,.334-1.661V-6.551h1.787V0Zm5.959-5.4a1.134,1.134,0,0,0-.891.36A1.668,1.668,0,0,0,28.7-4.02H31.21a1.49,1.49,0,0,0-.346-1.022A1.17,1.17,0,0,0,29.962-5.4Zm.252,5.52a3.381,3.381,0,0,1-2.473-.873,3.306,3.306,0,0,1-.891-2.473,3.636,3.636,0,0,1,.823-2.546,2.931,2.931,0,0,1,2.276-.9,2.885,2.885,0,0,1,2.162.791A2.993,2.993,0,0,1,32.886-3.7v.867H28.661a1.72,1.72,0,0,0,.451,1.189,1.587,1.587,0,0,0,1.184.428,4.914,4.914,0,0,0,1.119-.123,5.6,5.6,0,0,0,1.1-.393V-.346a4.2,4.2,0,0,1-1,.349A6.317,6.317,0,0,1,30.214.117ZM-15.8,8.713a2.749,2.749,0,0,0,.319,1.471,1.142,1.142,0,0,0,1.04.5,1.124,1.124,0,0,0,1.028-.5A2.789,2.789,0,0,0-13.1,8.713a2.706,2.706,0,0,0-.316-1.459,1.144,1.144,0,0,0-1.037-.486,1.14,1.14,0,0,0-1.031.483A2.7,2.7,0,0,0-15.8,8.713Zm4.529,0a3.52,3.52,0,0,1-.844,2.5,3.059,3.059,0,0,1-2.35.9,3.287,3.287,0,0,1-1.664-.413,2.749,2.749,0,0,1-1.107-1.187,3.987,3.987,0,0,1-.387-1.8,3.5,3.5,0,0,1,.838-2.5,3.077,3.077,0,0,1,2.355-.891,3.305,3.305,0,0,1,1.664.41A2.738,2.738,0,0,1-11.66,6.914,3.95,3.95,0,0,1-11.273,8.713Zm4.137,3.4q-3.059,0-3.059-3.357a3.581,3.581,0,0,1,.832-2.552,3.121,3.121,0,0,1,2.385-.882,4.546,4.546,0,0,1,2.039.445l-.527,1.383q-.422-.17-.785-.278a2.53,2.53,0,0,0-.727-.108q-1.395,0-1.395,1.98,0,1.922,1.395,1.922a3.18,3.18,0,0,0,.955-.138,3.448,3.448,0,0,0,.879-.431v1.529a2.88,2.88,0,0,1-.876.381A4.926,4.926,0,0,1-7.137,12.117ZM1.014,12l-.24-.838H.68a1.885,1.885,0,0,1-.814.706,2.781,2.781,0,0,1-1.2.249,2.287,2.287,0,0,1-1.74-.618,2.487,2.487,0,0,1-.586-1.778V5.449h1.787V9.275a1.838,1.838,0,0,0,.252,1.063.917.917,0,0,0,.8.354,1.207,1.207,0,0,0,1.084-.5A3.107,3.107,0,0,0,.6,8.531V5.449H2.385V12Zm6.844.117a2.173,2.173,0,0,1-1.811-.838H5.953q.094.82.094.949v2.654H4.26V5.449H5.713l.252.85h.082A2.067,2.067,0,0,1,7.9,5.326a2.126,2.126,0,0,1,1.816.9,4.146,4.146,0,0,1,.656,2.49,4.917,4.917,0,0,1-.308,1.822,2.556,2.556,0,0,1-.876,1.178A2.245,2.245,0,0,1,7.857,12.117ZM7.33,6.756a1.128,1.128,0,0,0-.967.407,2.338,2.338,0,0,0-.316,1.345V8.7a2.76,2.76,0,0,0,.313,1.512,1.119,1.119,0,0,0,.993.457q1.2,0,1.2-1.98a2.828,2.828,0,0,0-.3-1.45A1.01,1.01,0,0,0,7.33,6.756ZM16.014,12l-.346-.891h-.047a2.639,2.639,0,0,1-.929.788,3,3,0,0,1-1.245.22,2.013,2.013,0,0,1-1.485-.539,2.07,2.07,0,0,1-.542-1.535A1.729,1.729,0,0,1,12.149,8.5a4.227,4.227,0,0,1,2.2-.548l1.137-.035V7.635a.891.891,0,0,0-1.02-1,4.646,4.646,0,0,0-1.846.475l-.592-1.207a5.326,5.326,0,0,1,2.508-.592,3.124,3.124,0,0,1,2.021.574,2.122,2.122,0,0,1,.7,1.746V12Zm-.527-3.035-.691.023a2.214,2.214,0,0,0-1.16.281.883.883,0,0,0-.381.785q0,.756.867.756a1.373,1.373,0,0,0,.993-.357,1.255,1.255,0,0,0,.372-.949Z" transform="translate(2345.492 465.514)"/>
      <path id="Trazado_20490" data-name="Trazado 20490" d="M-38.75-14.991v9.023A6.054,6.054,0,0,1-40.416-1.41,6.628,6.628,0,0,1-45.22.205a6.564,6.564,0,0,1-4.712-1.569,5.94,5.94,0,0,1-1.646-4.512v-9.116h4.071v8.8a3.6,3.6,0,0,0,.595,2.307,2.146,2.146,0,0,0,1.753.718,2.148,2.148,0,0,0,1.8-.713A3.817,3.817,0,0,0-42.8-6.214v-8.777Zm10.008,3.168a3.49,3.49,0,0,1,3.01,1.589,7.572,7.572,0,0,1,1.113,4.4A7.635,7.635,0,0,1-25.742-1.4a3.6,3.6,0,0,1-3.122,1.6A4.334,4.334,0,0,1-30.013.067a3.385,3.385,0,0,1-.9-.385,4.7,4.7,0,0,1-.918-.82h-.246L-32.71,0h-3.127V-15.955h4.009v3.609q0,.646-.144,2.225h.144a3.663,3.663,0,0,1,1.348-1.3A3.691,3.691,0,0,1-28.742-11.823Zm-1.466,3.148a1.372,1.372,0,0,0-1.23.584,3.378,3.378,0,0,0-.39,1.835v.564a4.015,4.015,0,0,0,.39,2.046,1.387,1.387,0,0,0,1.271.62,1.183,1.183,0,0,0,1.087-.723A4.707,4.707,0,0,0-28.7-5.875Q-28.7-8.675-30.208-8.675ZM-18.3,0h-4.009V-11.618H-18.3Zm-4.112-14.509a1.694,1.694,0,0,1,.5-1.343,2.429,2.429,0,0,1,1.62-.441,2.432,2.432,0,0,1,1.63.451,1.682,1.682,0,0,1,.513,1.333q0,1.764-2.143,1.764Q-22.415-12.746-22.415-14.509ZM-10.213.205a5.707,5.707,0,0,1-4.322-1.538,6.145,6.145,0,0,1-1.471-4.419,6.059,6.059,0,0,1,1.589-4.481A6.117,6.117,0,0,1-9.9-11.823a8.472,8.472,0,0,1,3.8.882L-7.27-7.978a12.857,12.857,0,0,0-1.343-.508A4.325,4.325,0,0,0-9.9-8.675a1.735,1.735,0,0,0-1.507.759,3.691,3.691,0,0,0-.533,2.143q0,2.789,2.061,2.789A6.235,6.235,0,0,0-6.491-4.009V-.82A6.588,6.588,0,0,1-10.213.205ZM3.394,0,2.625-1.538H2.543A4.566,4.566,0,0,1,.892-.164,5.453,5.453,0,0,1-1.282.205,3.41,3.41,0,0,1-3.866-.779a3.84,3.84,0,0,1-.943-2.769A3.149,3.149,0,0,1-3.517-6.311,7.064,7.064,0,0,1,.226-7.332l1.938-.062v-.164A1.26,1.26,0,0,0,.749-8.993a8.462,8.462,0,0,0-3.23.861L-3.64-10.777a11.145,11.145,0,0,1,5.127-1.046,4.982,4.982,0,0,1,3.461,1.107,3.961,3.961,0,0,1,1.225,3.1V0ZM.42-2.625a1.808,1.808,0,0,0,1.246-.461,1.532,1.532,0,0,0,.518-1.2v-.9l-.923.041Q-.718-5.076-.718-3.691-.718-2.625.42-2.625ZM14.191.205A5.707,5.707,0,0,1,9.869-1.333,6.145,6.145,0,0,1,8.4-5.752a6.059,6.059,0,0,1,1.589-4.481,6.117,6.117,0,0,1,4.522-1.589,8.472,8.472,0,0,1,3.8.882L17.134-7.978a12.857,12.857,0,0,0-1.343-.508,4.325,4.325,0,0,0-1.282-.19A1.735,1.735,0,0,0,13-7.916a3.691,3.691,0,0,0-.533,2.143q0,2.789,2.061,2.789a6.235,6.235,0,0,0,3.384-1.025V-.82A6.588,6.588,0,0,1,14.191.205ZM24.25,0H20.241V-11.618H24.25ZM20.139-14.509a1.694,1.694,0,0,1,.5-1.343,2.429,2.429,0,0,1,1.62-.441,2.432,2.432,0,0,1,1.63.451,1.682,1.682,0,0,1,.513,1.333q0,1.764-2.143,1.764Q20.139-12.746,20.139-14.509ZM38.145-5.834a6.15,6.15,0,0,1-1.533,4.445A5.673,5.673,0,0,1,32.32.205a5.559,5.559,0,0,1-4.209-1.63,6.1,6.1,0,0,1-1.564-4.409,6.062,6.062,0,0,1,1.533-4.414,5.728,5.728,0,0,1,4.3-1.574,6.133,6.133,0,0,1,3.025.728,4.97,4.97,0,0,1,2.025,2.087A6.738,6.738,0,0,1,38.145-5.834Zm-7.526,0a5.16,5.16,0,0,0,.4,2.281,1.39,1.39,0,0,0,1.343.784,1.35,1.35,0,0,0,1.318-.784,5.341,5.341,0,0,0,.385-2.281,5.071,5.071,0,0,0-.39-2.246,1.376,1.376,0,0,0-1.333-.759,1.382,1.382,0,0,0-1.323.754A4.952,4.952,0,0,0,30.618-5.834Zm-.687-6.891v-.3q1.579-1.692,2-2.184t.7-.882h4.389v.215q-.82.656-2.256,1.671T32.6-12.725ZM47.763,0V-6.337a3.635,3.635,0,0,0-.333-1.748,1.139,1.139,0,0,0-1.072-.59,1.551,1.551,0,0,0-1.466.81,6.137,6.137,0,0,0-.451,2.779V0H40.431V-11.618h3.025l.5,1.436h.236a3.176,3.176,0,0,1,1.42-1.23,5.019,5.019,0,0,1,2.087-.41,3.959,3.959,0,0,1,3,1.118,4.365,4.365,0,0,1,1.072,3.148V0Z" transform="translate(2343.426 406.113)"/>
    </g>
  </g>
</svg>
