<svg xmlns="http://www.w3.org/2000/svg" width="265" height="205.061" viewBox="0 0 265 205.061">
  <g id="Grupo_13489" data-name="Grupo 13489" transform="translate(-938.758 248.163)">
    <g id="Grupo_12489" data-name="Grupo 12489" transform="translate(938.758 -248.163)">
      <ellipse id="Elipse_650" data-name="Elipse 650" cx="132.5" cy="14.42" rx="132.5" ry="14.42" transform="translate(0 176.222)" fill="#d6d0d0"/>
      <g id="Grupo_12463" data-name="Grupo 12463" transform="translate(60.996)">
        <path id="Trazado_16592" data-name="Trazado 16592" d="M1142.745-233.707l-132.887-.929a.556.556,0,0,0-.561.553l-1.218,174.061a.557.557,0,0,0,.553.56l132.7.928a.558.558,0,0,0,.561-.553l1.218-174.248A.369.369,0,0,0,1142.745-233.707Z" transform="translate(-1008.079 246.539)" fill="#333"/>
        <rect id="Rectángulo_2872" data-name="Rectángulo 2872" width="124.978" height="165.425" transform="translate(5.029 16.485)" fill="#fff"/>
        <path id="Trazado_16593" data-name="Trazado 16593" d="M1108.824-238.23l-19.926-.139c.026-.268.045-.537.047-.811a8.921,8.921,0,0,0-8.859-8.983,8.921,8.921,0,0,0-8.983,8.859c0,.274.012.543.035.811l-19.926-.14a6.878,6.878,0,0,0-6.926,6.83l-.065,9.374a1.589,1.589,0,0,0,1.579,1.6l68.188.477a1.589,1.589,0,0,0,1.6-1.579l.066-9.374A6.878,6.878,0,0,0,1108.824-238.23Zm-28.84,4.664a5.676,5.676,0,0,1-5.637-5.717,5.676,5.676,0,0,1,5.717-5.637,5.676,5.676,0,0,1,5.637,5.717A5.676,5.676,0,0,1,1079.984-233.565Z" transform="translate(-1012.42 248.163)" fill="#b3b3b3"/>
        <g id="Grupo_12462" data-name="Grupo 12462" transform="translate(11.302 34.209)">
          <rect id="Rectángulo_2873" data-name="Rectángulo 2873" width="53.627" height="1.363" rx="0.264" transform="translate(0.302)" fill="#a2acc2"/>
          <rect id="Rectángulo_2874" data-name="Rectángulo 2874" width="53.627" height="1.363" rx="0.264" transform="translate(0.302 9.998)" fill="#a2acc2"/>
          <rect id="Rectángulo_2875" data-name="Rectángulo 2875" width="53.627" height="1.363" rx="0.264" transform="translate(21.662 49.991)" fill="#a2acc2"/>
          <rect id="Rectángulo_2876" data-name="Rectángulo 2876" width="53.627" height="1.363" rx="0.264" transform="translate(21.662 60.899)" fill="#a2acc2"/>
          <rect id="Rectángulo_2877" data-name="Rectángulo 2877" width="74.078" height="1.363" rx="0.264" transform="translate(21.662 55.445)" fill="#a2acc2"/>
          <rect id="Rectángulo_2878" data-name="Rectángulo 2878" width="27.722" height="1.363" rx="0.264" transform="translate(78.016 49.991)" fill="#a2acc2"/>
          <rect id="Rectángulo_2879" data-name="Rectángulo 2879" width="53.627" height="1.363" rx="0.264" transform="translate(0.302 37.266)" fill="#a2acc2"/>
          <rect id="Rectángulo_2880" data-name="Rectángulo 2880" width="53.627" height="1.363" rx="0.264" transform="translate(56.201 9.998)" fill="#a2acc2"/>
          <rect id="Rectángulo_2881" data-name="Rectángulo 2881" width="109.526" height="1.363" rx="0.264" transform="translate(0.302 16.815)" fill="#a2acc2"/>
          <rect id="Rectángulo_2882" data-name="Rectángulo 2882" width="109.526" height="1.363" rx="0.264" transform="translate(0.302 24.541)" fill="#a2acc2"/>
          <rect id="Rectángulo_2883" data-name="Rectángulo 2883" width="109.526" height="1.363" rx="0.264" transform="translate(0.302 30.904)" fill="#a2acc2"/>
          <path id="Trazado_16594" data-name="Trazado 16594" d="M1036.678-139.34h-15.451a.3.3,0,0,1-.3-.3v-15.452a.3.3,0,0,1,.3-.3h15.451a.3.3,0,0,1,.3.3v15.452A.3.3,0,0,1,1036.678-139.34Zm-15.149-.605h14.847v-14.847h-14.847Z" transform="translate(-1020.924 202.813)" fill="#a2acc2"/>
          <path id="Trazado_16595" data-name="Trazado 16595" d="M1028.2-142.1h-.025a.4.4,0,0,1-.356-.271,27.289,27.289,0,0,0-4.318-7.909.4.4,0,0,1,.069-.567.4.4,0,0,1,.567.069,28.179,28.179,0,0,1,4.121,7.258,42.442,42.442,0,0,1,11.652-13.977.4.4,0,0,1,.566.071.4.4,0,0,1-.071.566,41.537,41.537,0,0,0-11.842,14.534A.4.4,0,0,1,1028.2-142.1Z" transform="translate(-1021.223 203.075)" fill="#e25f4b"/>
          <rect id="Rectángulo_2884" data-name="Rectángulo 2884" width="53.627" height="1.364" rx="0.264" transform="translate(21.662 84.531)" fill="#a2acc2"/>
          <rect id="Rectángulo_2885" data-name="Rectángulo 2885" width="74.078" height="1.363" rx="0.264" transform="translate(21.662 79.077)" fill="#a2acc2"/>
          <path id="Trazado_16596" data-name="Trazado 16596" d="M1036.678-108.351h-15.451a.3.3,0,0,1-.3-.3V-124.1a.3.3,0,0,1,.3-.3h15.451a.3.3,0,0,1,.3.3v15.452A.3.3,0,0,1,1036.678-108.351Zm-15.149-.6h14.847V-123.8h-14.847Z" transform="translate(-1020.924 199.091)" fill="#a2acc2"/>
          <path id="Trazado_16597" data-name="Trazado 16597" d="M1028.2-111.105h-.025a.4.4,0,0,1-.356-.271,27.3,27.3,0,0,0-4.318-7.909.4.4,0,0,1,.069-.566.4.4,0,0,1,.567.069,28.15,28.15,0,0,1,4.121,7.258,42.433,42.433,0,0,1,11.652-13.977.4.4,0,0,1,.566.071.4.4,0,0,1-.071.566,41.545,41.545,0,0,0-11.842,14.533A.4.4,0,0,1,1028.2-111.105Z" transform="translate(-1021.223 199.353)" fill="#e25f4b"/>
          <rect id="Rectángulo_2886" data-name="Rectángulo 2886" width="53.627" height="1.363" rx="0.264" transform="translate(21.662 102.709)" fill="#a2acc2"/>
          <rect id="Rectángulo_2887" data-name="Rectángulo 2887" width="74.078" height="1.363" rx="0.264" transform="translate(21.662 108.163)" fill="#a2acc2"/>
          <path id="Trazado_16598" data-name="Trazado 16598" d="M1036.678-79.427h-15.451a.3.3,0,0,1-.3-.3V-95.18a.3.3,0,0,1,.3-.3h15.451a.3.3,0,0,1,.3.3v15.451A.3.3,0,0,1,1036.678-79.427Zm-15.149-.605h14.847V-94.879h-14.847Z" transform="translate(-1020.924 195.618)" fill="#a2acc2"/>
          <path id="Trazado_16599" data-name="Trazado 16599" d="M1028.2-82.181h-.025a.4.4,0,0,1-.356-.271,27.289,27.289,0,0,0-4.318-7.909.4.4,0,0,1,.069-.566.4.4,0,0,1,.567.069,28.159,28.159,0,0,1,4.121,7.257,42.451,42.451,0,0,1,11.652-13.977.4.4,0,0,1,.566.071.4.4,0,0,1-.071.566,41.545,41.545,0,0,0-11.842,14.534A.4.4,0,0,1,1028.2-82.181Z" transform="translate(-1021.223 195.88)" fill="#e25f4b"/>
          <rect id="Rectángulo_2888" data-name="Rectángulo 2888" width="53.627" height="1.363" rx="0.264" transform="translate(21.662 127.251)" fill="#a2acc2"/>
          <rect id="Rectángulo_2889" data-name="Rectángulo 2889" width="53.627" height="1.363" rx="0.264" transform="translate(21.662 138.158)" fill="#a2acc2"/>
          <rect id="Rectángulo_2890" data-name="Rectángulo 2890" width="74.078" height="1.363" rx="0.264" transform="translate(21.662 132.704)" fill="#a2acc2"/>
          <path id="Trazado_16600" data-name="Trazado 16600" d="M1036.678-51.536h-15.451a.3.3,0,0,1-.3-.3V-67.29a.3.3,0,0,1,.3-.3h15.451a.3.3,0,0,1,.3.3v15.452A.3.3,0,0,1,1036.678-51.536Zm-15.149-.605h14.847V-66.988h-14.847Z" transform="translate(-1020.924 192.268)" fill="#a2acc2"/>
          <path id="Trazado_16601" data-name="Trazado 16601" d="M1028.2-54.29h-.025a.4.4,0,0,1-.356-.271,27.289,27.289,0,0,0-4.318-7.909.4.4,0,0,1,.069-.567.4.4,0,0,1,.567.07,28.144,28.144,0,0,1,4.121,7.257,42.442,42.442,0,0,1,11.652-13.977.4.4,0,0,1,.566.071.4.4,0,0,1-.071.566,41.548,41.548,0,0,0-11.842,14.534A.4.4,0,0,1,1028.2-54.29Z" transform="translate(-1021.223 192.53)" fill="#e25f4b"/>
        </g>
        <path id="Trazado_16602" data-name="Trazado 16602" d="M1115.8-220.9h-33.631a.3.3,0,0,1-.3-.3.3.3,0,0,1,.3-.3H1115.8a.3.3,0,0,1,.3.3A.3.3,0,0,1,1115.8-220.9Z" transform="translate(-1016.941 244.962)" fill="#fff"/>
      </g>
      <g id="Grupo_12473" data-name="Grupo 12473" transform="translate(188.445 32.522)">
        <path id="Trazado_16603" data-name="Trazado 16603" d="M1205.326-160.887s12.079.912,13.9-.456a3.854,3.854,0,0,0,1.367-3.646,28.528,28.528,0,0,0-1.823-6.153c-1.367-3.191-5.47-8.661-5.7-9.345s-1.367-5.925-1.367-5.925l-4.786.684v1.823h-1.6a16.167,16.167,0,0,0,3.19,4.558c1.824,1.6,4.1,10.028,4.1,10.028l-7.293.456Z" transform="translate(-1159.216 208.225)" fill="#ffa08b"/>
        <path id="Trazado_16604" data-name="Trazado 16604" d="M1214.968-162.57a.1.1,0,0,1-.085-.048,11.612,11.612,0,0,1-1.382-4.374.1.1,0,0,1,.092-.11.105.105,0,0,1,.11.092,11.371,11.371,0,0,0,1.352,4.286.1.1,0,0,1-.032.139A.1.1,0,0,1,1214.968-162.57Z" transform="translate(-1160.198 205.906)" fill="#c77968"/>
        <path id="Trazado_16605" data-name="Trazado 16605" d="M1219.3-158.829a.1.1,0,0,1-.1-.1.1.1,0,0,1,.1-.1c.517,0,1.432-1.121,1.74-1.553a.1.1,0,0,1,.142-.024.1.1,0,0,1,.023.142C1221.085-160.3,1220.014-158.829,1219.3-158.829Z" transform="translate(-1160.882 205.129)" fill="#c77968"/>
        <path id="Trazado_16606" data-name="Trazado 16606" d="M1165.684-148.375s-2.507,12.99-3.19,13.9-5.014,12.761-5.7,15.5-3.874,6.609-3.874,7.521,1.822,7.521,2.278,7.293.228-2.279.228-2.279,1.6,1.367,2.28,1.139-.457-1.6-.457-1.6,1.139.912,1.6.912-.911-2.279-.911-2.279L1157.48-111a39.719,39.719,0,0,0,1.6-5.242s9.8-14.584,10.026-16.408,2.279-13.9,2.279-13.9Z" transform="translate(-1152.923 203.657)" fill="#ffa08b"/>
        <path id="Trazado_16607" data-name="Trazado 16607" d="M1167.478-131.092a5.739,5.739,0,0,1-1.121-.1.1.1,0,0,1-.079-.119.1.1,0,0,1,.119-.079,6.528,6.528,0,0,0,2.239,0,.1.1,0,0,1,.119.079.1.1,0,0,1-.079.119A6.692,6.692,0,0,1,1167.478-131.092Z" transform="translate(-1154.527 201.618)" fill="#c77968"/>
        <path id="Trazado_16608" data-name="Trazado 16608" d="M1155.444-103.083a.237.237,0,0,1-.119-.032c-.385-.215-.386-1.666-.331-3.2.006-.151.01-.267.01-.327,0-.457.22-2.217.229-2.292a.1.1,0,0,1,.113-.087.1.1,0,0,1,.088.113c0,.018-.228,1.822-.228,2.267,0,.062,0,.18-.01.335-.068,1.88.009,2.9.228,3.018.008,0,.029.016.081-.019.341-.227.439-1.106.525-1.882a3.111,3.111,0,0,1,.371-1.523,20.653,20.653,0,0,0,1.579-2.485.1.1,0,0,1,.137-.04.1.1,0,0,1,.039.137,20.141,20.141,0,0,1-1.612,2.53,3.335,3.335,0,0,0-.314,1.4c-.095.86-.193,1.749-.612,2.028A.318.318,0,0,1,1155.444-103.083Z" transform="translate(-1153.169 198.959)" fill="#c77968"/>
        <g id="Grupo_12464" data-name="Grupo 12464" transform="translate(12.475 145.584)">
          <path id="Trazado_16609" data-name="Trazado 16609" d="M1175.655-45.748s-1.859,3.718-4.462,5.206-4.092,2.6-4.092,3.718,3.534,3.347,7.624,2.045,8.553-2.045,8.739-2.417,0-6.136,0-6.136Z" transform="translate(-1167.101 45.748)" fill="#3b3348"/>
          <path id="Trazado_16610" data-name="Trazado 16610" d="M1167.1-35.942a1.3,1.3,0,0,1,.032-.265c.027-.021.385-.278,1.456.079,1.116.371,2.975,2.045,5.392,1.487s6.3-3.266,9.565-3.771a11.854,11.854,0,0,1-.082,2.1c-.187.372-4.649,1.116-8.739,2.417S1167.1-34.826,1167.1-35.942Z" transform="translate(-1167.101 44.867)" fill="#f6ebe3"/>
          <path id="Trazado_16611" data-name="Trazado 16611" d="M1173.225-38.25a.058.058,0,0,1-.027-.007c-.021-.013-2.067-1.284-3.05-1.2a.047.047,0,0,1-.055-.046.05.05,0,0,1,.046-.055c.971-.084,2.853,1.053,3.09,1.2a17.844,17.844,0,0,0,3.127-1.658,13.294,13.294,0,0,0,2.954-4.051.055.055,0,0,1,.053-.048.048.048,0,0,1,.047.048,13.344,13.344,0,0,1-3,4.132,18.062,18.062,0,0,1-3.171,1.679A.045.045,0,0,1,1173.225-38.25Z" transform="translate(-1167.46 45.552)" fill="#f6ebe3"/>
          <path id="Trazado_16612" data-name="Trazado 16612" d="M1178.155-36.3l-.016,0a.05.05,0,0,1-.032-.063,17.032,17.032,0,0,1,4.041-6.892.05.05,0,0,1,.071,0,.05.05,0,0,1,0,.071,16.951,16.951,0,0,0-4.013,6.849A.05.05,0,0,1,1178.155-36.3Z" transform="translate(-1168.422 45.45)" fill="#f6ebe3"/>
          <path id="Trazado_16613" data-name="Trazado 16613" d="M1180.619-37.217l-.014,0a.05.05,0,0,1-.034-.062,13.176,13.176,0,0,1,3.361-4.92.05.05,0,0,1,.071,0,.05.05,0,0,1,0,.071,13.047,13.047,0,0,0-3.332,4.872A.05.05,0,0,1,1180.619-37.217Z" transform="translate(-1168.719 45.324)" fill="#f6ebe3"/>
          <path id="Trazado_16614" data-name="Trazado 16614" d="M1174.486-37.783a.2.2,0,0,1-.14-.057,7.93,7.93,0,0,0-2.893-1.7.2.2,0,0,1-.138-.249.2.2,0,0,1,.25-.139,8.2,8.2,0,0,1,3.062,1.8.2.2,0,0,1,0,.285A.2.2,0,0,1,1174.486-37.783Z" transform="translate(-1167.606 45.05)" fill="#f6ebe3"/>
          <path id="Trazado_16615" data-name="Trazado 16615" d="M1175.964-38.648a.2.2,0,0,1-.137-.054c-.557-.517-2.137-1.845-2.826-1.845h-.022a.2.2,0,0,1-.21-.193.2.2,0,0,1,.193-.21c.97-.043,2.92,1.748,3.14,1.953a.2.2,0,0,1,.01.285A.205.205,0,0,1,1175.964-38.648Z" transform="translate(-1167.782 45.172)" fill="#f6ebe3"/>
          <path id="Trazado_16616" data-name="Trazado 16616" d="M1177.39-39.514a.2.2,0,0,1-.151-.066,5.757,5.757,0,0,0-3.253-1.975.2.2,0,0,1-.179-.223.2.2,0,0,1,.221-.179,6.034,6.034,0,0,1,3.511,2.106.2.2,0,0,1-.015.285A.2.2,0,0,1,1177.39-39.514Z" transform="translate(-1167.906 45.293)" fill="#f6ebe3"/>
          <path id="Trazado_16617" data-name="Trazado 16617" d="M1178.651-40.993a.2.2,0,0,1-.175-.1c-.694-1.214-3.286-1.944-3.313-1.952a.2.2,0,0,1-.141-.248.2.2,0,0,1,.248-.14c.113.031,2.78.781,3.555,2.139a.2.2,0,0,1-.076.275A.191.191,0,0,1,1178.651-40.993Z" transform="translate(-1168.051 45.471)" fill="#f6ebe3"/>
        </g>
        <g id="Grupo_12465" data-name="Grupo 12465" transform="translate(36.417 146.416)">
          <path id="Trazado_16618" data-name="Trazado 16618" d="M1201.756-44.8s-1.433,3.829-3.824,5.554-3.731,2.97-3.615,4.061,3.8,2.906,7.667,1.21,8.151-2.887,8.295-3.27-.636-6-.636-6Z" transform="translate(-1194.31 44.802)" fill="#3b3348"/>
          <path id="Trazado_16619" data-name="Trazado 16619" d="M1194.317-34.437a1.256,1.256,0,0,1,0-.262c.025-.024.348-.312,1.432-.074,1.13.248,3.121,1.691,5.427.9s5.822-3.847,8.962-4.679a11.649,11.649,0,0,1,.137,2.06c-.143.383-4.429,1.572-8.295,3.27S1194.432-33.347,1194.317-34.437Z" transform="translate(-1194.31 44.052)" fill="#f6ebe3"/>
          <path id="Trazado_16620" data-name="Trazado 16620" d="M1200.091-37.227a.05.05,0,0,1-.022-.005c-.021-.01-2.152-1.044-3.105-.855a.05.05,0,0,1-.059-.04.049.049,0,0,1,.039-.059c.939-.186,2.9.733,3.146.853a17.55,17.55,0,0,0,2.885-1.945,13.109,13.109,0,0,0,2.468-4.267.052.052,0,0,1,.047-.053.052.052,0,0,1,.053.043,13.118,13.118,0,0,1-2.5,4.351,17.715,17.715,0,0,1-2.927,1.971A.044.044,0,0,1,1200.091-37.227Z" transform="translate(-1194.622 44.657)" fill="#f6ebe3"/>
          <path id="Trazado_16621" data-name="Trazado 16621" d="M1205.147-35.756h-.011a.051.051,0,0,1-.039-.061,16.756,16.756,0,0,1,3.238-7.159.051.051,0,0,1,.071,0,.051.051,0,0,1,0,.071A16.652,16.652,0,0,0,1205.2-35.8.051.051,0,0,1,1205.147-35.756Z" transform="translate(-1195.605 44.585)" fill="#f6ebe3"/>
          <path id="Trazado_16622" data-name="Trazado 16622" d="M1207.433-36.9h-.009a.049.049,0,0,1-.041-.058,12.954,12.954,0,0,1,2.777-5.159.051.051,0,0,1,.071,0,.05.05,0,0,1,0,.071,12.835,12.835,0,0,0-2.753,5.109A.05.05,0,0,1,1207.433-36.9Z" transform="translate(-1195.88 44.482)" fill="#f6ebe3"/>
          <path id="Trazado_16623" data-name="Trazado 16623" d="M1201.294-36.77a.2.2,0,0,1-.124-.043,7.8,7.8,0,0,0-3-1.364.2.2,0,0,1-.164-.233.2.2,0,0,1,.234-.164,8.054,8.054,0,0,1,3.182,1.444.2.2,0,0,1,.033.282A.2.2,0,0,1,1201.294-36.77Z" transform="translate(-1194.753 44.054)" fill="#f6ebe3"/>
          <path id="Trazado_16624" data-name="Trazado 16624" d="M1202.649-37.77a.2.2,0,0,1-.121-.04c-.6-.452-2.312-1.608-2.974-1.508a.2.2,0,0,1-.23-.169.2.2,0,0,1,.17-.23c.939-.14,3.039,1.407,3.276,1.585a.2.2,0,0,1,.041.282A.2.2,0,0,1,1202.649-37.77Z" transform="translate(-1194.912 44.192)" fill="#f6ebe3"/>
          <path id="Trazado_16625" data-name="Trazado 16625" d="M1203.954-38.763a.2.2,0,0,1-.135-.052,5.656,5.656,0,0,0-3.384-1.593.2.2,0,0,1-.2-.2.2.2,0,0,1,.2-.2,5.936,5.936,0,0,1,3.653,1.7.2.2,0,0,1,.015.284A.2.2,0,0,1,1203.954-38.763Z" transform="translate(-1195.021 44.323)" fill="#f6ebe3"/>
          <path id="Trazado_16626" data-name="Trazado 16626" d="M1205.034-40.341a.2.2,0,0,1-.164-.084c-.8-1.115-3.413-1.559-3.44-1.563a.2.2,0,0,1-.166-.232.2.2,0,0,1,.232-.166c.114.019,2.8.477,3.7,1.725a.2.2,0,0,1-.046.282A.2.2,0,0,1,1205.034-40.341Z" transform="translate(-1195.145 44.512)" fill="#f6ebe3"/>
        </g>
        <path id="Trazado_16627" data-name="Trazado 16627" d="M1199.14-117.516a58.351,58.351,0,0,0,1,6.227c.5,1.744,0,5.979,0,5.979a1.457,1.457,0,0,1,1.743,1.495c0,1.743.5,18.185,1.246,20.427s2.74,11.708,2.242,14.2,2.117,16.316,2.367,17.313-5.356.373-8.595.872-1.245-2.99-1.245-2.99-1.744-.249-1.744-.747-2.989-16.939-3.488-20.676-5.355-24.537-5.355-24.537-1.37,25.782-1.37,27.277,1.494,8.221,1.743,9.466-1.743,6.726-1.743,7.972.124,5.356-1.121,5.6-4.734-2.491-9.716-2.491c0,0-2.989-1.744-1.245-2.492s.622-1.868.373-2.366a5.1,5.1,0,0,1-1-4.235c.5-2.491-.747-18.683-.747-20.925s1-32.135,1-32.135Z" transform="translate(-1155.272 199.951)" fill="#282233"/>
        <path id="Trazado_16628" data-name="Trazado 16628" d="M1206.162-56.064a.11.11,0,0,1-.038-.007.1.1,0,0,1-.056-.131c.492-1.23,2.471-6.669,2.49-6.723a.1.1,0,0,1,.129-.06.1.1,0,0,1,.06.129c-.019.055-2,5.5-2.492,6.729A.1.1,0,0,1,1206.162-56.064Z" transform="translate(-1159.305 193.403)" fill="#627695"/>
        <path id="Trazado_16629" data-name="Trazado 16629" d="M1203.5-45.062a1.959,1.959,0,0,1-1.376-.408.1.1,0,0,1,0-.143.1.1,0,0,1,.143,0c.018.018,1.514,1.384,5.851-1.507a.1.1,0,0,1,.14.028.1.1,0,0,1-.028.14C1205.972-45.445,1204.459-45.062,1203.5-45.062Z" transform="translate(-1158.829 191.499)" fill="#627695"/>
        <path id="Trazado_16630" data-name="Trazado 16630" d="M1179.9-57.819a.1.1,0,0,1-.056-.018c-2.24-1.493-5.623-8.942-5.765-9.259a.1.1,0,0,1,.05-.134.1.1,0,0,1,.134.051c.034.077,3.5,7.713,5.693,9.175a.1.1,0,0,1,.028.14A.1.1,0,0,1,1179.9-57.819Z" transform="translate(-1155.463 193.913)" fill="#627695"/>
        <path id="Trazado_16631" data-name="Trazado 16631" d="M1184.905-43.448a.107.107,0,0,1-.063-.022,18.251,18.251,0,0,0-8.417-3.466.1.1,0,0,1-.09-.111.1.1,0,0,1,.111-.09,18.472,18.472,0,0,1,8.522,3.509.1.1,0,0,1,.016.142A.1.1,0,0,1,1184.905-43.448Z" transform="translate(-1155.735 191.499)" fill="#627695"/>
        <path id="Trazado_16632" data-name="Trazado 16632" d="M1185.913-68.362a.1.1,0,0,1-.092-.062c-.736-1.718-5.182-9.626-5.227-9.705a.1.1,0,0,1,.039-.137.1.1,0,0,1,.136.039c.046.079,4.5,8,5.236,9.725a.1.1,0,0,1-.053.132A.092.092,0,0,1,1185.913-68.362Z" transform="translate(-1156.245 195.239)" fill="#627695"/>
        <path id="Trazado_16633" data-name="Trazado 16633" d="M1188.529-100.83a.1.1,0,0,1-.076-.033c-.037-.042-3.737-4.236-3.982-4.48s-.659-6.788-.776-8.784a.1.1,0,0,1,.094-.106.1.1,0,0,1,.106.094c.2,3.316.549,8.359.725,8.662.242.24,3.831,4.307,3.983,4.48a.1.1,0,0,1-.009.143A.1.1,0,0,1,1188.529-100.83Z" transform="translate(-1156.619 199.557)" fill="#627695"/>
        <path id="Trazado_16634" data-name="Trazado 16634" d="M1188.365-101.438a.1.1,0,0,1-.1-.086l-.707-4.871-.748-7.727a.1.1,0,0,1,.091-.11.1.1,0,0,1,.11.091l.748,7.722.707,4.867a.1.1,0,0,1-.085.114Z" transform="translate(-1156.993 199.557)" fill="#627695"/>
        <path id="Trazado_16635" data-name="Trazado 16635" d="M1202.927-105.117a.1.1,0,0,1-.075-.033c-.062-.07-6.275-7-7.132-11.484a.1.1,0,0,1,.08-.118.1.1,0,0,1,.118.08c.847,4.429,7.022,11.317,7.084,11.386a.1.1,0,0,1-.007.143A.1.1,0,0,1,1202.927-105.117Z" transform="translate(-1158.063 199.86)" fill="#627695"/>
        <path id="Trazado_16636" data-name="Trazado 16636" d="M1173.311-105.948a.1.1,0,0,1-.063-.023.1.1,0,0,1-.016-.142,21.53,21.53,0,0,0,3.6-8.042.1.1,0,0,1,.121-.077.1.1,0,0,1,.076.121,21.765,21.765,0,0,1-3.641,8.125A.1.1,0,0,1,1173.311-105.948Z" transform="translate(-1155.359 199.557)" fill="#627695"/>
        <path id="Trazado_16637" data-name="Trazado 16637" d="M1187.392-100.415l-6.994-.113a.1.1,0,0,1-.1-.1.1.1,0,0,1,.1-.1h0l6.974.115,10.444-1.857a.1.1,0,0,1,.117.082.1.1,0,0,1-.082.117Z" transform="translate(-1156.211 198.145)" fill="#627695"/>
        <path id="Trazado_16638" data-name="Trazado 16638" d="M1197.361-98.143h-.011c-.087-.01-8.729-.953-10.195-.852-1.482.1-4.462.1-4.491.1a.1.1,0,0,1-.1-.1.1.1,0,0,1,.1-.1c.029,0,3,0,4.477-.1,1.49-.1,9.874.814,10.231.853a.1.1,0,0,1,.09.111A.1.1,0,0,1,1197.361-98.143Z" transform="translate(-1156.483 197.752)" fill="#627695"/>
        <g id="Grupo_12470" data-name="Grupo 12470" transform="translate(13.757 18.773)">
          <path id="Trazado_16639" data-name="Trazado 16639" d="M1182.617-169.924s1.96,4.548,3.321,6.073a9.135,9.135,0,0,1-8.224,2.137s.063-2.994-2.117-7.841Z" transform="translate(-1169.403 187.473)" fill="#ffa08b"/>
          <path id="Trazado_16640" data-name="Trazado 16640" d="M1183.858-167.317c-.53-1.039-.956-1.981-1.131-2.377l-6.847.839C1178.659-165.371,1182.444-166.657,1183.858-167.317Z" transform="translate(-1169.437 187.445)" fill="#c77968"/>
          <g id="Grupo_12469" data-name="Grupo 12469">
            <path id="Trazado_16641" data-name="Trazado 16641" d="M1169.865-186.313a6.62,6.62,0,0,1,3.168-1.349,16.5,16.5,0,0,0,3.375-.839c1.334-.583,2.66-1.68,4.059-1.281a17.3,17.3,0,0,1,2.013,1.123c.783.342,1.768.346,2.324.994a2.35,2.35,0,0,1,.08,2.406,7.8,7.8,0,0,0-.874,2.367,6.323,6.323,0,0,1-.05.915,4.149,4.149,0,0,1-.533,1.083c-.73,1.315-.716,2.955-1.5,4.238a5.46,5.46,0,0,1-2.434,2,8.3,8.3,0,0,1-5.32.589,7.079,7.079,0,0,1-4.355-3.046,9.7,9.7,0,0,1-1.018-2.362,8.764,8.764,0,0,1-.053-3.8A4.077,4.077,0,0,1,1169.865-186.313Z" transform="translate(-1168.558 189.868)" fill="#88554b"/>
            <g id="Grupo_12467" data-name="Grupo 12467" transform="translate(13.411 10.32)">
              <g id="Grupo_12466" data-name="Grupo 12466">
                <path id="Trazado_16642" data-name="Trazado 16642" d="M1184.707-178.048a1.082,1.082,0,0,1,1.215.23,1.1,1.1,0,0,1,.2.934,2.194,2.194,0,0,1-.443.876,1.263,1.263,0,0,1-.978.6.986.986,0,0,1-.816-.722A1.479,1.479,0,0,1,1184.707-178.048Z" transform="translate(-1183.8 178.139)" fill="#c77968"/>
              </g>
            </g>
            <path id="Trazado_16643" data-name="Trazado 16643" d="M1182.379-182.812a5.734,5.734,0,0,0-4.181-3.726,8.275,8.275,0,0,0-4.468.608c-2.818,1.179-4.745,3.82-3.843,6.938.752,2.6,2.512,4.755,4.167,6.839a7.225,7.225,0,0,0,1.161,1.2,4.651,4.651,0,0,0,1.655.744,8.746,8.746,0,0,0,3.7.544,2.847,2.847,0,0,0,1.329-.513,4.217,4.217,0,0,0,.982-1.257,6.47,6.47,0,0,0,1.129-2.877,5.965,5.965,0,0,0-.131-1.344q-.129-.713-.288-1.42a7.086,7.086,0,0,0-.272-1.3q-.247-1.371-.516-2.738A11.435,11.435,0,0,0,1182.379-182.812Z" transform="translate(-1168.69 189.479)" fill="#ffa08b"/>
            <path id="Trazado_16644" data-name="Trazado 16644" d="M1181.609-173.715a.1.1,0,0,1-.11-.04.1.1,0,0,1,.029-.133c.242-.156.627-.46.493-.753a.944.944,0,0,0-.17-.229l-.022-.025a5.258,5.258,0,0,1-1.372-3.1.1.1,0,0,1,.091-.1.1.1,0,0,1,.1.092,5.068,5.068,0,0,0,1.323,2.978l.022.024a1.149,1.149,0,0,1,.2.278c.146.319-.049.663-.565,1A.078.078,0,0,1,1181.609-173.715Z" transform="translate(-1169.987 188.454)" fill="#c77968"/>
            <path id="Trazado_16645" data-name="Trazado 16645" d="M1180.606-172.808l-.005,0a.382.382,0,0,1-.3-.041.412.412,0,0,1-.2-.26.408.408,0,0,1,.062-.319.374.374,0,0,1,.249-.165.1.1,0,0,1,.11.08.1.1,0,0,1-.08.11.176.176,0,0,0-.119.083.216.216,0,0,0-.034.168.227.227,0,0,0,.106.137.19.19,0,0,0,.145.023.506.506,0,0,0,.125-.07l.362-.249a.1.1,0,0,1,.134.025.1.1,0,0,1-.025.134l-.362.25A.667.667,0,0,1,1180.606-172.808Z" transform="translate(-1169.943 187.913)" fill="#c77968"/>
            <path id="Trazado_16646" data-name="Trazado 16646" d="M1177.451-175.881a.674.674,0,0,0-.846-.44.674.674,0,0,0-.439.846.673.673,0,0,0,.846.439A.673.673,0,0,0,1177.451-175.881Z" transform="translate(-1169.468 188.245)" fill="#333"/>
            <path id="Trazado_16647" data-name="Trazado 16647" d="M1177.239-177.22a.281.281,0,0,1-.157,0,2.23,2.23,0,0,0-2.1.664.29.29,0,0,1-.408.029.289.289,0,0,1-.03-.407,2.8,2.8,0,0,1,2.679-.846.29.29,0,0,1,.21.351A.29.29,0,0,1,1177.239-177.22Z" transform="translate(-1169.268 188.425)" fill="#4e3933"/>
            <path id="Trazado_16648" data-name="Trazado 16648" d="M1183.713-179.266a.3.3,0,0,1-.157,0,2.23,2.23,0,0,0-2.1.663.289.289,0,0,1-.408.03.289.289,0,0,1-.029-.407,2.791,2.791,0,0,1,2.678-.846.289.289,0,0,1,.21.35A.29.29,0,0,1,1183.713-179.266Z" transform="translate(-1170.046 188.671)" fill="#4e3933"/>
            <path id="Trazado_16649" data-name="Trazado 16649" d="M1178.649-171.036a.048.048,0,0,1-.055-.019.48.48,0,0,1,.071-.595.048.048,0,0,1,.068,0,.047.047,0,0,1,0,.068.386.386,0,0,0-.056.473.047.047,0,0,1-.014.067Z" transform="translate(-1169.754 187.682)" fill="#c77968"/>
            <path id="Trazado_16650" data-name="Trazado 16650" d="M1175.466-175.34a.1.1,0,0,1-.091-.019.1.1,0,0,1-.011-.135,3.333,3.333,0,0,1,1.093-.867,2.722,2.722,0,0,1,1.307.112.1.1,0,0,1,.063.121.1.1,0,0,1-.121.062,2.59,2.59,0,0,0-1.19-.111,3.236,3.236,0,0,0-1.005.808A.094.094,0,0,1,1175.466-175.34Z" transform="translate(-1169.372 188.252)" fill="#333"/>
            <path id="Trazado_16651" data-name="Trazado 16651" d="M1182.052-177.566a.673.673,0,0,1,.44-.846.673.673,0,0,1,.845.44.673.673,0,0,1-.44.846A.673.673,0,0,1,1182.052-177.566Z" transform="translate(-1170.175 188.496)" fill="#333"/>
            <path id="Trazado_16652" data-name="Trazado 16652" d="M1183.84-178.214a.09.09,0,0,1-.053,0,3.221,3.221,0,0,0-1.286-.083,2.593,2.593,0,0,0-.91.773.1.1,0,0,1-.135.019.1.1,0,0,1-.019-.135,2.715,2.715,0,0,1,1.006-.842,3.319,3.319,0,0,1,1.393.08.1.1,0,0,1,.069.118A.1.1,0,0,1,1183.84-178.214Z" transform="translate(-1170.102 188.506)" fill="#333"/>
            <path id="Trazado_16653" data-name="Trazado 16653" d="M1182-169.95c-.109.034-.229.069-.361.1a.048.048,0,0,1-.058-.035.048.048,0,0,1,.036-.058,2.877,2.877,0,0,0,1.263-.551.047.047,0,0,1,.068,0,.048.048,0,0,1,0,.068A2.468,2.468,0,0,1,1182-169.95Z" transform="translate(-1170.122 187.543)" fill="#6b4640"/>
            <path id="Trazado_16654" data-name="Trazado 16654" d="M1183.247-172.332a2.862,2.862,0,0,1-1.66,1.626,4.392,4.392,0,0,1-2.238-.3c-.189-.067-.318-.282-.1-.374C1179.44-171.463,1183.64-173.17,1183.247-172.332Z" transform="translate(-1169.828 187.79)" fill="#fff"/>
            <path id="Trazado_16655" data-name="Trazado 16655" d="M1172.342-174.761c.823-2.38.526-4.982.22-7.482.007.062,2.11-.861,2.232-.912a9.033,9.033,0,0,1,7.354-.232,3.538,3.538,0,0,0-.793-2.6,4.089,4.089,0,0,0-2.847-1.4,8.117,8.117,0,0,0-2.814.524l-3.124.975a6.794,6.794,0,0,0-1.928.828c-1.49,1.049-1.376,3.284-1.152,4.89A8.939,8.939,0,0,0,1172.342-174.761Z" transform="translate(-1168.654 189.571)" fill="#88554b"/>
            <g id="Grupo_12468" data-name="Grupo 12468" transform="translate(1.781 14.061)">
              <path id="Trazado_16656" data-name="Trazado 16656" d="M1171.449-173.848a1.081,1.081,0,0,0-.862.885,1.1,1.1,0,0,0,.37.883,2.187,2.187,0,0,0,.867.462,1.263,1.263,0,0,0,1.143-.072.985.985,0,0,0,.253-1.059A1.478,1.478,0,0,0,1171.449-173.848Z" transform="translate(-1170.582 173.887)" fill="#ffa08b"/>
              <path id="Trazado_16657" data-name="Trazado 16657" d="M1172.7-172.061a.042.042,0,0,1-.031,0,.406.406,0,0,1-.255-.326.407.407,0,0,1,.175-.376.112.112,0,0,0,.03-.022.047.047,0,0,0-.006-.022.6.6,0,0,0-.233-.248,1.339,1.339,0,0,0-.625-.264.649.649,0,0,0-.587.229.26.26,0,0,0-.049.239.047.047,0,0,1-.025.063.047.047,0,0,1-.063-.025.341.341,0,0,1,.06-.334.744.744,0,0,1,.674-.268,1.429,1.429,0,0,1,.67.281.7.7,0,0,1,.268.291.131.131,0,0,1,.008.088.137.137,0,0,1-.063.07.31.31,0,0,0-.137.288.307.307,0,0,0,.193.247.047.047,0,0,1,.028.062A.046.046,0,0,1,1172.7-172.061Z" transform="translate(-1170.634 173.831)" fill="#c77968"/>
            </g>
            <path id="Trazado_16658" data-name="Trazado 16658" d="M1171.672-182.752c-.079,0-.159,0-.24-.01a.1.1,0,0,1-.093-.108.1.1,0,0,1,.109-.092,5.625,5.625,0,0,0,3.258-1.167,7.589,7.589,0,0,1,2.805-1.211,7.248,7.248,0,0,1,2.547.272c.409.094.831.19,1.247.248,1.213.168,2.721-.163,3.161-1.287a.1.1,0,0,1,.131-.057.1.1,0,0,1,.057.131c-.484,1.233-2.046,1.6-3.378,1.413-.424-.059-.851-.157-1.264-.251a7.06,7.06,0,0,0-2.476-.268,7.389,7.389,0,0,0-2.727,1.183A6.32,6.32,0,0,1,1171.672-182.752Z" transform="translate(-1168.892 189.424)" fill="#a36b64"/>
            <path id="Trazado_16659" data-name="Trazado 16659" d="M1170.86-183.608c-.082,0-.163,0-.244-.012a.1.1,0,0,1-.09-.111.1.1,0,0,1,.111-.09,3.733,3.733,0,0,0,2.8-1.277c.141-.13.283-.265.424-.4a6.616,6.616,0,0,1,2.184-1.579,4.734,4.734,0,0,1,2.385-.145c.134.021.267.045.4.07a5.5,5.5,0,0,0,1.19.128,4.4,4.4,0,0,0,1.15-.234,3.5,3.5,0,0,0,1.182-.58.1.1,0,0,1,.142.013.1.1,0,0,1-.012.142,3.668,3.668,0,0,1-1.25.617,4.593,4.593,0,0,1-1.2.244,5.821,5.821,0,0,1-1.234-.131c-.132-.024-.264-.048-.4-.068a4.542,4.542,0,0,0-2.285.135,6.452,6.452,0,0,0-2.115,1.535c-.142.135-.283.27-.427.4A4.171,4.171,0,0,1,1170.86-183.608Z" transform="translate(-1168.794 189.627)" fill="#a36b64"/>
          </g>
        </g>
        <path id="Trazado_16660" data-name="Trazado 16660" d="M1176.5-162.749s7.225-1.744,9.466-5.231,8.719,0,8.719,0,1-.5,1.246-.249l.747.747h5.231s.623,7.847-.124,11.086c0,0-3.986-.5-4.733.747s0,16.939,0,18.434,2.491,15.445,2.491,15.445a6.922,6.922,0,0,1-4.235.747c-2.74-.249-2.242-1.246-6.975,0s-10.712,3.986-18.185,3.487c0,0,1.5-12.455,1.744-15.694a119.456,119.456,0,0,0-.5-11.957,21.218,21.218,0,0,1-7.972-.747s.249-.747.747-1.993a32.125,32.125,0,0,0,1.744-5.231c.249-1.495,1.246-2.242,1.246-2.74a7.508,7.508,0,0,1,4.733-5.73C1175.633-162.873,1176.5-162.749,1176.5-162.749Z" transform="translate(-1154.184 206.198)" fill="#e45f4d"/>
        <path id="Trazado_16661" data-name="Trazado 16661" d="M1189.741-135.257a.1.1,0,0,1-.054-.016.1.1,0,0,1-.032-.14c1.063-1.669,3.072-7.667,4.686-12.487,1.017-3.037,1.9-5.659,2.284-6.436a3.466,3.466,0,0,1,3.339-1.8.1.1,0,0,1,.09.111.1.1,0,0,1-.112.09,3.264,3.264,0,0,0-3.137,1.689c-.383.765-1.259,3.381-2.274,6.41-1.617,4.83-3.631,10.84-4.707,12.531A.1.1,0,0,1,1189.741-135.257Z" transform="translate(-1157.333 204.59)" fill="#282233"/>
        <path id="Trazado_16662" data-name="Trazado 16662" d="M1182.947-121.848a.1.1,0,0,1-.086-.048.1.1,0,0,1,.033-.139c5.631-3.427,10.618-19.708,10.668-19.872a.1.1,0,0,1,.125-.067.1.1,0,0,1,.068.125c-.05.165-5.059,16.518-10.756,19.986A.1.1,0,0,1,1182.947-121.848Z" transform="translate(-1156.517 202.889)" fill="#282233"/>
        <path id="Trazado_16663" data-name="Trazado 16663" d="M1172.3-142.729a.1.1,0,0,1-.1-.084l-1.246-6.975a.1.1,0,0,1,.082-.117.1.1,0,0,1,.117.082l1.245,6.975a.1.1,0,0,1-.081.117Z" transform="translate(-1155.089 203.841)" fill="#282233"/>
        <path id="Trazado_16664" data-name="Trazado 16664" d="M1171.9-143.98a.1.1,0,0,1-.063-.023,7.253,7.253,0,0,1-2.011-3.8.1.1,0,0,1,.08-.117.1.1,0,0,1,.118.08,7.191,7.191,0,0,0,1.941,3.682.1.1,0,0,1,.014.142A.1.1,0,0,1,1171.9-143.98Z" transform="translate(-1154.953 203.603)" fill="#282233"/>
        <path id="Trazado_16665" data-name="Trazado 16665" d="M1180.965-158.764a.1.1,0,0,1-.091-.058.1.1,0,0,1,.048-.135c3.675-1.715,7.65-6.158,7.689-6.2a.1.1,0,0,1,.143-.008.1.1,0,0,1,.009.143c-.04.045-4.043,4.519-7.755,6.252A.1.1,0,0,1,1180.965-158.764Z" transform="translate(-1156.279 205.677)" fill="#282233"/>
        <g id="Grupo_12472" data-name="Grupo 12472" transform="translate(33.74)">
          <g id="Grupo_12471" data-name="Grupo 12471">
            <path id="Trazado_16666" data-name="Trazado 16666" d="M1213.479-206.146c-2.734-3.854-5.469-5.771-7.258-4.812-.046.024-2.768,6.7-13.74,15.369l-.594.456-.008,0c-.887.629-.8,2.278.2,3.684s2.524,2.034,3.411,1.406c.07-.05,9.817-5.638,18.62-6.317a2.416,2.416,0,0,0,.726-.048h0a1.784,1.784,0,0,0,.64-.279C1217.208-197.911,1216.315-202.148,1213.479-206.146Z" transform="translate(-1191.268 211.203)" fill="#f6ded3"/>
            <path id="Trazado_16667" data-name="Trazado 16667" d="M1216.712-196.26c-.561,0-2.551-.4-5.884-5.3-3.894-5.72-2.733-9.31-2.721-9.345a.05.05,0,0,1,.064-.032.05.05,0,0,1,.031.064c-.011.035-1.154,3.581,2.709,9.257,3.848,5.654,5.918,5.247,5.938,5.242a.049.049,0,0,1,.061.037.05.05,0,0,1-.037.061A.729.729,0,0,1,1216.712-196.26Z" transform="translate(-1193.27 211.171)" fill="#282233"/>
            <path id="Trazado_16668" data-name="Trazado 16668" d="M1212.875-198.323a.049.049,0,0,1-.028-.009.05.05,0,0,1-.014-.07c.017-.026,1.652-2.539.146-4.749a4.332,4.332,0,0,0-4.148-1.753.049.049,0,0,1-.059-.04.05.05,0,0,1,.04-.059,4.44,4.44,0,0,1,4.25,1.8c1.543,2.267-.128,4.835-.146,4.861A.05.05,0,0,1,1212.875-198.323Z" transform="translate(-1193.37 210.463)" fill="#282233"/>
            <path id="Trazado_16669" data-name="Trazado 16669" d="M1194.078-194.932c-.514.427-1.041.859-1.6,1.3l-.594.456-.008,0c-.887.629-.8,2.278.2,3.684s2.524,2.034,3.411,1.406c.019-.014.749-.434,1.977-1.053A10.925,10.925,0,0,1,1194.078-194.932Z" transform="translate(-1191.268 209.249)" fill="#a2acc2"/>
          </g>
          <path id="Trazado_16670" data-name="Trazado 16670" d="M1204.679-191.549a17.926,17.926,0,0,0,5.372,5.961,1.27,1.27,0,0,1,.22,1.928l-1.052,1.117a2.041,2.041,0,0,1-2.71.231,19.429,19.429,0,0,1-5.854-7.689Z" transform="translate(-1192.396 208.842)" fill="#f6ded3"/>
        </g>
        <path id="Trazado_16671" data-name="Trazado 16671" d="M1211.67-184.368a10.831,10.831,0,0,0,.229-2.341.581.581,0,0,0-.139-.449,1.02,1.02,0,0,0-.335-.135c-.314-.113-.5-.422-.737-.661a3.638,3.638,0,0,0-2.595-.811,8.651,8.651,0,0,0-3.437.524c-.322.132-.69.429-.557.751l1.66.282a1.272,1.272,0,0,0-1.062.514,1.379,1.379,0,0,0,1.091.354,13.849,13.849,0,0,1,2.518.145q-.966.433-1.922.891c-.087.042-.186.1-.2.194-.021.154.18.23.334.247a12.6,12.6,0,0,0,3.37-.085,1.077,1.077,0,0,1,.864.1,1.232,1.232,0,0,1,.279.437.673.673,0,0,0,.348.372C1211.546-183.986,1211.634-184.2,1211.67-184.368Z" transform="translate(-1159.066 208.508)" fill="#ffa08b"/>
        <path id="Trazado_16672" data-name="Trazado 16672" d="M1206.7-181.175s-1.833-1.338-1.833-1.587-.5-1.993,0-1.993,1,.748,1.245,1.744a7.589,7.589,0,0,0,1.246,2.242Z" transform="translate(-1159.135 208.026)" fill="#ffa08b"/>
      </g>
      <g id="Grupo_12482" data-name="Grupo 12482" transform="translate(113.063 48.269)">
        <g id="Grupo_12474" data-name="Grupo 12474" transform="translate(59.772 129.316)">
          <path id="Trazado_16673" data-name="Trazado 16673" d="M1145.151-44.218s.528,4.953,0,5.189,3.7,2.123,5.809-.472V-46.34Z" transform="translate(-1136.375 46.34)" fill="#ffa08b"/>
          <path id="Trazado_16674" data-name="Trazado 16674" d="M1144.192-39.907l-.278.354c-.992,1.261-4.34,5.521-5.236,6.722-1.056,1.416-5.281,5.189-2.641,6.6s9.242-3.538,13.731-7.548c0,0,1.321-4.246,0-6.132C1149.768-39.907,1145.218-37.549,1144.192-39.907Z" transform="translate(-1135.183 45.567)" fill="#4d3932"/>
          <path id="Trazado_16675" data-name="Trazado 16675" d="M1150.011-33.987c-.126.56-.239.923-.239.923-4.488,4.01-11.09,8.963-13.731,7.548a1.463,1.463,0,0,1-.829-1.023C1138.259-25.528,1145.156-30.13,1150.011-33.987Z" transform="translate(-1135.186 44.856)" fill="#333"/>
          <path id="Trazado_16676" data-name="Trazado 16676" d="M1143.478-32.444l.157-.233-2.058-1.384,2.47.692a.141.141,0,0,0,.164-.072.14.14,0,0,0-.04-.174l-1.945-1.511,2.876.814a.14.14,0,0,0,.165-.074.141.141,0,0,0-.043-.175l-2.172-1.587,3.374.894a.141.141,0,0,0,.165-.078.141.141,0,0,0-.05-.175l-2.487-1.667,2.9.741.07-.274-3.7-.943a.139.139,0,0,0-.163.079.14.14,0,0,0,.05.174l2.468,1.654-3.282-.869a.141.141,0,0,0-.163.076.141.141,0,0,0,.044.174l2.143,1.565-2.818-.8a.142.142,0,0,0-.164.072.141.141,0,0,0,.04.175l1.948,1.513-2.622-.735a.141.141,0,0,0-.166.077.141.141,0,0,0,.049.176Z" transform="translate(-1135.837 45.297)" fill="#333"/>
        </g>
        <g id="Grupo_12475" data-name="Grupo 12475" transform="translate(34.43 129.173)">
          <path id="Trazado_16677" data-name="Trazado 16677" d="M1123.359-44.4a17.429,17.429,0,0,1-.877,5.771h5.844V-46.5l-4.945.524Z" transform="translate(-1108.315 46.502)" fill="#ffa08b"/>
          <path id="Trazado_16678" data-name="Trazado 16678" d="M1126.393-38.946s-3.958.891-5.351-.69A26.577,26.577,0,0,1,1117.4-36.5c-2.473,1.836-10.79,3.673-11.016,5.771s9.667,2.624,16.411,0c0,0,4.945-.262,4.945-1.574A57.669,57.669,0,0,0,1126.393-38.946Z" transform="translate(-1106.382 45.677)" fill="#4d3932"/>
          <path id="Trazado_16679" data-name="Trazado 16679" d="M1122.533-31.292s4.3-.217,5.087-1.242a7.665,7.665,0,0,1,.122,1.088c0,1.312-4.945,1.574-4.945,1.574-6.745,2.624-16.635,2.1-16.411,0a.974.974,0,0,1,.087-.288C1109.4-29.115,1116.98-29.242,1122.533-31.292Z" transform="translate(-1106.382 44.824)" fill="#333"/>
          <path id="Trazado_16680" data-name="Trazado 16680" d="M1118.631-33.379l.265-.1-.708-1.836,1.159.948a.141.141,0,0,0,.172.006.142.142,0,0,0,.051-.165l-.527-1.437,1.666,1.081a.142.142,0,0,0,.167-.01.143.143,0,0,0,.041-.164l-.706-1.746,1.616,1.129a.143.143,0,0,0,.173-.008.142.142,0,0,0,.036-.17l-.808-1.7,1.5,1.087.167-.23-1.949-1.416a.143.143,0,0,0-.175.006.142.142,0,0,0-.037.17l.818,1.717-1.567-1.1a.141.141,0,0,0-.17.005.144.144,0,0,0-.044.165l.716,1.773-1.645-1.066a.143.143,0,0,0-.166.008.142.142,0,0,0-.044.16l.495,1.349-1.172-.958a.143.143,0,0,0-.173-.005.142.142,0,0,0-.049.166Z" transform="translate(-1107.743 45.497)" fill="#333"/>
        </g>
        <path id="Trazado_16681" data-name="Trazado 16681" d="M1140.463-115.5s2.643,9.237,2.377,10.035,2.925,25,2.925,25.528,1.862,2.659,1.33,3.989a4.867,4.867,0,0,0,0,2.925s2.128,21.007,2.128,21.8v4.786c0,.8-2.659-1.6-5.052-1.064s-5.85,1.6-5.85,1.6-1.064-3.457-.8-3.989,0-1.329.531-2.392-1.861-16.752-1.861-17.551-2.659-6.382-2.659-7.977-3.457-16.752-3.457-16.752-1.861,17.285-1.329,18.88,1.862,7.446,1.6,8.243-1.064,3.191-1.064,3.191v15.69s1.33,4.786,0,4.786-5.585-2.925-10.636-3.191c0,0-.8-3.457-.532-4.254s0-7.711,0-8.51V-73.557a82.573,82.573,0,0,1-1.064-10.9c0-4.52.532-13.03,0-15.423s0-14.625,0-14.625Z" transform="translate(-1073.204 183.962)" fill="#a2acc2"/>
        <path id="Trazado_16682" data-name="Trazado 16682" d="M1144.113-57.805a.049.049,0,0,1-.049-.04c0-.013-.268-1.336-.531-2.121s-5-6.573-5.044-6.632a.05.05,0,0,1,.008-.07.05.05,0,0,1,.07.007c.2.239,4.8,5.866,5.061,6.664s.531,2.121.533,2.134a.05.05,0,0,1-.04.059Z" transform="translate(-1075.806 178.099)"/>
        <path id="Trazado_16683" data-name="Trazado 16683" d="M1124.469-57.382a.05.05,0,0,1-.043-.025c-.6-.982-5.856-9.612-5.586-10.153a.051.051,0,0,1,.068-.023.051.051,0,0,1,.023.068c-.186.372,3.236,6.217,5.582,10.056a.05.05,0,0,1-.017.069A.052.052,0,0,1,1124.469-57.382Z" transform="translate(-1073.447 178.208)"/>
        <path id="Trazado_16684" data-name="Trazado 16684" d="M1129.752-66.594a.05.05,0,0,1-.048-.038c-.093-.371-.7-1.718-1.411-3.277-1.314-2.9-3.112-6.861-3.112-7.9a.051.051,0,0,1,.051-.051.051.051,0,0,1,.05.051c0,1.021,1.793,4.974,3.1,7.862.738,1.628,1.322,2.913,1.417,3.293a.051.051,0,0,1-.037.062Z" transform="translate(-1074.209 179.442)"/>
        <path id="Trazado_16685" data-name="Trazado 16685" d="M1127.7-37.647a4.072,4.072,0,0,1-2.042-.557,47.174,47.174,0,0,0-5.576-2.389.05.05,0,0,1-.03-.065.05.05,0,0,1,.064-.03,47.135,47.135,0,0,1,5.592,2.4,3.824,3.824,0,0,0,3.41.264.052.052,0,0,1,.068.023.051.051,0,0,1-.023.068A3.6,3.6,0,0,1,1127.7-37.647Z" transform="translate(-1073.593 174.977)"/>
        <path id="Trazado_16686" data-name="Trazado 16686" d="M1142.457-39.072a.048.048,0,0,1-.033-.012.049.049,0,0,1-.005-.07,6.912,6.912,0,0,1,4.021-2.145A7.286,7.286,0,0,1,1151-39.961a.051.051,0,0,1,.011.071.05.05,0,0,1-.07.01,7.2,7.2,0,0,0-4.485-1.32,6.807,6.807,0,0,0-3.956,2.11A.052.052,0,0,1,1142.457-39.072Z" transform="translate(-1076.278 175.054)"/>
        <path id="Trazado_16687" data-name="Trazado 16687" d="M1131.263-93.84a.051.051,0,0,1-.039-.018l-1.33-1.6-1.594-1.861a.049.049,0,0,1-.012-.026l-1.6-12.5a.051.051,0,0,1,.044-.057.051.051,0,0,1,.056.044l1.594,12.483,1.586,1.85,1.329,1.6a.05.05,0,0,1-.006.071A.05.05,0,0,1,1131.263-93.84Z" transform="translate(-1074.391 183.289)"/>
        <path id="Trazado_16688" data-name="Trazado 16688" d="M1127.949-97.79a.047.047,0,0,1-.022,0l-2.862-1.369a.051.051,0,0,1-.028-.04l-1.064-10.636a.05.05,0,0,1,.045-.055.049.049,0,0,1,.055.046l1.06,10.608,2.837,1.356a.05.05,0,0,1,.024.068A.051.051,0,0,1,1127.949-97.79Z" transform="translate(-1074.064 183.289)"/>
        <path id="Trazado_16689" data-name="Trazado 16689" d="M1144.374-102.207c-3.314,0-5.831-2.267-7.389-4.229a20.807,20.807,0,0,1-2.733-4.6.05.05,0,0,1,.028-.066.051.051,0,0,1,.065.028,20.731,20.731,0,0,0,2.72,4.576c1.63,2.052,4.315,4.438,7.866,4.167h0a.05.05,0,0,1,.05.047.049.049,0,0,1-.046.054Q1144.653-102.207,1144.374-102.207Z" transform="translate(-1075.298 183.434)"/>
        <path id="Trazado_16690" data-name="Trazado 16690" d="M1116.928-100.379a.051.051,0,0,1-.033-.011.051.051,0,0,1-.006-.071,19.378,19.378,0,0,0,3.573-11.5.05.05,0,0,1,.05-.051.051.051,0,0,1,.05.051,19.477,19.477,0,0,1-3.6,11.564A.048.048,0,0,1,1116.928-100.379Z" transform="translate(-1073.212 183.543)"/>
        <g id="Grupo_12480" data-name="Grupo 12480" transform="translate(45.564)">
          <path id="Trazado_16691" data-name="Trazado 16691" d="M1123.786-172.687s-.616,4.973-1.506,6.839c0,0,3.636,1.977,8.552-.487,0,0,0-.36.18-8.292Z" transform="translate(-1119.425 191.063)" fill="#ffa08b"/>
          <path id="Trazado_16692" data-name="Trazado 16692" d="M1123.489-169.7c.221-1.159.369-2.194.427-2.628l6.889-1.123C1129.09-169.28,1125.049-169.458,1123.489-169.7Z" transform="translate(-1119.57 190.921)" fill="#c77968"/>
          <g id="Grupo_12479" data-name="Grupo 12479">
            <path id="Trazado_16693" data-name="Trazado 16693" d="M1131.031-191.809a3.384,3.384,0,0,1-.834-.254c-.565-.315-.855-1.078-1.491-1.195-.546-.1-1.037.339-1.581.451-.96.2-1.9-.64-2.864-.477-.466.078-.869.383-1.334.468-.9.164-2.017-.467-2.649.2l1.578.8c-.334.419-1.016.282-1.477.558-.566.339-.7,1.242-1.344,1.4a1.976,1.976,0,0,0,1.439.592,4.336,4.336,0,0,1-.645,1.359l.766.065a5.73,5.73,0,0,0,.3,3.131,2.359,2.359,0,0,1,1.022-2.245,4.519,4.519,0,0,1,2.459-.733,8.629,8.629,0,0,1,5.67,1.815,8.633,8.633,0,0,1,3.11,5.076,10.487,10.487,0,0,0,1.3-2.692,5.153,5.153,0,0,1,.432,1.44c-.328-.678.562-1.325.688-2.069a2.141,2.141,0,0,0-.111-.908l-.773-2.826a5.043,5.043,0,0,1,1.17.37c-.058-.026-.294-.438-.4-.525a3.647,3.647,0,0,0-.712-.311,1.6,1.6,0,0,1-.949-.9A4.282,4.282,0,0,0,1131.031-191.809Z" transform="translate(-1119.035 193.306)" fill="#4e3933"/>
            <g id="Grupo_12477" data-name="Grupo 12477" transform="translate(0.246 10.367)">
              <g id="Grupo_12476" data-name="Grupo 12476">
                <path id="Trazado_16694" data-name="Trazado 16694" d="M1120.761-181.462a1.139,1.139,0,0,0-1.256.341,1.163,1.163,0,0,0-.137,1,2.317,2.317,0,0,0,.538.883,1.334,1.334,0,0,0,1.075.546,1.038,1.038,0,0,0,.8-.825A1.557,1.557,0,0,0,1120.761-181.462Z" transform="translate(-1119.314 181.524)" fill="#c77968"/>
              </g>
            </g>
            <path id="Trazado_16695" data-name="Trazado 16695" d="M1121.217-186.592a6.037,6.037,0,0,1,4.081-4.259,8.72,8.72,0,0,1,4.743.268c3.057,1,5.3,3.617,4.609,6.966-.575,2.794-2.245,5.2-3.809,7.526a7.652,7.652,0,0,1-1.12,1.354,4.925,4.925,0,0,1-1.676.919,9.209,9.209,0,0,1-3.843.877,3,3,0,0,1-1.438-.429,4.429,4.429,0,0,1-1.135-1.238,6.811,6.811,0,0,1-1.424-2.927,6.193,6.193,0,0,1,.026-1.421q.077-.76.184-1.516a7.6,7.6,0,0,1,.178-1.386q.145-1.46.315-2.918A12.059,12.059,0,0,1,1121.217-186.592Z" transform="translate(-1119.172 193.037)" fill="#ffa08b"/>
            <path id="Trazado_16696" data-name="Trazado 16696" d="M1124.485-177.184a.1.1,0,0,0,.113-.051.1.1,0,0,0-.042-.137c-.267-.143-.7-.431-.58-.75a.992.992,0,0,1,.159-.255l.021-.027a5.545,5.545,0,0,0,1.184-3.365.1.1,0,0,0-.1-.1.1.1,0,0,0-.1.1,5.333,5.333,0,0,1-1.142,3.236l-.02.027a1.151,1.151,0,0,0-.19.309c-.127.348.107.692.675,1A.1.1,0,0,0,1124.485-177.184Z" transform="translate(-1119.601 191.932)" fill="#c77968"/>
            <path id="Trazado_16697" data-name="Trazado 16697" d="M1125.676-176.312h.006a.4.4,0,0,0,.308-.068.438.438,0,0,0,.186-.289.43.43,0,0,0-.091-.331.4.4,0,0,0-.275-.153.1.1,0,0,0-.109.093.1.1,0,0,0,.093.109.194.194,0,0,1,.132.077.231.231,0,0,1,.049.174.235.235,0,0,1-.1.152.2.2,0,0,1-.151.037.511.511,0,0,1-.137-.063l-.4-.232a.1.1,0,0,0-.138.037.1.1,0,0,0,.037.139l.4.232A.717.717,0,0,0,1125.676-176.312Z" transform="translate(-1119.755 191.366)" fill="#c77968"/>
            <path id="Trazado_16698" data-name="Trazado 16698" d="M1128.364-181.254a.3.3,0,0,0,.165-.008,2.354,2.354,0,0,1,2.26.523.3.3,0,0,0,.43,0,.3.3,0,0,0,0-.43,2.94,2.94,0,0,0-2.882-.667.3.3,0,0,0-.192.385A.3.3,0,0,0,1128.364-181.254Z" transform="translate(-1120.127 191.946)" fill="#4e3933"/>
            <path id="Trazado_16699" data-name="Trazado 16699" d="M1121.611-182.816a.293.293,0,0,0,.165-.009,2.351,2.351,0,0,1,2.26.524.3.3,0,0,0,.43,0,.305.305,0,0,0,0-.431,2.942,2.942,0,0,0-2.882-.667.305.305,0,0,0-.192.386A.307.307,0,0,0,1121.611-182.816Z" transform="translate(-1119.316 192.134)" fill="#4e3933"/>
            <path id="Trazado_16700" data-name="Trazado 16700" d="M1124.713-174.581a9.946,9.946,0,0,0,2,.239.051.051,0,0,0,.051-.051.05.05,0,0,0-.05-.051c-.028,0-2.83-.019-3.98-1.2a.049.049,0,0,0-.071,0,.05.05,0,0,0,0,.071A4.221,4.221,0,0,0,1124.713-174.581Z" transform="translate(-1119.469 191.187)" fill="#6b4640"/>
            <path id="Trazado_16701" data-name="Trazado 16701" d="M1127.772-174.154a.051.051,0,0,0,.053-.02.318.318,0,0,0-.033-.4.051.051,0,0,0-.072,0,.051.051,0,0,0,0,.072.217.217,0,0,1,.023.267.05.05,0,0,0,.012.07A.065.065,0,0,0,1127.772-174.154Z" transform="translate(-1120.076 191.058)" fill="#c77968"/>
            <path id="Trazado_16702" data-name="Trazado 16702" d="M1123.606-181.086a.61.61,0,0,0-.458-.732.611.611,0,0,0-.733.457.611.611,0,0,0,.458.733A.61.61,0,0,0,1123.606-181.086Z" transform="translate(-1119.439 191.928)" fill="#333"/>
            <path id="Trazado_16703" data-name="Trazado 16703" d="M1121.8-181.537a.088.088,0,0,0,.047,0,2.917,2.917,0,0,1,1.156-.167,2.357,2.357,0,0,1,.876.634.087.087,0,0,0,.123.007.087.087,0,0,0,.007-.123,2.456,2.456,0,0,0-.967-.688,3.007,3.007,0,0,0-1.252.172.087.087,0,0,0-.055.111A.09.09,0,0,0,1121.8-181.537Z" transform="translate(-1119.359 191.936)" fill="#333"/>
            <path id="Trazado_16704" data-name="Trazado 16704" d="M1128.861-179.87a.61.61,0,0,1,.733-.458.611.611,0,0,1,.457.733.611.611,0,0,1-.733.457A.61.61,0,0,1,1128.861-179.87Z" transform="translate(-1120.213 191.749)" fill="#333"/>
            <path id="Trazado_16705" data-name="Trazado 16705" d="M1130.548-179.515a.09.09,0,0,1-.042-.023,2.9,2.9,0,0,0-.964-.658,2.35,2.35,0,0,0-1.066.185.087.087,0,0,1-.113-.048.087.087,0,0,1,.047-.113,2.457,2.457,0,0,1,1.172-.194,3.019,3.019,0,0,1,1.05.7.089.089,0,0,1,0,.124A.087.087,0,0,1,1130.548-179.515Z" transform="translate(-1120.154 191.755)" fill="#333"/>
            <path id="Trazado_16706" data-name="Trazado 16706" d="M1124.758-173.694c.117.027.246.052.387.075a.051.051,0,0,0,.057-.043.052.052,0,0,0-.042-.058,3.03,3.03,0,0,1-1.371-.473.052.052,0,0,0-.072.006.051.051,0,0,0,.006.071A2.634,2.634,0,0,0,1124.758-173.694Z" transform="translate(-1119.596 191.012)" fill="#6b4640"/>
            <path id="Trazado_16707" data-name="Trazado 16707" d="M1135.31-179.779a3.734,3.734,0,0,1-.85,1.063,1.39,1.39,0,0,1-1.283.274,13.881,13.881,0,0,1-.052-3.354,16.8,16.8,0,0,0-.175-3.031.387.387,0,0,1,.02-.259.378.378,0,0,1,.286-.138,8.112,8.112,0,0,1,2.312-.02c.526.071,1.133.272,1.281.781.157.54-.332,1.392-.446,1.957A8.24,8.24,0,0,1,1135.31-179.779Z" transform="translate(-1120.705 192.347)" fill="#4e3933"/>
            <path id="Trazado_16708" data-name="Trazado 16708" d="M1131.171-183.7a3.256,3.256,0,0,1,.018-1.484q1.07.894,2.213,1.694c-.045-.282.2-.53.464-.648a4.1,4.1,0,0,0,.785-.34c.567-.421.446-1.294.214-1.962a7.684,7.684,0,0,0-4.224-4.915,9.613,9.613,0,0,0-3.532-.4,9.057,9.057,0,0,0-2.829.388,3.413,3.413,0,0,0-2.09,1.835c-.129.326-.191.676-.311,1.006a3.042,3.042,0,0,1-.879,1.271,8.407,8.407,0,0,0,2.777-.431c-.535.707-1.92.66-2.048,1.537a1.792,1.792,0,0,1,1.5-.361,6.421,6.421,0,0,0,1.591.15c1.393-.181,2.919-2.28,4.447-1.3a5.833,5.833,0,0,1,1.211,1.772C1130.829-185.247,1130.61-184.207,1131.171-183.7Z" transform="translate(-1119.271 193.121)" fill="#4e3933"/>
            <g id="Grupo_12478" data-name="Grupo 12478" transform="translate(12.455 13.318)">
              <path id="Trazado_16709" data-name="Trazado 16709" d="M1134.988-178.153a1.139,1.139,0,0,1,.979.858,1.162,1.162,0,0,1-.315.957,2.313,2.313,0,0,1-.871.557,1.327,1.327,0,0,1-1.206.018,1.034,1.034,0,0,1-.353-1.091A1.557,1.557,0,0,1,1134.988-178.153Z" transform="translate(-1133.191 178.17)" fill="#ffa08b"/>
              <path id="Trazado_16710" data-name="Trazado 16710" d="M1133.954-176.178a.059.059,0,0,0,.032,0,.427.427,0,0,0,.241-.364.428.428,0,0,0-.216-.38.143.143,0,0,1-.033-.021.057.057,0,0,1,0-.023.63.63,0,0,1,.224-.28,1.4,1.4,0,0,1,.634-.329.681.681,0,0,1,.635.192.27.27,0,0,1,.071.246.052.052,0,0,0,.032.065.051.051,0,0,0,.064-.032.36.36,0,0,0-.09-.346.785.785,0,0,0-.73-.226,1.51,1.51,0,0,0-.68.35.733.733,0,0,0-.257.328.131.131,0,0,0,0,.093.143.143,0,0,0,.071.068.326.326,0,0,1,.169.29.325.325,0,0,1-.182.275.051.051,0,0,0-.025.068A.05.05,0,0,0,1133.954-176.178Z" transform="translate(-1133.273 178.113)" fill="#c77968"/>
            </g>
          </g>
        </g>
        <path id="Trazado_16711" data-name="Trazado 16711" d="M1112.215-134.043s-1.064,4.787-2.659,5.052-12.232-12.764-13.3-13.828-3.824-4.261-4.173-4.656,6.832,1.466,6.832,1.732,9.307,6.914,9.307,6.914Z" transform="translate(-1070.234 187.808)" fill="#ffa08b"/>
        <path id="Trazado_16712" data-name="Trazado 16712" d="M1130.611-165.293a14.43,14.43,0,0,1-8.243.531l1.064,20.741s5.584-.8,5.584-1.33S1130.611-165.293,1130.611-165.293Z" transform="translate(-1073.872 189.942)" fill="#f6ebe3"/>
        <path id="Trazado_16713" data-name="Trazado 16713" d="M1129.232-168.786l1.994,1.994s9.307,2.128,10.1,2.925,1.064,3.191,1.6,3.723,1.33.532,1.33,1.6-.532,2.127,0,2.658.531.267.531,1.064a46.984,46.984,0,0,0,1.064,5.318c.266,1.064,2.393,6.382,2.925,6.648s-.133,4.654-.133,4.654-7.579,1.462-9.971-.664c0,0,1.063,11.966,1.063,12.232s.8,4.254.8,4.254a14.826,14.826,0,0,0-4.52,2.659c-2.128,1.862-6.914,5.584-11.966,4.521s-7.446-4.255-9.573-5.052a42.535,42.535,0,0,0,0-5.85,10.336,10.336,0,0,1,0-2.925l-.531-6.648-6.382-7.18,1.329-7.977a5.912,5.912,0,0,1-.531-3.989c.531-2.127,2.127-5.584,2.127-6.115s9.307-6.116,9.307-6.116l1.6-1.862s1.6,23.932,2.128,21.8S1129.232-168.786,1129.232-168.786Z" transform="translate(-1072.093 190.377)" fill="#fed190"/>
        <path id="Trazado_16714" data-name="Trazado 16714" d="M1142.688-135.127a.052.052,0,0,1-.047-.032,7.665,7.665,0,0,1-.535-2.146v-1.064a.105.105,0,0,1,.045-.08,14.7,14.7,0,0,1,5.6-.767c1.579.263,3.705.794,3.726.8a.049.049,0,0,1,.037.061.05.05,0,0,1-.062.037c-.021-.005-2.143-.535-3.718-.8a14.8,14.8,0,0,0-5.527.756v1.056a7.728,7.728,0,0,0,.529,2.108.052.052,0,0,1-.028.066A.046.046,0,0,1,1142.688-135.127Z" transform="translate(-1076.242 186.816)"/>
        <path id="Trazado_16715" data-name="Trazado 16715" d="M1142.3-139.923a.052.052,0,0,1-.048-.036,46.086,46.086,0,0,1-1.358-11.591.051.051,0,0,1,.05-.05.051.051,0,0,1,.051.05,45.933,45.933,0,0,0,1.354,11.563.051.051,0,0,1-.035.062Z" transform="translate(-1076.097 188.297)"/>
        <path id="Trazado_16716" data-name="Trazado 16716" d="M1141.137-143.379a.051.051,0,0,1-.041-.021c-1.258-1.725-3.495-5.667-3.518-5.707a.05.05,0,0,1,.019-.069.05.05,0,0,1,.069.019c.023.04,2.256,3.976,3.512,5.7a.05.05,0,0,1-.012.07A.049.049,0,0,1,1141.137-143.379Z" transform="translate(-1075.698 188.007)"/>
        <path id="Trazado_16717" data-name="Trazado 16717" d="M1146.084-147.838h-.012a.051.051,0,0,1-.037-.062c.263-1.052,1.846-6.331,1.862-6.384a.052.052,0,0,1,.063-.034.051.051,0,0,1,.033.063c-.016.053-1.6,5.33-1.861,6.379A.049.049,0,0,1,1146.084-147.838Z" transform="translate(-1076.714 188.624)"/>
        <path id="Trazado_16718" data-name="Trazado 16718" d="M1127.649-153.326l-.015,0a.05.05,0,0,1-.033-.063l2.925-9.041a.053.053,0,0,1,.012-.02,16.022,16.022,0,0,1,1.869-1.6,13.2,13.2,0,0,1,3.1-1.047l-2.176-1.613a.05.05,0,0,1-.011-.07.05.05,0,0,1,.07-.011l2.265,1.678a.05.05,0,0,1,.018.051.049.049,0,0,1-.038.039,14.375,14.375,0,0,0-3.174,1.057,15.786,15.786,0,0,0-1.845,1.58l-2.921,9.03A.051.051,0,0,1,1127.649-153.326Z" transform="translate(-1074.5 190.123)"/>
        <path id="Trazado_16719" data-name="Trazado 16719" d="M1123.724-154.618a.051.051,0,0,1-.049-.04l-.923-4.28c-.012-.045-1.332-4.759-2.355-5.014a4.914,4.914,0,0,0-2.1,0,.05.05,0,0,1-.056-.025.051.051,0,0,1,.009-.06l2.659-2.66a.051.051,0,0,1,.071,0,.051.051,0,0,1,0,.071l-2.54,2.541a4.954,4.954,0,0,1,1.985.034c1.08.269,2.375,4.89,2.429,5.088l.923,4.283a.05.05,0,0,1-.039.06Z" transform="translate(-1073.375 190.112)"/>
        <path id="Trazado_16720" data-name="Trazado 16720" d="M1115.489-139.46h0a.051.051,0,0,1-.049-.052c0-.1.257-9.583-.528-11.413a.05.05,0,0,1,.026-.066.052.052,0,0,1,.067.026c.793,1.85.546,11.064.536,11.455A.051.051,0,0,1,1115.489-139.46Z" transform="translate(-1072.976 188.225)"/>
        <path id="Trazado_16721" data-name="Trazado 16721" d="M1115.293-144.96a.051.051,0,0,1-.045-.027l-2.149-4.121a.05.05,0,0,1,.021-.068.05.05,0,0,1,.068.021l2.15,4.121a.052.052,0,0,1-.021.069A.058.058,0,0,1,1115.293-144.96Z" transform="translate(-1072.758 188.007)"/>
        <path id="Trazado_16722" data-name="Trazado 16722" d="M1113.954-153.41a.05.05,0,0,1-.04-.018,27.637,27.637,0,0,0-2.919-2.919.05.05,0,0,1-.005-.071.052.052,0,0,1,.071-.005,27.916,27.916,0,0,1,2.931,2.932.051.051,0,0,1-.008.071A.05.05,0,0,1,1113.954-153.41Z" transform="translate(-1072.504 188.878)"/>
        <path id="Trazado_16723" data-name="Trazado 16723" d="M1140.342-155.235h-.01a.052.052,0,0,1-.041-.059c1.322-7.135,4.435-7.476,4.567-7.486a.048.048,0,0,1,.054.046.05.05,0,0,1-.046.055c-.032,0-3.169.355-4.475,7.4A.051.051,0,0,1,1140.342-155.235Z" transform="translate(-1076.024 189.64)"/>
        <path id="Trazado_16724" data-name="Trazado 16724" d="M1127.533-112.017a.051.051,0,0,1-.051-.048l-1.7-32.23a.05.05,0,0,1,.047-.053.052.052,0,0,1,.054.048l1.7,32.23a.051.051,0,0,1-.048.053Z" transform="translate(-1074.282 187.426)"/>
        <path id="Trazado_16725" data-name="Trazado 16725" d="M1149.408-66.834a.056.056,0,0,1-.02,0,.051.051,0,0,1-.026-.066l.8-1.862a.05.05,0,0,1,.066-.026.051.051,0,0,1,.026.067l-.8,1.861A.049.049,0,0,1,1149.408-66.834Z" transform="translate(-1077.113 178.353)"/>
        <g id="Grupo_12481" data-name="Grupo 12481" transform="translate(0 20.037)">
          <path id="Trazado_16726" data-name="Trazado 16726" d="M1070.767-168.575l-3.514-1.96,3.037,2.6Z" transform="translate(-1067.252 170.535)" fill="#b3b3b3"/>
          <rect id="Rectángulo_2891" data-name="Rectángulo 2891" width="6.648" height="85.889" transform="matrix(0.598, -0.801, 0.801, 0.598, 11.622, 12.658)" fill="#627595"/>
          <path id="Trazado_16727" data-name="Trazado 16727" d="M1070.471-169.182l-.8,1.066,3.283,4.623a19.02,19.02,0,0,0,4.129,4.229l3.995,2.982,3.977-5.327-4-2.983a19.045,19.045,0,0,0-5.228-2.757Z" transform="translate(-1067.543 170.372)" fill="#b3b3b3"/>
          <rect id="Rectángulo_2892" data-name="Rectángulo 2892" width="7.18" height="2.127" transform="translate(79.01 63.296) rotate(-53.258)" fill="#b3b3b3"/>
          <path id="Trazado_16728" data-name="Trazado 16728" d="M1165.417-99.368l-1.579,2.116a.541.541,0,0,1-.757.11l-4.041-3.017,2.227-2.983,4.041,3.016A.541.541,0,0,1,1165.417-99.368Z" transform="translate(-1078.276 162.441)" fill="#b3b3b3"/>
          <path id="Trazado_16729" data-name="Trazado 16729" d="M1155.163-99.286c-.425,0-4.721-.1-9.755-3.855a23.758,23.758,0,0,1-5.839-6.312,11.068,11.068,0,0,0-2.318-2.765c-.9-.671-1.309-.613-1.443-.558-.24.1-.343.474-.36.6a.508.508,0,0,1-.566.433.5.5,0,0,1-.435-.56,1.8,1.8,0,0,1,.962-1.4,2.538,2.538,0,0,1,2.445.676,11.916,11.916,0,0,1,2.547,3,22.9,22.9,0,0,0,5.609,6.073c4.843,3.615,9.029,3.654,9.164,3.654h.009a.5.5,0,0,1,.5.5.5.5,0,0,1-.5.51Z" transform="translate(-1075.322 163.723)" fill="#b3b3b3"/>
          <path id="Trazado_16730" data-name="Trazado 16730" d="M1160.243-99.212a.058.058,0,0,1-.031-.01.05.05,0,0,1-.01-.07l2.227-2.984a.05.05,0,0,1,.07-.01.05.05,0,0,1,.01.07l-2.227,2.983A.049.049,0,0,1,1160.243-99.212Z" transform="translate(-1078.414 162.339)"/>
          <path id="Trazado_16731" data-name="Trazado 16731" d="M1079.529-157.523a.048.048,0,0,1-.043-.025.049.049,0,0,1,.017-.069,10.261,10.261,0,0,0,3.954-5.3.051.051,0,0,1,.064-.033.051.051,0,0,1,.032.063,10.354,10.354,0,0,1-4,5.354A.045.045,0,0,1,1079.529-157.523Z" transform="translate(-1068.721 169.624)"/>
        </g>
        <path id="Trazado_16732" data-name="Trazado 16732" d="M1108.67-130.145s-4.737-1.927-5.8-2.99-8.827-13.392-9.732-13.743a22.15,22.15,0,0,1-2.913-1.826,1.59,1.59,0,0,1-.625-1.732c.486-1.756,1.446-5.036,1.834-5.036.532,0,.267,3.191.267,3.191s1.329-2.925,1.6-2.393a2.078,2.078,0,0,1,0,1.33s.531-.531.8-.531-.266,2.925-.266,2.925.8-2.128,1.064-1.6-.266,2.127-.266,2.127,2.393,2.926,2.659,3.989,11.4,8.429,12.081,11.128a9.333,9.333,0,0,1-.416,5.3Z" transform="translate(-1069.929 188.762)" fill="#ffa08b"/>
        <path id="Trazado_16733" data-name="Trazado 16733" d="M1139.689-134.738s5.85-2.128,9.307.266c0,0,.531,5.85-.8,6.382s-1.33,1.6-19.412,1.064c0,0-6.648,2.392-7.445,1.861a2.861,2.861,0,0,1-1.064-1.33s-1.064-.266-1.33-.8a3.274,3.274,0,0,0-.532-.8l-.8-.532-.479-.966s2.074-.1,2.605-.1,3.989-1.33,3.989-1.6-2.659-2.128-2.392-2.925,1.6.532,2.925,1.064,3.456,1.6,3.456,1.6l.8.531s9.839-2.127,11.169-2.393Z" transform="translate(-1073.244 186.377)" fill="#ffa08b"/>
        <path id="Trazado_16734" data-name="Trazado 16734" d="M1142.753-133.08a.1.1,0,0,1-.1-.072.1.1,0,0,1,.068-.125,23.637,23.637,0,0,1,7.294-.34.1.1,0,0,1,.094.107.1.1,0,0,1-.107.094,23.47,23.47,0,0,0-7.224.332A.107.107,0,0,1,1142.753-133.08Z" transform="translate(-1076.308 186.149)" fill="#c77968"/>
        <path id="Trazado_16735" data-name="Trazado 16735" d="M1150.61-127.159a.1.1,0,0,1-.1-.1.1.1,0,0,1,.1-.1c.345,0,.946-.786,1.243-1.28a.1.1,0,0,1,.138-.035.1.1,0,0,1,.034.138C1151.941-128.4,1151.182-127.159,1150.61-127.159Z" transform="translate(-1077.251 185.546)" fill="#c77968"/>
      </g>
      <g id="Grupo_12488" data-name="Grupo 12488" transform="translate(9.861 56.84)">
        <path id="Trazado_16736" data-name="Trazado 16736" d="M981.586-182.767a5.7,5.7,0,0,1,4.33-.642,16.923,16.923,0,0,1,4.156,1.681c1.708.875,3.636,2.058,3.807,3.969.113,1.244-.589,2.427-.647,3.674-.094,2.035,1.52,4.009.934,5.96-.348,1.155-1.4,1.979-1.821,3.109-.466,1.252-.087,2.665-.361,3.972a4.123,4.123,0,0,1-3.155,3.121c-.993.2-2.143.056-2.9.733-1,.9-.622,2.618-1.4,3.711a3.183,3.183,0,0,1-3.328.877c-1.187-.272-2.286-.871-3.487-1.07a5.434,5.434,0,0,0-4.213,1.091c-1.372,1.088-3.733-.283-4.878-1.608a4.519,4.519,0,0,1-.581-4.913c1.2-2.311,4.238-3.264,5.291-5.645.493-1.111.484-2.416,1.1-3.467.487-.837,1.324-1.429,1.8-2.275.983-1.756.128-3.954.384-5.951C976.956-179.092,979.364-181.275,981.586-182.767Z" transform="translate(-952.079 183.565)" fill="#fed190"/>
        <path id="Trazado_16737" data-name="Trazado 16737" d="M1012.306-123.616h4.033s3.429,2.017,4.034,1.815.807-.605,1.614-.605,2.824-.4,2.824-.807a26.32,26.32,0,0,1,.71-2.746h-15.078Z" transform="translate(-957.228 176.647)" fill="#ffa08b"/>
        <path id="Trazado_16738" data-name="Trazado 16738" d="M1001.643-147.158s2,13.672,1.775,14.337,2.441,3.107,2.441,3.107l5.692,1.535a3.836,3.836,0,0,1-.4,2.42s-16.941,1.815-15.274-6.174c.635-3.049,1.553-13.757,1.553-13.757Z" transform="translate(-955.464 179.193)" fill="#a2acc2"/>
        <path id="Trazado_16739" data-name="Trazado 16739" d="M964.855-120.692s-4.437,6.435-5.547,7.323-4.216,2.663-4.216,2.663-.888,2.441-.443,2.441-.666.665-.888.665-.443-2.441-.443-2.441-.888,3.329-.444,3.329c0,0-.887.443-1.11-.222s.223.665-.222.443-2.219-4.216-1.331-5.325,7.323-3.329,7.767-4.438,2-6.213,2.884-7.323S964.855-120.692,964.855-120.692Z" transform="translate(-949.964 176.384)" fill="#ffa08b"/>
        <g id="Grupo_12483" data-name="Grupo 12483" transform="translate(12.298 108.156)">
          <path id="Trazado_16740" data-name="Trazado 16740" d="M975.266-60.647s-3.835,5.278-4.73,5.806-5.275,1.3-6.04,2.048-.58.04-.38,2.942-.206,8.876,1.286,11.921,3.457,2.794,3.457,2.794,1.7-.7,1.977-1.769-.544-4.51-.175-5.934,1.842-7.123,2.831-8.007,6.3-6.729,6.3-6.729Z" transform="translate(-963.941 60.647)" fill="#ffa08b"/>
          <path id="Trazado_16741" data-name="Trazado 16741" d="M968.86-34.313s1.7-.7,1.977-1.769-.544-4.509-.175-5.934a45.03,45.03,0,0,1,2.444-7.475c-2.215-1.975-2.942-3.4-3.141-4.289-1.493.507-4.812,1.164-5.469,1.81-.764.752-.58.04-.38,2.942s-.206,8.876,1.286,11.921S968.86-34.313,968.86-34.313Z" transform="translate(-963.941 59.822)" fill="#e45f4d"/>
          <path id="Trazado_16742" data-name="Trazado 16742" d="M970.709-38.772a4.379,4.379,0,0,0-4.07-2.189s-1.725-6.862-1.471-11.2a2.258,2.258,0,0,0-.672.385c-.764.752-.58.04-.38,2.942s-.206,8.876,1.286,11.921,3.457,2.794,3.457,2.794,1.7-.7,1.977-1.769A11.442,11.442,0,0,0,970.709-38.772Z" transform="translate(-963.941 59.628)" fill="#f6ded3"/>
          <path id="Trazado_16743" data-name="Trazado 16743" d="M970.444-35.2h-.006c-.033,0-3.337-.461-3.74-5.9-.018-.072-1.855-7.964-1.477-10.88a.053.053,0,0,1,.057-.044.051.051,0,0,1,.043.057c-.375,2.9,1.458,10.772,1.476,10.851.4,5.362,3.621,5.814,3.653,5.818a.051.051,0,0,1,.044.056A.051.051,0,0,1,970.444-35.2Z" transform="translate(-964.088 59.612)" fill="#282233"/>
          <path id="Trazado_16744" data-name="Trazado 16744" d="M971.289-41.894a.1.1,0,0,1-.071-.03,8.083,8.083,0,0,0-2.467-1.679.1.1,0,0,1-.056-.121.1.1,0,0,1,.113-.07,8.9,8.9,0,0,1,2.323.724c-.7-.668-1.455-1.286-2.19-1.888a.1.1,0,0,1-.024-.128.1.1,0,0,1,.121-.046,14.651,14.651,0,0,1,2.676,1.267,2.189,2.189,0,0,0-.33-.4,3.264,3.264,0,0,0-.563-.387c-.085-.05-.171-.1-.253-.154-.164-.1-.323-.223-.475-.336a4.439,4.439,0,0,0-.826-.528.1.1,0,0,1-.055-.121.1.1,0,0,1,.113-.07,11.744,11.744,0,0,1,2.413.671,13.485,13.485,0,0,0-2-1.26.1.1,0,0,1-.05-.121.1.1,0,0,1,.11-.07,11.423,11.423,0,0,1,2.5.642,6.233,6.233,0,0,0-.788-.562c-.567-.358-1.152-.706-1.74-1.033a.1.1,0,0,1-.047-.121.1.1,0,0,1,.113-.067,11.485,11.485,0,0,1,2.675.678,4.1,4.1,0,0,0-.575-.463c-.224-.15-.47-.28-.707-.407a6.306,6.306,0,0,1-.953-.582.1.1,0,0,1-.033-.112.1.1,0,0,1,.1-.069,6.2,6.2,0,0,1,2.388.457A15.244,15.244,0,0,0,970.87-49.7a.1.1,0,0,1-.043-.109.1.1,0,0,1,.089-.076,4.528,4.528,0,0,1,2.657.938.1.1,0,0,1,.033.139.1.1,0,0,1-.139.032,4.884,4.884,0,0,0-2.217-.914,15.306,15.306,0,0,1,2.084,1.7.1.1,0,0,1,.011.132.1.1,0,0,1-.129.029,5.986,5.986,0,0,0-2.549-.7c.213.138.44.259.661.377.242.128.492.261.724.416a4.29,4.29,0,0,1,.975.9.1.1,0,0,1,0,.128.1.1,0,0,1-.127.022,7.866,7.866,0,0,0-2.523-.8c.421.244.839.5,1.248.753a4.492,4.492,0,0,1,1.16.942.1.1,0,0,1,0,.124.1.1,0,0,1-.121.032,11.166,11.166,0,0,0-2.3-.709,13.59,13.59,0,0,1,2.084,1.464.1.1,0,0,1,.019.131.1.1,0,0,1-.128.037,11.552,11.552,0,0,0-2.462-.84c.116.08.229.164.34.246.15.112.305.227.463.328.081.052.164.1.248.15a3.432,3.432,0,0,1,.6.412,3.442,3.442,0,0,1,.595.808.1.1,0,0,1-.017.124.1.1,0,0,1-.125.012,14.335,14.335,0,0,0-2.431-1.26,26.9,26.9,0,0,1,2.2,1.975.1.1,0,0,1,.008.132.1.1,0,0,1-.129.026,8.714,8.714,0,0,0-2.067-.837,8.284,8.284,0,0,1,1.806,1.362.1.1,0,0,1,0,.143A.1.1,0,0,1,971.289-41.894Z" transform="translate(-964.511 59.355)" fill="#f6ded3"/>
          <path id="Trazado_16745" data-name="Trazado 16745" d="M972.2-44.8a.6.6,0,0,1-.476-.332,2.067,2.067,0,0,1,.138-1.92c.1-.2.222-.394.337-.582a4.818,4.818,0,0,0,.546-1.087.563.563,0,0,0,.012-.334l-.5,1.055a7.283,7.283,0,0,1-.966,1.645,2.507,2.507,0,0,1-1.665.945.1.1,0,0,1-.109-.092.1.1,0,0,1,.092-.109,2.318,2.318,0,0,0,1.528-.875,7.176,7.176,0,0,0,.938-1.6l.516-1.088-.012-.006a.216.216,0,0,1-.068-.068,10.155,10.155,0,0,1-2.6,1.191,1.767,1.767,0,0,1-.656.1.746.746,0,0,1-.6-.359.74.74,0,0,1,.161-.837,1.69,1.69,0,0,1,.726-.4,12.621,12.621,0,0,1,2.312-.429,1.146,1.146,0,0,1,.712.072.52.52,0,0,1,.216.247.5.5,0,0,1,.311.14,1.567,1.567,0,0,1,.31,1.388,16.6,16.6,0,0,1-.392,2.094A2.6,2.6,0,0,1,972.561-45a.544.544,0,0,1-.253.19A.354.354,0,0,1,972.2-44.8Zm.589-4.511c.219.121.218.423.15.649a5.025,5.025,0,0,1-.568,1.133c-.113.185-.23.377-.329.569a1.921,1.921,0,0,0-.143,1.727c.077.135.22.262.35.223a.354.354,0,0,0,.156-.125,2.437,2.437,0,0,0,.407-.954,16.5,16.5,0,0,0,.388-2.068,1.406,1.406,0,0,0-.245-1.215.378.378,0,0,0-.135-.08A.383.383,0,0,1,972.789-49.306Zm-.634-.49a2.264,2.264,0,0,0-.277.022,12.385,12.385,0,0,0-2.276.421,1.49,1.49,0,0,0-.641.343.549.549,0,0,0-.129.6.554.554,0,0,0,.442.253,1.611,1.611,0,0,0,.582-.092,9.907,9.907,0,0,0,2.644-1.23.294.294,0,0,1,.087-.119.322.322,0,0,0-.121-.133A.621.621,0,0,0,972.155-49.8Z" transform="translate(-964.499 59.368)" fill="#f6ded3"/>
        </g>
        <g id="Grupo_12484" data-name="Grupo 12484" transform="translate(23.682 116.271)">
          <path id="Trazado_16746" data-name="Trazado 16746" d="M977.185-48.984s.749,8.3.789,9.338-1.354,5.259-1.053,6.289-.239.53,2.412,1.727,7.722,4.38,11.11,4.507,4.1-1.724,4.1-1.724.188-1.829-.622-2.578-4.231-1.655-5.311-2.654-5.4-4.993-5.715-6.283.062-11.063.062-11.063Z" transform="translate(-976.879 51.425)" fill="#ffa08b"/>
          <path id="Trazado_16747" data-name="Trazado 16747" d="M994.54-27.257s.188-1.829-.622-2.578-4.231-1.655-5.311-2.654a45.03,45.03,0,0,1-5.428-5.69c-2.788,1.016-4.386.985-5.264.738-.26,1.555-1.251,4.789-.993,5.674.3,1.029-.239.53,2.412,1.727s7.722,4.38,11.11,4.507S994.54-27.257,994.54-27.257Z" transform="translate(-976.879 49.834)" fill="#e45f4d"/>
          <path id="Trazado_16748" data-name="Trazado 16748" d="M991.316-30.318a4.376,4.376,0,0,0-3.854,2.549s-6.862-1.727-10.561-4a2.273,2.273,0,0,0,.02.774c.3,1.029-.239.53,2.412,1.727s7.722,4.38,11.11,4.507,4.1-1.724,4.1-1.724.188-1.829-.622-2.578A11.408,11.408,0,0,0,991.316-30.318Z" transform="translate(-976.879 49.065)" fill="#f6ded3"/>
          <path id="Trazado_16749" data-name="Trazado 16749" d="M990.907-26.88a8.92,8.92,0,0,1-3.614-.876c-.071-.018-7.893-2.134-10.283-3.847a.051.051,0,0,1-.012-.07.05.05,0,0,1,.07-.011c2.377,1.7,10.18,3.813,10.259,3.834,4.919,2.188,6.835-.438,6.854-.465a.052.052,0,0,1,.07-.012.051.051,0,0,1,.012.07A4.131,4.131,0,0,1,990.907-26.88Z" transform="translate(-976.892 49.055)" fill="#282233"/>
          <path id="Trazado_16750" data-name="Trazado 16750" d="M986.138-31.238a.1.1,0,0,1-.071-.029.1.1,0,0,1-.009-.134,8.969,8.969,0,0,1,1.737-1.7c-.918.3-1.821.674-2.7,1.036a.1.1,0,0,1-.124-.039.1.1,0,0,1,.017-.128,14.652,14.652,0,0,1,2.384-1.758,2.221,2.221,0,0,0-.505.1,3.165,3.165,0,0,0-.605.312c-.085.051-.171.1-.258.151-.17.1-.348.179-.522.26a4.425,4.425,0,0,0-.855.478.1.1,0,0,1-.133-.009.1.1,0,0,1-.009-.133,11.775,11.775,0,0,1,1.733-1.807,13.393,13.393,0,0,0-2.055,1.164.1.1,0,0,1-.129-.012.1.1,0,0,1-.01-.13,11.445,11.445,0,0,1,1.749-1.9,6.193,6.193,0,0,0-.868.428c-.584.33-1.168.682-1.733,1.044a.1.1,0,0,1-.128-.017.1.1,0,0,1-.005-.129,11.415,11.415,0,0,1,1.863-2.036,4.1,4.1,0,0,0-.679.287c-.238.128-.469.282-.692.43a6.307,6.307,0,0,1-.964.564.1.1,0,0,1-.114-.024.1.1,0,0,1-.016-.115,6.19,6.19,0,0,1,1.532-1.887,15.176,15.176,0,0,0-2.134.963.1.1,0,0,1-.116-.013.1.1,0,0,1-.025-.114,4.541,4.541,0,0,1,2.084-1.9.1.1,0,0,1,.137.037.1.1,0,0,1-.037.138,4.869,4.869,0,0,0-1.855,1.52,15.257,15.257,0,0,1,2.487-1.029.1.1,0,0,1,.121.054.1.1,0,0,1-.035.127,5.977,5.977,0,0,0-1.822,1.915c.222-.122.436-.265.644-.4a8.341,8.341,0,0,1,.709-.441,4.249,4.249,0,0,1,1.25-.435.1.1,0,0,1,.112.062.1.1,0,0,1-.041.121,7.869,7.869,0,0,0-1.9,1.846c.414-.256.834-.505,1.255-.743a4.5,4.5,0,0,1,1.379-.576.1.1,0,0,1,.11.058.1.1,0,0,1-.03.121,11.2,11.2,0,0,0-1.713,1.691,13.5,13.5,0,0,1,2.276-1.143.1.1,0,0,1,.125.045.1.1,0,0,1-.029.13,11.609,11.609,0,0,0-1.905,1.771c.126-.064.253-.123.378-.182.17-.079.345-.161.509-.253.084-.048.167-.1.251-.148a3.423,3.423,0,0,1,.644-.331,3.4,3.4,0,0,1,.993-.141.1.1,0,0,1,.1.073.1.1,0,0,1-.048.115,14.378,14.378,0,0,0-2.26,1.546,27.044,27.044,0,0,1,2.781-1,.1.1,0,0,1,.12.056.1.1,0,0,1-.038.126,8.7,8.7,0,0,0-1.716,1.425,8.346,8.346,0,0,1,2.055-.947.1.1,0,0,1,.127.068.1.1,0,0,1-.068.126,8.1,8.1,0,0,0-2.648,1.379A.1.1,0,0,1,986.138-31.238Z" transform="translate(-977.456 49.818)" fill="#f6ded3"/>
          <path id="Trazado_16751" data-name="Trazado 16751" d="M984.9-32.811a.1.1,0,0,1-.04-.009.1.1,0,0,1-.052-.132,2.314,2.314,0,0,0-.048-1.761,7.189,7.189,0,0,0-.966-1.584l-.715-.971-.011.009a.216.216,0,0,1-.092.027,10.081,10.081,0,0,1-.18,2.853,1.793,1.793,0,0,1-.223.626.749.749,0,0,1-.6.361h0a.74.74,0,0,1-.661-.539,1.685,1.685,0,0,1-.006-.826A12.507,12.507,0,0,1,982.021-37a1.151,1.151,0,0,1,.4-.593.518.518,0,0,1,.32-.072.5.5,0,0,1,.27-.209,1.57,1.57,0,0,1,1.37.385,16.694,16.694,0,0,1,1.659,1.337,2.6,2.6,0,0,1,.7.882.557.557,0,0,1,.047.314.545.545,0,0,1-.553.364,2.064,2.064,0,0,1-1.627-1.03c-.127-.186-.242-.382-.354-.573a4.781,4.781,0,0,0-.7-.994.567.567,0,0,0-.289-.169l.692.941a7.266,7.266,0,0,1,.992,1.629,2.511,2.511,0,0,1,.045,1.915A.1.1,0,0,1,984.9-32.811Zm-2.209-4.652a.318.318,0,0,0-.164.043.957.957,0,0,0-.319.5,12.457,12.457,0,0,0-.706,2.205,1.491,1.491,0,0,0,0,.726.549.549,0,0,0,.47.4h0a.552.552,0,0,0,.431-.268,1.635,1.635,0,0,0,.195-.556,9.928,9.928,0,0,0,.167-2.912.288.288,0,0,1-.063-.132Zm.546-.1a.7.7,0,0,1,.458.23,5.029,5.029,0,0,1,.729,1.036c.11.187.223.38.346.56a1.928,1.928,0,0,0,1.455.943c.155-.005.334-.071.362-.2a.342.342,0,0,0-.036-.2A2.43,2.43,0,0,0,985.9-36a16.424,16.424,0,0,0-1.638-1.321,1.4,1.4,0,0,0-1.186-.359.364.364,0,0,0-.135.081.377.377,0,0,1,.108.1A.337.337,0,0,1,983.238-37.56Z" transform="translate(-977.404 49.804)" fill="#f6ded3"/>
        </g>
        <path id="Trazado_16752" data-name="Trazado 16752" d="M1000.882-86.459c-.666-2.884-4.66-18.639-4.438-19.083a14.548,14.548,0,0,0,0-3.106c0-.444-1.554-.666-1.554-1.331v-2.441c0-.444-.665-.444-.665-.444v-1.11c0-.443-.666-.665-.666-.665s-.443-6.657-.665-8.654a10.786,10.786,0,0,0-.888-3.329l-14.2-3.107c-4.216,5.1-7.544,9.32-7.766,15.533s2.441,22.634,2.441,25.519.665,14.2.665,14.2V-67.6c-1.11,1.11-1.11.666-1.11,2s3.55,5.77,3.55,5.77l.222,1.775a9.091,9.091,0,0,0-.665,3.107v1.775s1.11.888,5.325,1.11,3.329-.887,3.107-1.775.666-3.107.888-3.55-1.109-1.331-1.109-1.331v-5.548s10.873-7.323,11.761-8.654,5.77-5.326,6.435-7.323S1001.547-83.574,1000.882-86.459Zm-10.874,3.773c-.887.222-7.1,6.213-7.1,6.213v-4.216a14.955,14.955,0,0,0,.444-4.66c-.222-2.218.665-13.092.665-13.092,0,.888,5.991,13.98,5.991,13.98C988.9-83.352,990.9-82.908,990.008-82.686Z" transform="translate(-952.374 177.1)" fill="#282233"/>
        <path id="Trazado_16753" data-name="Trazado 16753" d="M988.3-164.112s0,4.438.888,4.66,3.55,1.331,3.55,1.331l-5.326,1.775-6.656-2.333s2.44-.33,2.44-1.883v-5.1Z" transform="translate(-953.663 181.416)" fill="#ffa08b"/>
        <path id="Trazado_16754" data-name="Trazado 16754" d="M988.731-162.023c-.1-1.08-.1-2.089-.1-2.089l-5.1-1.553v.546A4.563,4.563,0,0,0,988.731-162.023Z" transform="translate(-953.996 181.416)" fill="#c77968"/>
        <path id="Trazado_16755" data-name="Trazado 16755" d="M977.584-50.286c-.953,0-1.642-1.184-1.674-1.242a.1.1,0,0,1,.037-.138.1.1,0,0,1,.138.038c.008.015.856,1.471,1.872,1.066.525-.21.625-.359.729-.517a1.425,1.425,0,0,1,.824-.592c.106-.043.213-.085.321-.128.942-.37,2.01-.789,1.839-1.3-.085-.257-.282-.361-.581-.517a3.407,3.407,0,0,1-1.4-1.234c-.194-.292-.459-.663-.766-1.093-1.089-1.525-2.58-3.613-2.58-4.511,0-.27-.116-.319-.155-.334-.44-.181-1.678.636-2.558,1.515a.1.1,0,0,1-.143,0,.1.1,0,0,1,0-.143c.741-.741,2.15-1.82,2.778-1.559a.5.5,0,0,1,.279.521c0,.833,1.53,2.977,2.542,4.394.308.431.574.8.77,1.1a3.185,3.185,0,0,0,1.33,1.168c.305.16.568.3.679.632.23.693-.882,1.13-1.957,1.552l-.32.127c-.526.21-.626.36-.73.517a1.425,1.425,0,0,1-.823.592A1.2,1.2,0,0,1,977.584-50.286Z" transform="translate(-952.786 168.848)" fill="#a2acc2"/>
        <path id="Trazado_16756" data-name="Trazado 16756" d="M976.792-61.586a.1.1,0,0,1-.076-.033.1.1,0,0,1,.008-.143,4.645,4.645,0,0,0,.9-1.287c.446-.893,5.784-6.023,6.011-6.241a.1.1,0,0,1,.143,0,.1.1,0,0,1,0,.143c-.055.054-5.54,5.324-5.971,6.186a4.76,4.76,0,0,1-.949,1.348A.1.1,0,0,1,976.792-61.586Z" transform="translate(-953.174 169.845)" fill="#a2acc2"/>
        <path id="Trazado_16757" data-name="Trazado 16757" d="M982.13-52.956a.1.1,0,0,1-.077-.035.1.1,0,0,1,.011-.142l2.663-2.291a.1.1,0,0,1,.143.011.1.1,0,0,1-.011.143l-2.663,2.29A.1.1,0,0,1,982.13-52.956Z" transform="translate(-953.815 168.179)" fill="#a2acc2"/>
        <path id="Trazado_16758" data-name="Trazado 16758" d="M996.749-72.861a.1.1,0,0,1-.077-.036,33.562,33.562,0,0,0-3.745-3.4.1.1,0,0,1-.017-.142.1.1,0,0,1,.142-.017,33.757,33.757,0,0,1,3.775,3.427.1.1,0,0,1-.013.142A.1.1,0,0,1,996.749-72.861Z" transform="translate(-955.119 170.704)" fill="#a2acc2"/>
        <path id="Trazado_16759" data-name="Trazado 16759" d="M999.6-76.421a.1.1,0,0,1-.05-.013,15.729,15.729,0,0,0-6.829-1.762.1.1,0,0,1-.1-.1.1.1,0,0,1,.1-.1,15.951,15.951,0,0,1,6.929,1.789.1.1,0,0,1,.038.138A.1.1,0,0,1,999.6-76.421Z" transform="translate(-955.087 170.935)" fill="#a2acc2"/>
        <path id="Trazado_16760" data-name="Trazado 16760" d="M999.057-75.029a.1.1,0,0,1-.087-.048c-.639-1.066-5.225-2.6-5.271-2.619a.1.1,0,0,1-.064-.128.1.1,0,0,1,.128-.063c.192.063,4.7,1.578,5.381,2.707a.1.1,0,0,1-.034.138A.1.1,0,0,1,999.057-75.029Z" transform="translate(-955.208 170.875)" fill="#a2acc2"/>
        <path id="Trazado_16761" data-name="Trazado 16761" d="M982.13-69.915a.1.1,0,0,1-.048-.012.1.1,0,0,1-.04-.137l2.219-3.994a.1.1,0,0,1,.137-.04.1.1,0,0,1,.04.137l-2.219,3.994A.1.1,0,0,1,982.13-69.915Z" transform="translate(-953.815 170.42)" fill="#a2acc2"/>
        <path id="Trazado_16762" data-name="Trazado 16762" d="M973.3-78.176l-.024,0a.1.1,0,0,1-.074-.122c.015-.064,1.557-6.462,2-9.091a.1.1,0,0,1,.115-.083.1.1,0,0,1,.084.116c-.44,2.636-1.983,9.041-2,9.105A.1.1,0,0,1,973.3-78.176Z" transform="translate(-952.755 172.025)" fill="#a2acc2"/>
        <path id="Trazado_16763" data-name="Trazado 16763" d="M979.628-46.925a4.786,4.786,0,0,1-2.864-1.383.1.1,0,0,1,0-.143.1.1,0,0,1,.143,0c.015.015,1.535,1.513,3.021,1.3a9.739,9.739,0,0,0,2.989-1.406c.866-.528,1.171-.7,1.313-.562a.1.1,0,0,1,0,.143.1.1,0,0,1-.128.011h0a5.322,5.322,0,0,0-1.079.581,9.867,9.867,0,0,1-3.065,1.433A2.431,2.431,0,0,1,979.628-46.925Zm4.458-2.048Z" transform="translate(-953.179 167.424)" fill="#a2acc2"/>
        <path id="Trazado_16764" data-name="Trazado 16764" d="M985.4-95.6h-.008a.1.1,0,0,1-.093-.108c.257-3.426.59-8.631.464-9.029a18.746,18.746,0,0,0-4.17-1.964.1.1,0,0,1-.06-.129.1.1,0,0,1,.128-.061,17.964,17.964,0,0,1,4.253,2.021c.222.221-.165,5.844-.414,9.177A.1.1,0,0,1,985.4-95.6Z" transform="translate(-953.755 174.358)" fill="#a2acc2"/>
        <path id="Trazado_16765" data-name="Trazado 16765" d="M986.159-107.136h-.011a.1.1,0,0,1-.089-.111c.016-.139,1.561-13.861,1.781-18.465a.1.1,0,0,1,.1-.1.1.1,0,0,1,.1.106c-.219,4.61-1.766,18.339-1.781,18.477A.1.1,0,0,1,986.159-107.136Z" transform="translate(-954.299 176.629)" fill="#a2acc2"/>
        <path id="Trazado_16766" data-name="Trazado 16766" d="M986.469-109.574a.1.1,0,0,1-.062-.021.1.1,0,0,1-.017-.142l1.046-1.334,1.329-14.393a.1.1,0,0,1,.109-.092.1.1,0,0,1,.091.11l-1.331,14.423a.1.1,0,0,1-.021.053l-1.065,1.357A.1.1,0,0,1,986.469-109.574Z" transform="translate(-954.336 176.599)" fill="#a2acc2"/>
        <path id="Trazado_16767" data-name="Trazado 16767" d="M991.209-109.165a.1.1,0,0,1-.079-.039.1.1,0,0,1,.018-.142c1.979-1.539,4.861-3.317,4.891-3.335a.1.1,0,0,1,.139.033.1.1,0,0,1-.033.138c-.028.018-2.9,1.791-4.872,3.323A.1.1,0,0,1,991.209-109.165Z" transform="translate(-954.906 175.054)" fill="#a2acc2"/>
        <path id="Trazado_16768" data-name="Trazado 16768" d="M994.236-107.813a.1.1,0,0,1-.061-.02.1.1,0,0,1-.02-.141,24.207,24.207,0,0,1,2.9-2.681.1.1,0,0,1,.143.016.1.1,0,0,1-.016.142,24.592,24.592,0,0,0-2.868,2.644A.1.1,0,0,1,994.236-107.813Z" transform="translate(-955.269 174.812)" fill="#a2acc2"/>
        <path id="Trazado_16769" data-name="Trazado 16769" d="M987.174-104.857a.1.1,0,0,1-.092-.061.1.1,0,0,1,.053-.133c.016-.006,1.566-.672,2.879-1.329a.1.1,0,0,1,.135.045.1.1,0,0,1-.045.136c-1.319.659-2.875,1.328-2.89,1.334A.11.11,0,0,1,987.174-104.857Z" transform="translate(-954.421 174.297)" fill="#a2acc2"/>
        <path id="Trazado_16770" data-name="Trazado 16770" d="M991.966-118.254a.115.115,0,0,1-.038-.007.1.1,0,0,1-.056-.131c.433-1.081.656-7.008.659-7.067a.1.1,0,0,1,.085-.1.1.1,0,0,1,.11.065,35.076,35.076,0,0,1,1.337,7.135.1.1,0,0,1-.1.1.1.1,0,0,1-.1-.1,38.617,38.617,0,0,0-1.153-6.548c-.067,1.515-.28,5.661-.65,6.586A.1.1,0,0,1,991.966-118.254Z" transform="translate(-954.997 176.599)" fill="#a2acc2"/>
        <path id="Trazado_16771" data-name="Trazado 16771" d="M979.4-119.576a.1.1,0,0,1-.035-.006.1.1,0,0,1-.06-.129c.02-.056,2.03-5.587,2.786-7.238a35.667,35.667,0,0,0-4.149,5.973.1.1,0,0,1-.128.064.1.1,0,0,1-.063-.128c.347-1.041,4.044-6.208,4.5-6.283a.118.118,0,0,1,.117.046c.048.062.033.149-.062.354-.73,1.565-2.786,7.224-2.807,7.281A.1.1,0,0,1,979.4-119.576Z" transform="translate(-953.3 176.811)" fill="#a2acc2"/>
        <path id="Trazado_16772" data-name="Trazado 16772" d="M995.385-83.644a.1.1,0,0,1-.045-.011c-2.222-1.111-8.009-11.792-8.254-12.247a.1.1,0,0,1,.041-.136.1.1,0,0,1,.136.041c.06.111,6,11.079,8.167,12.162a.1.1,0,0,1,.045.135A.1.1,0,0,1,995.385-83.644Z" transform="translate(-954.421 173.055)" fill="#a2acc2"/>
        <path id="Trazado_16773" data-name="Trazado 16773" d="M976.665-132.551s7.544,5.1,14.423,3.55l2.219-1.554a53.336,53.336,0,0,1,0-5.991c.222-.887,2-6.435,2-6.435a19.464,19.464,0,0,0-.444-3.772l2.663-.666s-.223-6.879-1.332-7.989-6.878-2.441-6.878-2.441-3.995,2.885-10.208,0c0,0-5.214.777-5.88,1.665a54.225,54.225,0,0,0-3.329,7.766c-.665,2-1.109,2-2,4.66s-1.331,4.66-2.885,7.1-2,1.11-2,3.329-1.554,6.435-1.554,6.435,3.55,1.11,4.438,2.663c0,0,3.107-1.554,3.772-3.329a8.353,8.353,0,0,0,.444-3.55,3.785,3.785,0,0,0,1.331-2.441c0-1.331,3.994-9.1,3.994-9.1a26.313,26.313,0,0,1,1.11,5.1c0,1.553-.888,3.328-.666,3.994A2,2,0,0,0,976.665-132.551Z" transform="translate(-951.346 180.477)" fill="#a2acc2"/>
        <path id="Trazado_16774" data-name="Trazado 16774" d="M991.7-150.565a6.35,6.35,0,0,0-5.646-3.444,6.355,6.355,0,0,0-5.95,4.123,6.354,6.354,0,0,0-5.949-4.123,6.407,6.407,0,0,0-.952.071c-.852,1.865-1.941,4.607-2.4,5.982-.609,1.829-1.033,1.984-1.782,4.041a6.342,6.342,0,0,0,5.133,2.612,6.356,6.356,0,0,0,1.894-.289c.187-.371.3-.594.3-.594s.052.165.133.44a6.373,6.373,0,0,0,3.62-3.68,6.355,6.355,0,0,0,5.95,4.123,6.35,6.35,0,0,0,5.646-3.444,6.362,6.362,0,0,0,4.179,3.27c.2-.624.333-1.042.333-1.042a19.464,19.464,0,0,0-.444-3.772l2.663-.666a36.932,36.932,0,0,0-.86-7.045c-.074,0-.149-.006-.224-.006A6.352,6.352,0,0,0,991.7-150.565Z" transform="translate(-952.253 180.016)" fill="#e5b7a3"/>
        <path id="Trazado_16775" data-name="Trazado 16775" d="M988.894-133.47a.051.051,0,0,1-.034-.013.05.05,0,0,1,0-.071c1.832-1.942,3.608-3.981,5.278-6.06a.051.051,0,0,1,.071-.008.05.05,0,0,1,.008.07c-1.673,2.082-3.451,4.122-5.284,6.066A.052.052,0,0,1,988.894-133.47Z" transform="translate(-954.634 178.289)" fill="#282233"/>
        <path id="Trazado_16776" data-name="Trazado 16776" d="M988.309-138.058a.05.05,0,0,1-.038-.018.05.05,0,0,1,.005-.071c1.944-1.668,4.146-3.559,5.257-6.076a.051.051,0,0,1,.066-.026.051.051,0,0,1,.026.067c-1.118,2.538-3.33,4.436-5.282,6.112A.05.05,0,0,1,988.309-138.058Z" transform="translate(-954.563 178.844)" fill="#282233"/>
        <path id="Trazado_16777" data-name="Trazado 16777" d="M997.2-129.139a.051.051,0,0,1-.044-.025.052.052,0,0,1,.019-.07,2.84,2.84,0,0,0,.5-.381,43.652,43.652,0,0,0-.237-5.73.046.046,0,0,1,0-.019c.019-.055,1.777-5.556,2-6.432a19.774,19.774,0,0,0-.33-4.153l-.475-2.8a.049.049,0,0,1,.041-.058.049.049,0,0,1,.058.041l.476,2.8a19.285,19.285,0,0,1,.328,4.195c-.216.861-1.912,6.169-1.995,6.429.077.953.433,5.573.207,5.8a2.976,2.976,0,0,1-.519.4A.052.052,0,0,1,997.2-129.139Z" transform="translate(-955.631 179.391)" fill="#282233"/>
        <path id="Trazado_16778" data-name="Trazado 16778" d="M971.179-129.474h-.009a.051.051,0,0,1-.041-.058,71.147,71.147,0,0,0,.957-14.049.05.05,0,0,1,.048-.052.05.05,0,0,1,.052.048,71.282,71.282,0,0,1-.958,14.069A.05.05,0,0,1,971.179-129.474Z" transform="translate(-952.506 178.77)" fill="#282233"/>
        <path id="Trazado_16779" data-name="Trazado 16779" d="M970.28-125.953a.668.668,0,0,1-.307-.072,1.578,1.578,0,0,1-.6-.694,39.294,39.294,0,0,1-2.46-5.341.05.05,0,0,1,.03-.064.051.051,0,0,1,.065.03,39.241,39.241,0,0,0,2.453,5.326,1.5,1.5,0,0,0,.554.654.591.591,0,0,0,.473.021.36.36,0,0,0,.216-.216.052.052,0,0,1,.064-.033.051.051,0,0,1,.032.064.46.46,0,0,1-.274.277A.671.671,0,0,1,970.28-125.953Z" transform="translate(-952 177.388)" fill="#282233"/>
        <path id="Trazado_16780" data-name="Trazado 16780" d="M977.306-140.722a.049.049,0,0,1-.047-.033c-.323-.92-.629-1.859-.909-2.791a.051.051,0,0,1,.034-.062.049.049,0,0,1,.063.033c.28.93.584,1.868.907,2.787a.05.05,0,0,1-.031.064Z" transform="translate(-953.133 178.767)" fill="#282233"/>
        <path id="Trazado_16781" data-name="Trazado 16781" d="M1003.281-131.209a.051.051,0,0,1-.023-.005c-.032-.016-3.134-1.587-4.018-3.8a.051.051,0,0,1,.028-.066.05.05,0,0,1,.065.028c.871,2.176,3.939,3.731,3.97,3.746a.05.05,0,0,1,.023.068A.05.05,0,0,1,1003.281-131.209Z" transform="translate(-955.882 177.743)" fill="#282233"/>
        <path id="Trazado_16782" data-name="Trazado 16782" d="M1004.552-128.639a.047.047,0,0,1-.022,0c-.037-.018-3.784-1.763-5.742-1.549a.049.049,0,0,1-.055-.045.05.05,0,0,1,.045-.055c1.988-.225,5.758,1.54,5.8,1.557a.052.052,0,0,1,.025.068A.052.052,0,0,1,1004.552-128.639Z" transform="translate(-955.821 177.17)" fill="#282233"/>
        <g id="Grupo_12485" data-name="Grupo 12485" transform="translate(36.323 32.379)">
          <path id="Rectángulo_2893" data-name="Rectángulo 2893" d="M.492,0H25.826a.492.492,0,0,1,.492.492V19.071a0,0,0,0,1,0,0H0a0,0,0,0,1,0,0V.492A.492.492,0,0,1,.492,0Z" transform="translate(8.773)" fill="#8c8888"/>
          <path id="Rectángulo_2894" data-name="Rectángulo 2894" d="M.126,0H34.965a.127.127,0,0,1,.127.127V1.209a.127.127,0,0,1-.127.127H.464A.464.464,0,0,1,0,.871V.126A.126.126,0,0,1,.126,0Z" transform="translate(0 18.309)" fill="#8c8888"/>
          <path id="Trazado_16783" data-name="Trazado 16783" d="M1015.947-135.657a.74.74,0,0,1-.3-.673,2.188,2.188,0,0,1,.223-.734l.6-1.381c.205-.468.48-1,.98-1.1a1.492,1.492,0,0,1,1.017.275,2.619,2.619,0,0,1,1.05.963,1.126,1.126,0,0,1-.144,1.332,1.947,1.947,0,0,1-.68.333C1018.024-136.4,1016.69-135.188,1015.947-135.657Z" transform="translate(-994.176 145.902)" fill="#e5dbce"/>
        </g>
        <path id="Trazado_16784" data-name="Trazado 16784" d="M1020.582-124.929s1.113-3.025,1.558-2.824,0,1.412,0,1.412a14.448,14.448,0,0,0,1.064-1.815c0-.2.494-1.614.716-1.614s.445.2.445.807c0,0,.223-1.21.668-1.21s.444,1.008.444,1.008v2.218c0,.4.668-1.815.668-1.815s.223-1.21.445-1.21.445.605.445,1.815a15.327,15.327,0,0,1-.223,2.42l-.668,1.614Z" transform="translate(-958.445 177.153)" fill="#ffa08b"/>
        <g id="Grupo_12487" data-name="Grupo 12487" transform="translate(25.681 0.502)">
          <path id="Trazado_16785" data-name="Trazado 16785" d="M993.612-176.275a11.644,11.644,0,0,1-.163,1.773q-.366,2.525-.808,5.039a6.978,6.978,0,0,1-1.5,2.589,8.175,8.175,0,0,1-1.409,1.233,5.117,5.117,0,0,1-.985.791,2.207,2.207,0,0,1-1.858-.121c-.582-.272-1.092-.676-1.66-.973-.419-.22-.868-.38-1.279-.612a4.268,4.268,0,0,1-1.75-1.869,8.38,8.38,0,0,1-.394-1.064c-.749-2.354-1.616-4.839-1.472-7.345.189-3.3,2.93-5.18,6.033-5.359a8.429,8.429,0,0,1,4.494.927A5.834,5.834,0,0,1,993.612-176.275Z" transform="translate(-979.29 182.901)" fill="#ffa08b"/>
          <path id="Trazado_16786" data-name="Trazado 16786" d="M990.046-168.391a.1.1,0,0,1-.092-.077.1.1,0,0,1,.075-.117c.306-.069.617-.292.59-.572a.805.805,0,0,0-.081-.243l-.011-.027a4.333,4.333,0,0,1-.171-2.981.1.1,0,0,1,.122-.065.1.1,0,0,1,.065.123,4.133,4.133,0,0,0,.163,2.844l.011.026a.967.967,0,0,1,.1.3c.04.4-.343.693-.742.781Z" transform="translate(-980.447 181.732)" fill="#c77968"/>
          <path id="Trazado_16787" data-name="Trazado 16787" d="M988.893-167.909h-.006a.375.375,0,0,1-.266-.135.38.38,0,0,1-.091-.283.38.38,0,0,1,.152-.256.378.378,0,0,1,.289-.073.1.1,0,0,1,.08.114.1.1,0,0,1-.114.079.183.183,0,0,0-.136.037.181.181,0,0,0-.075.121.18.18,0,0,0,.046.135.185.185,0,0,0,.126.067.484.484,0,0,0,.135-.022l.407-.1a.1.1,0,0,1,.119.07.1.1,0,0,1-.07.12l-.406.1A.681.681,0,0,1,988.893-167.909Z" transform="translate(-980.276 181.274)" fill="#c77968"/>
          <path id="Trazado_16788" data-name="Trazado 16788" d="M986.889-171.373a.686.686,0,0,0-.663-.708.686.686,0,0,0-.707.663.685.685,0,0,0,.663.708A.686.686,0,0,0,986.889-171.373Z" transform="translate(-979.915 181.684)" fill="#333"/>
          <path id="Trazado_16789" data-name="Trazado 16789" d="M993.457-171.158a.686.686,0,0,0-.663-.708.686.686,0,0,0-.707.663.686.686,0,0,0,.663.708A.686.686,0,0,0,993.457-171.158Z" transform="translate(-980.704 181.659)" fill="#333"/>
          <path id="Trazado_16790" data-name="Trazado 16790" d="M987.149-172.916a.146.146,0,0,1-.077-.025,2.429,2.429,0,0,0-2.393-.078.147.147,0,0,1-.2-.055.148.148,0,0,1,.055-.2,2.689,2.689,0,0,1,2.7.089.147.147,0,0,1,.042.2A.146.146,0,0,1,987.149-172.916Z" transform="translate(-979.787 181.867)" fill="#4e3933"/>
          <path id="Trazado_16791" data-name="Trazado 16791" d="M994.046-172.467a.14.14,0,0,1-.076-.025,2.428,2.428,0,0,0-2.394-.078.147.147,0,0,1-.2-.055.147.147,0,0,1,.055-.2,2.689,2.689,0,0,1,2.7.089.146.146,0,0,1,.041.2A.147.147,0,0,1,994.046-172.467Z" transform="translate(-980.616 181.813)" fill="#4e3933"/>
          <path id="Trazado_16792" data-name="Trazado 16792" d="M986.433-166.321a.047.047,0,0,1-.044-.032.289.289,0,0,1,.121-.341.049.049,0,0,1,.067.018.049.049,0,0,1-.017.067.19.19,0,0,0-.079.222.05.05,0,0,1-.03.063A.043.043,0,0,1,986.433-166.321Z" transform="translate(-980.017 181.038)" fill="#c77968"/>
          <path id="Trazado_16793" data-name="Trazado 16793" d="M987.082-171.33a2.367,2.367,0,0,0-.6-.429,2.09,2.09,0,0,0-.328-.124,1.882,1.882,0,0,0-.34-.055,1.745,1.745,0,0,0-.684.122c-.06.019-.121.042-.193.058a.424.424,0,0,1-.125.011.278.278,0,0,1-.119-.041.635.635,0,0,1-.25-.32.812.812,0,0,0,.308.188.147.147,0,0,0,.126-.02l.159-.087a1.732,1.732,0,0,1,.374-.157,1.356,1.356,0,0,1,.418-.048,1.566,1.566,0,0,1,.409.084,1.515,1.515,0,0,1,.363.193A1.323,1.323,0,0,1,987.082-171.33Z" transform="translate(-979.786 181.703)" fill="#333"/>
          <path id="Trazado_16794" data-name="Trazado 16794" d="M991.606-171.176a1.339,1.339,0,0,1,.52-.6,1.5,1.5,0,0,1,.375-.17,1.591,1.591,0,0,1,.414-.058,1.351,1.351,0,0,1,.414.073,1.7,1.7,0,0,1,.363.179c.055.034.107.069.154.1s.064.039.124.027a.787.787,0,0,0,.318-.169.629.629,0,0,1-.268.3.275.275,0,0,1-.122.034.4.4,0,0,1-.123-.018,1.986,1.986,0,0,1-.188-.07,1.757,1.757,0,0,0-.676-.164,1.813,1.813,0,0,0-.342.034,1.936,1.936,0,0,0-.335.1A2.382,2.382,0,0,0,991.606-171.176Z" transform="translate(-980.646 181.675)" fill="#333"/>
          <path id="Trazado_16795" data-name="Trazado 16795" d="M988.084-165.156a2.273,2.273,0,0,0,1.1.333,1.979,1.979,0,0,0,1.189-.343,2.364,2.364,0,0,0,.61-1.068.38.38,0,0,0,.041-.182.319.319,0,0,0-.078-.157,1.122,1.122,0,0,0-1.07-.388,1.383,1.383,0,0,1-.393.065,1.533,1.533,0,0,1-.312-.093,1.517,1.517,0,0,0-.929.077,5.523,5.523,0,0,1-.9.291c-.516.084-.255.5-.046.768A2.935,2.935,0,0,0,988.084-165.156Z" transform="translate(-980.097 181.078)" fill="#ef7575"/>
          <path id="Trazado_16796" data-name="Trazado 16796" d="M990.881-166.1a2.572,2.572,0,0,1-1.816.755,4,4,0,0,1-1.738-.8c-.135-.1-.179-.289.026-.3C987.531-166.46,991.44-166.612,990.881-166.1Z" transform="translate(-980.118 181.011)" fill="#fff"/>
          <path id="Trazado_16797" data-name="Trazado 16797" d="M989.183-179a22.606,22.606,0,0,1,4.537,5.067,7.685,7.685,0,0,0-.253-4.942,4.856,4.856,0,0,0-.538-1.279,4.242,4.242,0,0,0-.93-.956,7.464,7.464,0,0,0-6.553-1.656,9.687,9.687,0,0,0-2.679,1.4,8.446,8.446,0,0,0-1.778,1.506,5.584,5.584,0,0,0-1.206,3.665,8.281,8.281,0,0,0,1.067,3.755c.084.157.225.336.4.293.039-.01.538-1.022.633-1.141.2-.251.419-.483.642-.714a13.324,13.324,0,0,1,2.131-1.754A27.536,27.536,0,0,0,989.183-179Z" transform="translate(-979.226 182.995)" fill="#fed190"/>
          <g id="Grupo_12486" data-name="Grupo 12486" transform="translate(0 10.015)">
            <path id="Trazado_16798" data-name="Trazado 16798" d="M980.363-171.6a1.1,1.1,0,0,0-1.127.559,1.121,1.121,0,0,0,.056.971,2.232,2.232,0,0,0,.675.736,1.281,1.281,0,0,0,1.121.317,1,1,0,0,0,.6-.931A1.5,1.5,0,0,0,980.363-171.6Z" transform="translate(-979.15 171.613)" fill="#ffa08b"/>
            <path id="Trazado_16799" data-name="Trazado 16799" d="M980.988-169.484a.049.049,0,0,1-.03-.011.413.413,0,0,1-.134-.4.411.411,0,0,1,.3-.3.122.122,0,0,0,.035-.012s0,0,0-.023a.612.612,0,0,0-.14-.317,1.365,1.365,0,0,0-.51-.465.658.658,0,0,0-.641.021.261.261,0,0,0-.128.213.05.05,0,0,1-.045.053.051.051,0,0,1-.053-.046.348.348,0,0,1,.17-.3.757.757,0,0,1,.738-.03,1.456,1.456,0,0,1,.547.5.7.7,0,0,1,.159.37.134.134,0,0,1-.022.088.144.144,0,0,1-.084.045.313.313,0,0,0-.23.23.308.308,0,0,0,.1.3.05.05,0,0,1,.006.07A.05.05,0,0,1,980.988-169.484Z" transform="translate(-979.209 171.561)" fill="#c77968"/>
          </g>
        </g>
      </g>
    </g>
  </g>
</svg>
