<svg xmlns="http://www.w3.org/2000/svg" width="360" height="311.907" viewBox="0 0 360 311.907">
  <g id="Grupo_12349" data-name="Grupo 12349" transform="translate(-37.452 -62.877)">
    <path id="Trazado_16323" data-name="Trazado 16323" d="M366.666,280.037a27.21,27.21,0,0,0-27.13,27.13h0a49.646,49.646,0,0,1-49.5,49.5H102.47a64.493,64.493,0,0,1-64.3-64.3h0a64.493,64.493,0,0,1,64.3-64.3h0a12.943,12.943,0,0,0,12.905-12.9h0a12.944,12.944,0,0,0-12.905-12.905H68.823a31.463,31.463,0,0,1-31.371-31.37h0a31.463,31.463,0,0,1,31.311-31.371h30.61a27.21,27.21,0,0,0,27.129-27.13h0a49.647,49.647,0,0,1,49.5-49.5H333.018a64.493,64.493,0,0,1,64.3,64.3h0a64.493,64.493,0,0,1-64.3,64.3h0a12.943,12.943,0,0,0-12.9,12.905h0a12.943,12.943,0,0,0,12.9,12.9h33.648C407.714,217.3,407.714,280.037,366.666,280.037Z" fill="#c6e3f1" fill-rule="evenodd"/>
    <path id="Trazado_16324" data-name="Trazado 16324" d="M193.485,123.622a.9.9,0,0,0-.722-1.566.89.89,0,0,0-.478.219q-.682.61-1.347,1.237a.9.9,0,1,0,1.237,1.311q.645-.61,1.309-1.2Zm81.587,206.366a.9.9,0,0,0-.517,1.625.892.892,0,0,0,.556.177l.749-.012.941-.025.133-.005a.9.9,0,1,0-.078-1.8l-1.034.028-.749.013Zm7.12-.39a.9.9,0,0,0,.2,1.793l.821-.085.993-.115a.9.9,0,0,0-.237-1.789l-.951.111-.821.085Zm7.052-1.03a.9.9,0,0,0,.359,1.767l.534-.1.836-.175.416-.092a.9.9,0,1,0-.4-1.758l-.4.087-.816.171-.534.105Zm6.9-1.717a.9.9,0,1,0,.545,1.718l.73-.226.777-.252.232-.079a.9.9,0,0,0-.588-1.7l-.212.072-.755.245-.729.227Zm6.675-2.447a.9.9,0,1,0,.732,1.647l.609-.265.715-.323.342-.159a.9.9,0,1,0-.773-1.629l-.322.15-.694.314-.608.266Zm6.349-3.193a.9.9,0,0,0,.53,1.676.888.888,0,0,0,.382-.122l.268-.154.654-.389.644-.395a.9.9,0,0,0-.544-1.665.893.893,0,0,0-.407.134l-.625.382-.633.377-.268.156Zm5.913-3.923a.9.9,0,0,0,1.1,1.43l.393-.3.584-.455.462-.37a.9.9,0,1,0-1.134-1.4l-.445.356-.567.44-.393.3Zm5.389-4.616a.9.9,0,1,0,1.266,1.283l.364-.356.515-.513.412-.422a.9.9,0,1,0-1.3-1.253l-.4.407-.5.5-.364.355Zm4.785-5.246a.9.9,0,1,0,1.412,1.121l.262-.326.445-.566.417-.545a.9.9,0,1,0-1.438-1.087l-.4.528-.431.55-.262.326Zm4.117-5.788a.9.9,0,1,0,1.534.949l.146-.231.373-.611.432-.727a.9.9,0,0,0-1.566-.9l-.41.691-.362.593-.146.231Zm3.412-6.234a.9.9,0,1,0,1.63.771l.349-.748.3-.651.118-.268a.9.9,0,1,0-1.655-.716l-.11.251-.286.633-.341.728Zm2.68-6.575a.9.9,0,1,0,1.711.57l.213-.628.223-.682.134-.423a.9.9,0,0,0-1.723-.533l-.128.4-.217.663-.213.628Zm1.949-6.842a.9.9,0,1,0,1.762.386l.119-.525.152-.7.111-.55a.9.9,0,1,0-1.768-.351l-.108.533-.147.686-.119.526Zm1.217-7.012a.9.9,0,1,0,1.791.2l.053-.453.079-.721.063-.638a.9.9,0,1,0-1.8-.167l-.061.62-.076.7-.053.452Zm.489-7.1a.9.9,0,0,0,1.737.352.922.922,0,0,0,.066-.33l.008-.421.005-.729,0-.671a.9.9,0,1,0-1.8.014l0,.652-.005.711-.008.421Zm-.226-7.115a.9.9,0,0,0,1.8-.158l-.036-.435-.068-.732-.067-.645a.9.9,0,1,0-1.793.193l.065.628.066.714.036.436Zm-.931-7.058a.9.9,0,1,0,1.771-.337l-.092-.5-.141-.727-.116-.56a.9.9,0,1,0-1.764.371l.111.543.139.71.093.5Zm-1.623-6.932a.9.9,0,1,0,1.728-.512l-.179-.616-.217-.716-.129-.413a.9.9,0,1,0-1.718.548l.124.4.211.7.179.615Zm-2.3-6.744a.9.9,0,1,0,1.673-.669l-.318-.789-.29-.7-.089-.206a.9.9,0,0,0-1.653.721l.081.189.284.679.313.772Zm-2.958-6.472a.9.9,0,0,0,1.6-.839l-.173-.33-.358-.674-.329-.6a.9.9,0,1,0-1.578.872l.32.586.349.656.172.331Zm-3.588-6.143a.9.9,0,0,0,1.5-1l-.413-.625-.434-.643-.169-.244a.9.9,0,1,0-1.477,1.034l.158.229.423.627.413.625Zm-4.192-5.758a.9.9,0,0,0,1.4-1.143l-.3-.37-.5-.607-.359-.425a.9.9,0,0,0-1.584.511.893.893,0,0,0,.213.661l.347.41.49.592.3.372Zm-4.746-5.31a.9.9,0,0,0,1.514-.849.892.892,0,0,0-.238-.423l-.236-.24-.572-.567-.489-.474a.9.9,0,0,0-1.5.857.892.892,0,0,0,.254.444l.475.462.557.552.236.239Zm-5.249-4.81a.9.9,0,0,0,1.145-1.393l-.276-.229-.64-.521-.5-.4a.9.9,0,1,0-1.114,1.418l.484.384.625.508.276.229Zm-5.691-4.279a.9.9,0,1,0,1-1.5l-.484-.328-.71-.469-.326-.21a.9.9,0,0,0-1.3,1.15.894.894,0,0,0,.329.371l.308.2.694.458.484.327Zm-6.08-3.728a.9.9,0,1,0,.867-1.58l-.167-.093-.772-.418-.667-.351a.9.9,0,0,0-.832,1.6l.65.343.755.408.167.093Zm-6.392-3.166a.9.9,0,1,0,.728-1.649l-.86-.374-.815-.345a.9.9,0,0,0-1.125,1.287.892.892,0,0,0,.432.377l.8.338.842.366Zm-6.641-2.606a.9.9,0,1,0,.587-1.7l-.13-.046q-.8-.271-1.593-.534a.9.9,0,0,0-1.086,1.261.891.891,0,0,0,.527.453c.524.172,1.044.348,1.566.524l.13.045Zm-6.836-2.139a.9.9,0,0,0,.495-1.734q-.873-.248-1.747-.488a.9.9,0,0,0-.474,1.74c.577.158,1.151.318,1.727.482Zm-6.939-1.815a.9.9,0,0,0,.811-1.548.888.888,0,0,0-.393-.206c-.563-.1-1.2-.282-1.765-.412a.9.9,0,1,0-.4,1.757c.561.129,1.19.307,1.747.408Zm-7.011-1.531a.9.9,0,0,0,.351-1.769q-.889-.177-1.778-.345a.9.9,0,0,0-.337,1.771q.883.168,1.764.343Zm-7.068-1.283a.9.9,0,0,0,.765-1.546.893.893,0,0,0-.472-.233q-.894-.149-1.787-.288a.9.9,0,1,0-.279,1.781q.887.14,1.773.285Zm-7.106-1.065a.9.9,0,0,0,.24-1.787q-.9-.121-1.793-.236a.9.9,0,0,0-.23,1.789q.892.116,1.783.235Zm-7.137-.872a.9.9,0,1,0,.2-1.792c-.6-.065-1.2-.131-1.8-.192a.9.9,0,0,0-.675,1.584.881.881,0,0,0,.489.208l1.787.191Zm-7.158-.7a.9.9,0,0,0,.65-1.6.888.888,0,0,0-.493-.2c-.6-.053-1.2-.1-1.8-.153a.9.9,0,0,0-.148,1.8q.9.074,1.792.152Zm-7.2-.643a.9.9,0,1,0,.2-1.792q-.892-.1-1.783-.2a.9.9,0,1,0-.214,1.79q.9.107,1.8.2Zm-7.194-.94a.9.9,0,0,0,.285-1.781c-.588-.092-1.183-.182-1.767-.289a.9.9,0,1,0-.311,1.776c.594.107,1.2.2,1.793.294Zm-7.141-1.333a.9.9,0,0,0,.887-1.458.89.89,0,0,0-.5-.3q-.874-.192-1.744-.4a.9.9,0,1,0-.417,1.755q.885.207,1.772.4Zm-7.049-1.8a.9.9,0,1,0,.515-1.728c-.568-.169-1.138-.344-1.7-.525a.9.9,0,1,0-.556,1.716q.869.279,1.744.537Zm-6.894-2.378a.9.9,0,1,0,.672-1.673q-.827-.33-1.644-.681a.9.9,0,0,0-1.025,1.435.93.93,0,0,0,.309.22q.838.361,1.688.7Zm-6.632-3.08a.9.9,0,1,0,.86-1.585q-.779-.419-1.544-.866a.9.9,0,1,0-.916,1.553c.527.308,1.063.608,1.6.9Zm-6.2-3.935a.9.9,0,0,0,1.4-1.008.889.889,0,0,0-.312-.431c-.472-.354-.933-.717-1.391-1.089a.9.9,0,0,0-1.144,1.393c.477.388.957.766,1.448,1.135Zm-5.472-4.939a.9.9,0,1,0,1.337-1.21c-.4-.434-.776-.877-1.148-1.33a.9.9,0,1,0-1.4,1.139c.392.477.792.943,1.208,1.4Zm-4.338-6a.9.9,0,0,0,1.581-.866c-.282-.512-.548-1.026-.8-1.554a.9.9,0,1,0-1.631.768c.266.56.549,1.109.849,1.652Zm-2.737-6.9a.9.9,0,1,0,1.751-.431q-.212-.846-.368-1.7a.9.9,0,0,0-1.756-.087.886.886,0,0,0-.02.4c.11.611.242,1.219.392,1.822ZM177.558,149a.9.9,0,1,0,1.8.046c.014-.582.042-1.162.092-1.742a.9.9,0,1,0-1.8-.163c-.056.616-.086,1.241-.1,1.859Zm1.189-7.342a.9.9,0,1,0,1.722.537c.161-.526.355-1.148.567-1.651a.9.9,0,1,0-1.684-.645c-.222.574-.424,1.172-.6,1.759Zm2.995-6.764a.9.9,0,1,0,1.561.9q.44-.765.914-1.507a.9.9,0,0,0-1.518-.973q-.5.779-.956,1.577Zm4.2-6.033a.9.9,0,0,0,.76,1.47.89.89,0,0,0,.635-.329c.374-.458.757-.9,1.145-1.351a.9.9,0,1,0-1.355-1.191C186.721,127.923,186.326,128.393,185.939,128.865Z" transform="translate(-21.455 -9.061)" fill="#fff" fill-rule="evenodd"/>
    <g id="Grupo_12331" data-name="Grupo 12331" transform="translate(143.988 125.559)">
      <path id="Trazado_16325" data-name="Trazado 16325" d="M204.221,212.124a.572.572,0,0,1,.965.612c-.064.1-22.711,35.292-4.824,55.8a.57.57,0,0,1-.859.751C181.047,248.127,204.155,212.228,204.221,212.124Z" transform="translate(-167.709 -148.373)" fill="#000618" fill-rule="evenodd"/>
      <path id="Trazado_16326" data-name="Trazado 16326" d="M284.221,206.226a.57.57,0,1,1,.965-.608c.037.058,12.973,20.137-.671,35.563a.57.57,0,1,1-.854-.755C296.731,225.648,284.256,206.282,284.221,206.226Z" transform="translate(-181.669 -147.377)" fill="#000618" fill-rule="evenodd"/>
      <path id="Trazado_16327" data-name="Trazado 16327" d="M207.887,184.021l-9.539,10.488a38.28,38.28,0,0,1,4.113,18.684c-.454,10.6-36.193,69.358,29.833,69.055s29.291-34.367,29.291-34.367,21.78-7.053,10.781-38.588S207.887,184.021,207.887,184.021Z" transform="translate(-167.716 -144.033)" fill="#000618" fill-rule="evenodd"/>
      <path id="Trazado_16328" data-name="Trazado 16328" d="M264.25,251.467c-.384-.384-.608-.593-.608-.593a14.2,14.2,0,0,0,1.977-.88,59.489,59.489,0,0,0,5.641-7.45c9-14-.578-33.243-.578-33.243l-5.1-1.522s-10.147-3.634-12.872-4.543-34.224,1.059-43.159,17.869,1.018,41.178,1.018,41.178,37.144-1.2,39.263-1.351C251.413,260.821,257.519,258.443,264.25,251.467Z" transform="translate(-169.773 -147.025)" fill="#01020e" fill-rule="evenodd"/>
      <path id="Trazado_16329" data-name="Trazado 16329" d="M290.323,271.046c10.608,4.632,11.984,14.33,13.363,25.122,1.222,9.571,1.6,24.014-.915,45.954s-42.619-28.943-42.619-28.943Z" transform="translate(-178.091 -157.437)" fill="#ef8871" fill-rule="evenodd"/>
      <path id="Trazado_16330" data-name="Trazado 16330" d="M213.106,269.755l-10.3-5.268s-10.879,2.707-16.445,9.7-22.422,66.791-23.058,74.105,4.319,35.182,13.384,35.182,13.574-60.926,13.574-60.926l7.4-22.836Z" transform="translate(-163.253 -156.432)" fill="#f4ad85" fill-rule="evenodd"/>
      <path id="Trazado_16331" data-name="Trazado 16331" d="M213.516,269.755l-10.3-5.268a40.75,40.75,0,0,0-7.518,2.888c1.334.644,2.376,2.292,2.254,5.942-.318,9.543-14.869,45.958-18.049,56.135s-5.725,16.22-5.725,16.22l-6.628-13.9c-.6,2.246-1.144,4.35-1.627,6.268,2.48,13.36,5.563,31.675,5.982,42.145,1.537,2.039,3.271,3.292,5.19,3.292,9.064,0,13.574-60.926,13.574-60.926l7.4-22.836Z" transform="translate(-163.662 -156.432)" fill="#ef8871" fill-rule="evenodd"/>
      <path id="Trazado_16332" data-name="Trazado 16332" d="M245.716,255.194s27.361,9.752,35.087,13.425c-.014.014-1.477,1.543-3.138,9.93-1.669,8.429,0,20.674-1.748,32.759-1.264,8.733-7.177,52.912-10.361,76.758l-67.446-5.441c-.02-1.063-.064-2.34-.125-3.788,5.539,4.313,10.848,4.505,7.563-8.094-5.726-21.946-4.613-60.111-2.7-71.561s4.751-23.5,2.048-35.109C206.705,262.438,245.716,255.194,245.716,255.194Z" transform="translate(-168.571 -155.009)" fill="#d84f50" fill-rule="evenodd"/>
      <path id="Trazado_16333" data-name="Trazado 16333" d="M264.285,262.958c6.845,2.568,13.8,5.27,17.118,6.849-.014.014-1.477,1.543-3.138,9.93-1.669,8.429,0,20.674-1.748,32.759-.253,1.749-.694,4.92-1.26,9.061-15.239,2.375-60.25,7.53-71.05,6.573a19.238,19.238,0,0,1-2.306-.348c0-11.909.692-22.312,1.542-27.413.048-.293.1-.587.148-.88,3.813,11.252,51.812,17.542,51.812,17.542s7.96-17.6,5.892-24.125-11.612-6.338-11.612-6.338l.242-5.827s9.543-12.922,11.836-16.854C262.048,263.395,262.94,263.1,264.285,262.958Z" transform="translate(-169.171 -156.198)" fill="#c23e3e" fill-rule="evenodd"/>
      <path id="Trazado_16334" data-name="Trazado 16334" d="M268.36,264.323l.564.214c-1.215,4.9-2.844,10.655-5.118,14.044a24.209,24.209,0,0,1-7.922,7.885c-3.473,2.014-8.016,3.222-14.359,3.061a21.239,21.239,0,0,1-13.409-5.071,27.906,27.906,0,0,1-8.5-13.337c-1.747-6.1-3.393-8.127-3.953-8.678l.667-.147c.781.916,2.314,3.254,3.863,8.661A27.293,27.293,0,0,0,228.5,284a20.653,20.653,0,0,0,13.038,4.93c6.219.158,10.66-1.02,14.044-2.981a23.656,23.656,0,0,0,7.724-7.7c2.233-3.329,3.847-9.055,5.052-13.926ZM279.6,268.8l.5.218c-1.316,2.331-3.17,7.228-4.875,17.473-2.043,12.28.3,17.817,2.09,20.148-.019.28-.04.561-.063.841-1.922-2.181-4.827-7.819-2.619-21.088,1.674-10.065,3.568-15.091,4.967-17.592Zm-76.418,34.866q.064-.578.13-1.112c1.538-3.026,7.39-16.339,4.054-38.073.182-.057.373-.113.581-.172,3.835,24.856-4.278,38.876-4.468,39.2a.3.3,0,0,1-.065.083A.3.3,0,0,1,203.181,303.671Z" transform="translate(-169.367 -156.097)" fill="#b23539" fill-rule="evenodd"/>
      <path id="Trazado_16335" data-name="Trazado 16335" d="M246.968,220.632l.206,0A10.815,10.815,0,0,1,258.1,231.305l.137,21.906c3.972,1.452,8.724,3.211,13.174,4.911-7,15.121-15.261,25.113-28.459,22.251-18.079-3.921-17.435-19.1-22.942-24.7,5.143-1.114,11.177-2.326,16.413-3.35l-.13-20.768A10.852,10.852,0,0,1,246.968,220.632Z" transform="translate(-171.944 -149.716)" fill="#ef8871" fill-rule="evenodd"/>
      <path id="Trazado_16336" data-name="Trazado 16336" d="M260.026,228.116a10.584,10.584,0,0,1,.671,3.647l.137,21.906c3.972,1.452,8.724,3.211,13.174,4.911-5.15,11.121-10.98,19.468-18.955,21.966,12.682-8.552,8.784-19.116,6.081-20.23s-24.165-7.131-24.165-7.131l2.053-.4-.13-20.768a10.877,10.877,0,0,1,3.88-8.393C248.488,223.568,254.184,225.342,260.026,228.116Z" transform="translate(-174.541 -150.174)" fill="#ea745d" fill-rule="evenodd"/>
      <path id="Trazado_16337" data-name="Trazado 16337" d="M279.161,196.13c.211,0,.42.008.628.022l.006,0h0a8.445,8.445,0,1,1-6.76,2.613c.116,2.5.915,5.5,4.109,5.39l-.733-4.812A2.9,2.9,0,0,1,279.161,196.13Z" transform="translate(-179.709 -145.965)" fill="#ea745d" fill-rule="evenodd"/>
      <path id="Trazado_16338" data-name="Trazado 16338" d="M208.334,207.358c-.2.056-.4.117-.6.186l-.006,0h0a8.444,8.444,0,1,0,7.209.753c.541,2.442.556,5.552-2.557,6.279l-.551-4.837A2.9,2.9,0,0,0,208.334,207.358Z" transform="translate(-169.201 -147.677)" fill="#ea745d" fill-rule="evenodd"/>
      <path id="Trazado_16339" data-name="Trazado 16339" d="M235.71,152.321h0a28.99,28.99,0,0,1,32.465,24.836l3.468,26.059a28.989,28.989,0,0,1-24.838,32.464h0a28.988,28.988,0,0,1-32.461-24.837l-3.469-26.059A28.987,28.987,0,0,1,235.71,152.321Z" transform="translate(-170.506 -139.218)" fill="#f4ad85" fill-rule="evenodd"/>
      <path id="Trazado_16340" data-name="Trazado 16340" d="M235.71,152.321h0a29,29,0,0,1,32.04,22.436A12.04,12.04,0,0,1,266.431,179l-13.354-.78s-8.79,16.8-26.843,20.886c-4.853,1.1-6.376,5.989-5.384,10.636,2.414,11.318,12.13,27.536,36.056,22.61a28.653,28.653,0,0,1-10.1,3.329h0a28.988,28.988,0,0,1-32.461-24.837l-3.469-26.059A28.987,28.987,0,0,1,235.71,152.321Z" transform="translate(-170.506 -139.217)" fill="#ef8871" fill-rule="evenodd"/>
      <path id="Trazado_16341" data-name="Trazado 16341" d="M233.476,220.174a3.8,3.8,0,1,1-3.185,4.331A3.8,3.8,0,0,1,233.476,220.174Z" transform="translate(-173.512 -149.64)" fill="#ea745d" fill-rule="evenodd"/>
      <path id="Trazado_16342" data-name="Trazado 16342" d="M270.265,214.353a3.8,3.8,0,1,1-3.185,4.332A3.8,3.8,0,0,1,270.265,214.353Z" transform="translate(-179.145 -148.749)" fill="#ea745d" fill-rule="evenodd"/>
      <path id="Trazado_16343" data-name="Trazado 16343" d="M228.588,201.848a1.086,1.086,0,0,0-.269,2.154,11.011,11.011,0,0,0,3.112-.088,8.718,8.718,0,0,0,5.435-2.986,1.086,1.086,0,0,0-1.675-1.383A7.467,7.467,0,0,1,228.588,201.848Z" transform="translate(-173.071 -146.428)" fill="#01020e" fill-rule="evenodd"/>
      <path id="Trazado_16344" data-name="Trazado 16344" d="M283.569,278.022s1.1-.159,1.352.705-3.409,5.516-3.648,5.676-7.493-.755-7.493-.755-.383-.358-.3-.633a1.35,1.35,0,0,1,.351-.517Z" transform="translate(-180.13 -158.503)" fill="#000618" fill-rule="evenodd"/>
      <path id="Trazado_16345" data-name="Trazado 16345" d="M269.986,191.97a7.492,7.492,0,0,0-6.777,1.757,1.086,1.086,0,1,1-1.557-1.514,8.714,8.714,0,0,1,5.66-2.536,11.02,11.02,0,0,1,3.106.165,1.085,1.085,0,0,1-.433,2.127Z" transform="translate(-178.274 -144.97)" fill="#01020e" fill-rule="evenodd"/>
      <path id="Trazado_16346" data-name="Trazado 16346" d="M215.712,195.51s.255,1.916.491,3.694-3.176,6.537-4.539,6.717l-.864-6.49a4.048,4.048,0,0,0-4.649-2.409c-13-11.465-14.254-32.242-3.637-44.515s36.381-16.4,41.1-15.493,10.384,7.944,10.384,7.944,3.376-3.929,7.169-2.625,18.68,22.154,19.427,27.763-8.631,18.168-8.631,18.168A4.048,4.048,0,0,0,268.1,191.8l.537,4.035c-1.363.182-2.37-1.544-2.606-3.322s-.492-3.693-.492-3.693c-11.992-3.521-18.5-18.162-18.5-18.162S234.546,195.758,215.712,195.51Z" transform="translate(-168.172 -136.894)" fill="#000618" fill-rule="evenodd"/>
      <path id="Trazado_16347" data-name="Trazado 16347" d="M195.381,172.8a31.679,31.679,0,0,1,3.709-15.182c11.758,9.109,30.751,15.208,46.57-19.735a17.22,17.22,0,0,1,3,1.944C242.53,157.6,226.878,188.633,195.381,172.8Z" transform="translate(-168.172 -137.046)" fill="#0f1630" fill-rule="evenodd"/>
      <path id="Trazado_16348" data-name="Trazado 16348" d="M215.876,200.964s.255,1.916.491,3.694-3.176,6.537-4.539,6.717l-.864-6.49a4.048,4.048,0,0,0-4.649-2.409,31.911,31.911,0,0,1-9.86-16.671c.017.012,22.273,15.471,49.673-13.292,0,0,12.536,19.551,30.877,13.727a84.279,84.279,0,0,1-4.883,7.477,4.048,4.048,0,0,0-3.857,3.542l.538,4.035c-1.364.182-2.37-1.544-2.607-3.322s-.492-3.693-.492-3.693c-11.993-3.521-18.5-18.162-18.5-18.162S234.711,201.212,215.876,200.964Z" transform="translate(-168.337 -142.348)" fill="#01020e" fill-rule="evenodd"/>
      <path id="Trazado_16349" data-name="Trazado 16349" d="M284.042,247.766l1.876.512s1.1-9.789,1.089-10.737a11.345,11.345,0,0,0-1.219-3.911c-.723-1.6-3.376-7.642-3.519-7.835s-1.858,1.3-1.085,3.943,2.083,6.231,2.071,7-1.764,7.547-1.764,7.547Z" transform="translate(-181.281 -150.505)" fill="#ef8871" fill-rule="evenodd"/>
      <path id="Trazado_16350" data-name="Trazado 16350" d="M283.038,250.23a4.17,4.17,0,0,0-2.186-3.634c-1.88-1.141-6.32-4.657-7.267-5.069a3.31,3.31,0,0,0-3.155.492A55.706,55.706,0,0,0,265,245.956c-.748.777-2.613,5.567-2.841,6.07s1.647.959,3.144-.174c0,0-.783,1.572-1.035,2.1a38.979,38.979,0,0,0-.628,5.4c-.031.821,2.239.411,3.009-1.477,0,0-.124,1.359-.124,1.782s1.3.263,1.3.263,1.5,8.122,1.833,9.136,13.231,47.381,13.231,47.381l18.653-1.126s-20.349-45.508-20.483-46.177C279.907,263.416,283.063,255.043,283.038,250.23Z" transform="translate(-178.396 -152.884)" fill="#f4ad85" fill-rule="evenodd"/>
      <path id="Trazado_16351" data-name="Trazado 16351" d="M268.854,261.976l.08.429h0l.029.156,0,.015,0,.007,0,.022,0,.023,0,.023,0,.02v0l.005.024.008.047.005.025v0l.014.074.005.026c.4,2.139,1.4,7.435,1.667,8.242.248.752,7.4,26.443,11.085,39.672a53.493,53.493,0,0,0,7.123-3.506s-14.431-33.593-14.769-34.916.456-2.374.178-2.731-1.392-.875-1.67-1.829-.954-4.333-.517-5.685c.337-1.043,1.433-.915,1.916-.8a12.7,12.7,0,0,0,1.415.355c.723.1.669-.346.669-.346a10.626,10.626,0,0,1,1.612-3.625,9.634,9.634,0,0,1-2.016-2.469c-.808-.349-1.442-.8-2.073-.352a15.617,15.617,0,0,0-2.392,2.43,23.648,23.648,0,0,1-.485,3.144C270.462,261.648,268.854,261.976,268.854,261.976Z" transform="translate(-179.424 -154.932)" fill="#ef8871" fill-rule="evenodd"/>
      <g id="Grupo_12330" data-name="Grupo 12330" transform="translate(0.277 148.985)">
        <path id="Trazado_16352" data-name="Trazado 16352" d="M169.645,413.121H304.874a3.938,3.938,0,0,0,3.777-4.063h0a3.939,3.939,0,0,0-3.777-4.062H169.645a3.939,3.939,0,0,0-3.777,4.062h0A3.94,3.94,0,0,0,169.645,413.121Z" transform="translate(-163.93 -326.934)" fill="#000618" fill-rule="evenodd"/>
        <path id="Trazado_16353" data-name="Trazado 16353" d="M306.976,312.819H166.841a3.189,3.189,0,0,0-3.219,3.789l10.71,71.135a4.581,4.581,0,0,0,4.36,3.79H295.124a4.582,4.582,0,0,0,4.361-3.79l10.71-71.135A3.189,3.189,0,0,0,306.976,312.819Z" transform="translate(-163.58 -312.819)" fill="#000618" fill-rule="evenodd"/>
        <path id="Trazado_16354" data-name="Trazado 16354" d="M304.45,316.789h-133.9a3.047,3.047,0,0,0-3.076,3.62l10.234,67.97A4.377,4.377,0,0,0,181.872,392H293.124a4.377,4.377,0,0,0,4.167-3.621l10.234-67.97A3.047,3.047,0,0,0,304.45,316.789Z" transform="translate(-164.169 -313.427)" fill="#0f1630" fill-rule="evenodd"/>
        <path id="Trazado_16355" data-name="Trazado 16355" d="M176.465,370.979l2.624,17.433a4.377,4.377,0,0,0,4.166,3.621H294.507a4.377,4.377,0,0,0,4.167-3.621l10.234-67.97a3.043,3.043,0,0,0-1.98-3.441C291.6,343.441,253.937,386.748,176.465,370.979Z" transform="translate(-165.553 -313.459)" fill="#000618" fill-rule="evenodd"/>
        <path id="Trazado_16356" data-name="Trazado 16356" d="M247.475,379.769c8.2,0,14.894-5.585,14.894-12.433s-6.69-12.432-14.894-12.432-14.893,5.585-14.893,12.432S239.272,379.769,247.475,379.769Z" transform="translate(-174.146 -319.264)" fill="#000618" fill-rule="evenodd"/>
        <path id="Trazado_16357" data-name="Trazado 16357" d="M248.122,358.429a11.876,11.876,0,0,1,9.77,4.678l-17.315,11.809a8.831,8.831,0,0,1-3.772-7.04c0-5.217,5.067-9.447,11.317-9.447Zm9.194,14.956-5.2-2.862-8.672,5.958a13.169,13.169,0,0,0,4.678.843A12.11,12.11,0,0,0,257.315,373.385Z" transform="translate(-174.793 -319.803)" fill="#fff" fill-rule="evenodd"/>
      </g>
      <path id="Trazado_16358" data-name="Trazado 16358" d="M267.593,201.629h0a2.421,2.421,0,0,0-2.006,2.764l.5,3.112a2.422,2.422,0,0,0,2.765,2.006h0a2.422,2.422,0,0,0,2.006-2.766l-.495-3.111A2.423,2.423,0,0,0,267.593,201.629Z" transform="translate(-178.919 -146.802)" fill="#01020e" fill-rule="evenodd"/>
      <path id="Trazado_16359" data-name="Trazado 16359" d="M233.41,206.808h0a2.421,2.421,0,0,0-2.006,2.765l.5,3.111a2.423,2.423,0,0,0,2.766,2.006h0a2.422,2.422,0,0,0,2-2.766l-.495-3.111A2.421,2.421,0,0,0,233.41,206.808Z" transform="translate(-173.684 -147.595)" fill="#01020e" fill-rule="evenodd"/>
      <path id="Trazado_16360" data-name="Trazado 16360" d="M263.058,226.747a.879.879,0,0,1,.171,1.211.838.838,0,0,1-1.2.074c-.008-.008-2.9-2.526-8.041,2.212a.895.895,0,0,1-1.215-1.306C258.987,223.217,263.046,226.737,263.058,226.747Z" transform="translate(-176.923 -150.488)" fill="#ef8871" fill-rule="evenodd"/>
      <path id="Trazado_16361" data-name="Trazado 16361" d="M284.235,278.182a.545.545,0,0,1,.434.522c.059.477-2.824,4.224-10.894,4.508,0,0-.193-.06-.223-.184s.1-.263.1-.263l-.041-.151s-.29.208-.29.457,1.193,5.233,1.432,6.485,2.69.963,4.764.461,7.017-2.232,8.315-4.913a2.592,2.592,0,0,0-.04-1.253c-.2-.577-2.7-5.218-2.833-5.5a.774.774,0,0,0-.8-.362Z" transform="translate(-180.107 -158.499)" fill="#0f1630" fill-rule="evenodd"/>
      <path id="Trazado_16362" data-name="Trazado 16362" d="M277.607,283.605a22.785,22.785,0,0,1-3.831.444s-.193-.06-.223-.184.1-.263.1-.263l-.041-.151s-.29.208-.29.457,1.193,5.233,1.432,6.485,2.69.963,4.764.461c.294-.071.648-.167,1.041-.288l-2.949-6.961Z" transform="translate(-180.107 -159.337)" fill="#000618" fill-rule="evenodd"/>
    </g>
    <g id="Grupo_12332" data-name="Grupo 12332" transform="translate(88.401 356.667)">
      <path id="Trazado_16363" data-name="Trazado 16363" d="M117.2,419.136H340.576a5.117,5.117,0,0,1,5.1,5.1h0a5.117,5.117,0,0,1-5.1,5.1H117.2a5.116,5.116,0,0,1-5.1-5.1h0A5.117,5.117,0,0,1,117.2,419.136Z" transform="translate(-99.832 -411.222)" fill="#000618" fill-rule="evenodd"/>
      <path id="Rectángulo_2800" data-name="Rectángulo 2800" d="M6.507,0H251.6a6.507,6.507,0,0,1,6.507,6.507v0a6.507,6.507,0,0,1-6.507,6.507H6.508A6.508,6.508,0,0,1,0,6.507v0A6.507,6.507,0,0,1,6.507,0Z" fill="#be865e"/>
      <rect id="Rectángulo_2801" data-name="Rectángulo 2801" width="13.54" height="13.016" transform="translate(155.065)" fill="#915e40"/>
      <rect id="Rectángulo_2802" data-name="Rectángulo 2802" width="7.034" height="13.016" transform="translate(175.639)" fill="#915e40"/>
      <rect id="Rectángulo_2803" data-name="Rectángulo 2803" width="3.517" height="13.016" transform="translate(190.058)" fill="#915e40"/>
      <rect id="Rectángulo_2804" data-name="Rectángulo 2804" width="15.146" height="13.016" transform="translate(205.62)" fill="#915e40"/>
      <rect id="Rectángulo_2805" data-name="Rectángulo 2805" width="7.573" height="13.016" transform="translate(232.185)" fill="#915e40"/>
      <rect id="Rectángulo_2806" data-name="Rectángulo 2806" width="126.857" height="7.737" rx="3.868" transform="translate(3.165 2.113)" fill="#d49d80"/>
    </g>
    <g id="Grupo_12333" data-name="Grupo 12333" transform="translate(164.469 79.932)">
      <path id="Trazado_16364" data-name="Trazado 16364" d="M199.184,96.052l2.785,16.028L238.1,83.016l-37.732,9.278Z" transform="translate(-189.235 -83.016)" fill="#d5eaf5" fill-rule="evenodd"/>
      <path id="Trazado_16365" data-name="Trazado 16365" d="M202.472,114.8l13.935-11.208a22.411,22.411,0,0,1,.651-2.842l-11.708,3.146Z" transform="translate(-189.739 -85.731)" fill="#ecf6fc" fill-rule="evenodd"/>
      <path id="Trazado_16366" data-name="Trazado 16366" d="M236.3,83.016l-48.869,9.039,9.949,4Z" transform="translate(-187.436 -83.016)" fill="#fff" fill-rule="evenodd"/>
      <path id="Trazado_16367" data-name="Trazado 16367" d="M239.128,83.016l-21.961,29.177-11.3-11.017Z" transform="translate(-190.259 -83.016)" fill="#fff" fill-rule="evenodd"/>
    </g>
    <g id="Grupo_12335" data-name="Grupo 12335" transform="translate(85.812 211.483)">
      <path id="Trazado_16368" data-name="Trazado 16368" d="M97.07,257.329a63.858,63.858,0,0,1,14.808-1.736h0a12.943,12.943,0,0,0,12.9-12.9h0a12.782,12.782,0,0,0-.13-1.821h20.408a5.615,5.615,0,0,1,5.6,5.6v39.492a.626.626,0,0,1-1.067.443l-9.54-9.541H102.669a5.615,5.615,0,0,1-5.6-5.6Z" transform="translate(-94.941 -238.739)" fill="#a6cae4" fill-rule="evenodd"/>
      <path id="Trazado_16369" data-name="Trazado 16369" d="M100.155,238.354h42.392a5.614,5.614,0,0,1,5.6,5.6v39.493a.625.625,0,0,1-1.067.442l-9.54-9.541H100.155a5.614,5.614,0,0,1-5.6-5.6v-24.8A5.614,5.614,0,0,1,100.155,238.354Z" transform="translate(-94.556 -238.354)" fill="#dc5645" fill-rule="evenodd"/>
      <g id="Grupo_12334" data-name="Grupo 12334" transform="translate(7.435 3.614)">
        <path id="Trazado_16370" data-name="Trazado 16370" d="M130.453,249.1l7.014.028a6.355,6.355,0,0,1,4.576,1.983,6.811,6.811,0,0,1,1.885,4.715v.024c0,.029,0,.058,0,.087a6.723,6.723,0,0,1-1.9,4.592,6.378,6.378,0,0,1-4.574,1.956h-.021c-.027,0-.054,0-.08,0l-6.939-.027-12.37,6.2a1.661,1.661,0,0,1-1.682-.094,1.725,1.725,0,0,1-.589-.642,1.757,1.757,0,0,1-.2-.832l.083-22.719a1.762,1.762,0,0,1,.207-.839,1.73,1.73,0,0,1,.592-.636,1.7,1.7,0,0,1,.834-.269,1.668,1.668,0,0,1,.851.185l.066.037,12.258,6.258Zm7.014,1.787-7.226-.028a.883.883,0,0,1-.4-.1L117.4,244.415l-.081,22.632,12.459-6.241a.873.873,0,0,1,.422-.106l7.148.028.095,0a4.624,4.624,0,0,0,3.312-1.419,4.969,4.969,0,0,0,1.407-3.383l0-.091a5.033,5.033,0,0,0-1.39-3.493A4.6,4.6,0,0,0,137.467,250.891Z" transform="translate(-105.207 -242.621)" fill="#fff" fill-rule="evenodd"/>
        <path id="Trazado_16371" data-name="Trazado 16371" d="M142.247,264.761v7.918a2.831,2.831,0,0,1-2.823,2.823h0a2.831,2.831,0,0,1-2.823-2.823v-7.7l4.045.015A5.394,5.394,0,0,0,142.247,264.761Z" transform="translate(-108.429 -246.012)" fill="#fff" fill-rule="evenodd"/>
        <rect id="Rectángulo_2807" data-name="Rectángulo 2807" width="1.324" height="11.599" transform="translate(26.343 7.369)" fill="#fff"/>
        <rect id="Rectángulo_2808" data-name="Rectángulo 2808" width="1.324" height="11.599" transform="translate(30.586 7.369)" fill="#fff"/>
        <path id="Trazado_16372" data-name="Trazado 16372" d="M111.14,252.306a.882.882,0,0,1-.3,1.738l-6.773-1.18a.881.881,0,1,1,.3-1.738l6.774,1.18Zm-.532,10.935a.881.881,0,0,1,.766,1.586l-4.463,2.154a.881.881,0,1,1-.766-1.586l4.462-2.154Zm.766-15.962a.881.881,0,0,1-.766,1.586l-5.1-2.463a.881.881,0,0,1,.766-1.586l5.1,2.463Zm-.532,10.784a.881.881,0,0,1,.3,1.737l-6.774,1.18a.881.881,0,1,1-.3-1.738Z" transform="translate(-103.335 -242.944)" fill="#fff" fill-rule="evenodd"/>
      </g>
    </g>
    <g id="Grupo_12340" data-name="Grupo 12340" transform="translate(275.097 110.562)">
      <path id="Trazado_16373" data-name="Trazado 16373" d="M370.989,119.184H326.883a5.84,5.84,0,0,0-5.824,5.824V166.1a.65.65,0,0,0,1.109.46l9.926-9.925h38.894a5.841,5.841,0,0,0,5.824-5.825v-25.8A5.841,5.841,0,0,0,370.989,119.184Z" transform="translate(-318.527 -119.184)" fill="#a6cae4" fill-rule="evenodd"/>
      <path id="Trazado_16374" data-name="Trazado 16374" d="M368,119.184h-44.1a5.841,5.841,0,0,0-5.825,5.824V166.1a.65.65,0,0,0,1.11.46l9.925-9.925H368a5.841,5.841,0,0,0,5.825-5.825v-25.8A5.84,5.84,0,0,0,368,119.184Z" transform="translate(-318.069 -119.184)" fill="#dc5645" fill-rule="evenodd"/>
      <g id="Grupo_12338" data-name="Grupo 12338" transform="translate(10.914 9.529)">
        <g id="Grupo_12336" data-name="Grupo 12336">
          <path id="Trazado_16375" data-name="Trazado 16375" d="M337.224,138.83a4.2,4.2,0,1,0-4.2-4.2A4.2,4.2,0,0,0,337.224,138.83Z" transform="translate(-331.274 -130.436)" fill="#f09a9b" fill-rule="evenodd"/>
          <path id="Trazado_16376" data-name="Trazado 16376" d="M336.907,141.917h0a5.968,5.968,0,0,1,5.951,5.95v5.805a.668.668,0,0,1-.667.666h-10.57a.667.667,0,0,1-.665-.666v-5.805A5.968,5.968,0,0,1,336.907,141.917Z" transform="translate(-330.957 -132.194)" fill="#f09a9b" fill-rule="evenodd"/>
        </g>
        <g id="Grupo_12337" data-name="Grupo 12337" transform="translate(22.025)">
          <path id="Trazado_16377" data-name="Trazado 16377" d="M363.231,138.83a4.2,4.2,0,1,0-4.2-4.2A4.2,4.2,0,0,0,363.231,138.83Z" transform="translate(-357.282 -130.436)" fill="#f09a9b" fill-rule="evenodd"/>
          <path id="Trazado_16378" data-name="Trazado 16378" d="M362.914,141.917h0a5.969,5.969,0,0,1,5.951,5.95v5.805a.668.668,0,0,1-.667.666H357.63a.667.667,0,0,1-.665-.666v-5.805A5.967,5.967,0,0,1,362.914,141.917Z" transform="translate(-356.965 -132.194)" fill="#f09a9b" fill-rule="evenodd"/>
        </g>
      </g>
      <g id="Grupo_12339" data-name="Grupo 12339" transform="translate(20.719 5.038)">
        <path id="Trazado_16379" data-name="Trazado 16379" d="M350.074,135.229a5.048,5.048,0,1,0-5.048-5.048A5.057,5.057,0,0,0,350.074,135.229Z" transform="translate(-342.916 -125.133)" fill="#fff" fill-rule="evenodd"/>
        <path id="Trazado_16380" data-name="Trazado 16380" d="M349.693,138.942h0a7.178,7.178,0,0,1,7.157,7.158v6.982a.8.8,0,0,1-.8.8H343.335a.8.8,0,0,1-.8-.8V146.1A7.179,7.179,0,0,1,349.693,138.942Z" transform="translate(-342.535 -127.248)" fill="#fff" fill-rule="evenodd"/>
      </g>
    </g>
    <path id="Trazado_16381" data-name="Trazado 16381" d="M420.715,264.583a14.986,14.986,0,1,1-10.6,4.389,14.941,14.941,0,0,1,10.6-4.389Zm13.362,15.785h-6.115a29.675,29.675,0,0,1-.51,4.857,18.246,18.246,0,0,1,4.488,1.641,13.312,13.312,0,0,0,2.137-6.5Zm-7.714,0h-4.848v4.117a29.9,29.9,0,0,1,4.372.421,28.054,28.054,0,0,0,.476-4.538Zm-6.447,0h-4.847a27.866,27.866,0,0,0,.475,4.538,29.912,29.912,0,0,1,4.372-.421v-4.117Zm-6.447,0h-6.116a13.321,13.321,0,0,0,2.138,6.5,18.221,18.221,0,0,1,4.488-1.641,29.675,29.675,0,0,1-.51-4.857Zm-6.116-1.6h6.116a30.17,30.17,0,0,1,.379-4.125,17.72,17.72,0,0,1-4.706-1.8,13.313,13.313,0,0,0-1.789,5.93Zm8.061-3.8a28.531,28.531,0,0,0-.346,3.8h4.847v-3.354a29.936,29.936,0,0,1-4.5-.444Zm10.6,0a29.937,29.937,0,0,1-4.5.444v3.354h4.848a28.385,28.385,0,0,0-.346-3.8Zm1.944,3.8h6.116a13.311,13.311,0,0,0-1.788-5.93,17.755,17.755,0,0,1-4.708,1.8,30.036,30.036,0,0,1,.379,4.125Zm-6.446-12.44v7.488a28.616,28.616,0,0,0,4.2-.413,18.365,18.365,0,0,0-1.159-3.534c-.569-1.248-1.618-3.025-3.04-3.541Zm0,19.757v6.724c1.423-.517,2.471-2.292,3.04-3.542a17.535,17.535,0,0,0,.979-2.8,28.54,28.54,0,0,0-4.019-.381Zm-1.6,6.724v-6.724a28.563,28.563,0,0,0-4.02.381,17.372,17.372,0,0,0,.981,2.8c.567,1.25,1.618,3.026,3.039,3.542Zm0-18.993v-7.488c-1.422.516-2.472,2.292-3.04,3.541a18.368,18.368,0,0,0-1.159,3.534,28.616,28.616,0,0,0,4.2.413Zm-9.886-2.31a16.287,16.287,0,0,0,4.124,1.568,19.994,19.994,0,0,1,1.27-3.867,11.811,11.811,0,0,1,1.479-2.474,13.436,13.436,0,0,0-6.874,4.773Zm17.247,1.568a16.287,16.287,0,0,0,4.124-1.568,13.535,13.535,0,0,0-1.22-1.4,13.387,13.387,0,0,0-5.653-3.371,11.889,11.889,0,0,1,1.48,2.474,20.166,20.166,0,0,1,1.269,3.867Zm3.7,15.091a16.824,16.824,0,0,0-3.875-1.381,19.4,19.4,0,0,1-1.093,3.146,11.818,11.818,0,0,1-1.481,2.475,13.389,13.389,0,0,0,5.654-3.37q.417-.418.8-.87Zm-16.648-1.381a16.706,16.706,0,0,0-3.875,1.381q.379.451.8.87a13.371,13.371,0,0,0,5.653,3.37,11.851,11.851,0,0,1-1.48-2.474A19.356,19.356,0,0,1,414.329,286.783Z" transform="translate(-56.395 -30.888)" fill="#fff" fill-rule="evenodd"/>
    <path id="Trazado_16382" data-name="Trazado 16382" d="M75.336,182.039a5.45,5.45,0,0,1,2.153-2.243,3.329,3.329,0,0,0,1.629-2.185,14.108,14.108,0,0,0,.332-3.661.84.84,0,0,1,.839-.839h1.436a1.491,1.491,0,0,1,.432.069,3.1,3.1,0,0,1,1.558,1.452,5.447,5.447,0,0,1,.679,2.662,6.09,6.09,0,0,1-.281,1.817,4.827,4.827,0,0,0-.317,2.008.657.657,0,0,0,.245.034h3.6a4.726,4.726,0,0,1,1.223.152,2.884,2.884,0,0,1,1.448.861,2.787,2.787,0,0,1,.655,1.894,4.912,4.912,0,0,1-.13,1.082,3.852,3.852,0,0,1-.431,4.1,3.33,3.33,0,0,1-1.146,2.988A3.534,3.534,0,0,1,85.8,194.8H79.2a5.556,5.556,0,0,1-3.172-1.291,1.9,1.9,0,0,1-.494.84l-.03.027a1.858,1.858,0,0,1-1.28.511h-3a1.871,1.871,0,0,1-1.869-1.869v-9.481a1.869,1.869,0,0,1,.561-1.331l.027-.025a1.864,1.864,0,0,1,1.281-.511h3a1.863,1.863,0,0,1,1.116.372Zm.752,9.314a5.318,5.318,0,0,0,3.107,1.765h6.6a1.936,1.936,0,0,0,1.925-1.6.839.839,0,0,1,.446-.58c.609-.3.628-1.308.54-1.867a.832.832,0,0,1,.324-.848c.8-.586.527-1.861.186-2.618a.824.824,0,0,1-.071-.612,3.668,3.668,0,0,0,.142-.932,1.191,1.191,0,0,0-.236-.789,1.268,1.268,0,0,0-.623-.346,3.056,3.056,0,0,0-.788-.092h-3.6a1.725,1.725,0,0,1-1.783-1.054,5.269,5.269,0,0,1,.253-3.166,4.429,4.429,0,0,0,.206-1.318,3.742,3.742,0,0,0-.46-1.835,1.9,1.9,0,0,0-.577-.669h-.56a13.127,13.127,0,0,1-.39,3.274,4.941,4.941,0,0,1-2.447,3.209,5.123,5.123,0,0,0-2.2,3.645v6.436Zm-1.868-8.008h-3a.175.175,0,0,0-.115.036l-.019.021a.185.185,0,0,0-.057.132v9.481a.191.191,0,0,0,.057.135.188.188,0,0,0,.134.056h3a.17.17,0,0,0,.113-.035l.02-.021a.193.193,0,0,0,.057-.135v-9.481a.19.19,0,0,0-.058-.134A.188.188,0,0,0,74.22,183.344Z" transform="translate(-4.884 -16.88)" fill="#fff" fill-rule="evenodd"/>
    <g id="Grupo_12341" data-name="Grupo 12341" transform="translate(308.334 86.182)">
      <rect id="Rectángulo_2809" data-name="Rectángulo 2809" width="4.771" height="4.771" rx="1.314" transform="translate(0 9.621)" fill="#fff"/>
      <rect id="Rectángulo_2810" data-name="Rectángulo 2810" width="4.771" height="4.771" rx="1.314" transform="translate(8.825 9.621)" fill="#a6cae4"/>
      <path id="Rectángulo_2811" data-name="Rectángulo 2811" d="M1.314,0H3.456A1.314,1.314,0,0,1,4.77,1.314V3.457A1.314,1.314,0,0,1,3.456,4.771H1.313A1.313,1.313,0,0,1,0,3.458V1.314A1.314,1.314,0,0,1,1.314,0Z" transform="translate(17.651 9.621)" fill="#fff"/>
      <rect id="Rectángulo_2812" data-name="Rectángulo 2812" width="4.771" height="4.771" rx="1.314" transform="translate(26.476 9.621)" fill="#a6cae4"/>
      <rect id="Rectángulo_2813" data-name="Rectángulo 2813" width="4.77" height="4.771" rx="1.314" transform="translate(35.302 9.621)" fill="#fff"/>
      <rect id="Rectángulo_2814" data-name="Rectángulo 2814" width="4.771" height="4.771" rx="1.314" transform="translate(44.127 9.621)" fill="#fff"/>
      <rect id="Rectángulo_2815" data-name="Rectángulo 2815" width="4.771" height="4.771" rx="1.314" transform="translate(52.952 9.621)" fill="#fff"/>
      <rect id="Rectángulo_2816" data-name="Rectángulo 2816" width="4.771" height="4.77" rx="1.314" transform="translate(26.795)" fill="#fff"/>
      <rect id="Rectángulo_2817" data-name="Rectángulo 2817" width="4.771" height="4.77" rx="1.314" transform="translate(35.621)" fill="#a6cae4"/>
      <rect id="Rectángulo_2818" data-name="Rectángulo 2818" width="4.771" height="4.77" rx="1.314" transform="translate(44.446)" fill="#fff"/>
      <path id="Rectángulo_2819" data-name="Rectángulo 2819" d="M1.314,0H3.456A1.314,1.314,0,0,1,4.77,1.314V3.457A1.314,1.314,0,0,1,3.457,4.77H1.313A1.313,1.313,0,0,1,0,3.457V1.314A1.314,1.314,0,0,1,1.314,0Z" transform="translate(35.302 19.958)" fill="#fff"/>
      <path id="Rectángulo_2820" data-name="Rectángulo 2820" d="M1.313,0H3.457A1.314,1.314,0,0,1,4.77,1.314V3.457A1.313,1.313,0,0,1,3.457,4.77H1.314A1.314,1.314,0,0,1,0,3.457V1.313A1.313,1.313,0,0,1,1.313,0Z" transform="translate(44.127 19.958)" fill="#a6cae4"/>
    </g>
    <path id="Trazado_16383" data-name="Trazado 16383" d="M147.087,192.989h0a6.557,6.557,0,0,1,9.248,0l.628.628.628-.628a6.558,6.558,0,0,1,9.249,0h0a6.558,6.558,0,0,1,0,9.249l-.628.628-9.249,9.249-9.249-9.249-.628-.628A6.558,6.558,0,0,1,147.087,192.989Z" transform="translate(-16.497 -19.632)" fill="#fff" fill-rule="evenodd"/>
    <g id="Grupo_12347" data-name="Grupo 12347" transform="translate(93.959 279.509)">
      <g id="Grupo_12345" data-name="Grupo 12345">
        <g id="Grupo_12342" data-name="Grupo 12342" transform="translate(12.957)">
          <path id="Trazado_16384" data-name="Trazado 16384" d="M130.667,321.166c-6.783-6.906-11.829,1.867-11.124,10.674.667,8.349,7.865,37,6.531,49.051h2.755C135.57,365.436,139.35,330.008,130.667,321.166Z" transform="translate(-119.476 -318.681)" fill="#63a9ba" fill-rule="evenodd"/>
          <path id="Trazado_16385" data-name="Trazado 16385" d="M128.863,381.572c6.562-24.36-1.745-58.033-1.773-58.148a.39.39,0,0,0-.757.184c.028.114,8.345,33.826,1.734,57.964Z" transform="translate(-120.525 -319.362)" fill="#80b9c9" fill-rule="evenodd"/>
        </g>
        <g id="Grupo_12343" data-name="Grupo 12343" transform="translate(0 16.753)">
          <path id="Trazado_16386" data-name="Trazado 16386" d="M111.589,339.417c-7.148-3.787-8.951,4.476-6.163,11.312,2.309,5.666,12.512,22.424,16.37,33.191h3.633C125.737,369.04,120.027,343.886,111.589,339.417Z" transform="translate(-104.176 -338.463)" fill="#fff" fill-rule="evenodd"/>
          <path id="Trazado_16387" data-name="Trazado 16387" d="M124.738,384.5c-2.364-20.125-15.748-42-15.8-42.079a.325.325,0,1,0-.556.338c.047.079,13.346,21.812,15.707,41.741Z" transform="translate(-104.814 -339.046)" fill="#b8b8c1" fill-rule="evenodd"/>
        </g>
        <g id="Grupo_12344" data-name="Grupo 12344" transform="translate(22.163 26.585)">
          <path id="Trazado_16388" data-name="Trazado 16388" d="M145.808,350.746c6.928-3.026,8.026,4.8,4.948,10.976-2.082,4.178-9.587,14.876-14.641,23.977h-5.768C132.319,371.931,138.647,353.874,145.808,350.746Z" transform="translate(-130.347 -350.074)" fill="#3a7f80" fill-rule="evenodd"/>
          <path id="Trazado_16389" data-name="Trazado 16389" d="M132.779,386.247c4.919-16.68,16.246-32.4,16.292-32.461a.3.3,0,0,1,.5.354c-.046.063-11.254,15.617-16.161,32.107Z" transform="translate(-130.719 -350.623)" fill="#51a5a5" fill-rule="evenodd"/>
        </g>
      </g>
      <g id="Grupo_12346" data-name="Grupo 12346" transform="translate(8.788 55.712)">
        <path id="Rectángulo_2821" data-name="Rectángulo 2821" d="M1.538,0H25.02a1.538,1.538,0,0,1,1.538,1.538V6.98a1.539,1.539,0,0,1-1.539,1.539H1.538A1.538,1.538,0,0,1,0,6.981V1.538A1.538,1.538,0,0,1,1.538,0Z" fill="#2f365c"/>
        <path id="Trazado_16390" data-name="Trazado 16390" d="M120.2,390.147h15.736l4.109,3.708-3.356,12.928h-17.24l-3.356-12.928Z" transform="translate(-114.789 -385.337)" fill="#2f365c" fill-rule="evenodd"/>
        <path id="Trazado_16391" data-name="Trazado 16391" d="M140.044,394.525l-.69,2.657H116.781l-.69-2.657Z" transform="translate(-114.789 -386.007)" fill="#121c39" fill-rule="evenodd"/>
      </g>
    </g>
    <circle id="Elipse_641" data-name="Elipse 641" cx="2.226" cy="2.226" r="2.226" transform="translate(239.717 93.656)" fill="#a6cae4"/>
    <circle id="Elipse_642" data-name="Elipse 642" cx="2.226" cy="2.226" r="2.226" transform="translate(275.974 221.192)" fill="#a6cae4"/>
    <circle id="Elipse_643" data-name="Elipse 643" cx="2.226" cy="2.226" r="2.226" transform="translate(321.137 314.062)" fill="#a6cae4"/>
    <circle id="Elipse_644" data-name="Elipse 644" cx="2.226" cy="2.226" r="2.226" transform="translate(61.611 296.252)" fill="#a6cae4"/>
    <path id="Trazado_16392" data-name="Trazado 16392" d="M383.672,183.668a2.226,2.226,0,1,0-2.226-2.226A2.231,2.231,0,0,0,383.672,183.668Z" transform="translate(-52.677 -17.815)" fill="#a6cae4" fill-rule="evenodd"/>
    <circle id="Elipse_645" data-name="Elipse 645" cx="2.226" cy="2.226" r="2.226" transform="translate(128.401 146.77)" fill="#a6cae4"/>
    <circle id="Elipse_646" data-name="Elipse 646" cx="2.226" cy="2.226" r="2.226" transform="translate(122.994 274.624)" fill="#fff"/>
    <circle id="Elipse_647" data-name="Elipse 647" cx="2.226" cy="2.226" r="2.226" transform="translate(335.767 263.493)" fill="#fff"/>
    <path id="Trazado_16393" data-name="Trazado 16393" d="M339.358,193.056a2.226,2.226,0,1,0-2.227-2.226A2.231,2.231,0,0,0,339.358,193.056Z" transform="translate(-45.891 -19.253)" fill="#fff" fill-rule="evenodd"/>
    <circle id="Elipse_648" data-name="Elipse 648" cx="2.226" cy="2.226" r="2.226" transform="translate(273.112 86.977)" fill="#fff"/>
    <circle id="Elipse_649" data-name="Elipse 649" cx="2.226" cy="2.226" r="2.226" transform="translate(362.801 142.953)" fill="#fff"/>
    <g id="Grupo_12348" data-name="Grupo 12348" transform="translate(302.02 309.707)">
      <path id="Trazado_16394" data-name="Trazado 16394" d="M380.99,384.49a7.278,7.278,0,1,1-5.147,2.132,7.259,7.259,0,0,1,5.147-2.132Zm3.138,4.141a4.439,4.439,0,1,0,1.3,3.138A4.428,4.428,0,0,0,384.128,388.631Z" transform="translate(-353.513 -358.956)" fill="#a62a34" fill-rule="evenodd"/>
      <path id="Trazado_16395" data-name="Trazado 16395" d="M366.557,405.518h0A11.448,11.448,0,0,0,377.974,394.1V382.2a1.012,1.012,0,0,0-1.011-1.009h-20.81a1.012,1.012,0,0,0-1.01,1.009v11.9A11.448,11.448,0,0,0,366.557,405.518Z" transform="translate(-350.669 -358.451)" fill="#d84f50" fill-rule="evenodd"/>
      <path id="Trazado_16396" data-name="Trazado 16396" d="M375.083,392.675a11.323,11.323,0,0,1-.551,3.5,11.2,11.2,0,0,1-.76,1.8,11.524,11.524,0,0,1-5.741,5.249,11.383,11.383,0,0,1-6.235.717,11.357,11.357,0,0,0,12.63-.717,11.553,11.553,0,0,0,3.07-3.486,11.321,11.321,0,0,0,1.5-5.633V382.2a1.012,1.012,0,0,0-1.011-1.009h-2.9v11.481Z" transform="translate(-351.688 -358.451)" fill="#a62a34" fill-rule="evenodd"/>
      <path id="Trazado_16397" data-name="Trazado 16397" d="M356.663,409.365h19.789a1.526,1.526,0,0,0,1.522-1.522h0a1.526,1.526,0,0,0-1.522-1.523H356.663a1.526,1.526,0,0,0-1.521,1.523h0A1.526,1.526,0,0,0,356.663,409.365Z" transform="translate(-350.669 -362.299)" fill="#d84f50" fill-rule="evenodd"/>
      <path id="Rectángulo_2822" data-name="Rectángulo 2822" d="M1.923,0h0A1.923,1.923,0,0,1,3.846,1.923V8.81a1.923,1.923,0,0,1-1.923,1.923h0A1.923,1.923,0,0,1,0,8.81V1.923A1.923,1.923,0,0,1,1.923,0Z" transform="translate(6.206 24.912)" fill="#de7272"/>
      <path id="Trazado_16398" data-name="Trazado 16398" d="M356,363.006h8.7a1.2,1.2,0,0,0,1.2-1.2h0a1.2,1.2,0,0,0-1.2-1.2H352.994a3.144,3.144,0,0,1-3.134-3.134h0a3.143,3.143,0,0,1,3.134-3.133h30.443a3.143,3.143,0,0,1,3.133,3.133h0a3.143,3.143,0,0,1-3.133,3.134H372.819a1.2,1.2,0,0,0-1.2,1.2h0a1.2,1.2,0,0,0,1.2,1.2H376.9a2.426,2.426,0,0,1,2.419,2.419h0a2.425,2.425,0,0,1-2.419,2.418h-6.757a4.823,4.823,0,0,0-4.808,4.809v2.2a1.138,1.138,0,0,1-1.136,1.135h0a1.138,1.138,0,0,1-1.136-1.135v-4.194a2.827,2.827,0,0,0-2.818-2.819H356a2.425,2.425,0,0,1-2.418-2.418h0A2.425,2.425,0,0,1,356,363.006Z" transform="translate(-349.86 -354.339)" fill="#fff" fill-rule="evenodd"/>
    </g>
  </g>
</svg>
