<svg xmlns="http://www.w3.org/2000/svg" width="285" height="211.347" viewBox="0 0 285 211.347">
  <g id="Grupo_13490" data-name="Grupo 13490" transform="translate(-1290.433 259.592)">
    <ellipse id="Elipse_651" data-name="Elipse 651" cx="132.799" cy="14.452" rx="132.799" ry="14.452" transform="translate(1309.834 -77.149)" fill="#d6d0d0"/>
    <g id="Grupo_12492" data-name="Grupo 12492" transform="translate(1370.968 -253.769)">
      <path id="Trazado_16800" data-name="Trazado 16800" d="M1517.121-238.443l-133.188-.932a.559.559,0,0,0-.562.554l-1.22,174.454a.558.558,0,0,0,.554.562l133,.93a.558.558,0,0,0,.562-.554l1.221-174.641A.37.37,0,0,0,1517.121-238.443Z" transform="translate(-1382.151 251.304)" fill="#333"/>
      <rect id="Rectángulo_2895" data-name="Rectángulo 2895" width="125.26" height="165.799" transform="translate(5.04 16.522)" fill="#fff"/>
      <path id="Trazado_16801" data-name="Trazado 16801" d="M1483.2-243l-19.972-.14c.026-.268.045-.538.047-.813a8.94,8.94,0,0,0-8.878-9,8.941,8.941,0,0,0-9,8.878c0,.275.013.545.035.813l-19.971-.14a6.894,6.894,0,0,0-6.941,6.845l-.066,9.4a1.594,1.594,0,0,0,1.582,1.6l68.342.478a1.593,1.593,0,0,0,1.6-1.581l.066-9.4A6.893,6.893,0,0,0,1483.2-243Zm-28.905,4.675a5.69,5.69,0,0,1-5.65-5.729,5.69,5.69,0,0,1,5.729-5.65,5.691,5.691,0,0,1,5.65,5.73A5.69,5.69,0,0,1,1454.294-238.33Z" transform="translate(-1386.577 252.96)" fill="#b3b3b3"/>
      <g id="Grupo_12491" data-name="Grupo 12491" transform="translate(11.327 34.286)">
        <rect id="Rectángulo_2896" data-name="Rectángulo 2896" width="53.748" height="1.366" rx="0.265" transform="translate(0.303)" fill="#a2acc2"/>
        <rect id="Rectángulo_2897" data-name="Rectángulo 2897" width="53.748" height="1.366" rx="0.265" transform="translate(0.303 10.021)" fill="#a2acc2"/>
        <rect id="Rectángulo_2898" data-name="Rectángulo 2898" width="53.748" height="1.367" rx="0.265" transform="translate(21.711 50.104)" fill="#a2acc2"/>
        <rect id="Rectángulo_2899" data-name="Rectángulo 2899" width="53.748" height="1.367" rx="0.265" transform="translate(21.711 61.036)" fill="#a2acc2"/>
        <rect id="Rectángulo_2900" data-name="Rectángulo 2900" width="74.245" height="1.367" rx="0.265" transform="translate(21.711 55.57)" fill="#a2acc2"/>
        <rect id="Rectángulo_2901" data-name="Rectángulo 2901" width="27.785" height="1.367" rx="0.265" transform="translate(78.192 50.104)" fill="#a2acc2"/>
        <rect id="Rectángulo_2902" data-name="Rectángulo 2902" width="53.748" height="1.366" rx="0.265" transform="translate(0.303 37.35)" fill="#a2acc2"/>
        <rect id="Rectángulo_2903" data-name="Rectángulo 2903" width="53.748" height="1.366" rx="0.265" transform="translate(56.329 10.021)" fill="#a2acc2"/>
        <rect id="Rectángulo_2904" data-name="Rectángulo 2904" width="109.773" height="1.366" rx="0.265" transform="translate(0.303 16.853)" fill="#a2acc2"/>
        <rect id="Rectángulo_2905" data-name="Rectángulo 2905" width="109.773" height="1.366" rx="0.265" transform="translate(0.303 24.597)" fill="#a2acc2"/>
        <rect id="Rectángulo_2906" data-name="Rectángulo 2906" width="109.773" height="1.366" rx="0.265" transform="translate(0.303 30.973)" fill="#a2acc2"/>
        <path id="Trazado_16802" data-name="Trazado 16802" d="M1410.842-143.7h-15.487a.3.3,0,0,1-.3-.3v-15.487a.3.3,0,0,1,.3-.3h15.487a.3.3,0,0,1,.3.3V-144A.3.3,0,0,1,1410.842-143.7Zm-15.184-.606h14.88v-14.881h-14.88Z" transform="translate(-1395.051 207.315)" fill="#a2acc2"/>
        <path id="Trazado_16803" data-name="Trazado 16803" d="M1402.351-146.464h-.024a.4.4,0,0,1-.357-.271,27.342,27.342,0,0,0-4.328-7.927.406.406,0,0,1,.069-.568.406.406,0,0,1,.568.069,28.21,28.21,0,0,1,4.131,7.275,42.518,42.518,0,0,1,11.677-14.009.4.4,0,0,1,.567.071.4.4,0,0,1-.071.566,41.656,41.656,0,0,0-11.868,14.567A.4.4,0,0,1,1402.351-146.464Z" transform="translate(-1395.356 207.582)" fill="#e25f4b"/>
        <rect id="Rectángulo_2907" data-name="Rectángulo 2907" width="53.748" height="1.367" rx="0.265" transform="translate(21.711 84.721)" fill="#a2acc2"/>
        <rect id="Rectángulo_2908" data-name="Rectángulo 2908" width="74.245" height="1.367" rx="0.265" transform="translate(21.711 79.256)" fill="#a2acc2"/>
        <path id="Trazado_16804" data-name="Trazado 16804" d="M1410.842-112.574h-15.487a.3.3,0,0,1-.3-.3v-15.488a.3.3,0,0,1,.3-.3h15.487a.3.3,0,0,1,.3.3v15.488A.3.3,0,0,1,1410.842-112.574Zm-15.184-.607h14.88v-14.88h-14.88Z" transform="translate(-1395.051 203.52)" fill="#a2acc2"/>
        <path id="Trazado_16805" data-name="Trazado 16805" d="M1402.351-115.34h-.024a.4.4,0,0,1-.357-.271,27.342,27.342,0,0,0-4.328-7.927.4.4,0,0,1,.069-.567.4.4,0,0,1,.568.069,28.2,28.2,0,0,1,4.131,7.274,42.53,42.53,0,0,1,11.677-14.009.4.4,0,0,1,.567.071.4.4,0,0,1-.071.567,41.645,41.645,0,0,0-11.868,14.566A.4.4,0,0,1,1402.351-115.34Z" transform="translate(-1395.356 203.787)" fill="#e25f4b"/>
        <rect id="Rectángulo_2909" data-name="Rectángulo 2909" width="53.748" height="1.366" rx="0.265" transform="translate(21.711 102.941)" fill="#a2acc2"/>
        <rect id="Rectángulo_2910" data-name="Rectángulo 2910" width="74.245" height="1.367" rx="0.265" transform="translate(21.711 108.407)" fill="#a2acc2"/>
        <path id="Trazado_16806" data-name="Trazado 16806" d="M1410.842-83.525h-15.487a.3.3,0,0,1-.3-.3V-99.314a.3.3,0,0,1,.3-.3h15.487a.3.3,0,0,1,.3.3v15.487A.3.3,0,0,1,1410.842-83.525Zm-15.184-.607h14.88v-14.88h-14.88Z" transform="translate(-1395.051 199.978)" fill="#a2acc2"/>
        <path id="Trazado_16807" data-name="Trazado 16807" d="M1402.351-86.291h-.024a.405.405,0,0,1-.357-.272,27.354,27.354,0,0,0-4.328-7.927.4.4,0,0,1,.069-.567.4.4,0,0,1,.568.069,28.227,28.227,0,0,1,4.131,7.274,42.535,42.535,0,0,1,11.677-14.009.4.4,0,0,1,.567.071.4.4,0,0,1-.071.567,41.653,41.653,0,0,0-11.868,14.566A.4.4,0,0,1,1402.351-86.291Z" transform="translate(-1395.356 200.245)" fill="#e25f4b"/>
        <rect id="Rectángulo_2911" data-name="Rectángulo 2911" width="53.748" height="1.366" rx="0.265" transform="translate(21.711 127.538)" fill="#a2acc2"/>
        <rect id="Rectángulo_2912" data-name="Rectángulo 2912" width="53.748" height="1.367" rx="0.265" transform="translate(21.711 138.469)" fill="#a2acc2"/>
        <rect id="Rectángulo_2913" data-name="Rectángulo 2913" width="74.245" height="1.366" rx="0.265" transform="translate(21.711 133.004)" fill="#a2acc2"/>
        <path id="Trazado_16808" data-name="Trazado 16808" d="M1410.842-55.513h-15.487a.3.3,0,0,1-.3-.3V-71.3a.3.3,0,0,1,.3-.3h15.487a.3.3,0,0,1,.3.3v15.488A.3.3,0,0,1,1410.842-55.513Zm-15.184-.607h14.88V-71h-14.88Z" transform="translate(-1395.051 196.563)" fill="#a2acc2"/>
        <path id="Trazado_16809" data-name="Trazado 16809" d="M1402.351-58.279h-.024a.4.4,0,0,1-.357-.271,27.342,27.342,0,0,0-4.328-7.927.4.4,0,0,1,.069-.567.4.4,0,0,1,.568.069,28.212,28.212,0,0,1,4.131,7.274,42.538,42.538,0,0,1,11.677-14.009.4.4,0,0,1,.567.071.4.4,0,0,1-.071.567,41.645,41.645,0,0,0-11.868,14.566A.4.4,0,0,1,1402.351-58.279Z" transform="translate(-1395.356 196.83)" fill="#e25f4b"/>
      </g>
      <path id="Trazado_16810" data-name="Trazado 16810" d="M1490.272-225.583h-33.707a.3.3,0,0,1-.3-.3.3.3,0,0,1,.3-.3h33.707a.3.3,0,0,1,.3.3A.3.3,0,0,1,1490.272-225.583Z" transform="translate(-1391.187 249.696)" fill="#fff"/>
    </g>
    <g id="Grupo_12494" data-name="Grupo 12494" transform="translate(1290.432 -259.592)">
      <path id="Trazado_16811" data-name="Trazado 16811" d="M1394.309-172.922l-.8-1.378a1.722,1.722,0,0,0-2.346-.623L1291.286-117a1.722,1.722,0,0,0-.624,2.347l.8,1.377a1.722,1.722,0,0,0,2.346.624l99.878-57.921A1.721,1.721,0,0,0,1394.309-172.922Z" transform="translate(-1290.432 249.297)" fill="#333"/>
      <path id="Trazado_16812" data-name="Trazado 16812" d="M1365.221-48.181a13.872,13.872,0,0,0-1.377,6.1c.2,2.95,1.77,6.884.59,7.671s-7.082.393-7.082.393v-2.164c0-2.557,1.377-3.54,1.377-7.672s.59-10.425.59-10.425Z" transform="translate(-1298.592 234.559)" fill="#ffa08b"/>
      <path id="Trazado_16813" data-name="Trazado 16813" d="M1328.256-52.076c-.393.983-4.327,5.311-3.934,6.1s1.377,5.311,1.967,5.9,3.54,2.36,3.147,3.54-5.311.393-7.081,0-3.344-2.36-4.525-4.13-4.524-1.377,0-5.9a21.552,21.552,0,0,0,5.508-10.622Z" transform="translate(-1293.493 234.914)" fill="#ffa08b"/>
      <path id="Trazado_16814" data-name="Trazado 16814" d="M1364.508-32.3c1.018-.661.04-3.547-.419-6.2a16.437,16.437,0,0,1-5.786-.051c-.419,1.746-1.062,2.755-1.062,4.483V-31.9S1363.3-31.51,1364.508-32.3Z" transform="translate(-1298.578 232.642)" fill="#e45f4d"/>
      <path id="Trazado_16815" data-name="Trazado 16815" d="M1329.436-35.239c.34-1.019-1.815-2.479-2.789-3.238h0c-3.182.5-3.505-4.433-4.882-5.614-.859-.736-2.023-1.777-2.778-2.458-.357.436-.742.863-1.156,1.278-4.524,4.525-1.18,4.131,0,5.9s2.755,3.737,4.525,4.13S1329.043-34.059,1329.436-35.239Z" transform="translate(-1293.493 233.617)" fill="#e45f4d"/>
      <path id="Trazado_16816" data-name="Trazado 16816" d="M1352.179-133.132a40.641,40.641,0,0,1-1.77,4.328,22.48,22.48,0,0,0,17.113.59l-.787-4.918Z" transform="translate(-1297.745 244.173)" fill="#ffa08b"/>
      <path id="Trazado_16817" data-name="Trazado 16817" d="M1343.729-140.092s-2.557,5.311-2.557,5.7-.393.787-1.377,1.77-10.229,6.688-11.212,7.475a17.93,17.93,0,0,0-1.967,1.967c-.393.393-2.754,4.13-3.147,3.934s-.2-.59-.983-.393-.787.393-1.77.2a4.213,4.213,0,0,0-1.18-.2,20.391,20.391,0,0,1-2.558-.787l-1.967-.983s-.2-.787.59-.59,2.754.59,2.95.59a12.355,12.355,0,0,0,2.361-2.164c0-.2-2.558.393-3.344-.393s.983-.393,1.77-.787a31.816,31.816,0,0,1,6.1-1.967c1.573-.2,8.065-8.655,11.409-11.212l1.573-5.507Z" transform="translate(-1293.426 245.43)" fill="#ffa08b"/>
      <path id="Trazado_16818" data-name="Trazado 16818" d="M1341.883-133.094a3.272,3.272,0,0,1-.463-.033.1.1,0,0,1-.086-.114.1.1,0,0,1,.114-.086,3.2,3.2,0,0,0,2.283-.569.1.1,0,0,1,.142.016.1.1,0,0,1-.016.142A3.372,3.372,0,0,1,1341.883-133.094Z" transform="translate(-1296.638 244.269)" fill="#c77968"/>
      <path id="Trazado_16819" data-name="Trazado 16819" d="M1372.361-146.877c-.2.2,4.13,7.475,5.9,8.655a3.719,3.719,0,0,0,4.13,0c.393-.393,2.557-3.934,3.737-17.9,0,0,0-1.18.787-1.574s2.557-1.771,2.754-3.148,1.574-4.13.984-4.327-1.181.59-1.378,1.18a10.936,10.936,0,0,1-.787,1.574,19.67,19.67,0,0,0-2.754,1.967c-.787.787-2.164,1.968-2.557,3.345s-3.934,10.228-3.934,9.834a10.322,10.322,0,0,0-1.378-2.164Z" transform="translate(-1300.421 248.083)" fill="#ffa08b"/>
      <path id="Trazado_16820" data-name="Trazado 16820" d="M1382.758-142.152a.1.1,0,0,1-.084-.046c-.384-.574-2.439-2.633-2.46-2.654a.1.1,0,0,1,0-.143.1.1,0,0,1,.143,0c.085.085,2.091,2.094,2.485,2.686a.1.1,0,0,1-.027.14A.1.1,0,0,1,1382.758-142.152Z" transform="translate(-1301.375 245.624)" fill="#c77968"/>
      <path id="Trazado_16821" data-name="Trazado 16821" d="M1362.064-160.4s5.7-.787,6.688,0,3.344,5.7,4.525,8.262,1.967,3.934,1.967,3.934a5.454,5.454,0,0,1-2.951,3.148,5.331,5.331,0,0,0-2.754,1.77l-2.262-3.246s-.984,6.295-.984,7.278.393,4.524.393,4.524a10.969,10.969,0,0,1-6.295,1.968c-3.344-.2-5.7-1.968-9.048-1.378s-.59-.59-1.377-3.737-1.574-6.687-1.574-6.687-1.181,2.95-1.574,3.54-.59,0-2.95-1.377a21.823,21.823,0,0,0-3.54-1.77s2.754-11.409,4.13-12.786,4.722-2.361,7.475-2.361S1362.064-160.4,1362.064-160.4Z" transform="translate(-1296.516 247.541)" fill="#f2c0c0"/>
      <path id="Trazado_16822" data-name="Trazado 16822" d="M1346.837-128.561s9.769,2.637,16.8,0c0,0,3.292,9.362,3.489,12.312a76.213,76.213,0,0,1-.393,10.425c-.2.983.59,2.164.393,2.557s-3.344,21.638-2.95,22.818,1.967,1.77,1.573,2.95a5.543,5.543,0,0,1-1.18,1.968s-.59,12.589-2.95,19.473c0,0-1.573,1.77-9.245,0,0,0,1.573-17.113,1.18-18.49s.2-8.655.393-9.442-.984-22.424-.984-22.424a65.468,65.468,0,0,1-4.13,7.278c-2.36,3.54-6.688,14.556-7.082,16.916s-12,22.424-12,22.424-7.671.2-10.032-4.328a7.168,7.168,0,0,0,1.771-2.36c.59-1.377,7.671-19.866,8.064-20.26s1.574-.59,1.574-.787-.984-1.18-.59-1.77,2.951-2.558,2.754-3.148a18.266,18.266,0,0,1,.788-4.721c.2-.393,7.671-20.261,8.851-23.211S1346.837-128.561,1346.837-128.561Z" transform="translate(-1294.003 243.616)" fill="#627595"/>
      <path id="Trazado_16823" data-name="Trazado 16823" d="M1369.24-69.359a.1.1,0,0,1-.046-.011c-.444-.223-6.076-2.743-7.823-2.743a.1.1,0,0,1-.1-.1.1.1,0,0,1,.1-.1c1.781,0,7.466,2.541,7.913,2.765a.1.1,0,0,1,.046.135A.1.1,0,0,1,1369.24-69.359Z" transform="translate(-1299.069 236.758)" fill="#282233"/>
      <path id="Trazado_16824" data-name="Trazado 16824" d="M1369.235-72.52A10.373,10.373,0,0,1,1362.2-75.5a.1.1,0,0,1,0-.142.1.1,0,0,1,.143,0,10.126,10.126,0,0,0,7,2.921.1.1,0,0,1,.106.1.1.1,0,0,1-.1.105S1369.308-72.52,1369.235-72.52Z" transform="translate(-1299.179 237.168)" fill="#282233"/>
      <path id="Trazado_16825" data-name="Trazado 16825" d="M1341.571-78.74a.1.1,0,0,1-.054-.016,23.5,23.5,0,0,0-7.045-2.543.1.1,0,0,1-.082-.118.1.1,0,0,1,.118-.082,23.721,23.721,0,0,1,7.118,2.572.1.1,0,0,1,.031.14A.1.1,0,0,1,1341.571-78.74Z" transform="translate(-1295.792 237.878)" fill="#282233"/>
      <path id="Trazado_16826" data-name="Trazado 16826" d="M1340.282-82.441c-1.872,0-4.36-.2-5.845-1.111a.1.1,0,0,1-.033-.14.1.1,0,0,1,.14-.032c2.5,1.537,8.142.974,8.2.969a.1.1,0,0,1,.111.09.1.1,0,0,1-.09.111C1342.663-82.544,1341.633-82.441,1340.282-82.441Z" transform="translate(-1295.792 238.151)" fill="#282233"/>
      <path id="Trazado_16827" data-name="Trazado 16827" d="M1360.591-103.176a29.334,29.334,0,0,1-4.71-.4c-.375-.015-9.491-.416-12.044-2.38a.1.1,0,0,1-.018-.141.1.1,0,0,1,.141-.018c2.5,1.925,11.848,2.336,11.942,2.339,8.333,1.357,11.9-1.135,11.935-1.161a.1.1,0,0,1,.141.023.1.1,0,0,1-.023.14C1367.927-104.757,1365.663-103.176,1360.591-103.176Z" transform="translate(-1296.939 240.883)" fill="#282233"/>
      <path id="Trazado_16828" data-name="Trazado 16828" d="M1360.426-124.472a41.929,41.929,0,0,1-11.059-1.673.1.1,0,0,1-.066-.127.1.1,0,0,1,.127-.066c.113.036,11.349,3.526,18.568.293a.1.1,0,0,1,.134.051.1.1,0,0,1-.051.133A18.961,18.961,0,0,1,1360.426-124.472Z" transform="translate(-1297.609 243.346)" fill="#282233"/>
      <path id="Trazado_16829" data-name="Trazado 16829" d="M1357.563-106.165a.1.1,0,0,1-.047-.011.1.1,0,0,1-.043-.136c1.942-3.689,1.956-11.348,1.761-12.526s.463-8.131.491-8.427a.1.1,0,0,1,.11-.09.1.1,0,0,1,.091.11c-.007.072-.685,7.22-.493,8.374.2,1.189.182,8.924-1.781,12.653A.1.1,0,0,1,1357.563-106.165Z" transform="translate(-1298.605 243.469)" fill="#282233"/>
      <path id="Trazado_16830" data-name="Trazado 16830" d="M1343.038-108.94c-.751,0-1.281-.015-1.354-.018a.1.1,0,0,1-.1-.1.1.1,0,0,1,.1-.1c.064,0,6.433.187,7.374-.754.868-.868,2.558-6.242,2.874-7.266a4.831,4.831,0,0,1-1.638-.038,24.092,24.092,0,0,1-4.559-2.177.1.1,0,0,1-.036-.138.1.1,0,0,1,.139-.036,24.7,24.7,0,0,0,4.489,2.151,4.035,4.035,0,0,0,1.722,0,.1.1,0,0,1,.1.024.1.1,0,0,1,.026.1c-.081.267-1.986,6.528-2.976,7.517C1348.482-109.045,1345-108.94,1343.038-108.94Z" transform="translate(-1296.669 242.521)" fill="#282233"/>
      <path id="Trazado_16831" data-name="Trazado 16831" d="M1371.338-107.944h-.016c-.2-.032-4.957-.8-5.563-1.406s-1.677-7.882-1.8-8.711a.1.1,0,0,1,.026-.083.1.1,0,0,1,.081-.032,26.408,26.408,0,0,0,7.534-1.176.1.1,0,0,1,.127.067.1.1,0,0,1-.066.126,26.965,26.965,0,0,1-7.483,1.192c.476,3.23,1.314,8.065,1.724,8.476.46.459,4.013,1.116,5.406,1.341l1.087-.939a.1.1,0,0,1,.142.011.1.1,0,0,1-.011.142l-1.123.969A.1.1,0,0,1,1371.338-107.944Z" transform="translate(-1299.397 242.494)" fill="#282233"/>
      <path id="Trazado_16832" data-name="Trazado 16832" d="M1349.362-142.611a.1.1,0,0,1-.1-.068l-.983-2.754a.1.1,0,0,1,.062-.129.1.1,0,0,1,.129.061l.984,2.754a.1.1,0,0,1-.062.129A.117.117,0,0,1,1349.362-142.611Z" transform="translate(-1297.485 245.69)" fill="#b26b6b"/>
      <path id="Trazado_16833" data-name="Trazado 16833" d="M1362.387-131.318a.1.1,0,0,1-.1-.07,54.14,54.14,0,0,1-1.775-6.905c-.195-1.945-.587-6.447-.59-6.492a.1.1,0,0,1,.091-.109.1.1,0,0,1,.11.092c0,.045.4,4.545.59,6.489a54.082,54.082,0,0,0,1.766,6.864.1.1,0,0,1-.066.127A.09.09,0,0,1,1362.387-131.318Z" transform="translate(-1298.905 245.608)" fill="#b26b6b"/>
      <path id="Trazado_16834" data-name="Trazado 16834" d="M1356.891-137.377a.1.1,0,0,1-.071-.03.1.1,0,0,1,0-.14c.154-.242.37-3.6-.026-10.154a.1.1,0,0,1,.095-.107.1.1,0,0,1,.107.095c.378,6.24.222,10.054-.03,10.306A.1.1,0,0,1,1356.891-137.377Z" transform="translate(-1298.523 245.963)" fill="#b26b6b"/>
      <path id="Trazado_16835" data-name="Trazado 16835" d="M1377.855-147.393a.1.1,0,0,1-.047-.011c-.2-.1-4.965-2.605-5.559-4.982a.1.1,0,0,1,.074-.123.1.1,0,0,1,.123.074c.572,2.289,5.407,4.827,5.456,4.852a.1.1,0,0,1,.042.136A.1.1,0,0,1,1377.855-147.393Z" transform="translate(-1300.407 246.536)" fill="#b26b6b"/>
      <path id="Trazado_16836" data-name="Trazado 16836" d="M1370.813-145.048a.1.1,0,0,1-.089-.054l-1.378-2.557a.1.1,0,0,1,.041-.137.1.1,0,0,1,.137.041l1.377,2.557a.1.1,0,0,1-.04.137A.11.11,0,0,1,1370.813-145.048Z" transform="translate(-1300.052 245.963)" fill="#b26b6b"/>
      <path id="Trazado_16837" data-name="Trazado 16837" d="M1364.407-181.953a8,8,0,0,1,.555,4.094,13.648,13.648,0,0,0,.105,4.162,14.619,14.619,0,0,1,.925,3.344c.015,1.645-1.206,3.069-1.383,4.7a14.224,14.224,0,0,0,.61,3.853c.221,1.287,0,2.853-1.147,3.486a8.8,8.8,0,0,0-1.245.59c-1.49,1.165.408,4.059-1,5.32-.748.669-1.948.358-2.791-.188a8.05,8.05,0,0,0-2.583-1.5c-2-.4-4.18,1.649-5.916.583-.684-.42-1.064-1.236-1.776-1.608-1.028-.537-2.251.05-3.317.51s-2.523.7-3.2-.242a2.848,2.848,0,0,1-.306-1.9,8.242,8.242,0,0,1,1.292-4.655,18.489,18.489,0,0,1,2.422-2.08,3.128,3.128,0,0,0,1.265-2.779c-.114-.565-.476-1.059-.57-1.628-.274-1.653,1.646-2.733,2.495-4.178.858-1.462.574-3.288.7-4.979a8.785,8.785,0,0,1,3.667-6.563C1355.946-185.456,1362.682-185.365,1364.407-181.953Z" transform="translate(-1296.708 250.474)" fill="#88554b"/>
      <path id="Trazado_16838" data-name="Trazado 16838" d="M1355.636-156.085a.1.1,0,0,1-.09-.054c-.55-1.055.15-2.4,1.145-3.092a9.216,9.216,0,0,1,1.74-.874,11.445,11.445,0,0,0,1.374-.645,5.712,5.712,0,0,0,2.792-4.5c.016-.245.018-.5.018-.746a4.768,4.768,0,0,1,.248-1.846,4.89,4.89,0,0,1,.835-1.222,3.728,3.728,0,0,0,.88-1.417,3.744,3.744,0,0,0-.412-2.3,4.561,4.561,0,0,1-.479-2.211,4.429,4.429,0,0,1,.413-1.238c.057-.126.113-.254.166-.382a6.653,6.653,0,0,0-.689-6.208.1.1,0,0,1,.025-.141.1.1,0,0,1,.141.025,6.86,6.86,0,0,1,.71,6.4c-.053.13-.111.258-.169.387a4.3,4.3,0,0,0-.4,1.181,4.426,4.426,0,0,0,.467,2.111,3.952,3.952,0,0,1,.42,2.422,3.947,3.947,0,0,1-.921,1.5,4.7,4.7,0,0,0-.8,1.169,4.543,4.543,0,0,0-.234,1.769c0,.249,0,.508-.018.76a5.92,5.92,0,0,1-2.892,4.661,11.677,11.677,0,0,1-1.4.657,9.011,9.011,0,0,0-1.7.853,2.392,2.392,0,0,0-1.082,2.833.1.1,0,0,1-.043.136A.1.1,0,0,1,1355.636-156.085Z" transform="translate(-1298.348 250.251)" fill="#6b3a34"/>
      <path id="Trazado_16839" data-name="Trazado 16839" d="M1366.248-163.206a.1.1,0,0,1-.089-.054,5.169,5.169,0,0,1-.17-.707,7.066,7.066,0,0,1,.292-3.1,7.178,7.178,0,0,1,.587-1.06,4.338,4.338,0,0,0,.73-1.591,4.319,4.319,0,0,0-.628-2.487,7.369,7.369,0,0,1-.645-1.739,3.569,3.569,0,0,1,.632-2.735.1.1,0,0,1,.141-.021.1.1,0,0,1,.02.141,3.373,3.373,0,0,0-.6,2.578,7.278,7.278,0,0,0,.629,1.69,4.522,4.522,0,0,1,.645,2.605,4.542,4.542,0,0,1-.759,1.666,7.045,7.045,0,0,0-.571,1.03,6.91,6.91,0,0,0-.277,3.016,6.07,6.07,0,0,0,.149.629.1.1,0,0,1-.048.134A.113.113,0,0,1,1366.248-163.206Z" transform="translate(-1299.64 249.489)" fill="#6b3a34"/>
      <path id="Trazado_16840" data-name="Trazado 16840" d="M1362.265-152.827h-.017c-.237-.039-.369-.291-.353-.675a3.724,3.724,0,0,1,.582-2.136,4.127,4.127,0,0,1,1.282-1c.111-.065.22-.129.328-.195a2.2,2.2,0,0,0,1.183-1.4.1.1,0,0,1,.116-.083.1.1,0,0,1,.083.116,2.378,2.378,0,0,1-1.276,1.542c-.11.067-.221.132-.333.2a3.991,3.991,0,0,0-1.223.944,3.546,3.546,0,0,0-.54,2.023c0,.073-.009.436.183.467a.1.1,0,0,1,.083.116A.1.1,0,0,1,1362.265-152.827Z" transform="translate(-1299.145 247.244)" fill="#6b3a34"/>
      <path id="Trazado_16841" data-name="Trazado 16841" d="M1347.333-156.678h-.011a.1.1,0,0,1-.09-.111,7.263,7.263,0,0,1,2.354-4.385,17.219,17.219,0,0,1,4.2-2.746l.2-.1A8.684,8.684,0,0,0,1357-166.1c.969-1.2,1.308-2.941,1.008-5.171-.016-.117-.032-.234-.049-.354a4.7,4.7,0,0,1,.3-3.307,4.542,4.542,0,0,1,.741-.809,4.9,4.9,0,0,0,.656-.695c.875-1.216.446-2.88-.149-4.5a.1.1,0,0,1,.06-.13.1.1,0,0,1,.13.06c.615,1.669,1.055,3.392.124,4.685a4.989,4.989,0,0,1-.683.724,4.338,4.338,0,0,0-.709.773,4.55,4.55,0,0,0-.265,3.167q.026.179.05.356c.308,2.287-.046,4.079-1.051,5.325a8.826,8.826,0,0,1-3.074,2.126l-.2.1a17.058,17.058,0,0,0-4.156,2.712,7.06,7.06,0,0,0-2.293,4.26A.1.1,0,0,1,1347.333-156.678Z" transform="translate(-1297.358 250.017)" fill="#6b3a34"/>
      <path id="Trazado_16842" data-name="Trazado 16842" d="M1356.676-167.619a.1.1,0,0,1-.09-.055.1.1,0,0,1,.045-.135,2.451,2.451,0,0,0,1.14-2.1,8.608,8.608,0,0,0-.156-1.736c-.044-.276-.089-.561-.12-.843a3.587,3.587,0,0,1,.485-2.582c.053-.072.11-.143.168-.214a1.29,1.29,0,0,0,.37-.693.1.1,0,0,1,.107-.095.1.1,0,0,1,.095.107,1.46,1.46,0,0,1-.415.808c-.055.068-.111.137-.161.205a3.4,3.4,0,0,0-.447,2.44c.031.277.076.56.119.834a8.687,8.687,0,0,1,.158,1.777,2.645,2.645,0,0,1-1.25,2.272A.091.091,0,0,1,1356.676-167.619Z" transform="translate(-1298.497 249.409)" fill="#6b3a34"/>
      <path id="Trazado_16843" data-name="Trazado 16843" d="M1344.19-155.929a.1.1,0,0,1-.038-.007.1.1,0,0,1-.055-.132,13.92,13.92,0,0,1,3.982-5.236,39.454,39.454,0,0,1,5.454-3.72.1.1,0,0,1,.139.035.1.1,0,0,1-.034.139,39.187,39.187,0,0,0-5.427,3.7,13.73,13.73,0,0,0-3.927,5.159A.1.1,0,0,1,1344.19-155.929Z" transform="translate(-1296.974 248.063)" fill="#6b3a34"/>
      <path id="Trazado_16844" data-name="Trazado 16844" d="M1349.022-166.881a.1.1,0,0,1-.1-.1,4.109,4.109,0,0,1,1.349-2.826c.119-.127.24-.255.362-.381a6.349,6.349,0,0,0,1.507-2.062,6.352,6.352,0,0,0,.069-3.064c-.037-.263-.073-.527-.1-.788-.108-1.006-.1-2.819,1.186-3.655a.1.1,0,0,1,.141.03.1.1,0,0,1-.03.14c-1.193.778-1.2,2.5-1.1,3.464.028.259.064.521.1.782a6.5,6.5,0,0,1-.08,3.162,6.506,6.506,0,0,1-1.551,2.131c-.121.126-.241.252-.359.379a3.933,3.933,0,0,0-1.3,2.677.1.1,0,0,1-.095.106Z" transform="translate(-1297.563 249.86)" fill="#6b3a34"/>
      <g id="Grupo_12493" data-name="Grupo 12493" transform="translate(83.643)">
        <circle id="Elipse_652" data-name="Elipse 652" cx="41.603" cy="41.603" r="41.603" transform="translate(0 79.412) rotate(-72.633)" fill="#a2acc2" opacity="0.46"/>
        <path id="Trazado_16845" data-name="Trazado 16845" d="M1437.2-162.748a43.281,43.281,0,0,1-30.253-14.026,43.282,43.282,0,0,1-11.475-31.31,43.282,43.282,0,0,1,14.026-30.254,43.282,43.282,0,0,1,31.31-11.475,43.282,43.282,0,0,1,30.254,14.026,43.283,43.283,0,0,1,11.475,31.31,43.282,43.282,0,0,1-14.026,30.253A43.283,43.283,0,0,1,1437.2-162.748Zm3.445-83.134a39.681,39.681,0,0,0-41.242,37.961,39.68,39.68,0,0,0,37.961,41.242A39.681,39.681,0,0,0,1478.6-204.64,39.681,39.681,0,0,0,1440.642-245.882Z" transform="translate(-1386.878 258.404)" fill="#333"/>
      </g>
    </g>
    <g id="Grupo_12495" data-name="Grupo 12495" transform="translate(1519.392 -162.124)">
      <path id="Trazado_16846" data-name="Trazado 16846" d="M1599.1-39.824l2.218,3.351-1.174-3.787Z" transform="translate(-1557.026 135.382)" fill="#b3b3b3"/>
      <rect id="Rectángulo_2914" data-name="Rectángulo 2914" width="9.431" height="84.989" transform="translate(42.025 81.747) rotate(157.318)" fill="#e45f4d"/>
      <path id="Trazado_16847" data-name="Trazado 16847" d="M1597.763-40.989l1.74-.727.219-5.879a13.689,13.689,0,0,0-1.026-5.833l-1.9-4.552-8.7,3.636,1.9,4.552a13.7,13.7,0,0,0,3.43,4.829Z" transform="translate(-1555.684 137.542)" fill="#b3b3b3"/>
      <rect id="Rectángulo_2915" data-name="Rectángulo 2915" width="10.186" height="2.105" transform="translate(10.21 4.641) rotate(157.318)" fill="#b3b3b3"/>
      <path id="Trazado_16848" data-name="Trazado 16848" d="M1552.237-146.93l3.872-1.618a.542.542,0,0,1,.709.292l1.921,4.6-4.872,2.037-1.922-4.6A.543.543,0,0,1,1552.237-146.93Z" transform="translate(-1551.271 148.59)" fill="#b3b3b3"/>
      <path id="Trazado_16849" data-name="Trazado 16849" d="M1572.539-122.82a1.792,1.792,0,0,1-.364-.036,2.467,2.467,0,0,1-1.695-1.667,9.021,9.021,0,0,1-.32-4.049,16.72,16.72,0,0,0-1.113-8.185,13.245,13.245,0,0,0-6.938-7.246.507.507,0,0,1-.307-.645.506.506,0,0,1,.645-.307,14.079,14.079,0,0,1,7.532,7.81,17.6,17.6,0,0,1,1.189,8.637,8.23,8.23,0,0,0,.244,3.6c.263.63.586.99.96,1.067a1.844,1.844,0,0,0,1.369-.552.506.506,0,0,1,.714.01.505.505,0,0,1-.008.713A3.106,3.106,0,0,1,1572.539-122.82Z" transform="translate(-1552.475 148.15)" fill="#b3b3b3"/>
      <path id="Trazado_16850" data-name="Trazado 16850" d="M1553.555-142.276a.051.051,0,0,1-.047-.032.051.051,0,0,1,.027-.066l4.872-2.036a.05.05,0,0,1,.067.027.051.051,0,0,1-.027.066l-4.873,2.036A.048.048,0,0,1,1553.555-142.276Z" transform="translate(-1551.467 148.081)"/>
      <path id="Trazado_16851" data-name="Trazado 16851" d="M1589.568-50.756a.053.053,0,0,1-.041-.02.051.051,0,0,1,.011-.071,20.676,20.676,0,0,1,8.725-3.646.051.051,0,0,1,.056.044.05.05,0,0,1-.044.056,20.581,20.581,0,0,0-8.678,3.627A.047.047,0,0,1,1589.568-50.756Z" transform="translate(-1555.857 137.117)"/>
    </g>
    <g id="Grupo_12502" data-name="Grupo 12502" transform="translate(1465.474 -206.343)">
      <path id="Trazado_16852" data-name="Trazado 16852" d="M1549.635-137.625l-.58,2.542s-.006,1.132-.021,3.677.243,6.79-.322,6.787-1.39-4.251-1.39-4.251a30.712,30.712,0,0,0-.3,3.675c-.01,1.7-.577,1.977-.86,1.976s-.563-.569-.563-.569-.286.564-.569.562-.844-.853-.844-.853l-.544-3.68s.262,3.678-.3,3.676-.229-9.336.349-11.313a11.57,11.57,0,0,1,2-3.665Z" transform="translate(-1496.273 191.647)" fill="#ffa08b"/>
      <g id="Grupo_12496" data-name="Grupo 12496" transform="translate(12.955 130.234)">
        <path id="Trazado_16853" data-name="Trazado 16853" d="M1513.237-48.613s.428,4.781-.029,5.006,3.173,2.066,5.009-.426l.038-6.6Z" transform="translate(-1505.586 50.632)" fill="#ffa08b"/>
        <path id="Trazado_16854" data-name="Trazado 16854" d="M1512.365-44.444l-.242.34c-.861,1.211-3.77,5.3-4.548,6.458-.918,1.36-4.58,4.98-2.313,6.358s7.983-3.367,11.874-7.213c0,0,1.162-4.089.034-5.916C1517.17-44.417,1513.236-42.164,1512.365-44.444Z" transform="translate(-1504.533 49.878)" fill="#4d3932"/>
        <path id="Trazado_16855" data-name="Trazado 16855" d="M1511.736-37.275l-2.39-1.82a.1.1,0,0,1-.028-.127.1.1,0,0,1,.12-.049l2.389.765-1.793-1.578a.1.1,0,0,1-.021-.126.1.1,0,0,1,.119-.047l2.571.831-1.975-1.635a.1.1,0,0,1-.025-.126.1.1,0,0,1,.118-.048l2.985.9-2.271-1.723a.1.1,0,0,1-.029-.126.1.1,0,0,1,.119-.051l3.18.928-.057.194-2.655-.775,2.283,1.732a.1.1,0,0,1,.029.127.1.1,0,0,1-.119.05l-3.043-.921,1.994,1.651a.1.1,0,0,1,.024.126.1.1,0,0,1-.12.048l-2.608-.843,1.791,1.575a.1.1,0,0,1,.021.126.1.1,0,0,1-.119.046l-2.292-.733,1.923,1.465Z" transform="translate(-1505.115 49.608)" fill="#333"/>
      </g>
      <g id="Grupo_12497" data-name="Grupo 12497" transform="translate(0 117.048)">
        <path id="Trazado_16856" data-name="Trazado 16856" d="M1500.79-61.019a11.522,11.522,0,0,0-3.536,2.681l-2.353-4.6,5.3-2.715,1.638,4.07Z" transform="translate(-1490.403 65.649)" fill="#ffa08b"/>
        <path id="Trazado_16857" data-name="Trazado 16857" d="M1495.044-63s.992,3.42,2.619,3.969a22.657,22.657,0,0,0-.65,3.946c-.242,2.578,1.869,9.752.546,10.653s-5.659-6.7-6.608-12.9c0,0-1.814-3.979-.931-4.432A38.172,38.172,0,0,1,1495.044-63Z" transform="translate(-1489.779 65.327)" fill="#4d3932"/>
        <path id="Trazado_16858" data-name="Trazado 16858" d="M1495.807-53.36l-.01-.2,1.571-.079-1.177-.623a.1.1,0,0,1-.051-.111.1.1,0,0,1,.091-.08l1.214-.083-1.453-.973a.1.1,0,0,1-.04-.112.1.1,0,0,1,.094-.073l1.5-.049-1.473-.919a.1.1,0,0,1-.043-.115.109.109,0,0,1,.1-.072l1.516.053-1.4-.843.1-.174,1.739,1.044a.1.1,0,0,1,.044.116.1.1,0,0,1-.1.072l-1.53-.053,1.435.9a.1.1,0,0,1,.044.112.1.1,0,0,1-.094.075l-1.519.05,1.438.964a.1.1,0,0,1,.041.11.1.1,0,0,1-.091.075l-1.155.079,1.188.629a.1.1,0,0,1,.051.112.1.1,0,0,1-.093.078Z" transform="translate(-1490.513 64.694)" fill="#333"/>
      </g>
      <path id="Trazado_16859" data-name="Trazado 16859" d="M1533.787-119.992c.548,3.115-.3,3.676-.026,4.526s3.014,16.989,2.984,22.08.237,7.922-3.171,10.165-13.058,8.127-13.058,8.127l-.957,18.664a15.63,15.63,0,0,1-10.466-.061l.074-12.729-5.967,4.774s-5.336-6.536-5.882-9.934l10.8-8.141s-.514-9.055.065-11.314-1.092-6.8-1.072-10.189.053-9.051.053-9.051l2.029-8.474Z" transform="translate(-1490.698 189.512)" fill="#a2acc2"/>
      <path id="Trazado_16860" data-name="Trazado 16860" d="M1509.6-78.339a.1.1,0,0,1-.084-.044.1.1,0,0,1,.027-.14c.6-.414,14.835-10.121,17.389-9.532a.1.1,0,0,1,.076.121.1.1,0,0,1-.121.076c-2.477-.563-17.083,9.4-17.23,9.5A.1.1,0,0,1,1509.6-78.339Z" transform="translate(-1492.183 185.432)" fill="#3b3348"/>
      <path id="Trazado_16861" data-name="Trazado 16861" d="M1527.445-88.959a.1.1,0,0,1-.1-.078,4.224,4.224,0,0,1,.039-1.992c.228-.67-1.116-5.909-1.652-7.87a.1.1,0,0,1,.07-.124.1.1,0,0,1,.125.07c.079.291,1.944,7.123,1.649,7.99a4.079,4.079,0,0,0-.033,1.881.1.1,0,0,1-.076.121Z" transform="translate(-1494.162 186.766)" fill="#3b3348"/>
      <path id="Trazado_16862" data-name="Trazado 16862" d="M1526.084-88.2h0a.1.1,0,0,1-.1-.1l.087-9.3a.1.1,0,0,1,.1-.1h0a.1.1,0,0,1,.1.1l-.087,9.3A.1.1,0,0,1,1526.084-88.2Z" transform="translate(-1494.193 186.605)" fill="#3b3348"/>
      <path id="Trazado_16863" data-name="Trazado 16863" d="M1532.861-84.887a.1.1,0,0,1-.057-.018,11.628,11.628,0,0,0-6.712-2,.1.1,0,0,1-.109-.093.1.1,0,0,1,.093-.109,11.85,11.85,0,0,1,6.841,2.036.1.1,0,0,1,.027.14A.1.1,0,0,1,1532.861-84.887Z" transform="translate(-1494.193 185.314)" fill="#3b3348"/>
      <path id="Trazado_16864" data-name="Trazado 16864" d="M1533.718-87.7a.1.1,0,0,1-.068-.026c-.025-.023-2.521-2.221-5.263-1.144a.1.1,0,0,1-.131-.056.1.1,0,0,1,.057-.131c2.86-1.126,5.447,1.158,5.472,1.181a.1.1,0,0,1,.007.142A.1.1,0,0,1,1533.718-87.7Z" transform="translate(-1494.469 185.589)" fill="#3b3348"/>
      <path id="Trazado_16865" data-name="Trazado 16865" d="M1525.947-100.041a.1.1,0,0,1-.1-.1l-.039-11.992a.1.1,0,0,1,.03-.072.1.1,0,0,1,.071-.03h0l2.263.013a.1.1,0,0,1,.1.1l-.063,10.749a.1.1,0,0,1-.087.1l-1.982.271a.1.1,0,0,1-.095-.04l0,.9a.1.1,0,0,1-.1.1Zm.062-11.991.036,10.872a.1.1,0,0,1,.068-.041l1.895-.259.062-10.56Z" transform="translate(-1494.171 188.376)" fill="#3b3348"/>
      <path id="Trazado_16866" data-name="Trazado 16866" d="M1510.8-62.683a.1.1,0,0,1-.09-.054.1.1,0,0,1,.044-.136l11.348-5.874a.1.1,0,0,1,.136.043.1.1,0,0,1-.044.136l-11.348,5.875A.109.109,0,0,1,1510.8-62.683Z" transform="translate(-1492.329 183.076)" fill="#3b3348"/>
      <path id="Trazado_16867" data-name="Trazado 16867" d="M1537.415-108.9a2.973,2.973,0,0,1-1.594-.435c-1.307-.815-1.962-2.717-1.945-5.655a.1.1,0,0,1,.1-.1h0a.1.1,0,0,1,.1.1c-.017,2.863.606,4.707,1.85,5.482a3.638,3.638,0,0,0,3.2.016.1.1,0,0,1,.135.046.1.1,0,0,1-.046.135A4.426,4.426,0,0,1,1537.415-108.9Z" transform="translate(-1495.155 188.724)" fill="#3b3348"/>
      <path id="Trazado_16868" data-name="Trazado 16868" d="M1529.125-178.028s-.03,5.279.646,7.349c0,0-4.142,1.812-8.943-1.429,0,0,1.341-2.9,1.286-8.56Z" transform="translate(-1493.564 196.72)" fill="#ffa08b"/>
      <path id="Trazado_16869" data-name="Trazado 16869" d="M1529.495-174.887c-.063-1.241-.075-2.343-.076-2.8l-6.186-2.1A5.924,5.924,0,0,0,1529.495-174.887Z" transform="translate(-1493.858 196.613)" fill="#c77968"/>
      <path id="Trazado_16870" data-name="Trazado 16870" d="M1523.865-171.172l3.178-1.894,1.353,1.071s5.085,1.161,5.652.882a6.187,6.187,0,0,1,4.8.594c1.974,1.142,4.49,6.248,7.591,7.964s5.341,5.688,5.049,7.384-3.175,11.013-4.876,11.569l-2,3.382-5.935-.882-.4-4.1s2.881-9.035,2.316-9.038-4.512-2.572-4.512-2.572-1.458,7.629-1.466,9.043-.948,17.249.727,20.936c0,0-3.733,9.6-10.523,9.839s-14.659-8.571-14.659-8.571l-4.822,2.235s-3.6-13.032-4.426-17.28,2.964-23.46,6.371-25.7a48.591,48.591,0,0,1,9.079-4.757,3.4,3.4,0,0,0,2.156-2.041Z" transform="translate(-1491.123 195.799)" fill="#ab5853"/>
      <path id="Trazado_16871" data-name="Trazado 16871" d="M1510.828-118.968s1.965,2.557,1.96,3.406-.306,3.957-3.141,5.073a61.728,61.728,0,0,0-3.078-5.675c-.562-.569-.237-.719-.237-.719Z" transform="translate(-1491.786 189.197)" fill="#ffa08b"/>
      <path id="Trazado_16872" data-name="Trazado 16872" d="M1546.116-152.086a.052.052,0,0,1-.023-.006.05.05,0,0,1-.023-.068,7.815,7.815,0,0,1,6.57-3.667h0a.051.051,0,0,1,.05.047.05.05,0,0,1-.047.054,7.706,7.706,0,0,0-6.485,3.612A.05.05,0,0,1,1546.116-152.086Z" transform="translate(-1496.642 193.691)" fill="#282233"/>
      <path id="Trazado_16873" data-name="Trazado 16873" d="M1545.5-152.445h-.007a.051.051,0,0,1-.043-.057c.006-.04.609-4.087,3.724-4.634a.049.049,0,0,1,.058.041.049.049,0,0,1-.04.058c-3.042.535-3.636,4.51-3.641,4.55A.051.051,0,0,1,1545.5-152.445Z" transform="translate(-1496.566 193.851)" fill="#282233"/>
      <path id="Trazado_16874" data-name="Trazado 16874" d="M1528.557-166.84a.049.049,0,0,1-.042-.024l-2.489-3.921-3.938,3.893a.049.049,0,0,1-.044.014.05.05,0,0,1-.037-.027l-2.24-4.6a.051.051,0,0,1,.024-.068.049.049,0,0,1,.067.024l2.209,4.533L1526-170.9a.048.048,0,0,1,.041-.014.047.047,0,0,1,.037.023l2.47,3.891c.12-.3.523-1.319.93-2.319.993-2.446,1.036-2.439,1.094-2.428a.068.068,0,0,1,.045.061.051.051,0,0,1-.04.049c-.177.286-1.261,2.971-1.971,4.766a.051.051,0,0,1-.042.033Z" transform="translate(-1493.434 195.633)" fill="#282233"/>
      <path id="Trazado_16875" data-name="Trazado 16875" d="M1511.344-123.048a.055.055,0,0,1-.028-.009.052.052,0,0,1-.014-.07l.559-.828c-.11-.568-1.638-8.535-1.35-10.47.291-1.953.668-18.212.672-18.376a.055.055,0,0,1,.052-.049.05.05,0,0,1,.049.051c0,.164-.381,16.43-.673,18.389s1.336,10.372,1.353,10.456a.051.051,0,0,1-.008.039l-.57.845A.051.051,0,0,1,1511.344-123.048Z" transform="translate(-1492.302 193.328)" fill="#282233"/>
      <path id="Trazado_16876" data-name="Trazado 16876" d="M1511.451-149.054a.049.049,0,0,1-.044-.025.05.05,0,0,1,.018-.068c.01-.006.984-.61,1-3.645a.051.051,0,0,1,.05-.05h0a.05.05,0,0,1,.05.051c-.018,3.1-1.011,3.707-1.053,3.732A.05.05,0,0,1,1511.451-149.054Z" transform="translate(-1492.415 193.328)" fill="#282233"/>
      <path id="Trazado_16877" data-name="Trazado 16877" d="M1509.949-126.947a.051.051,0,0,1-.047-.03c-.039-.088-3.915-8.827-4.182-11.354a.051.051,0,0,1,.046-.055.05.05,0,0,1,.055.045c.264,2.51,4.134,11.235,4.173,11.323a.052.052,0,0,1-.026.067A.04.04,0,0,1,1509.949-126.947Z" transform="translate(-1491.723 191.565)" fill="#282233"/>
      <path id="Trazado_16878" data-name="Trazado 16878" d="M1527.727-116.489h-.1l.3-52.481h.1Z" transform="translate(-1494.393 195.294)" fill="#282233"/>
      <path id="Trazado_16879" data-name="Trazado 16879" d="M1524.894-116.731h-.1l.3-52.322h.1Z" transform="translate(-1494.048 195.304)" fill="#282233"/>
      <path id="Trazado_16880" data-name="Trazado 16880" d="M1510.316-158.162a.051.051,0,0,1-.05-.04,29.538,29.538,0,0,0-2.858-6.458.051.051,0,0,1,.018-.069.052.052,0,0,1,.069.018,29.7,29.7,0,0,1,2.87,6.487.051.051,0,0,1-.039.061Z" transform="translate(-1491.927 194.778)" fill="#282233"/>
      <path id="Trazado_16881" data-name="Trazado 16881" d="M1541.651-160.685h0a.052.052,0,0,1-.05-.052c.009-1.4,1.645-9.372,1.714-9.711a.05.05,0,0,1,.06-.04.051.051,0,0,1,.04.06c-.018.083-1.7,8.3-1.712,9.691A.051.051,0,0,1,1541.651-160.685Z" transform="translate(-1496.097 195.479)" fill="#282233"/>
      <path id="Trazado_16882" data-name="Trazado 16882" d="M1526.937-168.868a.424.424,0,0,0-.422-.427.425.425,0,0,0-.427.422.424.424,0,0,0,.421.427A.425.425,0,0,0,1526.937-168.868Z" transform="translate(-1494.206 195.333)" fill="#282233"/>
      <path id="Trazado_16883" data-name="Trazado 16883" d="M1526.894-161.459a.424.424,0,0,0-.422-.427.425.425,0,0,0-.427.422.424.424,0,0,0,.421.427A.425.425,0,0,0,1526.894-161.459Z" transform="translate(-1494.201 194.43)" fill="#282233"/>
      <path id="Trazado_16884" data-name="Trazado 16884" d="M1526.853-154.372a.424.424,0,0,0-.422-.427.424.424,0,0,0-.427.421.423.423,0,0,0,.422.427A.423.423,0,0,0,1526.853-154.372Z" transform="translate(-1494.196 193.566)" fill="#282233"/>
      <path id="Trazado_16885" data-name="Trazado 16885" d="M1526.8-145.352a.425.425,0,0,0-.422-.428.425.425,0,0,0-.427.422.424.424,0,0,0,.422.427A.425.425,0,0,0,1526.8-145.352Z" transform="translate(-1494.189 192.466)" fill="#282233"/>
      <path id="Trazado_16886" data-name="Trazado 16886" d="M1549.947-137.165a.424.424,0,0,0-.421-.427.424.424,0,0,0-.427.421.423.423,0,0,0,.422.427A.423.423,0,0,0,1549.947-137.165Z" transform="translate(-1497.011 191.468)" fill="#282233"/>
      <path id="Trazado_16887" data-name="Trazado 16887" d="M1526.758-137.944a.425.425,0,0,0-.422-.427.425.425,0,0,0-.427.422.424.424,0,0,0,.422.427A.425.425,0,0,0,1526.758-137.944Z" transform="translate(-1494.184 191.563)" fill="#282233"/>
      <path id="Trazado_16888" data-name="Trazado 16888" d="M1526.717-130.857a.425.425,0,0,0-.422-.427.426.426,0,0,0-.428.421.426.426,0,0,0,.422.428A.425.425,0,0,0,1526.717-130.857Z" transform="translate(-1494.179 190.699)" fill="#282233"/>
      <path id="Trazado_16889" data-name="Trazado 16889" d="M1526.676-123.77a.425.425,0,0,0-.422-.427.424.424,0,0,0-.427.421.425.425,0,0,0,.422.427A.424.424,0,0,0,1526.676-123.77Z" transform="translate(-1494.174 189.835)" fill="#282233"/>
      <path id="Trazado_16890" data-name="Trazado 16890" d="M1507-119.052a.423.423,0,0,0-.422-.427.424.424,0,0,0-.427.421.424.424,0,0,0,.421.427A.423.423,0,0,0,1507-119.052Z" transform="translate(-1491.775 189.26)" fill="#282233"/>
      <path id="Trazado_16891" data-name="Trazado 16891" d="M1526.633-116.361a.424.424,0,0,0-.421-.427.423.423,0,0,0-.427.421.424.424,0,0,0,.422.427A.424.424,0,0,0,1526.633-116.361Z" transform="translate(-1494.169 188.932)" fill="#282233"/>
      <path id="Trazado_16892" data-name="Trazado 16892" d="M1551.173-138.367a.045.045,0,0,1-.026-.007c-.04-.024-4.04-2.387-7.435-.814a.05.05,0,0,1-.067-.025.05.05,0,0,1,.024-.067c3.446-1.6,7.489.795,7.53.819a.051.051,0,0,1,.018.069A.05.05,0,0,1,1551.173-138.367Z" transform="translate(-1496.346 191.741)" fill="#282233"/>
      <path id="Trazado_16893" data-name="Trazado 16893" d="M1505.17-119.561a.05.05,0,0,1-.048-.035.049.049,0,0,1,.032-.063l5.829-1.939a.051.051,0,0,1,.064.032.05.05,0,0,1-.033.063l-5.828,1.939Z" transform="translate(-1491.649 189.518)" fill="#282233"/>
      <g id="Grupo_12501" data-name="Grupo 12501" transform="translate(23.127)">
        <g id="Grupo_12499" data-name="Grupo 12499" transform="translate(14.943 10.428)">
          <g id="Grupo_12498" data-name="Grupo 12498">
            <path id="Trazado_16894" data-name="Trazado 16894" d="M1534.17-187.01a1.115,1.115,0,0,1,1.233.324,1.135,1.135,0,0,1,.141.975,2.266,2.266,0,0,1-.519.868,1.3,1.3,0,0,1-1.048.544,1.014,1.014,0,0,1-.785-.8A1.523,1.523,0,0,1,1534.17-187.01Z" transform="translate(-1533.135 187.073)" fill="#c77968"/>
          </g>
        </g>
        <path id="Trazado_16895" data-name="Trazado 16895" d="M1532.048-192.038a5.906,5.906,0,0,0-4.025-4.135,8.528,8.528,0,0,0-4.637.3c-2.983,1.006-5.155,3.58-4.456,6.851.584,2.728,2.236,5.071,3.785,7.333a7.49,7.49,0,0,0,1.106,1.316,4.808,4.808,0,0,0,1.646.886,9.027,9.027,0,0,0,3.767.829,2.927,2.927,0,0,0,1.4-.43,4.326,4.326,0,0,0,1.1-1.22,6.661,6.661,0,0,0,1.37-2.875,6.032,6.032,0,0,0-.037-1.391q-.08-.742-.191-1.481a7.353,7.353,0,0,0-.184-1.354q-.154-1.428-.33-2.852A11.874,11.874,0,0,0,1532.048-192.038Z" transform="translate(-1516.444 198.634)" fill="#ffa08b"/>
        <path id="Trazado_16896" data-name="Trazado 16896" d="M1530.677-182.8a.1.1,0,0,1-.111-.049.1.1,0,0,1,.04-.134c.26-.142.679-.428.562-.738a.95.95,0,0,0-.158-.248l-.02-.026a5.425,5.425,0,0,1-1.185-3.282.1.1,0,0,1,.1-.1.1.1,0,0,1,.1.1,5.217,5.217,0,0,0,1.142,3.157l.02.026a1.132,1.132,0,0,1,.188.3c.127.339-.1.679-.652.982A.1.1,0,0,1,1530.677-182.8Z" transform="translate(-1517.786 197.538)" fill="#c77968"/>
        <path id="Trazado_16897" data-name="Trazado 16897" d="M1529.576-181.925l-.006,0a.394.394,0,0,1-.3-.064.428.428,0,0,1-.184-.282.422.422,0,0,1,.087-.323.391.391,0,0,1,.268-.153.1.1,0,0,1,.108.091.1.1,0,0,1-.09.107.187.187,0,0,0-.129.076.221.221,0,0,0-.047.169.231.231,0,0,0,.1.149.194.194,0,0,0,.147.034.48.48,0,0,0,.133-.063l.391-.23a.1.1,0,0,1,.136.035.1.1,0,0,1-.035.136l-.391.23A.652.652,0,0,1,1529.576-181.925Z" transform="translate(-1517.697 196.973)" fill="#c77968"/>
        <path id="Trazado_16898" data-name="Trazado 16898" d="M1526.626-186.748a.3.3,0,0,1-.162-.007,2.3,2.3,0,0,0-2.208.529.3.3,0,0,1-.42,0,.3.3,0,0,1,0-.421,2.88,2.88,0,0,1,2.814-.674.3.3,0,0,1,.191.376A.3.3,0,0,1,1526.626-186.748Z" transform="translate(-1517.047 197.548)" fill="#4e3933"/>
        <path id="Trazado_16899" data-name="Trazado 16899" d="M1533.235-188.332a.3.3,0,0,1-.162-.007,2.3,2.3,0,0,0-2.208.529.3.3,0,0,1-.421,0,.3.3,0,0,1,0-.421,2.879,2.879,0,0,1,2.814-.674.3.3,0,0,1,.191.376A.3.3,0,0,1,1533.235-188.332Z" transform="translate(-1517.853 197.741)" fill="#4e3933"/>
        <path id="Trazado_16900" data-name="Trazado 16900" d="M1530.133-180.237a9.731,9.731,0,0,1-1.957.249.051.051,0,0,1-.051-.049.049.049,0,0,1,.049-.05c.028,0,2.769-.041,3.885-1.206a.05.05,0,0,1,.069,0,.049.049,0,0,1,0,.07A4.118,4.118,0,0,1,1530.133-180.237Z" transform="translate(-1517.581 196.798)" fill="#6b4640"/>
        <path id="Trazado_16901" data-name="Trazado 16901" d="M1527.669-179.793a.05.05,0,0,1-.052-.019.311.311,0,0,1,.029-.389.05.05,0,0,1,.07,0,.05.05,0,0,1,0,.07.211.211,0,0,0-.019.262.05.05,0,0,1-.012.069A.059.059,0,0,1,1527.669-179.793Z" transform="translate(-1517.512 196.665)" fill="#c77968"/>
        <path id="Trazado_16902" data-name="Trazado 16902" d="M1531.56-186.62a.6.6,0,0,1,.442-.721.6.6,0,0,1,.72.442.6.6,0,0,1-.442.721A.6.6,0,0,1,1531.56-186.62Z" transform="translate(-1517.998 197.536)" fill="#333"/>
        <path id="Trazado_16903" data-name="Trazado 16903" d="M1533.179-187.075a.08.08,0,0,1-.047,0,2.862,2.862,0,0,0-1.132-.154,2.282,2.282,0,0,0-.853.627.085.085,0,0,1-.12.008.085.085,0,0,1-.009-.12,2.41,2.41,0,0,1,.941-.681,2.96,2.96,0,0,1,1.227.159.085.085,0,0,1,.054.108A.087.087,0,0,1,1533.179-187.075Z" transform="translate(-1517.931 197.544)" fill="#333"/>
        <path id="Trazado_16904" data-name="Trazado 16904" d="M1526.415-185.388a.6.6,0,0,0-.721-.442.6.6,0,0,0-.442.72.6.6,0,0,0,.721.442A.6.6,0,0,0,1526.415-185.388Z" transform="translate(-1517.229 197.351)" fill="#333"/>
        <path id="Trazado_16905" data-name="Trazado 16905" d="M1524.622-185.027a.085.085,0,0,0,.041-.024,2.863,2.863,0,0,1,.939-.651,2.284,2.284,0,0,1,1.044.173.086.086,0,0,0,.111-.047.086.086,0,0,0-.047-.112,2.413,2.413,0,0,0-1.148-.18,2.93,2.93,0,0,0-1.021.7.085.085,0,0,0,0,.12A.086.086,0,0,0,1524.622-185.027Z" transform="translate(-1517.141 197.357)" fill="#333"/>
        <path id="Trazado_16906" data-name="Trazado 16906" d="M1530.449-179.365c-.115.027-.241.054-.379.076a.048.048,0,0,1-.057-.04.051.051,0,0,1,.041-.057,2.974,2.974,0,0,0,1.338-.473.049.049,0,0,1,.069.005.049.049,0,0,1-.005.07A2.546,2.546,0,0,1,1530.449-179.365Z" transform="translate(-1517.811 196.623)" fill="#6b4640"/>
        <path id="Trazado_16907" data-name="Trazado 16907" d="M1519.729-185.258a3.65,3.65,0,0,0,.839,1.033,1.359,1.359,0,0,0,1.257.259,13.543,13.543,0,0,0,.025-3.282,16.6,16.6,0,0,1,.148-2.967.382.382,0,0,0-.021-.253.374.374,0,0,0-.282-.133,7.935,7.935,0,0,0-2.262,0c-.514.073-1.106.275-1.248.774-.149.529.336,1.358.452,1.91A8.053,8.053,0,0,0,1519.729-185.258Z" transform="translate(-1516.366 197.941)" fill="#4e3933"/>
        <g id="Grupo_12500" data-name="Grupo 12500" transform="translate(2.75 13.412)">
          <path id="Trazado_16908" data-name="Trazado 16908" d="M1520.213-183.657a1.117,1.117,0,0,0-.952.847,1.141,1.141,0,0,0,.316.934,2.255,2.255,0,0,0,.857.538,1.3,1.3,0,0,0,1.179.009,1.013,1.013,0,0,0,.337-1.07A1.524,1.524,0,0,0,1520.213-183.657Z" transform="translate(-1519.249 183.675)" fill="#ffa08b"/>
          <path id="Trazado_16909" data-name="Trazado 16909" d="M1521.375-181.731a.047.047,0,0,1-.032,0,.417.417,0,0,1-.238-.354.417.417,0,0,1,.207-.373.128.128,0,0,0,.032-.021.06.06,0,0,0,0-.023.625.625,0,0,0-.222-.272,1.379,1.379,0,0,0-.623-.317.666.666,0,0,0-.62.192.266.266,0,0,0-.068.242.05.05,0,0,1-.031.063.05.05,0,0,1-.063-.03.352.352,0,0,1,.086-.339.763.763,0,0,1,.712-.227,1.461,1.461,0,0,1,.668.337.714.714,0,0,1,.254.319.129.129,0,0,1,0,.091.144.144,0,0,1-.069.067.317.317,0,0,0-.162.285.314.314,0,0,0,.18.268.049.049,0,0,1,.025.066A.05.05,0,0,1,1521.375-181.731Z" transform="translate(-1519.304 183.618)" fill="#c77968"/>
        </g>
        <path id="Trazado_16910" data-name="Trazado 16910" d="M1527.364-192.353l-1.307-.436a25.359,25.359,0,0,1,5.861.519l-.336-.742a3.6,3.6,0,0,0,1.984.153,19.872,19.872,0,0,1-1.89-2.316,6.534,6.534,0,0,0-6.457-2,5.784,5.784,0,0,0,1.5-1.769,8.555,8.555,0,0,1-1.553.917c-1.391.634-2.935.886-4.305,1.563s-2.615,1.984-2.526,3.51a3.327,3.327,0,0,0-1.14-2.08,8.835,8.835,0,0,0,.382,2.329l-1.459.809a3.44,3.44,0,0,1,1.335.206,3.762,3.762,0,0,0,1.1,2.924,15.484,15.484,0,0,1,1.727-2.352c.552-.5.878-.307,1.57-.258a11.606,11.606,0,0,0,2.787-.22C1525.187-191.7,1526.921-192.5,1527.364-192.353Z" transform="translate(-1516.117 198.949)" fill="#4e3933"/>
      </g>
    </g>
  </g>
</svg>
