<svg xmlns="http://www.w3.org/2000/svg" width="265.478" height="248.439" viewBox="0 0 265.478 248.439">
  <g id="Grupo_13491" data-name="Grupo 13491" transform="translate(-1645.66 267.656)">
    <ellipse id="Elipse_653" data-name="Elipse 653" cx="132.739" cy="17.921" rx="132.739" ry="17.921" transform="translate(1645.66 -55.059)" fill="#d3d3d3"/>
    <g id="Grupo_12562" data-name="Grupo 12562">
      <g id="Grupo_12559" data-name="Grupo 12559">
        <rect id="Rectángulo_3009" data-name="Rectángulo 3009" width="50.852" height="46.842" transform="translate(1753.995 -94.452)" fill="#b3b3b3"/>
        <rect id="Rectángulo_3010" data-name="Rectángulo 3010" width="211.065" height="137.429" rx="3.413" transform="translate(1673.889 -214.566)" fill="#b3b3b3"/>
        <rect id="Rectángulo_3011" data-name="Rectángulo 3011" width="205.961" height="133.419" rx="1.918" transform="translate(1676.441 -212.379)" fill="#282233"/>
        <rect id="Rectángulo_3012" data-name="Rectángulo 3012" width="198.124" height="123.577" transform="translate(1680.36 -209.28)" fill="#a5b1c7"/>
        <path id="Rectángulo_3013" data-name="Rectángulo 3013" d="M2.706,0H67.284A2.706,2.706,0,0,1,69.99,2.706V7.473a0,0,0,0,1,0,0H0a0,0,0,0,1,0,0V2.706A2.706,2.706,0,0,1,2.706,0Z" transform="translate(1744.426 -55.083)" fill="#b3b3b3"/>
        <path id="Trazado_17278" data-name="Trazado 17278" d="M1804.848-77h-50.853a.141.141,0,0,1-.14-.141.14.14,0,0,1,.14-.14h50.853a.14.14,0,0,1,.14.14A.141.141,0,0,1,1804.848-77Z" fill="#282233"/>
        <path id="Trazado_17279" data-name="Trazado 17279" d="M1804.848-54.942h-50.853a.14.14,0,0,1-.14-.14.141.141,0,0,1,.14-.141h50.853a.141.141,0,0,1,.14.141A.14.14,0,0,1,1804.848-54.942Z" fill="#282233"/>
      </g>
      <g id="Grupo_12560" data-name="Grupo 12560">
        <rect id="Rectángulo_3014" data-name="Rectángulo 3014" width="130.58" height="181.673" transform="translate(1715.017 -267.445)" fill="#f9f9f9"/>
        <path id="Trazado_17280" data-name="Trazado 17280" d="M1845.808-85.561h-131v-182.1h131Zm-130.58-.422h130.158V-267.234H1715.228Z" fill="#282233"/>
      </g>
      <path id="Trazado_17281" data-name="Trazado 17281" d="M1833.369-225.418h-110.2a.563.563,0,0,1-.563-.562.562.562,0,0,1,.563-.562h110.2a.562.562,0,0,1,.562.562A.563.563,0,0,1,1833.369-225.418Z" fill="#a5b1c7"/>
      <path id="Trazado_17282" data-name="Trazado 17282" d="M1833.369-218.952h-110.2a.563.563,0,0,1-.563-.562.562.562,0,0,1,.563-.562h110.2a.562.562,0,0,1,.562.562A.563.563,0,0,1,1833.369-218.952Z" fill="#a5b1c7"/>
      <path id="Trazado_17283" data-name="Trazado 17283" d="M1833.369-173.27h-110.2a.563.563,0,0,1-.563-.562.563.563,0,0,1,.563-.563h110.2a.563.563,0,0,1,.562.563A.563.563,0,0,1,1833.369-173.27Z" fill="#a5b1c7"/>
      <path id="Trazado_17284" data-name="Trazado 17284" d="M1833.369-166.8h-110.2a.563.563,0,0,1-.563-.563.563.563,0,0,1,.563-.562h110.2a.563.563,0,0,1,.562.562A.563.563,0,0,1,1833.369-166.8Z" fill="#a5b1c7"/>
      <path id="Trazado_17285" data-name="Trazado 17285" d="M1833.369-161.885h-110.2a.563.563,0,0,1-.563-.562.563.563,0,0,1,.563-.562h110.2a.563.563,0,0,1,.562.562A.563.563,0,0,1,1833.369-161.885Z" fill="#a5b1c7"/>
      <path id="Trazado_17286" data-name="Trazado 17286" d="M1833.369-155.419h-110.2a.563.563,0,0,1-.563-.562.563.563,0,0,1,.563-.563h110.2a.563.563,0,0,1,.562.563A.563.563,0,0,1,1833.369-155.419Z" fill="#a5b1c7"/>
      <path id="Trazado_17287" data-name="Trazado 17287" d="M1833.369-212.486h-110.2a.563.563,0,0,1-.563-.563.563.563,0,0,1,.563-.562h110.2a.563.563,0,0,1,.562.562A.563.563,0,0,1,1833.369-212.486Z" fill="#a5b1c7"/>
      <path id="Trazado_17288" data-name="Trazado 17288" d="M1751.422-206.021H1723.17a.562.562,0,0,1-.563-.562.563.563,0,0,1,.563-.562h28.252a.562.562,0,0,1,.562.562A.561.561,0,0,1,1751.422-206.021Z" fill="#a5b1c7"/>
      <path id="Trazado_17289" data-name="Trazado 17289" d="M1785.3-206.021h-28.252a.562.562,0,0,1-.563-.562.563.563,0,0,1,.563-.562H1785.3a.562.562,0,0,1,.562.562A.562.562,0,0,1,1785.3-206.021Z" fill="#a5b1c7"/>
      <path id="Trazado_17290" data-name="Trazado 17290" d="M1757.045-94.7h-28.253a.562.562,0,0,1-.562-.562.562.562,0,0,1,.562-.563h28.253a.563.563,0,0,1,.562.563A.563.563,0,0,1,1757.045-94.7Z" fill="#a5b1c7"/>
      <path id="Trazado_17291" data-name="Trazado 17291" d="M1826.762-94.7h-28.253a.562.562,0,0,1-.562-.562.563.563,0,0,1,.562-.563h28.253a.562.562,0,0,1,.562.563A.562.562,0,0,1,1826.762-94.7Z" fill="#a5b1c7"/>
      <path id="Trazado_17292" data-name="Trazado 17292" d="M1833.369-199.555h-110.2a.563.563,0,0,1-.563-.562.562.562,0,0,1,.563-.562h110.2a.562.562,0,0,1,.562.562A.563.563,0,0,1,1833.369-199.555Z" fill="#a5b1c7"/>
      <path id="Trazado_17293" data-name="Trazado 17293" d="M1833.369-193.089h-110.2a.563.563,0,0,1-.563-.562.563.563,0,0,1,.563-.563h110.2a.563.563,0,0,1,.562.563A.563.563,0,0,1,1833.369-193.089Z" fill="#a5b1c7"/>
      <path id="Trazado_17294" data-name="Trazado 17294" d="M1833.369-186.623h-110.2a.563.563,0,0,1-.563-.563.563.563,0,0,1,.563-.562h110.2a.563.563,0,0,1,.562.562A.563.563,0,0,1,1833.369-186.623Z" fill="#a5b1c7"/>
      <path id="Trazado_17295" data-name="Trazado 17295" d="M1766.6-180.158H1723.17a.562.562,0,0,1-.563-.562.563.563,0,0,1,.563-.562H1766.6a.563.563,0,0,1,.563.562A.562.562,0,0,1,1766.6-180.158Z" fill="#a5b1c7"/>
      <path id="Trazado_17296" data-name="Trazado 17296" d="M1816.361-180.158h-43.433a.562.562,0,0,1-.563-.562.563.563,0,0,1,.563-.562h43.433a.562.562,0,0,1,.562.562A.562.562,0,0,1,1816.361-180.158Z" fill="#a5b1c7"/>
      <path id="Trazado_17297" data-name="Trazado 17297" d="M1747.861-105.567a22.233,22.233,0,0,1-22.208-22.209,22.233,22.233,0,0,1,22.208-22.208,22.234,22.234,0,0,1,22.209,22.208A22.234,22.234,0,0,1,1747.861-105.567Zm0-43.293a21.108,21.108,0,0,0-21.084,21.084,21.108,21.108,0,0,0,21.084,21.084,21.107,21.107,0,0,0,21.084-21.084A21.108,21.108,0,0,0,1747.861-148.86Z" fill="#a5b1c7"/>
      <path id="Trazado_17298" data-name="Trazado 17298" d="M1747.861-108.167a19.631,19.631,0,0,1-19.608-19.609,19.631,19.631,0,0,1,19.608-19.608,19.631,19.631,0,0,1,19.608,19.608A19.631,19.631,0,0,1,1747.861-108.167Zm0-38.092a18.5,18.5,0,0,0-18.484,18.483,18.5,18.5,0,0,0,18.484,18.484,18.5,18.5,0,0,0,18.484-18.484A18.5,18.5,0,0,0,1747.861-146.259Z" fill="#a5b1c7"/>
      <path id="Trazado_17299" data-name="Trazado 17299" d="M1759.879-127.776a12.018,12.018,0,0,0-12.018-12.018,12.018,12.018,0,0,0-12.018,12.018,12.018,12.018,0,0,0,12.018,12.018A12.018,12.018,0,0,0,1759.879-127.776Z" fill="#a5b1c7"/>
      <g id="Grupo_12561" data-name="Grupo 12561">
        <path id="Trazado_17300" data-name="Trazado 17300" d="M1744.826-240a5.16,5.16,0,0,1-2.075.36,3.853,3.853,0,0,1-4.233-4.054,4.12,4.12,0,0,1,4.413-4.294,4.763,4.763,0,0,1,1.991.36l-.372,1.451a3.943,3.943,0,0,0-1.535-.3,2.43,2.43,0,0,0-2.578,2.673,2.414,2.414,0,0,0,2.59,2.639,4.539,4.539,0,0,0,1.523-.264Z" fill="#a5b1c7"/>
        <path id="Trazado_17301" data-name="Trazado 17301" d="M1753.069-243.9c0,2.65-1.607,4.258-3.969,4.258-2.4,0-3.8-1.811-3.8-4.114a3.913,3.913,0,0,1,3.933-4.234A3.768,3.768,0,0,1,1753.069-243.9Zm-5.84.108c0,1.583.744,2.7,1.966,2.7s1.944-1.175,1.944-2.746c0-1.451-.7-2.7-1.955-2.7C1747.948-246.538,1747.229-245.362,1747.229-243.791Z" fill="#a5b1c7"/>
        <path id="Trazado_17302" data-name="Trazado 17302" d="M1754.273-239.773v-8.084h2.135l1.679,2.963a23.5,23.5,0,0,1,1.319,2.77h.036a30.062,30.062,0,0,1-.156-3.382v-2.351h1.68v8.084h-1.92l-1.727-3.118a30.377,30.377,0,0,1-1.4-2.855l-.036.012c.048,1.067.072,2.207.072,3.526v2.435Z" fill="#a5b1c7"/>
        <path id="Trazado_17303" data-name="Trazado 17303" d="M1768.49-240a5.159,5.159,0,0,1-2.075.36,3.853,3.853,0,0,1-4.233-4.054,4.12,4.12,0,0,1,4.413-4.294,4.764,4.764,0,0,1,1.991.36l-.372,1.451a3.942,3.942,0,0,0-1.535-.3,2.431,2.431,0,0,0-2.578,2.673,2.414,2.414,0,0,0,2.59,2.639,4.538,4.538,0,0,0,1.523-.264Z" fill="#a5b1c7"/>
        <path id="Trazado_17304" data-name="Trazado 17304" d="M1769.693-247.857h1.835v6.549h3.214v1.535h-5.049Z" fill="#a5b1c7"/>
        <path id="Trazado_17305" data-name="Trazado 17305" d="M1777.275-247.857v4.654c0,1.391.529,2.1,1.464,2.1.959,0,1.487-.672,1.487-2.1v-4.654h1.823v4.534c0,2.494-1.259,3.682-3.37,3.682-2.039,0-3.239-1.127-3.239-3.706v-4.51Z" fill="#a5b1c7"/>
        <path id="Trazado_17306" data-name="Trazado 17306" d="M1783.7-241.656a4.662,4.662,0,0,0,2.028.5c.839,0,1.283-.349,1.283-.876,0-.5-.384-.791-1.356-1.14-1.343-.468-2.218-1.211-2.218-2.387,0-1.378,1.151-2.434,3.058-2.434a4.954,4.954,0,0,1,2.063.408l-.408,1.475a3.846,3.846,0,0,0-1.691-.383c-.792,0-1.176.359-1.176.779,0,.516.456.743,1.5,1.139,1.428.528,2.1,1.271,2.1,2.411,0,1.355-1.043,2.519-3.262,2.519a5.271,5.271,0,0,1-2.291-.5Z" fill="#a5b1c7"/>
        <path id="Trazado_17307" data-name="Trazado 17307" d="M1791.952-247.857v8.084h-1.835v-8.084Z" fill="#a5b1c7"/>
        <path id="Trazado_17308" data-name="Trazado 17308" d="M1800.937-243.9c0,2.65-1.608,4.258-3.97,4.258-2.4,0-3.8-1.811-3.8-4.114a3.913,3.913,0,0,1,3.934-4.234A3.768,3.768,0,0,1,1800.937-243.9Zm-5.841.108c0,1.583.744,2.7,1.967,2.7s1.943-1.175,1.943-2.746c0-1.451-.7-2.7-1.955-2.7C1795.815-246.538,1795.1-245.362,1795.1-243.791Z" fill="#a5b1c7"/>
        <path id="Trazado_17309" data-name="Trazado 17309" d="M1802.141-239.773v-8.084h2.134l1.679,2.963a23.341,23.341,0,0,1,1.319,2.77h.037a29.8,29.8,0,0,1-.157-3.382v-2.351h1.68v8.084h-1.92l-1.726-3.118a30.146,30.146,0,0,1-1.4-2.855l-.036.012c.048,1.067.072,2.207.072,3.526v2.435Z" fill="#a5b1c7"/>
        <path id="Trazado_17310" data-name="Trazado 17310" d="M1815.229-243.191h-2.973v1.919h3.321v1.5h-5.156v-8.084h4.989v1.5h-3.154v1.678h2.973Z" fill="#a5b1c7"/>
        <path id="Trazado_17311" data-name="Trazado 17311" d="M1816.888-241.656a4.662,4.662,0,0,0,2.027.5c.839,0,1.283-.349,1.283-.876,0-.5-.384-.791-1.355-1.14-1.344-.468-2.219-1.211-2.219-2.387,0-1.378,1.151-2.434,3.059-2.434a4.945,4.945,0,0,1,2.062.408l-.408,1.475a3.839,3.839,0,0,0-1.691-.383c-.792,0-1.175.359-1.175.779,0,.516.456.743,1.5,1.139,1.427.528,2.1,1.271,2.1,2.411,0,1.355-1.043,2.519-3.261,2.519a5.271,5.271,0,0,1-2.291-.5Z" fill="#a5b1c7"/>
      </g>
    </g>
    <g id="Grupo_12567" data-name="Grupo 12567">
      <g id="Grupo_12566" data-name="Grupo 12566">
        <path id="Trazado_17312" data-name="Trazado 17312" d="M1856.028-192.341c2.974.35,7.523,5.074,7.173,10.5s-.875,4.9.525,8.223,1.925,2.449,1.925,5.249-.525,2.8-.35,4.023-3.849,2.975-3.849,2.975l-14.521,2.8s-6.649,3.324-7.349.525-2.8-3.324-.874-6.3,3.674-1.4,4.548-5.248.525-2.974.525-5.949a19.28,19.28,0,0,1,1.05-7.173c.875-2.624.7-7.7,5.074-8.747A21.519,21.519,0,0,1,1856.028-192.341Z" fill="#4e3933"/>
        <path id="Trazado_17313" data-name="Trazado 17313" d="M1858.127-169.422s-1.049-.875-1.049-1.575.175-6.123.175-6.123l-6.823,2.1s-.35,6.124-.875,5.949-2.323,6.31-2.323,6.31l3.2,3.312,5.248-.7s2.624-3.674,2.449-3.849S1858.127-169.422,1858.127-169.422Z" fill="#ffa08b"/>
        <path id="Trazado_17314" data-name="Trazado 17314" d="M1838.248-115.772l-.523,2.614a22.254,22.254,0,0,0-1.045,3.921c-.262,1.831-.523,5.229,0,5.229s1.045-3.4,1.045-3.4a16.962,16.962,0,0,0,0,3.66c.262.523,1.569,2.614,1.569,2.614l.523-3.4.784-10.457Z" fill="#ffa08b"/>
        <path id="Trazado_17315" data-name="Trazado 17315" d="M1841.255-58.648s-1.83,7.059-1.83,7.582,1.307,4.444.784,5.229-2.614.523-3.4,1.046-3.138,3.4-6.014,3.4l-.784-3.66s3.922-2.353,4.967-5.751a57.925,57.925,0,0,0,1.569-9.151Z" fill="#ffa08b"/>
        <path id="Trazado_17316" data-name="Trazado 17316" d="M1833.412-41.061h-9.935a.07.07,0,0,1-.07-.07.07.07,0,0,1,.07-.071h9.935c.5,0,1.994-1.318,3.086-2.28.567-.5,1.056-.931,1.319-1.107.793-.528,3.33-.534,3.438-.534a.07.07,0,0,1,.07.07.07.07,0,0,1-.07.07c-.026,0-2.6.006-3.36.511-.255.171-.741.6-1.3,1.1C1835.421-42.345,1833.963-41.061,1833.412-41.061Z" fill="#282233"/>
        <path id="Trazado_17317" data-name="Trazado 17317" d="M1832.889-41.131l-1.569-5.49-8.079,5.49Z" fill="#282233"/>
        <path id="Trazado_17318" data-name="Trazado 17318" d="M1840.047-45.035l-.622,3.9h-.523l-.822-3.676S1839.624-45.016,1840.047-45.035Z" fill="#282233"/>
        <path id="Trazado_17319" data-name="Trazado 17319" d="M1867.138-58.386s-.785,3.921-.785,4.967.261,1.569.261,2.353a20.2,20.2,0,0,0-.261,2.614v4.183h-6.013s2.092-7.059,2.092-8.889-.785-6.8-.785-6.8Z" fill="#ffa08b"/>
        <path id="Trazado_17320" data-name="Trazado 17320" d="M1860.994-46.229a4.891,4.891,0,0,1,5.229.261s1.307,3.137-.262,3.922c-1.5.748-4.575,2.483-4.575,2.483s-1.177-2.745-1.438-3.529S1860.994-46.229,1860.994-46.229Z" fill="#282233"/>
        <path id="Trazado_17321" data-name="Trazado 17321" d="M1863.216-139.956s4.183,13.334,4.183,16.732-.261,17.517,0,20.131.784,12.027,1.568,16.994,0,28.758,0,28.758l-4.705,1.308-4.968-1.83s-1.045-27.975-5.751-49.936c0,0-2.092,8.628-3.661,16.21s-2.614,14.64-4.183,22.745-2.353,11.765-2.353,11.765l-9.673-.262s4.183-30.85,4.445-34.248,2.353-31.111,2.353-31.111l2.091-13.857Z" fill="#d8b58b"/>
        <path id="Trazado_17322" data-name="Trazado 17322" d="M1860.079-161.917l1.046,23.53-17.778,3.137.523-22.745,3.636-5.631Z" fill="#f5dfd4"/>
        <path id="Trazado_17323" data-name="Trazado 17323" d="M1861.647-118.726a.053.053,0,0,1-.035-.014c-4.408-3.889-6.014-16.378-6.03-16.5a.052.052,0,0,1,.045-.059.05.05,0,0,1,.059.046c.016.125,1.618,12.574,6,16.438a.052.052,0,0,1,.005.074A.053.053,0,0,1,1861.647-118.726Z" fill="#282233"/>
        <path id="Trazado_17324" data-name="Trazado 17324" d="M1853.455-107.382a.052.052,0,0,1-.051-.039l-3.573-13.174-.524-13.869a.053.053,0,0,1,.051-.054.058.058,0,0,1,.054.051l.523,13.856,3.571,13.163a.052.052,0,0,1-.037.064Z" fill="#282233"/>
        <path id="Trazado_17325" data-name="Trazado 17325" d="M1843.346-125a.052.052,0,0,1-.038-.017.053.053,0,0,1,0-.075c2.826-2.569,2.859-9.3,2.859-9.373a.052.052,0,0,1,.052-.052.053.053,0,0,1,.053.052c0,.069-.033,6.851-2.893,9.451A.05.05,0,0,1,1843.346-125Z" fill="#282233"/>
        <path id="Trazado_17326" data-name="Trazado 17326" d="M1862.954-131.067l-1.307.523a5.376,5.376,0,0,0-3.4.785c-1.569,1.045-4.706,1.829-4.445,2.353s2.353.261,3.137,0,.654.915.654.915,1.307,4.183,2.614,5.751l3.268-5.359,2.092-1.569Z" fill="#ffa08b"/>
        <path id="Trazado_17327" data-name="Trazado 17327" d="M1842.562-136.557l20.654-3.4,1.046,3.922-22.222,2.091Z" fill="#88554b"/>
        <path id="Trazado_17328" data-name="Trazado 17328" d="M1856.12-135.25l-.191-3.507-1.519.25.343,3.367Z" fill="#3b3348"/>
        <path id="Trazado_17329" data-name="Trazado 17329" d="M1846.7-134.381v-2.857l-1.064.175-.2,2.8Z" fill="#3b3348"/>
        <path id="Trazado_17330" data-name="Trazado 17330" d="M1848.165-134.379a.138.138,0,0,1-.094-.036.143.143,0,0,1-.046-.1v-2.96a.141.141,0,0,1,.118-.139l4.07-.669a.14.14,0,0,1,.11.028.142.142,0,0,1,.053.1l.219,3.226a.14.14,0,0,1-.127.149l-4.289.4Zm.141-2.981v2.686l4-.376-.2-2.935Z" fill="#fdce88"/>
        <g id="Grupo_12563" data-name="Grupo 12563">
          <path id="Trazado_17331" data-name="Trazado 17331" d="M1851.144-163.6l.076-.058a21.435,21.435,0,0,1-1.865-4.7l-.252.072c.216.756,1,3.817,1.956,4.931Z" fill="#fdce88"/>
          <path id="Trazado_17332" data-name="Trazado 17332" d="M1857.6-169.422a57.473,57.473,0,0,1-4.9,5.762l.143.215a58.381,58.381,0,0,0,4.933-5.627Z" fill="#fdce88"/>
        </g>
        <path id="Trazado_17333" data-name="Trazado 17333" d="M1879.948-143.093c-1.046-2.876-7.582-15.686-7.582-15.686s.523-2.092-.261-2.353c-2.045-.682-2.353-4.183-3.4-5.491s-6.274-1.307-7.582-1.568-2.091-1.307-2.875-1.83-.821-.276-.821-.276c.908,2.16-1.271,14.655-1.01,23.021s8.628,20.915,8.628,20.915l.261,6.536,6.8-3.66-2.091-5.229S1880.994-140.217,1879.948-143.093Zm-15.948.262,1.83-7.582,4.184,7.058a1.829,1.829,0,0,0-.524,1.046c0,.523,1.046,1.046,1.046,1.046l-4.444,3.66Z" fill="#a5b1c7"/>
        <path id="Trazado_17334" data-name="Trazado 17334" d="M1849.882-169.5s-5.228,15.686-5.228,19.085-.785,29.8-.785,29.8h-3.4v5.49H1835.5s1.569-14.379,1.569-16.471-.785-3.66-.523-4.183,1.569-.784,1.046-3.137,1.307-23.53,2.614-24.314,6.8-4.444,6.8-4.444S1849.309-170.568,1849.882-169.5Z" fill="#a5b1c7"/>
        <path id="Trazado_17335" data-name="Trazado 17335" d="M1840.471-120.574h-1.307a.036.036,0,0,1-.028-.012.037.037,0,0,1-.007-.029c.023-.138,2.352-13.91,2.352-18.818,0-2.495-.2-5.024-.362-7.056a25.578,25.578,0,0,1-.16-4.453c.259-1.552,1.815-7.266,1.83-7.324a.037.037,0,0,1,.044-.024.036.036,0,0,1,.025.043c-.016.057-1.572,5.768-1.83,7.317a25.641,25.641,0,0,0,.161,4.436c.162,2.033.363,4.563.363,7.061,0,4.78-2.2,17.949-2.347,18.789h1.266a.035.035,0,0,1,.035.035A.035.035,0,0,1,1840.471-120.574Z" fill="#3b3348"/>
        <path id="Trazado_17336" data-name="Trazado 17336" d="M1864.262-55.981a.052.052,0,0,1-.053-.05c-.008-.207-.793-20.761-1.569-30.064s-5.442-29.592-5.489-29.8a.053.053,0,0,1,.04-.063.052.052,0,0,1,.063.039c.047.2,4.716,20.5,5.492,29.812s1.561,29.861,1.568,30.068a.052.052,0,0,1-.05.054Z" fill="#282233"/>
        <path id="Trazado_17337" data-name="Trazado 17337" d="M1834.912-57.288h-.007a.053.053,0,0,1-.045-.06l7.911-56.732a.052.052,0,0,1,.06-.045.052.052,0,0,1,.045.059l-7.911,56.733A.054.054,0,0,1,1834.912-57.288Z" fill="#282233"/>
        <path id="Trazado_17338" data-name="Trazado 17338" d="M1864.785-153.777a.035.035,0,0,1-.035-.029c-1.134-6.946.064-10.093,1.269-11.511a3.507,3.507,0,0,1,2.426-1.341.036.036,0,0,1,.035.036.035.035,0,0,1-.035.035,3.43,3.43,0,0,0-2.374,1.318c-1.2,1.407-2.381,4.535-1.252,11.451a.036.036,0,0,1-.029.041Z" fill="#3b3348"/>
        <path id="Trazado_17339" data-name="Trazado 17339" d="M1870.013-143.319a.037.037,0,0,1-.033-.024.036.036,0,0,1,.022-.045c.039-.013,3.966-1.3,6.563,0a.036.036,0,0,1,.016.047.035.035,0,0,1-.047.016c-2.571-1.285-6.471-.011-6.51,0Z" fill="#3b3348"/>
        <path id="Trazado_17340" data-name="Trazado 17340" d="M1875.242-140.705a.04.04,0,0,1-.018-.005c-1.283-.77-4.651-.52-4.685-.518a.034.034,0,0,1-.038-.032.036.036,0,0,1,.033-.038c.139-.011,3.424-.253,4.726.528a.035.035,0,0,1,.012.048A.034.034,0,0,1,1875.242-140.705Z" fill="#3b3348"/>
        <path id="Trazado_17341" data-name="Trazado 17341" d="M1851.974-132.374a.784.784,0,0,0-.784-.784.785.785,0,0,0-.785.784.785.785,0,0,0,.785.784A.784.784,0,0,0,1851.974-132.374Z" fill="#282233"/>
        <path id="Trazado_17342" data-name="Trazado 17342" d="M1856.527-156.3l-.013,0a.035.035,0,0,1-.02-.045l4.6-11.855a.035.035,0,0,1,.045-.02.035.035,0,0,1,.02.046l-4.6,11.854A.037.037,0,0,1,1856.527-156.3Z" fill="#3b3348"/>
        <path id="Trazado_17343" data-name="Trazado 17343" d="M1858.111-139.79h0a.035.035,0,0,1-.033-.037c0-.067.4-6.669.4-6.926s2.212-7.395,2.351-7.842l-2.5-6.445a.035.035,0,0,1,.02-.045.036.036,0,0,1,.046.02l2.507,6.456a.045.045,0,0,1,0,.023c-.814,2.621-2.352,7.63-2.352,7.833,0,.26-.382,6.658-.4,6.93A.034.034,0,0,1,1858.111-139.79Z" fill="#3b3348"/>
        <path id="Trazado_17344" data-name="Trazado 17344" d="M1846.431-158.341a.036.036,0,0,1-.036-.034l-.362-8.668a.034.034,0,0,1,.034-.036h0a.035.035,0,0,1,.035.033l.363,8.668a.035.035,0,0,1-.034.037Z" fill="#3b3348"/>
        <path id="Trazado_17345" data-name="Trazado 17345" d="M1844.418-139.92a.036.036,0,0,1-.035-.032l-1.594-13.856a.037.037,0,0,1,0-.018l3.426-7.869a.034.034,0,0,1,.046-.018.036.036,0,0,1,.019.046l-3.423,7.86,1.594,13.847a.035.035,0,0,1-.031.039Z" fill="#3b3348"/>
        <path id="Trazado_17346" data-name="Trazado 17346" d="M1865.569-125.28h-.007a.035.035,0,0,1-.024-.017l-4.444-7.843a.035.035,0,0,1,.007-.043l4.967-4.445a.036.036,0,0,1,.05,0,.035.035,0,0,1,0,.05l-4.946,4.425,4.411,7.784,4.412-3.375a.036.036,0,0,1,.049.007.035.035,0,0,1-.006.049l-4.445,3.4A.031.031,0,0,1,1865.569-125.28Z" fill="#3b3348"/>
        <path id="Trazado_17347" data-name="Trazado 17347" d="M1851.974-161.846a1.118,1.118,0,0,1-1.116-1.116,1.117,1.117,0,0,1,1.116-1.116,1.117,1.117,0,0,1,1.116,1.116A1.118,1.118,0,0,1,1851.974-161.846Zm0-2.092a.977.977,0,0,0-.976.976.977.977,0,0,0,.976.975.976.976,0,0,0,.975-.975A.976.976,0,0,0,1851.974-163.938Z" fill="#fdce88"/>
        <path id="Trazado_17348" data-name="Trazado 17348" d="M1853.4-174.321l-3.051.436c-.047.649-.117,1.489-.205,2.287a6.893,6.893,0,0,0,4.131-.274c1.064-.456,2.063-.912,2.852-1.282.034-1.184.077-2.55.1-3.331Z" fill="#c77968"/>
        <g id="Grupo_12565" data-name="Grupo 12565">
          <path id="Trazado_17349" data-name="Trazado 17349" d="M1846.243-185.513a12.712,12.712,0,0,0-.08,1.932q.031,2.772.145,5.541a7.576,7.576,0,0,0,1.243,3,8.826,8.826,0,0,0,1.339,1.53,5.543,5.543,0,0,0,.947.993,2.4,2.4,0,0,0,2.018.137c.665-.209,1.273-.57,1.928-.809.482-.176.988-.285,1.465-.475a4.641,4.641,0,0,0,2.153-1.76,8.993,8.993,0,0,0,.577-1.089c1.145-2.426,2.436-4.978,2.642-7.7.27-3.577-2.41-6-5.726-6.637a9.155,9.155,0,0,0-4.971.353A6.335,6.335,0,0,0,1846.243-185.513Z" fill="#ffa08b"/>
          <path id="Trazado_17350" data-name="Trazado 17350" d="M1850.362-177.6a.108.108,0,0,0,.111-.069.107.107,0,0,0-.064-.137c-.32-.117-.622-.4-.552-.7a.9.9,0,0,1,.121-.251l.017-.027a4.71,4.71,0,0,0,.613-3.185.107.107,0,0,0-.123-.087.108.108,0,0,0-.088.123,4.483,4.483,0,0,1-.584,3.038l-.016.027a1.048,1.048,0,0,0-.147.313c-.1.422.27.8.686.949A.12.12,0,0,0,1850.362-177.6Z" fill="#c77968"/>
          <path id="Trazado_17351" data-name="Trazado 17351" d="M1851.417-177.438h.006a.407.407,0,0,0,.305-.108.408.408,0,0,0,.139-.292.407.407,0,0,0-.126-.3.414.414,0,0,0-.3-.121.108.108,0,0,0-.1.111.107.107,0,0,0,.111.1.2.2,0,0,1,.143.06.2.2,0,0,1,.063.141.2.2,0,0,1-.069.138.2.2,0,0,1-.145.054.56.56,0,0,1-.142-.043l-.423-.17a.106.106,0,0,0-.138.059.105.105,0,0,0,.059.138l.422.17A.685.685,0,0,0,1851.417-177.438Z" fill="#c77968"/>
          <path id="Trazado_17352" data-name="Trazado 17352" d="M1853.514-180.906a.749.749,0,0,1,.82-.67.749.749,0,0,1,.67.82.749.749,0,0,1-.82.67A.749.749,0,0,1,1853.514-180.906Z" fill="#333"/>
          <path id="Trazado_17353" data-name="Trazado 17353" d="M1847.236-181.536a.749.749,0,0,1,.819-.67.747.747,0,0,1,.67.82.748.748,0,0,1-.819.67A.749.749,0,0,1,1847.236-181.536Z" fill="#333"/>
          <path id="Trazado_17354" data-name="Trazado 17354" d="M1853.264-182.426a.15.15,0,0,0,.085-.015,2.637,2.637,0,0,1,2.589.26.16.16,0,0,0,.224-.03.16.16,0,0,0-.03-.224,2.921,2.921,0,0,0-2.922-.293.159.159,0,0,0-.074.213A.159.159,0,0,0,1853.264-182.426Z" fill="#4e3933"/>
          <path id="Trazado_17355" data-name="Trazado 17355" d="M1846.673-182.873a.159.159,0,0,0,.085-.015,2.638,2.638,0,0,1,2.589.259.159.159,0,0,0,.224-.03.161.161,0,0,0-.03-.224,2.926,2.926,0,0,0-2.922-.293.16.16,0,0,0-.074.214A.161.161,0,0,0,1846.673-182.873Z" fill="#4e3933"/>
          <path id="Trazado_17356" data-name="Trazado 17356" d="M1853.592-175.664a.054.054,0,0,0,.052-.029.312.312,0,0,0-.082-.383.054.054,0,0,0-.075.009.054.054,0,0,0,.009.075.207.207,0,0,1,.054.25.053.053,0,0,0,.022.072A.066.066,0,0,0,1853.592-175.664Z" fill="#c77968"/>
          <path id="Trazado_17357" data-name="Trazado 17357" d="M1853.129-180.887a2.6,2.6,0,0,1,.71-.375,2.12,2.12,0,0,1,.371-.086,1.957,1.957,0,0,1,.374-.01,1.892,1.892,0,0,1,.719.229,2.1,2.1,0,0,0,.2.091.47.47,0,0,0,.132.029.294.294,0,0,0,.135-.028.687.687,0,0,0,.314-.309.864.864,0,0,1-.358.159c-.066.007-.076-.005-.132-.04s-.1-.075-.16-.116a1.843,1.843,0,0,0-.38-.223,1.487,1.487,0,0,0-.443-.111,1.7,1.7,0,0,0-.452.031,1.666,1.666,0,0,0-.42.155A1.448,1.448,0,0,0,1853.129-180.887Z" fill="#333"/>
          <path id="Trazado_17358" data-name="Trazado 17358" d="M1849.166-181.278a1.446,1.446,0,0,0-.474-.716,1.645,1.645,0,0,0-.379-.237,1.748,1.748,0,0,0-.437-.122,1.482,1.482,0,0,0-.456.019,1.875,1.875,0,0,0-.417.141c-.064.029-.125.058-.18.082a.157.157,0,0,1-.138.011.87.87,0,0,1-.318-.227.689.689,0,0,0,.245.366.3.3,0,0,0,.126.054.438.438,0,0,0,.136,0,2.105,2.105,0,0,0,.213-.049,1.9,1.9,0,0,1,.751-.078,1.95,1.95,0,0,1,.363.085,2.206,2.206,0,0,1,.346.16A2.576,2.576,0,0,1,1849.166-181.278Z" fill="#333"/>
          <path id="Trazado_17359" data-name="Trazado 17359" d="M1851.727-174.594a2.453,2.453,0,0,1-1.229.2,2.147,2.147,0,0,1-1.231-.54,2.576,2.576,0,0,1-.5-1.237.41.41,0,0,1-.018-.2.341.341,0,0,1,.107-.158,1.216,1.216,0,0,1,1.208-.263,1.508,1.508,0,0,0,.414.126,1.735,1.735,0,0,0,.349-.055,1.648,1.648,0,0,1,.99.217,6.161,6.161,0,0,0,.928.443c.544.164.2.578-.06.834A3.213,3.213,0,0,1,1851.727-174.594Z" fill="#ef7575"/>
          <path id="Trazado_17360" data-name="Trazado 17360" d="M1848.884-176.083a2.793,2.793,0,0,0,1.846,1.074,4.34,4.34,0,0,0,1.987-.615c.159-.086.234-.285.015-.326C1852.541-175.986,1848.355-176.712,1848.884-176.083Z" fill="#fff"/>
          <path id="Trazado_17361" data-name="Trazado 17361" d="M1851.321-187.72a24.538,24.538,0,0,0-5.613,4.8,8.351,8.351,0,0,1,.983-5.284,5.3,5.3,0,0,1,.764-1.3,4.637,4.637,0,0,1,1.139-.895,8.105,8.105,0,0,1,7.293-.84,10.473,10.473,0,0,1,2.683,1.894,9.16,9.16,0,0,1,1.7,1.876,6.066,6.066,0,0,1,.772,4.119,9,9,0,0,1-1.689,3.89c-.114.157-.291.329-.471.258-.041-.016-.432-1.177-.517-1.319-.179-.3-.382-.581-.589-.861a14.441,14.441,0,0,0-2.042-2.194A30.012,30.012,0,0,1,1851.321-187.72Z" fill="#4e3933"/>
          <path id="Trazado_17362" data-name="Trazado 17362" d="M1859.7-179.985a.043.043,0,0,0,.016,0,.057.057,0,0,0,.047-.064,5.93,5.93,0,0,0-2.113-3.43,20.085,20.085,0,0,0-2.232-1.6c-.365-.239-.743-.485-1.106-.739-.524-.366-1.039-.763-1.538-1.147l-.868-.669a.677.677,0,0,1-.3-.373.652.652,0,0,1,.073-.354,7.961,7.961,0,0,1,3.48-3.889.057.057,0,0,0,.022-.077.058.058,0,0,0-.077-.021,8.075,8.075,0,0,0-3.529,3.944.75.75,0,0,0-.08.417.787.787,0,0,0,.345.442l.868.669c.5.385,1.016.782,1.542,1.15.364.255.743.5,1.109.74a20.122,20.122,0,0,1,2.22,1.6,5.826,5.826,0,0,1,2.075,3.363A.056.056,0,0,0,1859.7-179.985Z" fill="#7a473c"/>
          <path id="Trazado_17363" data-name="Trazado 17363" d="M1861.57-179.149a.058.058,0,0,0,.062-.043,4.649,4.649,0,0,0-1.211-4.069,11.186,11.186,0,0,0-3.58-2.475c-.276-.134-.555-.265-.833-.4a19.855,19.855,0,0,1-3.008-1.634,3,3,0,0,1-.892-.876.055.055,0,0,0-.076-.02.057.057,0,0,0-.021.077,3.116,3.116,0,0,0,.924.911,20.006,20.006,0,0,0,3.025,1.643c.278.131.556.262.832.4a11.087,11.087,0,0,1,3.545,2.448,4.537,4.537,0,0,1,1.186,3.969.057.057,0,0,0,.041.068Z" fill="#7a473c"/>
          <path id="Trazado_17364" data-name="Trazado 17364" d="M1845.9-183.336a.056.056,0,0,0,.063-.046,3.36,3.36,0,0,1,.881-1.74,6.8,6.8,0,0,1,.831-.7l3.394-2.543a.057.057,0,0,0,.011-.078.056.056,0,0,0-.078-.012l-3.394,2.543a6.75,6.75,0,0,0-.845.708,3.481,3.481,0,0,0-.911,1.8.056.056,0,0,0,.046.064Z" fill="#7a473c"/>
          <g id="Grupo_12564" data-name="Grupo 12564">
            <path id="Trazado_17365" data-name="Trazado 17365" d="M1859.876-180.835a1.2,1.2,0,0,1,1.134.763,1.22,1.22,0,0,1-.2,1.038,2.411,2.411,0,0,1-.832.7,1.393,1.393,0,0,1-1.253.18,1.087,1.087,0,0,1-.513-1.089A1.633,1.633,0,0,1,1859.876-180.835Z" fill="#ffa08b"/>
            <path id="Trazado_17366" data-name="Trazado 17366" d="M1858.97-178.69a.054.054,0,0,0,.034-.008.446.446,0,0,0,.2-.411.445.445,0,0,0-.274-.366.151.151,0,0,1-.037-.018.062.062,0,0,1,0-.025.672.672,0,0,1,.2-.321,1.476,1.476,0,0,1,.616-.427.715.715,0,0,1,.686.115.286.286,0,0,1,.108.248.052.052,0,0,0,.041.062.054.054,0,0,0,.063-.041.377.377,0,0,0-.14-.347.819.819,0,0,0-.79-.138,1.565,1.565,0,0,0-.661.455.756.756,0,0,0-.225.375.146.146,0,0,0,.012.1.149.149,0,0,0,.083.06.341.341,0,0,1,.214.28.339.339,0,0,1-.152.311.054.054,0,0,0-.017.074A.052.052,0,0,0,1858.97-178.69Z" fill="#c77968"/>
          </g>
        </g>
      </g>
    </g>
  </g>
</svg>
