<svg xmlns="http://www.w3.org/2000/svg" width="123" height="123" viewBox="0 0 123 123">
  <g id="Grupo_12260" data-name="Grupo 12260" transform="translate(-592.283 -39.57)">
    <g id="Grupo_12258" data-name="Grupo 12258" transform="translate(594.085 41.372)">
      <path id="Trazado_16172" data-name="Trazado 16172" d="M615.843,102.79a14.152,14.152,0,0,1-.14-2,13.93,13.93,0,0,1,27.859.013v.02a1.974,1.974,0,0,0,1.969,1.97h8.049a1.922,1.922,0,0,0,1.922-1.922V84.88a3.98,3.98,0,0,1,6.37-3.182,5.923,5.923,0,0,0,3.731,1.19,5.97,5.97,0,0,0-.15-11.938,5.914,5.914,0,0,0-3.53,1.154,4.053,4.053,0,0,1-2.893.815,3.99,3.99,0,0,1-3.528-3.96V48.992a1.922,1.922,0,0,0-1.922-1.922H603.763a3.98,3.98,0,0,0-3.98,3.98v49.818a1.922,1.922,0,0,0,1.922,1.922h14.138Z" transform="translate(-599.783 -47.07)" fill="#c1e3a0"/>
      <path id="Trazado_16173" data-name="Trazado 16173" d="M864.848,61.587A1.422,1.422,0,0,0,866.336,63q.25-.009.5-.009a13.93,13.93,0,0,1,.01,27.859q-.266,0-.531-.009a1.433,1.433,0,0,0-1.469,1.441v8.586a1.922,1.922,0,0,0,1.922,1.922h15.892a4.075,4.075,0,0,1,3.246,1.547,3.983,3.983,0,0,1,.031,4.823,5.92,5.92,0,0,0-1.19,3.729,5.97,5.97,0,0,0,11.938-.15,5.915,5.915,0,0,0-1.154-3.529,4.056,4.056,0,0,1-.815-2.894,3.99,3.99,0,0,1,3.959-3.527h19.966a1.922,1.922,0,0,0,1.922-1.922V51.05a3.98,3.98,0,0,0-3.98-3.98H866.77a1.922,1.922,0,0,0-1.922,1.922Z" transform="translate(-801.17 -47.07)" fill="#c9dbfd"/>
      <path id="Trazado_16174" data-name="Trazado 16174" d="M654.008,301.581a14.482,14.482,0,0,1-1.53-.028,13.93,13.93,0,0,1,1.034-27.822q.252,0,.5.009a1.422,1.422,0,0,0,1.488-1.412v-8.614a1.922,1.922,0,0,0-1.922-1.922H637.687a4.074,4.074,0,0,1-3.246-1.548,3.982,3.982,0,0,1-.03-4.822,5.921,5.921,0,0,0,1.19-3.728,5.97,5.97,0,0,0-11.938.148,5.915,5.915,0,0,0,1.155,3.531,4.051,4.051,0,0,1,.814,2.893,3.99,3.99,0,0,1-3.96,3.527H601.7a1.922,1.922,0,0,0-1.922,1.922v49.816a3.98,3.98,0,0,0,3.98,3.98H653.58a1.922,1.922,0,0,0,1.922-1.922V303a1.428,1.428,0,0,0-1.494-1.418Z" transform="translate(-599.783 -198.112)" fill="#ffe07d"/>
      <path id="Trazado_16175" data-name="Trazado 16175" d="M854.292,313.6q.01.264.01.529a13.93,13.93,0,0,1-27.859,0q0-.252.009-.5a1.421,1.421,0,0,0-1.411-1.488h-8.615a1.922,1.922,0,0,0-1.922,1.922v15.987a3.983,3.983,0,0,1-3.007,3.861,4.136,4.136,0,0,1-3.44-.735,5.9,5.9,0,0,0-3.283-1.132,5.97,5.97,0,1,0-.221,11.936,5.913,5.913,0,0,0,3.529-1.154,4.055,4.055,0,0,1,2.893-.815,3.99,3.99,0,0,1,3.527,3.96v19.966a1.922,1.922,0,0,0,1.922,1.922h49.817a3.98,3.98,0,0,0,3.98-3.98V314.06a1.922,1.922,0,0,0-1.922-1.922H855.728a1.428,1.428,0,0,0-1.436,1.464Z" transform="translate(-750.824 -248.459)" fill="#e27f84"/>
      <g id="Grupo_12257" data-name="Grupo 12257" transform="translate(65.598 0)">
        <path id="Trazado_16176" data-name="Trazado 16176" d="M1062.741,47.07h-5.525a3.98,3.98,0,0,1,3.98,3.98v49.817a1.922,1.922,0,0,1-1.922,1.922h5.525a1.922,1.922,0,0,0,1.922-1.922V51.05A3.98,3.98,0,0,0,1062.741,47.07Z" transform="translate(-1012.923 -47.07)" fill="#aecafc"/>
        <path id="Trazado_16177" data-name="Trazado 16177" d="M883.21,279h0Z" transform="translate(-872.841 -223.285)" fill="#aecafc"/>
      </g>
      <path id="Trazado_16178" data-name="Trazado 16178" d="M1064.8,312.138h-5.525a1.922,1.922,0,0,1,1.922,1.922v49.817a3.98,3.98,0,0,1-3.98,3.98h5.525a3.98,3.98,0,0,0,3.98-3.98V314.06A1.922,1.922,0,0,0,1064.8,312.138Z" transform="translate(-947.325 -248.459)" fill="#c9646d"/>
    </g>
    <g id="Grupo_12259" data-name="Grupo 12259" transform="translate(592.283 39.57)">
      <path id="Trazado_16179" data-name="Trazado 16179" d="M594.085,98.893h16.06a1.8,1.8,0,0,0,1.784-2.055,12.419,12.419,0,0,1-.122-1.738,12.128,12.128,0,1,1,24.256,0,12.382,12.382,0,0,1-.122,1.737,1.8,1.8,0,0,0,1.784,2.056H649.8a1.8,1.8,0,0,0,1.8-1.8V79.181a2.178,2.178,0,0,1,3.487-1.741,7.772,7.772,0,1,0,0-12.438,2.178,2.178,0,0,1-3.487-1.741V41.372a1.8,1.8,0,0,0-1.8-1.8H598.065a5.788,5.788,0,0,0-5.782,5.781v4.733a1.8,1.8,0,0,0,3.6,0V45.351a2.181,2.181,0,0,1,2.178-2.178H648V63.261a5.782,5.782,0,0,0,9.254,4.623,4.125,4.125,0,0,1,2.5-.83,4.168,4.168,0,1,1,0,8.336,4.128,4.128,0,0,1-2.5-.83A5.781,5.781,0,0,0,648,79.182V95.289h-8.337q0-.094,0-.189a15.731,15.731,0,0,0-31.463,0c0,.063,0,.126,0,.189H595.887v-38a1.8,1.8,0,1,0-3.6,0v39.8a1.8,1.8,0,0,0,1.8,1.8Z" transform="translate(-592.283 -39.57)"/>
      <path id="Trazado_16180" data-name="Trazado 16180" d="M629.02,86.443v-9.95a.188.188,0,0,1,.188-.188h9.95a1.8,1.8,0,0,0,0-3.6h-9.95a3.8,3.8,0,0,0-3.792,3.792v9.95a1.8,1.8,0,1,0,3.6,0Z" transform="translate(-617.457 -64.742)"/>
      <path id="Trazado_16181" data-name="Trazado 16181" d="M1018.2,72.7h-9.95a1.8,1.8,0,0,0,0,3.6h9.95a.188.188,0,0,1,.188.188v9.95a1.8,1.8,0,1,0,3.6,0v-9.95A3.8,3.8,0,0,0,1018.2,72.7Z" transform="translate(-906.952 -64.743)"/>
      <path id="Trazado_16182" data-name="Trazado 16182" d="M1021.994,465.487v-9.951a1.8,1.8,0,0,0-3.6,0v9.951a.188.188,0,0,1-.188.188h-9.95a1.8,1.8,0,0,0,0,3.6h9.95a3.8,3.8,0,0,0,3.792-3.792Z" transform="translate(-906.953 -354.238)"/>
      <path id="Trazado_16183" data-name="Trazado 16183" d="M639.159,465.677h-9.95a.188.188,0,0,1-.188-.188v-9.95a1.8,1.8,0,1,0-3.6,0v9.95a3.8,3.8,0,0,0,3.792,3.792h9.95a1.8,1.8,0,0,0,0-3.6Z" transform="translate(-617.457 -354.24)"/>
      <path id="Trazado_16184" data-name="Trazado 16184" d="M910.889,39.57H859.15a1.8,1.8,0,0,0-1.8,1.8V57.431a1.8,1.8,0,0,0,2.055,1.784,12.384,12.384,0,0,1,1.737-.122,12.128,12.128,0,1,1,0,24.256,12.417,12.417,0,0,1-1.737-.122,1.8,1.8,0,0,0-2.055,1.784V97.09a1.8,1.8,0,0,0,1.8,1.8h17.909a2.178,2.178,0,0,1,1.742,3.486,7.7,7.7,0,0,0-1.553,4.662,7.772,7.772,0,1,0,15.543,0,7.7,7.7,0,0,0-1.553-4.662,2.178,2.178,0,0,1,1.742-3.486h21.889a1.8,1.8,0,0,0,1.8-1.8V45.351a5.788,5.788,0,0,0-5.782-5.781Zm2.178,55.719H892.98a5.782,5.782,0,0,0-4.623,9.254,4.128,4.128,0,0,1,.831,2.5,4.168,4.168,0,1,1-8.336,0,4.126,4.126,0,0,1,.831-2.5,5.782,5.782,0,0,0-4.623-9.254H860.952V86.951a15.731,15.731,0,1,0,.189-31.462h-.189V43.174h49.937a2.181,2.181,0,0,1,2.178,2.178V95.289Z" transform="translate(-793.67 -39.57)"/>
      <path id="Trazado_16185" data-name="Trazado 16185" d="M650.985,294.39a1.8,1.8,0,0,0-1.434-.424,12.417,12.417,0,0,1-1.737.122,12.128,12.128,0,0,1,0-24.256,12.431,12.431,0,0,1,1.738.122,1.8,1.8,0,0,0,2.055-1.784V256.092a1.8,1.8,0,0,0-1.8-1.8h-17.91a2.178,2.178,0,0,1-1.741-3.486,7.772,7.772,0,1,0-12.437,0,2.178,2.178,0,0,1-1.741,3.486h-21.89a1.8,1.8,0,0,0-1.8,1.8V307.83a5.788,5.788,0,0,0,5.782,5.782H649.8a1.8,1.8,0,0,0,1.8-1.8V295.75a1.8,1.8,0,0,0-.621-1.36ZM648,310.008H598.065a2.18,2.18,0,0,1-2.178-2.178V257.894h20.088a5.781,5.781,0,0,0,4.622-9.254,4.128,4.128,0,0,1-.831-2.5,4.168,4.168,0,1,1,8.336,0,4.127,4.127,0,0,1-.831,2.5,5.781,5.781,0,0,0,4.622,9.254H648v8.337h-.189a15.731,15.731,0,0,0,0,31.463H648v12.318Z" transform="translate(-592.283 -190.611)"/>
      <path id="Trazado_16186" data-name="Trazado 16186" d="M864.523,304.636H848.464a1.8,1.8,0,0,0-1.784,2.055,12.391,12.391,0,0,1,.122,1.736,12.128,12.128,0,1,1-24.256,0,12.4,12.4,0,0,1,.122-1.737,1.8,1.8,0,0,0-1.784-2.055H808.806a1.8,1.8,0,0,0-1.8,1.8v17.909a2.178,2.178,0,0,1-3.487,1.741,7.772,7.772,0,1,0,0,12.438A2.178,2.178,0,0,1,807,340.268v21.889a1.8,1.8,0,0,0,1.8,1.8h40.7a1.8,1.8,0,0,0,0-3.6h-38.9V340.268a5.782,5.782,0,0,0-9.254-4.623,4.127,4.127,0,0,1-2.5.83,4.168,4.168,0,0,1,0-8.336,4.125,4.125,0,0,1,2.5.831,5.782,5.782,0,0,0,9.255-4.622V308.24h8.337c0,.063,0,.125,0,.188a15.731,15.731,0,0,0,31.463,0q0-.094,0-.188h12.318v49.937a2.18,2.18,0,0,1-2.178,2.178h-3.979a1.8,1.8,0,0,0,0,3.6h3.979a5.788,5.788,0,0,0,5.782-5.781V306.438a1.8,1.8,0,0,0-1.8-1.8Z" transform="translate(-743.325 -240.958)"/>
    </g>
  </g>
</svg>
