<svg xmlns="http://www.w3.org/2000/svg" width="124" height="129.156" viewBox="0 0 124 129.156">
  <g id="Grupo_12255" data-name="Grupo 12255" transform="translate(-68.351 -37.421)">
    <path id="Trazado_16153" data-name="Trazado 16153" d="M409.856,44.921h-33.2a6.37,6.37,0,0,0-6.37,6.37v33.2a6.37,6.37,0,0,0,6.37,6.37h5.957A3.141,3.141,0,0,1,385.751,94v5.372a1.184,1.184,0,0,0,2.12.726l6.261-8.068a3.025,3.025,0,0,1,2.39-1.171h13.333a6.37,6.37,0,0,0,6.37-6.37v-33.2a6.369,6.369,0,0,0-6.369-6.37Z" transform="translate(-225.768 -5.608)" fill="#f7e365"/>
    <path id="Trazado_16154" data-name="Trazado 16154" d="M506.759,44.921h-6.881a6.37,6.37,0,0,1,6.37,6.37v33.2a6.37,6.37,0,0,1-6.37,6.37h6.881a6.37,6.37,0,0,0,6.37-6.37v-33.2a6.37,6.37,0,0,0-6.37-6.37Z" transform="translate(-322.671 -5.608)" fill="#f3d332"/>
    <path id="Trazado_16155" data-name="Trazado 16155" d="M164.979,382.54H97.907l.923-12.668a16.707,16.707,0,0,1,14.083-15.292l5.311-.833a5.543,5.543,0,0,0,4.689-5.478v-19.5h19.929v19.5a5.545,5.545,0,0,0,4.689,5.478l5.314.833a16.7,16.7,0,0,1,14.08,15.292l.715,9.808a2.666,2.666,0,0,1-2.66,2.86Z" transform="translate(-22.1 -217.855)" fill="#faa68e"/>
    <path id="Trazado_16156" data-name="Trazado 16156" d="M118.331,365.849a2.014,2.014,0,0,1,1.949-1.507h8.372a8.211,8.211,0,0,0,8.212-8.212v-3.451a1.464,1.464,0,0,1,1.464-1.464h5.362a5.522,5.522,0,0,1-.847-2.937v-5.8h-17.6a1.162,1.162,0,0,1-.953-1.83l3.528-5.041a4.285,4.285,0,0,0-.988-5.909l-.09-.066a4.425,4.425,0,0,0-3.822-.678v19.324a5.543,5.543,0,0,1-4.689,5.478l-5.312.833a16.677,16.677,0,0,0-9.212,4.673l-5.691,21.9-.1,1.392H113.99Z" transform="translate(-22.1 -217.864)" fill="#e09380"/>
    <path id="Trazado_16157" data-name="Trazado 16157" d="M164.979,455.561H97.907l.923-12.668A16.707,16.707,0,0,1,112.913,427.6l5.311-.833a5.726,5.726,0,0,0,1.087-.284,18.555,18.555,0,0,0,26.985-.057,5.563,5.563,0,0,0,1.234.341l5.314.833a16.7,16.7,0,0,1,14.08,15.292l.715,9.808a2.668,2.668,0,0,1-2.66,2.86Z" transform="translate(-22.1 -290.875)" fill="#acd980"/>
    <path id="Trazado_16158" data-name="Trazado 16158" d="M120.281,437.523h8.372a8.214,8.214,0,0,0,7.728-5.431,18.914,18.914,0,0,1-3.6.35,18.289,18.289,0,0,1-13.465-5.789c-3.21,1.19-9.882.08-15.611,5.79l-5.691,21.9-.1,1.392h16.083l4.341-16.7a2.013,2.013,0,0,1,1.948-1.507Z" transform="translate(-22.101 -291.045)" fill="#8cc951"/>
    <path id="Trazado_16159" data-name="Trazado 16159" d="M305.717,452.7,305,442.892a16.669,16.669,0,0,0-4.371-10.1c-5.729-6.222-12.844-5.174-15.989-6.264l-.036-.014c-.078-.027-.156-.055-.232-.086a17.6,17.6,0,0,1-1.807,1.7l1.447.227a16.7,16.7,0,0,1,14.08,15.292l.715,9.808a2.656,2.656,0,0,1-.8,2.1h5.052A2.666,2.666,0,0,0,305.717,452.7Z" transform="translate(-160.178 -290.875)" fill="#8cc951"/>
    <path id="Trazado_16160" data-name="Trazado 16160" d="M125.613,78.315h-8.457A26.436,26.436,0,0,0,94.172,91.671a14.425,14.425,0,0,0-10.746,14.365l.73,25.263h74V110.857a32.542,32.542,0,0,0-32.542-32.542Z" transform="translate(-11.267 -30.578)" fill="#655e67"/>
    <g id="Grupo_12253" data-name="Grupo 12253" transform="translate(70.244 68.223)">
      <path id="Trazado_16161" data-name="Trazado 16161" d="M94.557,266.352H81.523a5.667,5.667,0,0,1-5.667-5.667v-1.777a5.667,5.667,0,0,1,5.667-5.667H94.557Z" transform="translate(-75.856 -229.601)" fill="#faa68e"/>
      <path id="Trazado_16162" data-name="Trazado 16162" d="M316.286,266.352H329.32a5.667,5.667,0,0,0,5.667-5.667v-1.777a5.667,5.667,0,0,0-5.667-5.667H316.286Z" transform="translate(-255.636 -229.601)" fill="#faa68e"/>
      <path id="Trazado_16163" data-name="Trazado 16163" d="M177.5,187.559c0,18.678-18.844,29.4-29.853,29.4s-29.853-10.722-29.853-29.4c0-11.931,3.316-20.961,8.683-27.017a3.032,3.032,0,0,1,4.541.015,40.467,40.467,0,0,0,3.925,3.921c1.657,1.423,3.613,2.722,5.793,2.746a4.612,4.612,0,0,0,3.749-1.929,2.387,2.387,0,0,1,2.993-.771,61.192,61.192,0,0,0,22.314,5.67,6.987,6.987,0,0,1,6.424,5.372A53.069,53.069,0,0,1,177.5,187.559Z" transform="translate(-107.216 -159.527)" fill="#faa68e"/>
    </g>
    <path id="Trazado_16164" data-name="Trazado 16164" d="M194.721,208.235a6.964,6.964,0,0,0-4.592-5.018,55.352,55.352,0,0,1,1.034,10.958c0,19.073-19.242,30.021-30.484,30.021-5.228,0-12.188-2.37-18.137-6.824,6.479,7.934,16.624,12.256,23.61,12.256,11.009,0,29.853-10.722,29.853-29.4a53.053,53.053,0,0,0-1.285-11.993Z" transform="translate(-55.476 -123.973)" fill="#e09380"/>
    <path id="Trazado_16165" data-name="Trazado 16165" d="M93.41,369.939,98.853,349a2.03,2.03,0,0,1,1.965-1.519h8.359a8.212,8.212,0,0,0,8.212-8.211v-3.452a1.464,1.464,0,0,1,1.464-1.464h8.162a4.442,4.442,0,0,0,4.481-4.331,4.368,4.368,0,0,0-4.369-4.407H105.764a1.162,1.162,0,0,1-.953-1.83l3.528-5.041a4.284,4.284,0,0,0-.989-5.909l-.09-.066a4.413,4.413,0,0,0-6.182.975c-2.521,3.5-13.6,18.834-14.694,20.352l-8.726,33.571a1.814,1.814,0,0,0,1.756,2.271h14Z" transform="translate(-6.914 -205.253)" fill="#f9b1a0"/>
    <g id="Grupo_12254" data-name="Grupo 12254" transform="translate(68.351 37.421)">
      <path id="Trazado_16166" data-name="Trazado 16166" d="M435.341,74.062a8.783,8.783,0,0,0-8.773,8.773,1.892,1.892,0,1,0,3.784,0,4.989,4.989,0,1,1,4.989,4.989h-1.2a1.892,1.892,0,0,0-1.892,1.892v6.473a1.892,1.892,0,0,0,3.784,0V91.581a8.773,8.773,0,0,0-.691-17.519Z" transform="translate(-336.205 -64.819)"/>
      <path id="Trazado_16167" data-name="Trazado 16167" d="M450.977,180.7a1.892,1.892,0,0,0-1.892,1.892v.554a1.892,1.892,0,1,0,3.784,0V182.6A1.892,1.892,0,0,0,450.977,180.7Z" transform="translate(-353.042 -144.56)"/>
      <path id="Trazado_16168" data-name="Trazado 16168" d="M184.087,37.421h-33.2a8.271,8.271,0,0,0-8.261,8.261V60.653a34.42,34.42,0,0,0-28.278-14.809h-8.458a28.42,28.42,0,0,0-24.228,13.64A16.228,16.228,0,0,0,70.266,75.511l.478,16.509a7.539,7.539,0,0,0-2.393,5.512v1.776a7.567,7.567,0,0,0,7.56,7.558h5.072a30.289,30.289,0,0,0,5.606,8.887l-8.654,11.985a1.9,1.9,0,0,0-.3.631l-8.726,33.57a3.706,3.706,0,0,0,3.587,4.639h70.379a4.561,4.561,0,0,0,4.548-4.89l-.716-9.807a18.431,18.431,0,0,0-1.959-7.06,1.892,1.892,0,0,0-3.373,1.715,14.666,14.666,0,0,1,1.558,5.62l.716,9.806a.776.776,0,0,1-.774.833h-8.726v-7.73a1.892,1.892,0,1,0-3.784,0v7.73H88.943l4.827-18.57a.138.138,0,0,1,.134-.1h8.359a10.04,10.04,0,0,0,4.7-1.164,20.807,20.807,0,0,0,3.711.334,20.3,20.3,0,0,0,14.077-5.6h.007c.369.077.089.02,5.694.9a14.694,14.694,0,0,1,5.721,2.173,1.892,1.892,0,1,0,2.048-3.181,18.452,18.452,0,0,0-7.184-2.73c-4.854-.814-5.3-.741-6.077-1.04a3.627,3.627,0,0,1-2.323-3.345,6.23,6.23,0,0,0,3.522-7.707c4.475-2.653,10.892-7.674,14.21-15.9h3.561a7.566,7.566,0,0,0,7.558-7.558V97.532a7.548,7.548,0,0,0-2.707-5.792V86.872a8.255,8.255,0,0,0,2.1.274h5.958a1.25,1.25,0,0,1,1.249,1.249v5.373a3.037,3.037,0,0,0,2.081,2.91,3.136,3.136,0,0,0,1.015.171,3.033,3.033,0,0,0,2.41-1.2l6.26-8.065a1.131,1.131,0,0,1,.9-.44h13.334a8.271,8.271,0,0,0,8.261-8.261v-33.2a8.272,8.272,0,0,0-8.264-8.261ZM72.135,99.307V97.532a3.781,3.781,0,0,1,3.776-3.776h3.07a31.054,31.054,0,0,0,.777,9.326H75.911A3.779,3.779,0,0,1,72.135,99.307Zm38.605,40.2a10.041,10.041,0,0,0,1.627-5.487v-3.023h6.507a7.4,7.4,0,0,0,2.287,4.823A16.584,16.584,0,0,1,110.74,139.5Zm9.361-12.295h-8.162a3.359,3.359,0,0,0-3.356,3.356v3.452a6.327,6.327,0,0,1-6.32,6.32H93.9a3.923,3.923,0,0,0-3.8,2.936l-5.075,19.522H72.6l8.612-33.13c.667-.925,12.939-17.918,14.487-20.065a2.491,2.491,0,0,1,1.636-1.009,2.532,2.532,0,0,1,1.9.457l.092.067a2.354,2.354,0,0,1,.976,1.866,2.325,2.325,0,0,1-.427,1.427l-3.527,5.039a3.054,3.054,0,0,0,2.5,4.809h21.363a2.476,2.476,0,0,1,2.477,2.5A2.541,2.541,0,0,1,120.1,127.209Zm27.6-27.9a3.778,3.778,0,0,1-3.774,3.774h-2.336a28.436,28.436,0,0,0,.827-6.826c0-.844-.018-1.679-.05-2.5h1.559a3.779,3.779,0,0,1,3.774,3.776Zm-3.774-9.336H142.1a50.552,50.552,0,0,0-1.012-6.137A8.923,8.923,0,0,0,132.927,77a59.445,59.445,0,0,1-21.621-5.5,4.3,4.3,0,0,0-5.361,1.43,2.7,2.7,0,0,1-2.157,1.095c-1.325-.015-2.781-.743-4.583-2.29A38.9,38.9,0,0,1,95.464,68a4.94,4.94,0,0,0-3.7-1.669h0a4.915,4.915,0,0,0-3.675,1.652,32.236,32.236,0,0,0-4.694,7.01,1.892,1.892,0,0,0,3.387,1.688,28.447,28.447,0,0,1,4.139-6.188,1.116,1.116,0,0,1,.843-.379,1.152,1.152,0,0,1,.865.393,42.63,42.63,0,0,0,4.109,4.1c1.583,1.359,4.031,3.169,7,3.2a6.479,6.479,0,0,0,5.341-2.765.509.509,0,0,1,.622-.115,63.272,63.272,0,0,0,23.009,5.846A5.118,5.118,0,0,1,137.4,84.69,47.98,47.98,0,0,1,138.484,92c.1,1.364.154,2.795.154,4.251a24.436,24.436,0,0,1-1.359,8.093c-2.827,8.081-9.152,12.908-13.352,15.34a6.216,6.216,0,0,0-3.713-1.219H100.249l2.723-3.891a6.176,6.176,0,0,0-1.423-8.527l-.092-.067a6.305,6.305,0,0,0-8.828,1.4L88.862,112.6a26.028,26.028,0,0,1-4.788-8.256c-1.457-4.161-1.538-7.9-1.206-12.347a47.759,47.759,0,0,1,1.122-7.475,1.892,1.892,0,1,0-3.683-.87,50.4,50.4,0,0,0-1.056,6.315H75.911a7.557,7.557,0,0,0-1.437.139L74.049,75.4a12.465,12.465,0,0,1,9.337-12.479,1.893,1.893,0,0,0,1.164-.892,24.624,24.624,0,0,1,21.338-12.4h8.458A30.687,30.687,0,0,1,145,80.28v9.768a7.6,7.6,0,0,0-1.067-.077Zm44.637-11.087a4.483,4.483,0,0,1-4.478,4.478H170.755a4.891,4.891,0,0,0-3.886,1.9L161.876,91.7v-3.3a5.038,5.038,0,0,0-5.033-5.033h-5.958a4.422,4.422,0,0,1-2.1-.526V80.28a34.262,34.262,0,0,0-2.374-12.565V45.682a4.483,4.483,0,0,1,4.478-4.478h33.2a4.484,4.484,0,0,1,4.48,4.478Z" transform="translate(-68.351 -37.421)"/>
      <path id="Trazado_16169" data-name="Trazado 16169" d="M192.629,260.6a1.892,1.892,0,0,0,1.892-1.892V256.6a1.892,1.892,0,0,0-3.784,0v2.112A1.892,1.892,0,0,0,192.629,260.6Z" transform="translate(-159.864 -199.893)"/>
      <path id="Trazado_16170" data-name="Trazado 16170" d="M304.706,260.6a1.892,1.892,0,0,0,1.892-1.892V256.6a1.892,1.892,0,0,0-3.784,0v2.112a1.892,1.892,0,0,0,1.892,1.892Z" transform="translate(-243.669 -199.893)"/>
      <path id="Trazado_16171" data-name="Trazado 16171" d="M232.9,300.466a6.9,6.9,0,0,1,7.561,0,1.892,1.892,0,0,0,1.906-3.268,10.748,10.748,0,0,0-11.374,0,1.892,1.892,0,1,0,1.907,3.268Z" transform="translate(-189.267 -230.45)"/>
    </g>
  </g>
</svg>
