<svg xmlns="http://www.w3.org/2000/svg" width="127.217" height="123.001" viewBox="0 0 127.217 123.001">
  <g id="Grupo_12286" data-name="Grupo 12286" transform="translate(-244.763 -37.773)">
    <g id="Grupo_12284" data-name="Grupo 12284" transform="translate(246.624 39.637)">
      <g id="Grupo_12276" data-name="Grupo 12276" transform="translate(102.048 107.79)">
        <g id="Grupo_12275" data-name="Grupo 12275">
          <g id="Grupo_12274" data-name="Grupo 12274">
            <path id="Trazado_16217" data-name="Trazado 16217" d="M333.468,113.07H321.12l-5.005,4.04v5.013l5.005,2.432h12.348a4.093,4.093,0,0,0,4.1-4.092v-3.3A4.1,4.1,0,0,0,333.468,113.07Z" transform="translate(-316.115 -113.07)" fill="#efedef"/>
          </g>
        </g>
      </g>
      <path id="Trazado_16218" data-name="Trazado 16218" d="M260.63,113.07h-4.2l-10.034,5.164a.649.649,0,0,0,0,1.156l10.034,5.164h4.2l3.23-3.77v-6.271Z" transform="translate(-246.041 -5.28)" fill="#fedba6"/>
      <g id="Grupo_12279" data-name="Grupo 12279" transform="translate(24.92 17.065)">
        <g id="Grupo_12278" data-name="Grupo 12278">
          <g id="Grupo_12277" data-name="Grupo 12277">
            <path id="Trazado_16219" data-name="Trazado 16219" d="M270.354,64.989a9.8,9.8,0,0,1,.032-8.917l4.688-5.3h51.551l3.331,5.3a9.8,9.8,0,0,1,.032,8.917l-4.809,8.1,8.531,19.3a39.766,39.766,0,0,1-7.062,43.236l-5.417,5.87-3.995,6.628H286.28l-7.169-6.628-5.417-5.87a39.77,39.77,0,0,1-7.062-43.236l7.226-16.508Z" transform="translate(-263.153 -50.771)" fill="#e8ad8c"/>
          </g>
        </g>
      </g>
      <g id="Grupo_12283" data-name="Grupo 12283" transform="translate(14.589)">
        <path id="Trazado_16220" data-name="Trazado 16220" d="M299.67,68.924a11.142,11.142,0,0,0-10.532-7.5h-19.13l-1.593-2.388A26.348,26.348,0,0,1,263.978,44.4V39.845a.79.79,0,0,1,1.4-.5l3.909,4.831a14.444,14.444,0,0,0,11.232,5.362h3.1a6.414,6.414,0,0,0,4.3-1.659,17.507,17.507,0,0,1,23.5,0,6.413,6.413,0,0,0,4.3,1.659h6.93a6.415,6.415,0,0,0,4.986-2.38l6.319-7.813a.79.79,0,0,1,1.4.5V44.4a26.359,26.359,0,0,1-4.436,14.634l-1.595,2.388H310.2a11.145,11.145,0,0,0-10.533,7.5Z" transform="translate(-252.446 -39.053)" fill="#dc8758"/>
        <path id="Trazado_16221" data-name="Trazado 16221" d="M310.224,121.465l2.133-3.256a39.018,39.018,0,0,0,4.471-33.423l-2.349-5.841H276.814l-2.106,5.841a39.019,39.019,0,0,0,4.471,33.423l2.133,3.256,7.293,8.968h12.639Z" transform="translate(-248.419 -20.851)" fill="#dc8758"/>
        <path id="Trazado_16222" data-name="Trazado 16222" d="M333.169,90.2,324.781,71.22a.685.685,0,0,1,.038-.626l4.614-7.768.029-.052a9.8,9.8,0,0,0,1.043-4.4v0a.675.675,0,0,0-.383-.6A22.415,22.415,0,0,0,300.128,68.5a.685.685,0,0,1-1.244,0A22.416,22.416,0,0,0,269.15,57.643a.677.677,0,0,0-.392.6,9.811,9.811,0,0,0,1.034,4.519.486.486,0,0,1,.035.086l3.411,10.6a.684.684,0,0,1-.025.483L266.09,90.2a39.741,39.741,0,0,0-1.721,4.577.682.682,0,0,0,.224.734,22.4,22.4,0,0,0,34.291-8.033.685.685,0,0,1,1.244,0,22.4,22.4,0,0,0,34.491,7.871.686.686,0,0,0,.217-.733,39.661,39.661,0,0,0-1.666-4.417Z" transform="translate(-252.281 -31.518)" fill="#e19974"/>
        <g id="Grupo_12280" data-name="Grupo 12280" transform="translate(25.042 58.093)">
          <path id="Trazado_16223" data-name="Trazado 16223" d="M274.5,89.748a22.433,22.433,0,0,0,19.171-10.8H276.607L274.5,84.785a38.884,38.884,0,0,0-1.247,4.924C273.667,89.732,274.082,89.748,274.5,89.748Z" transform="translate(-273.255 -78.944)" fill="#d77f4a"/>
          <path id="Trazado_16224" data-name="Trazado 16224" d="M310.362,89.693a39.192,39.192,0,0,0-1.244-4.908l-2.349-5.841H289.7a22.43,22.43,0,0,0,19.169,10.8c.5,0,1-.022,1.493-.055Z" transform="translate(-265.751 -78.944)" fill="#d77f4a"/>
        </g>
        <circle id="Elipse_635" data-name="Elipse 635" cx="17.462" cy="17.462" r="17.462" transform="translate(8.827 29.01)" fill="#fedba6"/>
        <path id="Trazado_16225" data-name="Trazado 16225" d="M272.38,76.435A17.469,17.469,0,0,1,284.711,59.74a17.462,17.462,0,1,0,0,33.39A17.469,17.469,0,0,1,272.38,76.435Z" transform="translate(-253.293 -29.963)" fill="#fccd7f"/>
        <circle id="Elipse_636" data-name="Elipse 636" cx="10.016" cy="10.016" r="10.016" transform="translate(16.271 36.48)" fill="#f9f7f8"/>
        <circle id="Elipse_637" data-name="Elipse 637" cx="4.545" cy="4.545" r="4.545" transform="translate(24.85 37.652)" fill="#7a6d79"/>
        <circle id="Elipse_638" data-name="Elipse 638" cx="17.462" cy="17.462" r="17.462" transform="translate(50.699 29.01)" fill="#fedba6"/>
        <path id="Trazado_16226" data-name="Trazado 16226" d="M301.131,76.435A17.471,17.471,0,0,1,313.464,59.74a17.462,17.462,0,1,0,0,33.39A17.471,17.471,0,0,1,301.131,76.435Z" transform="translate(-240.174 -29.963)" fill="#fccd7f"/>
        <circle id="Elipse_639" data-name="Elipse 639" cx="10.016" cy="10.016" r="10.016" transform="translate(58.137 36.423)" fill="#f9f7f8"/>
        <circle id="Elipse_640" data-name="Elipse 640" cx="4.545" cy="4.545" r="4.545" transform="translate(60.501 37.598)" fill="#7a6d79"/>
        <path id="Trazado_16227" data-name="Trazado 16227" d="M289.259,93.479a14.905,14.905,0,0,1-5.117-12.358l.144-1.988a.766.766,0,0,1,.444-.639,14.139,14.139,0,0,1,11.767,0,.766.766,0,0,1,.444.639l.131,1.8a14.909,14.909,0,0,1-5.348,12.553l-.023.019a1.891,1.891,0,0,1-2.442-.025Z" transform="translate(-243.263 -21.642)" fill="#fec165"/>
        <path id="Trazado_16228" data-name="Trazado 16228" d="M256.059,113.07h92.464v11.484H256.059Z" transform="translate(-256.059 -5.28)" fill="#99e6fc"/>
        <path id="Trazado_16229" data-name="Trazado 16229" d="M281.28,108.126a7.169,7.169,0,0,0-7.169,7.169v.031H288.45V115.3a7.169,7.169,0,0,0-7.169-7.169Z" transform="translate(-247.822 -7.536)" fill="#fec165"/>
        <g id="Grupo_12281" data-name="Grupo 12281" transform="translate(31.566 105.929)">
          <path id="Trazado_16230" data-name="Trazado 16230" d="M279.6,119.1a1.862,1.862,0,0,1-1.861-1.861v-3.581a1.861,1.861,0,1,1,3.722,0v3.581A1.861,1.861,0,0,1,279.6,119.1Z" transform="translate(-277.735 -111.792)" fill="#fec165"/>
        </g>
        <path id="Trazado_16231" data-name="Trazado 16231" d="M300.357,108.126a7.169,7.169,0,0,1,7.169,7.169v.031H293.188V115.3a7.169,7.169,0,0,1,7.169-7.169Z" transform="translate(-239.117 -7.536)" fill="#fec165"/>
        <g id="Grupo_12282" data-name="Grupo 12282" transform="translate(59.408 105.929)">
          <path id="Trazado_16232" data-name="Trazado 16232" d="M298.714,119.1a1.862,1.862,0,0,1-1.861-1.861v-3.581a1.861,1.861,0,1,1,3.722,0v3.581A1.861,1.861,0,0,1,298.714,119.1Z" transform="translate(-296.853 -111.792)" fill="#fec165"/>
        </g>
      </g>
    </g>
    <g id="Grupo_12285" data-name="Grupo 12285" transform="translate(244.763 37.773)">
      <path id="Trazado_16233" data-name="Trazado 16233" d="M277.833,86.565a11.879,11.879,0,1,0-11.879-11.879A11.892,11.892,0,0,0,277.833,86.565Zm3.106-18.86a2.685,2.685,0,1,1-2.684,2.684A2.688,2.688,0,0,1,280.939,67.7Zm-5.331-.864a6.4,6.4,0,0,0,10.373,7.5c0,.115.009.233.009.35a8.157,8.157,0,1,1-10.382-7.845Z" transform="translate(-235.094 -26.351)"/>
      <path id="Trazado_16234" data-name="Trazado 16234" d="M306.585,62.807a11.879,11.879,0,1,0,11.879,11.879A11.893,11.893,0,0,0,306.585,62.807Zm-.421,7.581a2.685,2.685,0,1,1-2.685-2.684A2.688,2.688,0,0,1,306.164,70.388Zm.421,12.454a8.165,8.165,0,0,1-8.155-8.157q0-.177.009-.35a6.4,6.4,0,0,0,10.372-7.5,8.155,8.155,0,0,1-2.225,16Z" transform="translate(-221.974 -26.351)"/>
      <path id="Trazado_16235" data-name="Trazado 16235" d="M366.025,145.566H333.872l2.535-2.747A41.571,41.571,0,0,0,344.2,98.484a19.287,19.287,0,0,0-3.582-28.076,11.7,11.7,0,0,0-.245-8.457l.869-1.3a28.13,28.13,0,0,0,4.749-15.667V40.429a2.651,2.651,0,0,0-4.711-1.667l-6.32,7.812a4.532,4.532,0,0,1-3.539,1.689h-6.93a4.546,4.546,0,0,1-3.055-1.177,19.368,19.368,0,0,0-25.995,0,4.54,4.54,0,0,1-3.054,1.178h-3.1a12.534,12.534,0,0,1-9.786-4.67L275.6,38.762a2.651,2.651,0,0,0-4.713,1.666v4.554a28.12,28.12,0,0,0,4.75,15.667l1.024,1.535a11.692,11.692,0,0,0-.2,8.082,19.281,19.281,0,0,0-3.616,28.412,41.573,41.573,0,0,0,7.871,44.142l2.537,2.747h-3.779a1.861,1.861,0,1,0,0,3.722h5.671v1.72a1.861,1.861,0,1,0,3.722,0v-1.72h3.913v1.72a1.861,1.861,0,1,0,3.722,0v-1.72h3.915v1.72a1.861,1.861,0,0,0,3.722,0v-1.72h8.847v1.72a1.861,1.861,0,1,0,3.722,0v-1.72h3.913v1.72a1.861,1.861,0,0,0,3.722,0v-1.72h3.913v1.72a1.861,1.861,0,1,0,3.722,0v-1.72h19.838v7.763H263.074v-7.763h8.468a1.861,1.861,0,1,0,0-3.722H257.013a1.867,1.867,0,0,0-.852.207l-10.035,5.164a2.511,2.511,0,0,0,0,4.466l10.035,5.164a1.867,1.867,0,0,0,.852.207H366.025a5.963,5.963,0,0,0,5.955-5.956v-3.3a5.963,5.963,0,0,0-5.955-5.955Zm-32.353-5.272-3.036,3.29A9.086,9.086,0,0,0,326,139.093l.708-1.079a41.062,41.062,0,0,0,6.462-18.174,1.861,1.861,0,1,0-3.7-.384,37.334,37.334,0,0,1-5.873,16.52l-1.574,2.4a9.048,9.048,0,0,0-8.411,7.188H303.514a9.046,9.046,0,0,0-8.41-7.188l-1.574-2.4a36.972,36.972,0,0,1-4.631-30.6,19.236,19.236,0,0,0,11.3-4.72,16.854,16.854,0,0,0,5.792,12.227,3.74,3.74,0,0,0,4.848.048l.023-.019a16.808,16.808,0,0,0,6.036-12.062A19.241,19.241,0,0,0,328.23,105.4a37.229,37.229,0,0,1,1.247,6.507,1.861,1.861,0,0,0,1.851,1.675q.092,0,.188-.009a1.863,1.863,0,0,0,1.666-2.039,41.274,41.274,0,0,0-1.133-6.287,19.224,19.224,0,0,0,9.256-3.952,37.844,37.844,0,0,1-7.632,39ZM313.165,99.062a13.069,13.069,0,0,1-4.68,10.985l-.022.019a.029.029,0,0,1-.036,0,13.107,13.107,0,0,1-4.479-10.816l.1-1.319a12.258,12.258,0,0,1,9.041,0Zm31.81-12.954a15.6,15.6,0,1,1-15.6-15.6,15.619,15.619,0,0,1,15.6,15.6ZM274.607,44.982V43.457l2,2.476a16.24,16.24,0,0,0,12.68,6.051h3.1a8.253,8.253,0,0,0,5.551-2.139,15.65,15.65,0,0,1,21,0,8.25,8.25,0,0,0,5.551,2.139h6.93a8.236,8.236,0,0,0,6.432-3.07l4.415-5.458V44.98a24.419,24.419,0,0,1-4.123,13.6l-1.041,1.56H318.971a13.016,13.016,0,0,0-10.533,5.377,13.015,13.015,0,0,0-10.532-5.377H279.772l-1.043-1.56a24.414,24.414,0,0,1-4.123-13.6Zm12.9,25.527a15.474,15.474,0,0,1,6.258,1.309,1.861,1.861,0,1,0,1.5-3.409,19.307,19.307,0,0,0-15.47-.01A7.966,7.966,0,0,1,280,63.865h17.905a9.286,9.286,0,0,1,8.773,6.25,1.861,1.861,0,0,0,3.518,0,9.287,9.287,0,0,1,8.774-6.25h18.153a7.97,7.97,0,0,1,.189,4.634,19.318,19.318,0,0,0-25.734,25.138,15.979,15.979,0,0,0-6.3.052A19.316,19.316,0,0,0,302.4,73.8a1.861,1.861,0,1,0-2.867,2.374A15.6,15.6,0,1,1,287.5,70.509ZM275.762,101.44a19.221,19.221,0,0,0,9.3,3.833,40.673,40.673,0,0,0,5.352,32.74l.708,1.079a9.086,9.086,0,0,0-4.635,4.491l-3.036-3.29A37.85,37.85,0,0,1,275.762,101.44Zm13.927,44.126a5.308,5.308,0,0,1,9.965,0Zm27.782,0a5.309,5.309,0,0,1,9.967,0Zm-67.55,7.6,7.544-3.881h1.889v7.763h-1.889Zm118.338,1.648a2.236,2.236,0,0,1-2.232,2.234H355.538v-7.763h10.487a2.236,2.236,0,0,1,2.232,2.232Z" transform="translate(-244.763 -37.773)"/>
      <path id="Trazado_16236" data-name="Trazado 16236" d="M293.638,96.745a1.861,1.861,0,0,0-2.632.047,1.512,1.512,0,0,1-1.094.465h0a1.509,1.509,0,0,1-1.086-.456,1.861,1.861,0,0,0-2.706,2.556l.025.026a5.2,5.2,0,0,0,3.767,1.6h0a5.2,5.2,0,0,0,3.769-1.6,1.861,1.861,0,0,0-.047-2.632Z" transform="translate(-226.121 -11.103)"/>
      <path id="Trazado_16237" data-name="Trazado 16237" d="M285.261,93.108a1.861,1.861,0,0,0-2.632.047,1.506,1.506,0,0,1-1.094.465h0a1.508,1.508,0,0,1-1.091-.46l0,0-2.672,2.589a5.2,5.2,0,0,0,3.767,1.6h0a5.194,5.194,0,0,0,3.769-1.6A1.861,1.861,0,0,0,285.261,93.108Z" transform="translate(-229.704 -12.763)"/>
      <path id="Trazado_16238" data-name="Trazado 16238" d="M299.23,93.155a1.506,1.506,0,0,1-1.094.465h0a1.513,1.513,0,0,1-1.094-.466,1.861,1.861,0,1,0-2.678,2.585,5.2,5.2,0,0,0,3.77,1.6h0a5.2,5.2,0,0,0,3.77-1.6l0,0a1.861,1.861,0,0,0-2.68-2.583Z" transform="translate(-222.369 -12.763)"/>
      <path id="Trazado_16239" data-name="Trazado 16239" d="M286.4,102.419a1.509,1.509,0,0,1-1.1.465h0a1.507,1.507,0,0,1-1.086-.456,1.862,1.862,0,0,0-2.707,2.556l.026.026a5.2,5.2,0,0,0,3.767,1.6h0a5.2,5.2,0,0,0,3.77-1.6,1.861,1.861,0,1,0-2.678-2.585Z" transform="translate(-228.224 -8.535)"/>
      <path id="Trazado_16240" data-name="Trazado 16240" d="M295.626,102.424a1.513,1.513,0,0,1-1.092.46h0a1.51,1.51,0,0,1-1.1-.465A1.861,1.861,0,0,0,290.76,105a5.2,5.2,0,0,0,3.77,1.6h0a5.2,5.2,0,0,0,3.769-1.6l.025-.026,0,0a1.861,1.861,0,0,0-2.7-2.556Z" transform="translate(-224.013 -8.535)"/>
    </g>
  </g>
</svg>
