<svg id="Grupo_12268" data-name="Grupo 12268" xmlns="http://www.w3.org/2000/svg" width="80.327" height="59.761" viewBox="0 0 80.327 59.761">
  <g id="Grupo_12267" data-name="Grupo 12267">
    <path id="Trazado_16210" data-name="Trazado 16210" d="M1207.35,400.13a1.569,1.569,0,0,0-2.144.574c-.482.836-2.8,1.131-3.43.843a1.569,1.569,0,0,0-1.64,2.675,4.629,4.629,0,0,0,2.4.561,8.434,8.434,0,0,0,2-.248,5.246,5.246,0,0,0,3.381-2.261,1.57,1.57,0,0,0-.574-2.143Z" transform="translate(-1177.368 -379.305)"/>
    <path id="Trazado_16211" data-name="Trazado 16211" d="M1246.3,387.746c-7.847-7.778-14.665-14.533-22.394-10.905-2.592-1.783-6.169-3.1-12.33-3.1s-9.738,1.321-12.329,3.1c-7.73-3.627-14.546,3.126-22.394,10.905a18.017,18.017,0,0,0-5.394,14.392,25.919,25.919,0,0,0,3.741,11.46,16.329,16.329,0,0,0,5.007,4.865c1.95,1.369,3.49,2.45,4.107,5.069.606,2.574,2.054,2.955,2.857,2.955a2.305,2.305,0,0,0,.488-.05c2.552-.553,3.717-4.87,4.1-6.7a33.266,33.266,0,0,0,.338-10.279c3.145,2.018,3.527,3.97,3.569,4.29-.046,1.357-.237,2.912-.439,4.556-.5,4.059-1.016,8.257.513,10.884,1.572,2.7,3.85,4.311,6.093,4.311a5.486,5.486,0,0,0,4.294-2.295,11,11,0,0,0,10.9,0,5.485,5.485,0,0,0,4.293,2.295c2.243,0,4.521-1.612,6.093-4.311,1.53-2.626,1.013-6.824.513-10.884-.2-1.645-.393-3.2-.439-4.556.042-.32.423-2.272,3.569-4.29a33.262,33.262,0,0,0,.336,10.267c.382,1.834,1.546,6.159,4.1,6.714a2.312,2.312,0,0,0,.489.05c.8,0,2.252-.381,2.858-2.955.616-2.619,2.156-3.7,4.107-5.069a16.32,16.32,0,0,0,5.006-4.866,25.891,25.891,0,0,0,3.74-11.459,18.013,18.013,0,0,0-5.393-14.392Zm-57.508,30.8a12.881,12.881,0,0,1-1.424,4.266l0,0c-.89-3.781-3.161-5.375-5.358-6.917a13.362,13.362,0,0,1-4.144-3.952c-.817-1.316-7.73-13.121,1.2-21.968,7.557-7.491,12.45-12,17.417-10.8-.38.372-.748.748-1.115,1.123-.309.316-.621.635-.942.953-3.624,3.592-8.442,9.119-8.442,15.611,0,.331,0,.649,0,.956-.013,4.081-.021,6.73,2.584,9.186a32.039,32.039,0,0,1,.23,11.548Zm19.045,10.028a9.132,9.132,0,0,1,2.033-2.441,1.79,1.79,0,0,1,1.306-.273c.263.006.536.006.8,0a1.791,1.791,0,0,1,1.306.273,9.137,9.137,0,0,1,2.033,2.441,7.963,7.963,0,0,1-7.477,0Zm3.738-11.536c-1.251,0-1.429-.221-1.9-.811a6.1,6.1,0,0,0-1.428-1.378,6.553,6.553,0,0,0-2.012-.815,3.678,3.678,0,0,1-.875-.3.973.973,0,0,1-.057-.421c0-1.64,3.167-3.311,6.275-3.311s6.276,1.672,6.276,3.311a1.112,1.112,0,0,1-.052.414,3.475,3.475,0,0,1-.88.309,6.555,6.555,0,0,0-2.012.815,6.1,6.1,0,0,0-1.428,1.378c-.474.59-.652.811-1.9.811Zm13.127,10.564c-.959,1.647-2.319,2.753-3.381,2.753s-1.98-1.164-2.549-2.142a14.355,14.355,0,0,0-3.7-4.655,4.457,4.457,0,0,0-1.931-.783v-2.749a4.512,4.512,0,0,0,2.78-1.833,3.234,3.234,0,0,1,.723-.733,4.018,4.018,0,0,1,1.09-.4c1.137-.307,3.252-.878,3.252-3.752,0-3.857-4.867-6.449-9.414-6.449s-9.413,2.592-9.413,6.449c0,2.875,2.116,3.445,3.252,3.752a4.011,4.011,0,0,1,1.09.4,3.242,3.242,0,0,1,.723.733,4.512,4.512,0,0,0,2.78,1.833v2.749a4.459,4.459,0,0,0-1.931.783,14.358,14.358,0,0,0-3.7,4.655c-.569.977-1.473,2.142-2.549,2.142s-2.422-1.106-3.381-2.753c-1-1.713-.527-5.543-.11-8.921.206-1.675.419-3.406.465-4.927.117-3.863,2.874-8.23,7.194-11.4,2.5-1.829,3.717-5.562,4.078-12.48a1.569,1.569,0,1,0-3.133-.164c-.108,2.073-.439,8.383-2.8,10.112a21.614,21.614,0,0,0-7.525,9.331,14.746,14.746,0,0,0-3.637-2.837c-3.885-2.223-3.881-3.428-3.866-8.5q0-.465,0-.965c0-5.32,4.288-10.185,7.513-13.382.335-.332.661-.665.976-.987,2.95-3.015,5.5-5.618,13.969-5.618.47,0,.919.009,1.353.024.012,1.349.01,2.728.008,4.072-.013,9.4-.027,18.284,4.218,21.393,4.321,3.165,7.077,7.532,7.194,11.4.047,1.52.259,3.252.465,4.926.416,3.378.887,7.208-.11,8.921Zm1.83-18.444a21.616,21.616,0,0,0-7.525-9.331c-2.959-2.167-2.945-11.033-2.934-18.856,0-1.25,0-2.53-.005-3.794,5.031.772,7.128,2.911,9.477,5.31.315.322.641.655.976.987,3.225,3.2,7.513,8.062,7.513,13.382q0,.5,0,.965c.012,3.936.016,5.542-1.8,7.1a1.74,1.74,0,0,0-.191.158,14.432,14.432,0,0,1-1.875,1.236A14.718,14.718,0,0,0,1226.538,409.163Zm18.753,2.779a13.349,13.349,0,0,1-4.143,3.952c-2.2,1.542-4.468,3.137-5.358,6.917l0,.005a12.893,12.893,0,0,1-1.426-4.278,32.022,32.022,0,0,1,.231-11.536c2.605-2.456,2.6-5.106,2.584-9.186,0-.308,0-.626,0-.956,0-6.492-4.818-12.018-8.442-15.611-.321-.317-.633-.636-.942-.953-.367-.374-.735-.75-1.114-1.123,4.967-1.2,9.863,3.313,17.417,10.8C1253.021,398.822,1246.109,410.626,1245.291,411.942Z" transform="translate(-1171.417 -373.736)"/>
    <path id="Trazado_16212" data-name="Trazado 16212" d="M1240.724,401.547c-.631.289-2.948-.006-3.43-.842a1.569,1.569,0,1,0-2.717,1.569,5.245,5.245,0,0,0,3.381,2.261,8.432,8.432,0,0,0,2,.248,4.627,4.627,0,0,0,2.4-.561,1.569,1.569,0,0,0-1.639-2.675Z" transform="translate(-1184.805 -379.305)"/>
    <path id="Trazado_16213" data-name="Trazado 16213" d="M1218.288,383.183h0a1.569,1.569,0,1,0,1.57,1.569A1.569,1.569,0,0,0,1218.286,383.183Z" transform="translate(-1181.052 -375.745)"/>
  </g>
</svg>
