<svg xmlns="http://www.w3.org/2000/svg" width="633.74" height="635.719" viewBox="0 0 633.74 635.719">
  <g id="Grupo_13485" data-name="Grupo 13485" transform="translate(-383 -1439)">
    <g id="Grupo_12327" data-name="Grupo 12327" transform="translate(-1090.662 338.849)">
      <rect id="Rectángulo_2792" data-name="Rectángulo 2792" width="198.174" height="198.174" rx="20" transform="translate(1691.445 1100.151)" fill="#416fb3"/>
      <path id="Trazado_20498" data-name="Trazado 20498" d="M-46.963-7.639a7.382,7.382,0,0,1-2.107,5.67A8.593,8.593,0,0,1-55.156,0H-59.4V-14.991h4.707a7.926,7.926,0,0,1,5.7,1.938A7.129,7.129,0,0,1-46.963-7.639Zm-3.3.082q0-4.83-4.266-4.83h-1.692v9.762h1.364Q-50.265-2.625-50.265-7.557Zm10.91-1.9a1.984,1.984,0,0,0-1.559.631,2.919,2.919,0,0,0-.646,1.789h4.389a2.607,2.607,0,0,0-.6-1.789A2.048,2.048,0,0,0-39.354-9.454Zm.441,9.659a5.917,5.917,0,0,1-4.327-1.528A5.785,5.785,0,0,1-44.8-5.65a6.363,6.363,0,0,1,1.441-4.455,5.13,5.13,0,0,1,3.984-1.574,5.049,5.049,0,0,1,3.784,1.384A5.237,5.237,0,0,1-34.238-6.47v1.518h-7.393a3.01,3.01,0,0,0,.79,2.082,2.778,2.778,0,0,0,2.071.749,8.6,8.6,0,0,0,1.958-.215,9.8,9.8,0,0,0,1.928-.687V-.6a7.344,7.344,0,0,1-1.753.61A11.055,11.055,0,0,1-38.914.205Zm13.6-11.884a3.708,3.708,0,0,1,3.179,1.584A7.269,7.269,0,0,1-20.99-5.752a7.142,7.142,0,0,1-1.184,4.4A3.833,3.833,0,0,1-25.4.205a3.8,3.8,0,0,1-3.168-1.466h-.215L-29.306,0h-2.389V-15.955h3.127v3.712q0,.708-.123,2.266h.123A3.618,3.618,0,0,1-25.317-11.679Zm-1,2.5a1.975,1.975,0,0,0-1.692.713,4.092,4.092,0,0,0-.554,2.353v.338a4.83,4.83,0,0,0,.549,2.646,1.958,1.958,0,0,0,1.738.8,1.744,1.744,0,0,0,1.533-.887,4.8,4.8,0,0,0,.569-2.579,4.548,4.548,0,0,0-.574-2.538A1.8,1.8,0,0,0-26.322-9.177Zm7.783-5.25q0-1.528,1.7-1.528t1.7,1.528a1.49,1.49,0,0,1-.426,1.133,1.789,1.789,0,0,1-1.277.405Q-18.539-12.889-18.539-14.427ZM-15.278,0h-3.127V-11.464h3.127ZM-8.87,0H-12V-15.955H-8.87Zm3.148-14.427q0-1.528,1.7-1.528t1.7,1.528a1.49,1.49,0,0,1-.426,1.133,1.789,1.789,0,0,1-1.277.405Q-5.722-12.889-5.722-14.427ZM-2.461,0H-5.588V-11.464h3.127ZM4.45.205A3.723,3.723,0,0,1,1.277-1.364,7.212,7.212,0,0,1,.123-5.711,7.219,7.219,0,0,1,1.3-10.105a3.813,3.813,0,0,1,3.235-1.574A3.74,3.74,0,0,1,7.834-10h.1A12.786,12.786,0,0,1,7.7-12.284v-3.671h3.138V0h-2.4l-.6-1.487H7.7A3.579,3.579,0,0,1,4.45.205Zm1.1-2.492a2.119,2.119,0,0,0,1.759-.7,4.056,4.056,0,0,0,.61-2.369v-.338a4.687,4.687,0,0,0-.569-2.646,2.114,2.114,0,0,0-1.851-.8,1.836,1.836,0,0,0-1.625.887A4.732,4.732,0,0,0,3.292-5.67a4.485,4.485,0,0,0,.584,2.538A1.91,1.91,0,0,0,5.547-2.287ZM21.39,0l-.6-1.559H20.7A4.619,4.619,0,0,1,19.077-.179,5.252,5.252,0,0,1,16.9.205a3.523,3.523,0,0,1-2.6-.943,3.623,3.623,0,0,1-.948-2.687,3.025,3.025,0,0,1,1.277-2.692,7.4,7.4,0,0,1,3.85-.959l1.989-.062v-.5a1.559,1.559,0,0,0-1.784-1.743,8.131,8.131,0,0,0-3.23.831l-1.036-2.112A9.32,9.32,0,0,1,18.806-11.7a5.467,5.467,0,0,1,3.538,1,3.714,3.714,0,0,1,1.23,3.056V0Zm-.923-5.312-1.21.041a3.875,3.875,0,0,0-2.03.492A1.546,1.546,0,0,0,16.56-3.4q0,1.323,1.518,1.323a2.4,2.4,0,0,0,1.738-.625,2.2,2.2,0,0,0,.651-1.661ZM30.423.205A3.723,3.723,0,0,1,27.25-1.364,7.212,7.212,0,0,1,26.1-5.711a7.219,7.219,0,0,1,1.174-4.394,3.813,3.813,0,0,1,3.235-1.574A3.74,3.74,0,0,1,33.807-10h.1a12.786,12.786,0,0,1-.236-2.287v-3.671h3.138V0h-2.4l-.6-1.487h-.133A3.579,3.579,0,0,1,30.423.205Zm1.1-2.492a2.119,2.119,0,0,0,1.759-.7,4.056,4.056,0,0,0,.61-2.369v-.338a4.687,4.687,0,0,0-.569-2.646,2.114,2.114,0,0,0-1.851-.8,1.836,1.836,0,0,0-1.625.887,4.732,4.732,0,0,0-.579,2.579,4.485,4.485,0,0,0,.584,2.538A1.91,1.91,0,0,0,31.521-2.287ZM44.83-9.454a1.984,1.984,0,0,0-1.559.631,2.919,2.919,0,0,0-.646,1.789h4.389a2.607,2.607,0,0,0-.6-1.789A2.048,2.048,0,0,0,44.83-9.454ZM45.271.205a5.917,5.917,0,0,1-4.327-1.528A5.785,5.785,0,0,1,39.385-5.65a6.363,6.363,0,0,1,1.441-4.455,5.13,5.13,0,0,1,3.984-1.574,5.049,5.049,0,0,1,3.784,1.384A5.237,5.237,0,0,1,49.947-6.47v1.518H42.554a3.01,3.01,0,0,0,.79,2.082,2.778,2.778,0,0,0,2.071.749,8.6,8.6,0,0,0,1.958-.215A9.8,9.8,0,0,0,49.3-3.025V-.6a7.344,7.344,0,0,1-1.753.61A11.055,11.055,0,0,1,45.271.205ZM60.488-3.4A3.156,3.156,0,0,1,59.262-.718,6.054,6.054,0,0,1,55.6.205,11.514,11.514,0,0,1,53.464.036a8.067,8.067,0,0,1-1.651-.5V-3.045a10.9,10.9,0,0,0,1.964.687,7.951,7.951,0,0,0,1.923.277q1.7,0,1.7-.984a.822.822,0,0,0-.226-.6,3.271,3.271,0,0,0-.779-.523q-.554-.292-1.477-.682A9.276,9.276,0,0,1,52.977-5.9a2.886,2.886,0,0,1-.9-1.082,3.571,3.571,0,0,1-.282-1.5,2.723,2.723,0,0,1,1.184-2.364,5.769,5.769,0,0,1,3.358-.836,9.532,9.532,0,0,1,4.03.9l-.943,2.256q-.861-.369-1.61-.6a5.055,5.055,0,0,0-1.528-.236q-1.384,0-1.384.749a.88.88,0,0,0,.446.728,12.13,12.13,0,0,0,1.953.913,9.075,9.075,0,0,1,1.969,1.015,3,3,0,0,1,.923,1.087A3.34,3.34,0,0,1,60.488-3.4Z" transform="translate(1785.298 1203.837)" fill="#fff"/>
      <rect id="Rectángulo_2793" data-name="Rectángulo 2793" width="198.174" height="198.174" rx="20" transform="translate(1909.228 1100.151)" fill="#c7332e"/>
      <path id="Trazado_20499" data-name="Trazado 20499" d="M-48.906,0h-3.127V-14.991h8.593v2.6h-5.465v3.866h5.086v2.594h-5.086Zm10.644-5.752A4.812,4.812,0,0,0-37.7-3.179a2,2,0,0,0,1.82.872,1.967,1.967,0,0,0,1.8-.866,4.881,4.881,0,0,0,.549-2.579,4.735,4.735,0,0,0-.554-2.553A2,2,0,0,0-35.9-9.157a2,2,0,0,0-1.8.846A4.731,4.731,0,0,0-38.262-5.752Zm7.926,0a6.16,6.16,0,0,1-1.477,4.378A5.354,5.354,0,0,1-35.925.205a5.752,5.752,0,0,1-2.912-.723,4.81,4.81,0,0,1-1.938-2.076,6.977,6.977,0,0,1-.677-3.158,6.126,6.126,0,0,1,1.466-4.368,5.385,5.385,0,0,1,4.122-1.559,5.784,5.784,0,0,1,2.912.718A4.791,4.791,0,0,1-31.013-8.9,6.913,6.913,0,0,1-30.336-5.752Zm8.982-5.927a5.044,5.044,0,0,1,1.056.092l-.236,2.933a3.583,3.583,0,0,0-.923-.1,3.316,3.316,0,0,0-2.333.769,2.78,2.78,0,0,0-.836,2.153V0h-3.127V-11.464h2.369l.461,1.928h.154a4.309,4.309,0,0,1,1.441-1.553A3.552,3.552,0,0,1-21.354-11.679Zm7.967,9.393a6.779,6.779,0,0,0,1.969-.359V-.318a7.02,7.02,0,0,1-2.871.523,3.514,3.514,0,0,1-2.733-.948,4.128,4.128,0,0,1-.856-2.845V-9.116h-1.5v-1.323l1.723-1.046.9-2.42h2v2.44h3.209v2.348H-14.75v5.527a1.221,1.221,0,0,0,.374.984A1.477,1.477,0,0,0-13.386-2.287ZM-1.82,0l-.6-1.559h-.082A4.619,4.619,0,0,1-4.132-.179,5.252,5.252,0,0,1-6.311.205a3.523,3.523,0,0,1-2.6-.943,3.623,3.623,0,0,1-.948-2.687A3.025,3.025,0,0,1-8.583-6.116a7.4,7.4,0,0,1,3.85-.959l1.989-.062v-.5A1.559,1.559,0,0,0-4.527-9.382a8.131,8.131,0,0,0-3.23.831l-1.036-2.112A9.32,9.32,0,0,1-4.4-11.7a5.467,5.467,0,0,1,3.538,1A3.714,3.714,0,0,1,.364-7.639V0Zm-.923-5.312-1.21.041a3.875,3.875,0,0,0-2.03.492A1.546,1.546,0,0,0-6.65-3.4q0,1.323,1.518,1.323a2.4,2.4,0,0,0,1.738-.625,2.2,2.2,0,0,0,.651-1.661ZM6.711,0H3.584V-15.955H6.711ZM14.74-9.454a1.984,1.984,0,0,0-1.559.631,2.919,2.919,0,0,0-.646,1.789h4.389a2.607,2.607,0,0,0-.6-1.789A2.048,2.048,0,0,0,14.74-9.454ZM15.181.205a5.917,5.917,0,0,1-4.327-1.528A5.785,5.785,0,0,1,9.3-5.65a6.363,6.363,0,0,1,1.441-4.455,5.13,5.13,0,0,1,3.984-1.574A5.049,5.049,0,0,1,18.5-10.295,5.237,5.237,0,0,1,19.857-6.47v1.518H12.464a3.01,3.01,0,0,0,.79,2.082,2.778,2.778,0,0,0,2.071.749,8.6,8.6,0,0,0,1.958-.215,9.8,9.8,0,0,0,1.928-.687V-.6a7.344,7.344,0,0,1-1.753.61A11.055,11.055,0,0,1,15.181.205ZM30.172,0H21.118V-1.846l5.312-7.229H21.436v-2.389h8.552v2.03L24.82-2.389h5.353Zm9.546,0-.6-1.559h-.082A4.619,4.619,0,0,1,37.406-.179a5.252,5.252,0,0,1-2.179.385,3.523,3.523,0,0,1-2.6-.943,3.623,3.623,0,0,1-.948-2.687,3.025,3.025,0,0,1,1.277-2.692,7.4,7.4,0,0,1,3.85-.959L38.8-7.137v-.5a1.559,1.559,0,0,0-1.784-1.743,8.131,8.131,0,0,0-3.23.831l-1.036-2.112A9.32,9.32,0,0,1,37.135-11.7a5.467,5.467,0,0,1,3.538,1A3.714,3.714,0,0,1,41.9-7.639V0ZM38.8-5.312l-1.21.041a3.875,3.875,0,0,0-2.03.492A1.546,1.546,0,0,0,34.889-3.4q0,1.323,1.518,1.323a2.4,2.4,0,0,0,1.738-.625A2.2,2.2,0,0,0,38.8-4.368ZM53.12-3.4A3.156,3.156,0,0,1,51.9-.718a6.054,6.054,0,0,1-3.666.923A11.514,11.514,0,0,1,46.1.036a8.067,8.067,0,0,1-1.651-.5V-3.045a10.9,10.9,0,0,0,1.964.687,7.951,7.951,0,0,0,1.923.277q1.7,0,1.7-.984a.822.822,0,0,0-.226-.6,3.271,3.271,0,0,0-.779-.523q-.554-.292-1.477-.682A9.276,9.276,0,0,1,45.609-5.9a2.886,2.886,0,0,1-.9-1.082,3.571,3.571,0,0,1-.282-1.5,2.723,2.723,0,0,1,1.184-2.364,5.769,5.769,0,0,1,3.358-.836,9.532,9.532,0,0,1,4.03.9l-.943,2.256q-.861-.369-1.61-.6a5.055,5.055,0,0,0-1.528-.236q-1.384,0-1.384.749a.88.88,0,0,0,.446.728,12.13,12.13,0,0,0,1.953.913A9.075,9.075,0,0,1,51.9-5.958a3,3,0,0,1,.923,1.087A3.34,3.34,0,0,1,53.12-3.4Z" transform="translate(2004.829 1203.837)" fill="#fff"/>
      <rect id="Rectángulo_2794" data-name="Rectángulo 2794" width="198.174" height="198.174" rx="20" transform="translate(1691.445 1318.923)" fill="#5ca09a"/>
      <path id="Trazado_20501" data-name="Trazado 20501" d="M-66.353,0h-8.634V-14.991h8.634v2.6h-5.455V-9.1h5.076v2.6h-5.076v3.866h5.455Zm10.879-3.4A3.156,3.156,0,0,1-56.7-.718a6.054,6.054,0,0,1-3.666.923A11.514,11.514,0,0,1-62.5.036a8.067,8.067,0,0,1-1.651-.5V-3.045a10.9,10.9,0,0,0,1.964.687,7.951,7.951,0,0,0,1.923.277q1.7,0,1.7-.984a.822.822,0,0,0-.226-.6,3.271,3.271,0,0,0-.779-.523q-.554-.292-1.477-.682A9.276,9.276,0,0,1-62.985-5.9a2.886,2.886,0,0,1-.9-1.082,3.571,3.571,0,0,1-.282-1.5,2.723,2.723,0,0,1,1.184-2.364,5.769,5.769,0,0,1,3.358-.836,9.532,9.532,0,0,1,4.03.9l-.943,2.256q-.861-.369-1.61-.6a5.055,5.055,0,0,0-1.528-.236q-1.384,0-1.384.749a.88.88,0,0,0,.446.728,12.13,12.13,0,0,0,1.953.913,9.075,9.075,0,0,1,1.969,1.015,3,3,0,0,1,.923,1.087A3.34,3.34,0,0,1-55.474-3.4Zm7.27,1.118a6.779,6.779,0,0,0,1.969-.359V-.318a7.02,7.02,0,0,1-2.871.523,3.514,3.514,0,0,1-2.733-.948,4.128,4.128,0,0,1-.856-2.845V-9.116h-1.5v-1.323l1.723-1.046.9-2.42h2v2.44h3.209v2.348h-3.209v5.527a1.221,1.221,0,0,0,.374.984A1.477,1.477,0,0,0-48.2-2.287Zm10.685-9.393a5.044,5.044,0,0,1,1.056.092L-36.7-8.654a3.583,3.583,0,0,0-.923-.1,3.316,3.316,0,0,0-2.333.769,2.78,2.78,0,0,0-.836,2.153V0h-3.127V-11.464h2.369l.461,1.928h.154a4.309,4.309,0,0,1,1.441-1.553A3.552,3.552,0,0,1-37.519-11.679ZM-27.521,0l-.6-1.559h-.082A4.619,4.619,0,0,1-29.834-.179a5.252,5.252,0,0,1-2.179.385,3.523,3.523,0,0,1-2.6-.943,3.623,3.623,0,0,1-.948-2.687,3.025,3.025,0,0,1,1.277-2.692,7.4,7.4,0,0,1,3.85-.959l1.989-.062v-.5a1.559,1.559,0,0,0-1.784-1.743,8.131,8.131,0,0,0-3.23.831l-1.036-2.112A9.32,9.32,0,0,1-30.105-11.7a5.467,5.467,0,0,1,3.538,1,3.714,3.714,0,0,1,1.23,3.056V0Zm-.923-5.312-1.21.041a3.875,3.875,0,0,0-2.03.492A1.546,1.546,0,0,0-32.351-3.4q0,1.323,1.518,1.323A2.4,2.4,0,0,0-29.1-2.707a2.2,2.2,0,0,0,.651-1.661Zm11.156,3.025a6.779,6.779,0,0,0,1.969-.359V-.318A7.02,7.02,0,0,1-18.19.205a3.514,3.514,0,0,1-2.733-.948,4.128,4.128,0,0,1-.856-2.845V-9.116h-1.5v-1.323l1.723-1.046.9-2.42h2v2.44h3.209v2.348h-3.209v5.527a1.221,1.221,0,0,0,.374.984A1.477,1.477,0,0,0-17.288-2.287Zm9.034-7.167a1.984,1.984,0,0,0-1.559.631,2.919,2.919,0,0,0-.646,1.789H-6.07a2.607,2.607,0,0,0-.6-1.789A2.048,2.048,0,0,0-8.254-9.454ZM-7.813.205a5.917,5.917,0,0,1-4.327-1.528A5.785,5.785,0,0,1-13.7-5.65a6.363,6.363,0,0,1,1.441-4.455,5.13,5.13,0,0,1,3.984-1.574,5.049,5.049,0,0,1,3.784,1.384A5.237,5.237,0,0,1-3.138-6.47v1.518h-7.393a3.01,3.01,0,0,0,.79,2.082,2.778,2.778,0,0,0,2.071.749,8.6,8.6,0,0,0,1.958-.215,9.8,9.8,0,0,0,1.928-.687V-.6a7.344,7.344,0,0,1-1.753.61A11.055,11.055,0,0,1-7.813.205Zm17.2-11.669v1.589l-1.794.461A3.128,3.128,0,0,1,8.08-7.69,3.478,3.478,0,0,1,6.793-4.814,5.574,5.574,0,0,1,3.22-3.784l-.564-.031-.461-.051a1.04,1.04,0,0,0-.482.82q0,.677,1.723.677H5.383a4.444,4.444,0,0,1,2.876.81A2.9,2.9,0,0,1,9.249.82,3.528,3.528,0,0,1,7.573,3.938,8.731,8.731,0,0,1,2.758,5.045,6.665,6.665,0,0,1-.907,4.209,2.653,2.653,0,0,1-2.174,1.866,2.453,2.453,0,0,1-1.528.133a3.668,3.668,0,0,1,1.9-.995,2.093,2.093,0,0,1-.841-.672,1.6,1.6,0,0,1-.359-.99A1.6,1.6,0,0,1-.451-3.615a4.386,4.386,0,0,1,1.1-.856A3.077,3.077,0,0,1-.784-5.722a3.807,3.807,0,0,1-.528-2.03,3.58,3.58,0,0,1,1.22-2.9,5.276,5.276,0,0,1,3.486-1.025,8.923,8.923,0,0,1,1.143.087q.661.087.846.128ZM.533,1.62a1.133,1.133,0,0,0,.62,1.015A3.413,3.413,0,0,0,2.892,3a6.156,6.156,0,0,0,2.635-.461A1.406,1.406,0,0,0,6.48,1.282.893.893,0,0,0,5.917.39,4.618,4.618,0,0,0,4.173.144H2.553A2.453,2.453,0,0,0,1.113.549,1.249,1.249,0,0,0,.533,1.62ZM1.671-7.711A2.334,2.334,0,0,0,2.1-6.234a1.546,1.546,0,0,0,1.3.543,1.514,1.514,0,0,0,1.292-.543A2.4,2.4,0,0,0,5.1-7.711q0-2.071-1.7-2.071Q1.671-9.782,1.671-7.711Zm9.464-6.716q0-1.528,1.7-1.528t1.7,1.528a1.49,1.49,0,0,1-.426,1.133,1.789,1.789,0,0,1-1.277.405Q11.136-12.889,11.136-14.427ZM14.4,0H11.269V-11.464H14.4ZM24.958,0l-.6-1.559h-.082A4.619,4.619,0,0,1,22.646-.179a5.252,5.252,0,0,1-2.179.385,3.523,3.523,0,0,1-2.6-.943,3.623,3.623,0,0,1-.948-2.687A3.025,3.025,0,0,1,18.2-6.116a7.4,7.4,0,0,1,3.85-.959l1.989-.062v-.5a1.559,1.559,0,0,0-1.784-1.743,8.131,8.131,0,0,0-3.23.831l-1.036-2.112A9.32,9.32,0,0,1,22.374-11.7a5.467,5.467,0,0,1,3.538,1,3.714,3.714,0,0,1,1.23,3.056V0Zm-.923-5.312-1.21.041a3.875,3.875,0,0,0-2.03.492A1.546,1.546,0,0,0,20.128-3.4q0,1.323,1.518,1.323a2.4,2.4,0,0,0,1.738-.625,2.2,2.2,0,0,0,.651-1.661ZM38.36-3.4A3.156,3.156,0,0,1,37.135-.718a6.054,6.054,0,0,1-3.666.923A11.514,11.514,0,0,1,31.336.036a8.067,8.067,0,0,1-1.651-.5V-3.045a10.9,10.9,0,0,0,1.964.687,7.951,7.951,0,0,0,1.923.277q1.7,0,1.7-.984a.822.822,0,0,0-.226-.6,3.271,3.271,0,0,0-.779-.523q-.554-.292-1.477-.682A9.276,9.276,0,0,1,30.849-5.9a2.886,2.886,0,0,1-.9-1.082,3.571,3.571,0,0,1-.282-1.5,2.723,2.723,0,0,1,1.184-2.364,5.769,5.769,0,0,1,3.358-.836,9.532,9.532,0,0,1,4.03.9l-.943,2.256q-.861-.369-1.61-.6a5.055,5.055,0,0,0-1.528-.236q-1.384,0-1.384.749a.88.88,0,0,0,.446.728,12.13,12.13,0,0,0,1.953.913A9.075,9.075,0,0,1,37.14-5.958a3,3,0,0,1,.923,1.087A3.34,3.34,0,0,1,38.36-3.4Zm20.58-4.235a7.382,7.382,0,0,1-2.107,5.67A8.593,8.593,0,0,1,50.747,0H46.5V-14.991h4.707a7.926,7.926,0,0,1,5.7,1.938A7.129,7.129,0,0,1,58.939-7.639Zm-3.3.082q0-4.83-4.266-4.83H49.68v9.762h1.364Q55.638-2.625,55.638-7.557Zm20.016.041a8.135,8.135,0,0,1-1.846,5.722,6.842,6.842,0,0,1-5.291,2,6.842,6.842,0,0,1-5.291-2A8.167,8.167,0,0,1,61.38-7.537a8.055,8.055,0,0,1,1.851-5.717,6.921,6.921,0,0,1,5.306-1.974,6.825,6.825,0,0,1,5.286,1.989A8.156,8.156,0,0,1,75.653-7.516Zm-10.941,0a6.262,6.262,0,0,0,.954,3.784,3.337,3.337,0,0,0,2.851,1.271q3.8,0,3.8-5.055t-3.784-5.065A3.359,3.359,0,0,0,65.676-11.3,6.236,6.236,0,0,0,64.712-7.516Z" transform="translate(1785.052 1422.609)" fill="#fff"/>
      <rect id="Rectángulo_2795" data-name="Rectángulo 2795" width="198.174" height="198.174" rx="20" transform="translate(1909.228 1318.923)" fill="#5a2a80"/>
      <path id="Trazado_20502" data-name="Trazado 20502" d="M-64.343,0h-8.634V-14.991h8.634v2.6H-69.8V-9.1h5.076v2.6H-69.8v3.866h5.455Zm10.879-3.4A3.156,3.156,0,0,1-54.689-.718a6.054,6.054,0,0,1-3.666.923A11.514,11.514,0,0,1-60.488.036a8.067,8.067,0,0,1-1.651-.5V-3.045a10.9,10.9,0,0,0,1.964.687,7.951,7.951,0,0,0,1.923.277q1.7,0,1.7-.984a.822.822,0,0,0-.226-.6,3.271,3.271,0,0,0-.779-.523q-.554-.292-1.477-.682A9.276,9.276,0,0,1-60.975-5.9a2.886,2.886,0,0,1-.9-1.082,3.571,3.571,0,0,1-.282-1.5,2.723,2.723,0,0,1,1.184-2.364,5.769,5.769,0,0,1,3.358-.836,9.532,9.532,0,0,1,4.03.9l-.943,2.256q-.861-.369-1.61-.6a5.055,5.055,0,0,0-1.528-.236q-1.384,0-1.384.749a.88.88,0,0,0,.446.728,12.13,12.13,0,0,0,1.953.913,9.075,9.075,0,0,1,1.969,1.015,3,3,0,0,1,.923,1.087A3.34,3.34,0,0,1-53.464-3.4Zm7.27,1.118a6.779,6.779,0,0,0,1.969-.359V-.318A7.02,7.02,0,0,1-47.1.205a3.514,3.514,0,0,1-2.733-.948,4.128,4.128,0,0,1-.856-2.845V-9.116h-1.5v-1.323l1.723-1.046.9-2.42h2v2.44h3.209v2.348h-3.209v5.527a1.221,1.221,0,0,0,.374.984A1.477,1.477,0,0,0-46.194-2.287Zm10.685-9.393a5.044,5.044,0,0,1,1.056.092l-.236,2.933a3.583,3.583,0,0,0-.923-.1,3.316,3.316,0,0,0-2.333.769,2.78,2.78,0,0,0-.836,2.153V0h-3.127V-11.464h2.369l.461,1.928h.154a4.309,4.309,0,0,1,1.441-1.553A3.552,3.552,0,0,1-35.509-11.679ZM-25.512,0l-.6-1.559H-26.2A4.619,4.619,0,0,1-27.824-.179,5.252,5.252,0,0,1-30,.205a3.523,3.523,0,0,1-2.6-.943,3.623,3.623,0,0,1-.948-2.687,3.025,3.025,0,0,1,1.277-2.692,7.4,7.4,0,0,1,3.85-.959l1.989-.062v-.5a1.559,1.559,0,0,0-1.784-1.743,8.131,8.131,0,0,0-3.23.831l-1.036-2.112A9.32,9.32,0,0,1-28.1-11.7a5.467,5.467,0,0,1,3.538,1,3.714,3.714,0,0,1,1.23,3.056V0Zm-.923-5.312-1.21.041a3.875,3.875,0,0,0-2.03.492A1.546,1.546,0,0,0-30.341-3.4q0,1.323,1.518,1.323a2.4,2.4,0,0,0,1.738-.625,2.2,2.2,0,0,0,.651-1.661Zm11.156,3.025a6.779,6.779,0,0,0,1.969-.359V-.318a7.02,7.02,0,0,1-2.871.523,3.514,3.514,0,0,1-2.733-.948,4.128,4.128,0,0,1-.856-2.845V-9.116h-1.5v-1.323l1.723-1.046.9-2.42h2v2.44h3.209v2.348h-3.209v5.527a1.221,1.221,0,0,0,.374.984A1.477,1.477,0,0,0-15.278-2.287Zm9.034-7.167A1.984,1.984,0,0,0-7.8-8.823a2.919,2.919,0,0,0-.646,1.789h4.389a2.607,2.607,0,0,0-.6-1.789A2.048,2.048,0,0,0-6.245-9.454ZM-5.8.205a5.917,5.917,0,0,1-4.327-1.528A5.785,5.785,0,0,1-11.689-5.65a6.363,6.363,0,0,1,1.441-4.455,5.13,5.13,0,0,1,3.984-1.574,5.049,5.049,0,0,1,3.784,1.384A5.237,5.237,0,0,1-1.128-6.47v1.518H-8.521a3.01,3.01,0,0,0,.79,2.082,2.778,2.778,0,0,0,2.071.749A8.6,8.6,0,0,0-3.7-2.338a9.8,9.8,0,0,0,1.928-.687V-.6a7.344,7.344,0,0,1-1.753.61A11.055,11.055,0,0,1-5.8.205Zm17.2-11.669v1.589L9.6-9.413A3.128,3.128,0,0,1,10.09-7.69,3.478,3.478,0,0,1,8.8-4.814,5.574,5.574,0,0,1,5.229-3.784l-.564-.031L4.2-3.866a1.04,1.04,0,0,0-.482.82q0,.677,1.723.677H7.393a4.444,4.444,0,0,1,2.876.81A2.9,2.9,0,0,1,11.259.82,3.528,3.528,0,0,1,9.582,3.938,8.731,8.731,0,0,1,4.768,5.045,6.665,6.665,0,0,1,1.1,4.209,2.653,2.653,0,0,1-.164,1.866,2.453,2.453,0,0,1,.482.133a3.668,3.668,0,0,1,1.9-.995,2.093,2.093,0,0,1-.841-.672,1.6,1.6,0,0,1-.359-.99,1.6,1.6,0,0,1,.379-1.092,4.386,4.386,0,0,1,1.1-.856,3.077,3.077,0,0,1-1.43-1.251A3.807,3.807,0,0,1,.7-7.752a3.58,3.58,0,0,1,1.22-2.9A5.276,5.276,0,0,1,5.4-11.679a8.923,8.923,0,0,1,1.143.087q.661.087.846.128ZM2.543,1.62a1.133,1.133,0,0,0,.62,1.015A3.413,3.413,0,0,0,4.9,3a6.156,6.156,0,0,0,2.635-.461A1.406,1.406,0,0,0,8.49,1.282.893.893,0,0,0,7.926.39,4.618,4.618,0,0,0,6.183.144H4.563A2.453,2.453,0,0,0,3.122.549,1.249,1.249,0,0,0,2.543,1.62ZM3.681-7.711a2.334,2.334,0,0,0,.426,1.477,1.546,1.546,0,0,0,1.3.543A1.514,1.514,0,0,0,6.7-6.234a2.4,2.4,0,0,0,.41-1.477q0-2.071-1.7-2.071Q3.681-9.782,3.681-7.711Zm9.464-6.716q0-1.528,1.7-1.528t1.7,1.528a1.49,1.49,0,0,1-.426,1.133,1.789,1.789,0,0,1-1.277.405Q13.146-12.889,13.146-14.427ZM16.406,0H13.279V-11.464h3.127ZM26.968,0l-.6-1.559h-.082A4.619,4.619,0,0,1,24.656-.179a5.252,5.252,0,0,1-2.179.385,3.523,3.523,0,0,1-2.6-.943,3.623,3.623,0,0,1-.948-2.687,3.025,3.025,0,0,1,1.277-2.692,7.4,7.4,0,0,1,3.85-.959l1.989-.062v-.5a1.559,1.559,0,0,0-1.784-1.743,8.131,8.131,0,0,0-3.23.831L20-10.664A9.32,9.32,0,0,1,24.384-11.7a5.467,5.467,0,0,1,3.538,1,3.714,3.714,0,0,1,1.23,3.056V0Zm-.923-5.312-1.21.041a3.875,3.875,0,0,0-2.03.492A1.546,1.546,0,0,0,22.138-3.4q0,1.323,1.518,1.323a2.4,2.4,0,0,0,1.738-.625,2.2,2.2,0,0,0,.651-1.661ZM40.37-3.4A3.156,3.156,0,0,1,39.144-.718a6.054,6.054,0,0,1-3.666.923A11.514,11.514,0,0,1,33.346.036a8.067,8.067,0,0,1-1.651-.5V-3.045a10.9,10.9,0,0,0,1.964.687,7.951,7.951,0,0,0,1.923.277q1.7,0,1.7-.984a.822.822,0,0,0-.226-.6,3.271,3.271,0,0,0-.779-.523q-.554-.292-1.477-.682A9.276,9.276,0,0,1,32.859-5.9a2.886,2.886,0,0,1-.9-1.082,3.571,3.571,0,0,1-.282-1.5,2.723,2.723,0,0,1,1.184-2.364,5.769,5.769,0,0,1,3.358-.836,9.532,9.532,0,0,1,4.03.9L39.3-8.521q-.861-.369-1.61-.6a5.055,5.055,0,0,0-1.528-.236q-1.384,0-1.384.749a.88.88,0,0,0,.446.728,12.13,12.13,0,0,0,1.953.913,9.075,9.075,0,0,1,1.969,1.015,3,3,0,0,1,.923,1.087A3.34,3.34,0,0,1,40.37-3.4ZM51.639,0H48.511V-14.991H57.1v2.6H51.639v3.866h5.086v2.594H51.639Zm22-7.516A8.135,8.135,0,0,1,71.8-1.794a6.842,6.842,0,0,1-5.291,2,6.842,6.842,0,0,1-5.291-2A8.167,8.167,0,0,1,59.37-7.537a8.055,8.055,0,0,1,1.851-5.717,6.921,6.921,0,0,1,5.306-1.974,6.825,6.825,0,0,1,5.286,1.989A8.156,8.156,0,0,1,73.644-7.516Zm-10.941,0a6.262,6.262,0,0,0,.954,3.784,3.337,3.337,0,0,0,2.851,1.271q3.8,0,3.8-5.055t-3.784-5.065A3.359,3.359,0,0,0,63.667-11.3,6.236,6.236,0,0,0,62.7-7.516Z" transform="translate(2003.334 1422.609)" fill="#fff"/>
      <rect id="Rectángulo_2796" data-name="Rectángulo 2796" width="198.174" height="198.174" rx="20" transform="translate(1691.445 1537.695)" fill="#a1bf38"/>
      <path id="Trazado_20504" data-name="Trazado 20504" d="M-65.03,0h-8.634V-14.991h8.634v2.6h-5.455V-9.1h5.076v2.6h-5.076v3.866h5.455Zm10.879-3.4A3.156,3.156,0,0,1-55.376-.718a6.054,6.054,0,0,1-3.666.923A11.514,11.514,0,0,1-61.175.036a8.067,8.067,0,0,1-1.651-.5V-3.045a10.9,10.9,0,0,0,1.964.687,7.951,7.951,0,0,0,1.923.277q1.7,0,1.7-.984a.822.822,0,0,0-.226-.6,3.271,3.271,0,0,0-.779-.523q-.554-.292-1.477-.682A9.276,9.276,0,0,1-61.662-5.9a2.886,2.886,0,0,1-.9-1.082,3.571,3.571,0,0,1-.282-1.5,2.723,2.723,0,0,1,1.184-2.364,5.769,5.769,0,0,1,3.358-.836,9.532,9.532,0,0,1,4.03.9l-.943,2.256q-.861-.369-1.61-.6a5.055,5.055,0,0,0-1.528-.236q-1.384,0-1.384.749a.88.88,0,0,0,.446.728,12.13,12.13,0,0,0,1.953.913,9.075,9.075,0,0,1,1.969,1.015,3,3,0,0,1,.923,1.087A3.34,3.34,0,0,1-54.151-3.4Zm7.27,1.118a6.779,6.779,0,0,0,1.969-.359V-.318a7.02,7.02,0,0,1-2.871.523,3.514,3.514,0,0,1-2.733-.948,4.128,4.128,0,0,1-.856-2.845V-9.116h-1.5v-1.323l1.723-1.046.9-2.42h2v2.44h3.209v2.348h-3.209v5.527a1.221,1.221,0,0,0,.374.984A1.477,1.477,0,0,0-46.881-2.287ZM-36.2-11.679a5.044,5.044,0,0,1,1.056.092l-.236,2.933a3.583,3.583,0,0,0-.923-.1,3.316,3.316,0,0,0-2.333.769,2.78,2.78,0,0,0-.836,2.153V0h-3.127V-11.464h2.369l.461,1.928h.154A4.309,4.309,0,0,1-38.17-11.09,3.552,3.552,0,0,1-36.2-11.679ZM-26.2,0l-.6-1.559h-.082A4.619,4.619,0,0,1-28.511-.179,5.252,5.252,0,0,1-30.69.205a3.523,3.523,0,0,1-2.6-.943,3.623,3.623,0,0,1-.948-2.687,3.025,3.025,0,0,1,1.277-2.692,7.4,7.4,0,0,1,3.85-.959l1.989-.062v-.5a1.559,1.559,0,0,0-1.784-1.743,8.131,8.131,0,0,0-3.23.831l-1.036-2.112A9.32,9.32,0,0,1-28.783-11.7a5.467,5.467,0,0,1,3.538,1,3.714,3.714,0,0,1,1.23,3.056V0Zm-.923-5.312-1.21.041a3.875,3.875,0,0,0-2.03.492A1.546,1.546,0,0,0-31.028-3.4q0,1.323,1.518,1.323a2.4,2.4,0,0,0,1.738-.625,2.2,2.2,0,0,0,.651-1.661Zm11.156,3.025A6.779,6.779,0,0,0-14-2.646V-.318a7.02,7.02,0,0,1-2.871.523A3.514,3.514,0,0,1-19.6-.743a4.128,4.128,0,0,1-.856-2.845V-9.116h-1.5v-1.323l1.723-1.046.9-2.42h2v2.44h3.209v2.348h-3.209v5.527a1.221,1.221,0,0,0,.374.984A1.477,1.477,0,0,0-15.965-2.287Zm9.034-7.167a1.984,1.984,0,0,0-1.559.631,2.919,2.919,0,0,0-.646,1.789h4.389a2.607,2.607,0,0,0-.6-1.789A2.048,2.048,0,0,0-6.932-9.454ZM-6.491.205a5.917,5.917,0,0,1-4.327-1.528A5.785,5.785,0,0,1-12.376-5.65a6.363,6.363,0,0,1,1.441-4.455,5.13,5.13,0,0,1,3.984-1.574,5.049,5.049,0,0,1,3.784,1.384A5.237,5.237,0,0,1-1.815-6.47v1.518H-9.208a3.01,3.01,0,0,0,.79,2.082,2.778,2.778,0,0,0,2.071.749,8.6,8.6,0,0,0,1.958-.215,9.8,9.8,0,0,0,1.928-.687V-.6a7.344,7.344,0,0,1-1.753.61A11.055,11.055,0,0,1-6.491.205Zm17.2-11.669v1.589l-1.794.461A3.128,3.128,0,0,1,9.4-7.69,3.478,3.478,0,0,1,8.116-4.814,5.574,5.574,0,0,1,4.542-3.784l-.564-.031-.461-.051a1.04,1.04,0,0,0-.482.82q0,.677,1.723.677H6.706a4.444,4.444,0,0,1,2.876.81A2.9,2.9,0,0,1,10.572.82,3.528,3.528,0,0,1,8.9,3.938,8.731,8.731,0,0,1,4.081,5.045,6.665,6.665,0,0,1,.415,4.209,2.653,2.653,0,0,1-.851,1.866,2.453,2.453,0,0,1-.205.133a3.668,3.668,0,0,1,1.9-.995,2.093,2.093,0,0,1-.841-.672,1.6,1.6,0,0,1-.359-.99A1.6,1.6,0,0,1,.872-3.615a4.386,4.386,0,0,1,1.1-.856A3.077,3.077,0,0,1,.538-5.722,3.807,3.807,0,0,1,.01-7.752a3.58,3.58,0,0,1,1.22-2.9,5.276,5.276,0,0,1,3.486-1.025,8.923,8.923,0,0,1,1.143.087q.661.087.846.128ZM1.856,1.62a1.133,1.133,0,0,0,.62,1.015A3.413,3.413,0,0,0,4.214,3,6.156,6.156,0,0,0,6.85,2.543,1.406,1.406,0,0,0,7.8,1.282.893.893,0,0,0,7.239.39,4.618,4.618,0,0,0,5.5.144H3.876A2.453,2.453,0,0,0,2.435.549,1.249,1.249,0,0,0,1.856,1.62ZM2.994-7.711A2.334,2.334,0,0,0,3.42-6.234a1.546,1.546,0,0,0,1.3.543,1.514,1.514,0,0,0,1.292-.543,2.4,2.4,0,0,0,.41-1.477q0-2.071-1.7-2.071Q2.994-9.782,2.994-7.711Zm9.464-6.716q0-1.528,1.7-1.528t1.7,1.528a1.49,1.49,0,0,1-.426,1.133,1.789,1.789,0,0,1-1.277.405Q12.458-12.889,12.458-14.427ZM15.719,0H12.592V-11.464h3.127ZM26.281,0l-.6-1.559h-.082A4.619,4.619,0,0,1,23.969-.179,5.252,5.252,0,0,1,21.79.205a3.523,3.523,0,0,1-2.6-.943,3.623,3.623,0,0,1-.948-2.687,3.025,3.025,0,0,1,1.277-2.692,7.4,7.4,0,0,1,3.85-.959l1.989-.062v-.5a1.559,1.559,0,0,0-1.784-1.743,8.131,8.131,0,0,0-3.23.831l-1.036-2.112A9.32,9.32,0,0,1,23.7-11.7a5.467,5.467,0,0,1,3.538,1,3.714,3.714,0,0,1,1.23,3.056V0Zm-.923-5.312-1.21.041a3.875,3.875,0,0,0-2.03.492A1.546,1.546,0,0,0,21.451-3.4q0,1.323,1.518,1.323a2.4,2.4,0,0,0,1.738-.625,2.2,2.2,0,0,0,.651-1.661ZM39.683-3.4A3.156,3.156,0,0,1,38.457-.718a6.054,6.054,0,0,1-3.666.923A11.514,11.514,0,0,1,32.659.036a8.067,8.067,0,0,1-1.651-.5V-3.045a10.9,10.9,0,0,0,1.964.687,7.951,7.951,0,0,0,1.923.277q1.7,0,1.7-.984a.822.822,0,0,0-.226-.6,3.271,3.271,0,0,0-.779-.523q-.554-.292-1.477-.682A9.276,9.276,0,0,1,32.172-5.9a2.886,2.886,0,0,1-.9-1.082,3.571,3.571,0,0,1-.282-1.5,2.723,2.723,0,0,1,1.184-2.364,5.769,5.769,0,0,1,3.358-.836,9.532,9.532,0,0,1,4.03.9l-.943,2.256q-.861-.369-1.61-.6a5.055,5.055,0,0,0-1.528-.236q-1.384,0-1.384.749a.88.88,0,0,0,.446.728,12.13,12.13,0,0,0,1.953.913,9.075,9.075,0,0,1,1.969,1.015,3,3,0,0,1,.923,1.087A3.34,3.34,0,0,1,39.683-3.4Zm20.58-4.235a7.382,7.382,0,0,1-2.107,5.67A8.593,8.593,0,0,1,52.069,0H47.824V-14.991h4.707a7.926,7.926,0,0,1,5.7,1.938A7.129,7.129,0,0,1,60.262-7.639Zm-3.3.082q0-4.83-4.266-4.83H51v9.762h1.364Q56.96-2.625,56.96-7.557ZM72.126,0,71.039-3.568H65.574L64.487,0H61.062l5.291-15.053h3.886L75.551,0ZM70.28-6.234q-1.507-4.85-1.7-5.486t-.272-1q-.338,1.313-1.938,6.491Z" transform="translate(1785.301 1641.382)"/>
      <rect id="Rectángulo_2797" data-name="Rectángulo 2797" width="198.174" height="198.174" rx="20" transform="translate(1473.662 1318.923)" fill="#6aa842"/>
      <path id="Trazado_20500" data-name="Trazado 20500" d="M-63.395-7.516A8.135,8.135,0,0,1-65.24-1.794a6.842,6.842,0,0,1-5.291,2,6.842,6.842,0,0,1-5.291-2,8.167,8.167,0,0,1-1.846-5.742,8.055,8.055,0,0,1,1.851-5.717,6.921,6.921,0,0,1,5.306-1.974,6.825,6.825,0,0,1,5.286,1.989A8.156,8.156,0,0,1-63.395-7.516Zm-10.941,0a6.262,6.262,0,0,0,.954,3.784,3.337,3.337,0,0,0,2.851,1.271q3.8,0,3.8-5.055t-3.784-5.065A3.359,3.359,0,0,0-73.372-11.3,6.236,6.236,0,0,0-74.336-7.516Zm20.1,7.721a3.8,3.8,0,0,1-3.168-1.466h-.164Q-57.406.174-57.406.4V5.045h-3.127V-11.464h2.543l.441,1.487h.144a3.618,3.618,0,0,1,3.25-1.7,3.72,3.72,0,0,1,3.179,1.569,7.256,7.256,0,0,1,1.148,4.358,8.605,8.605,0,0,1-.538,3.189A4.473,4.473,0,0,1-51.9-.5,3.928,3.928,0,0,1-54.238.205Zm-.923-9.382a1.975,1.975,0,0,0-1.692.713,4.092,4.092,0,0,0-.554,2.353v.338a4.83,4.83,0,0,0,.549,2.646,1.958,1.958,0,0,0,1.738.8q2.1,0,2.1-3.466a4.949,4.949,0,0,0-.518-2.538A1.767,1.767,0,0,0-55.161-9.177Zm10.408,3.425a4.812,4.812,0,0,0,.559,2.574,2,2,0,0,0,1.82.872,1.967,1.967,0,0,0,1.8-.866,4.881,4.881,0,0,0,.549-2.579,4.735,4.735,0,0,0-.554-2.553,2,2,0,0,0-1.815-.851,2,2,0,0,0-1.8.846A4.731,4.731,0,0,0-44.753-5.752Zm7.926,0A6.16,6.16,0,0,1-38.3-1.374,5.354,5.354,0,0,1-42.415.205a5.752,5.752,0,0,1-2.912-.723,4.81,4.81,0,0,1-1.938-2.076,6.977,6.977,0,0,1-.677-3.158,6.126,6.126,0,0,1,1.466-4.368,5.385,5.385,0,0,1,4.122-1.559,5.784,5.784,0,0,1,2.912.718A4.791,4.791,0,0,1-37.5-8.9,6.913,6.913,0,0,1-36.827-5.752Zm8.982-5.927a5.044,5.044,0,0,1,1.056.092l-.236,2.933a3.583,3.583,0,0,0-.923-.1,3.316,3.316,0,0,0-2.333.769,2.78,2.78,0,0,0-.836,2.153V0h-3.127V-11.464h2.369l.461,1.928h.154a4.309,4.309,0,0,1,1.441-1.553A3.552,3.552,0,0,1-27.844-11.679Zm7.967,9.393a6.779,6.779,0,0,0,1.969-.359V-.318A7.02,7.02,0,0,1-20.78.205a3.514,3.514,0,0,1-2.733-.948,4.128,4.128,0,0,1-.856-2.845V-9.116h-1.5v-1.323l1.723-1.046.9-2.42h2v2.44h3.209v2.348h-3.209v5.527a1.221,1.221,0,0,0,.374.984A1.477,1.477,0,0,0-19.877-2.287ZM-7.47,0l-.42-1.466h-.164A3.3,3.3,0,0,1-9.48-.231a4.866,4.866,0,0,1-2.1.436A4,4,0,0,1-14.627-.877a4.353,4.353,0,0,1-1.025-3.112v-7.475h3.127v6.7a3.216,3.216,0,0,0,.441,1.861,1.6,1.6,0,0,0,1.4.62,2.112,2.112,0,0,0,1.9-.877A5.437,5.437,0,0,0-8.2-6.07v-5.394h3.127V0ZM8.793,0H5.665V-6.7a3.216,3.216,0,0,0-.441-1.861,1.6,1.6,0,0,0-1.4-.62,2.112,2.112,0,0,0-1.9.877,5.437,5.437,0,0,0-.584,2.907V0H-1.789V-11.464H.6L1.02-10h.174a3.305,3.305,0,0,1,1.441-1.256,4.906,4.906,0,0,1,2.087-.426A4.009,4.009,0,0,1,7.757-10.6,4.341,4.341,0,0,1,8.793-7.475Zm3.086-14.427q0-1.528,1.7-1.528t1.7,1.528a1.49,1.49,0,0,1-.426,1.133,1.789,1.789,0,0,1-1.277.405Q11.879-12.889,11.879-14.427ZM15.14,0H12.012V-11.464H15.14Zm6.911.205a3.723,3.723,0,0,1-3.174-1.569,7.212,7.212,0,0,1-1.154-4.348A7.219,7.219,0,0,1,18.9-10.105a3.813,3.813,0,0,1,3.235-1.574A3.74,3.74,0,0,1,25.435-10h.1a12.786,12.786,0,0,1-.236-2.287v-3.671h3.138V0h-2.4l-.6-1.487H25.3A3.579,3.579,0,0,1,22.051.205Zm1.1-2.492a2.119,2.119,0,0,0,1.759-.7,4.056,4.056,0,0,0,.61-2.369v-.338a4.687,4.687,0,0,0-.569-2.646,2.114,2.114,0,0,0-1.851-.8,1.836,1.836,0,0,0-1.625.887,4.732,4.732,0,0,0-.579,2.579,4.485,4.485,0,0,0,.584,2.538A1.91,1.91,0,0,0,23.148-2.287ZM38.99,0l-.6-1.559H38.3A4.619,4.619,0,0,1,36.678-.179,5.252,5.252,0,0,1,34.5.205a3.523,3.523,0,0,1-2.6-.943,3.623,3.623,0,0,1-.948-2.687,3.025,3.025,0,0,1,1.277-2.692,7.4,7.4,0,0,1,3.85-.959l1.989-.062v-.5a1.559,1.559,0,0,0-1.784-1.743,8.131,8.131,0,0,0-3.23.831l-1.036-2.112A9.32,9.32,0,0,1,36.406-11.7a5.467,5.467,0,0,1,3.538,1,3.714,3.714,0,0,1,1.23,3.056V0Zm-.923-5.312-1.21.041a3.875,3.875,0,0,0-2.03.492A1.546,1.546,0,0,0,34.161-3.4q0,1.323,1.518,1.323a2.4,2.4,0,0,0,1.738-.625,2.2,2.2,0,0,0,.651-1.661ZM48.024.205a3.723,3.723,0,0,1-3.174-1.569A7.212,7.212,0,0,1,43.7-5.711a7.219,7.219,0,0,1,1.174-4.394,3.813,3.813,0,0,1,3.235-1.574A3.74,3.74,0,0,1,51.408-10h.1a12.786,12.786,0,0,1-.236-2.287v-3.671h3.138V0h-2.4l-.6-1.487h-.133A3.579,3.579,0,0,1,48.024.205Zm1.1-2.492a2.119,2.119,0,0,0,1.759-.7,4.056,4.056,0,0,0,.61-2.369v-.338a4.687,4.687,0,0,0-.569-2.646,2.114,2.114,0,0,0-1.851-.8,1.836,1.836,0,0,0-1.625.887,4.732,4.732,0,0,0-.579,2.579,4.485,4.485,0,0,0,.584,2.538A1.91,1.91,0,0,0,49.121-2.287Zm13.31-7.167a1.984,1.984,0,0,0-1.559.631,2.919,2.919,0,0,0-.646,1.789h4.389a2.607,2.607,0,0,0-.6-1.789A2.048,2.048,0,0,0,62.431-9.454ZM62.872.205a5.917,5.917,0,0,1-4.327-1.528A5.785,5.785,0,0,1,56.986-5.65a6.363,6.363,0,0,1,1.441-4.455,5.13,5.13,0,0,1,3.984-1.574,5.049,5.049,0,0,1,3.784,1.384A5.237,5.237,0,0,1,67.548-6.47v1.518H60.155a3.01,3.01,0,0,0,.79,2.082,2.778,2.778,0,0,0,2.071.749,8.6,8.6,0,0,0,1.958-.215A9.8,9.8,0,0,0,66.9-3.025V-.6a7.344,7.344,0,0,1-1.753.61A11.055,11.055,0,0,1,62.872.205ZM78.089-3.4A3.156,3.156,0,0,1,76.863-.718,6.054,6.054,0,0,1,73.2.205,11.514,11.514,0,0,1,71.065.036a8.067,8.067,0,0,1-1.651-.5V-3.045a10.9,10.9,0,0,0,1.964.687,7.951,7.951,0,0,0,1.923.277q1.7,0,1.7-.984a.822.822,0,0,0-.226-.6A3.271,3.271,0,0,0,74-4.189q-.554-.292-1.477-.682A9.276,9.276,0,0,1,70.578-5.9a2.886,2.886,0,0,1-.9-1.082,3.571,3.571,0,0,1-.282-1.5,2.723,2.723,0,0,1,1.184-2.364,5.769,5.769,0,0,1,3.358-.836,9.532,9.532,0,0,1,4.03.9l-.943,2.256q-.861-.369-1.61-.6a5.055,5.055,0,0,0-1.528-.236q-1.384,0-1.384.749a.88.88,0,0,0,.446.728,12.13,12.13,0,0,0,1.953.913,9.075,9.075,0,0,1,1.969,1.015,3,3,0,0,1,.923,1.087A3.34,3.34,0,0,1,78.089-3.4Z" transform="translate(1566.769 1422.609)" fill="#fff"/>
      <rect id="Rectángulo_2798" data-name="Rectángulo 2798" width="198.174" height="198.174" rx="20" transform="translate(1473.662 1537.695)" fill="#f4e93e"/>
      <path id="Trazado_20503" data-name="Trazado 20503" d="M-42.62,0l-1.087-3.568h-5.465L-50.26,0h-3.425l5.291-15.053h3.886L-39.2,0Zm-1.846-6.234q-1.507-4.85-1.7-5.486t-.272-1q-.338,1.313-1.938,6.491ZM-27.291,0h-3.127V-6.7a3.373,3.373,0,0,0-.415-1.861,1.461,1.461,0,0,0-1.307-.62,1.894,1.894,0,0,0-1.743.882,5.784,5.784,0,0,0-.543,2.9V0h-3.127V-11.464h2.389l.42,1.466h.174a3.178,3.178,0,0,1,1.333-1.236,4.328,4.328,0,0,1,2-.446q2.574,0,3.486,1.682h.277a3.1,3.1,0,0,1,1.359-1.241,4.531,4.531,0,0,1,2.025-.441,4,4,0,0,1,2.948,1,4.39,4.39,0,0,1,1,3.2V0h-3.138V-6.7A3.373,3.373,0,0,0-23.7-8.557,1.461,1.461,0,0,0-25-9.177a1.95,1.95,0,0,0-1.718.82,4.655,4.655,0,0,0-.569,2.6Zm15.1-9.454a1.984,1.984,0,0,0-1.559.631,2.919,2.919,0,0,0-.646,1.789H-10a2.607,2.607,0,0,0-.6-1.789A2.048,2.048,0,0,0-12.187-9.454Zm.441,9.659a5.917,5.917,0,0,1-4.327-1.528A5.785,5.785,0,0,1-17.632-5.65a6.363,6.363,0,0,1,1.441-4.455,5.13,5.13,0,0,1,3.984-1.574,5.049,5.049,0,0,1,3.784,1.384A5.237,5.237,0,0,1-7.07-6.47v1.518h-7.393a3.01,3.01,0,0,0,.79,2.082,2.778,2.778,0,0,0,2.071.749,8.6,8.6,0,0,0,1.958-.215,9.8,9.8,0,0,0,1.928-.687V-.6a7.344,7.344,0,0,1-1.753.61A11.055,11.055,0,0,1-11.746.205ZM6.055,0H2.927V-6.7a3.216,3.216,0,0,0-.441-1.861,1.6,1.6,0,0,0-1.4-.62,2.112,2.112,0,0,0-1.9.877A5.437,5.437,0,0,0-1.4-5.394V0H-4.527V-11.464h2.389L-1.718-10h.174A3.305,3.305,0,0,1-.1-11.254a4.906,4.906,0,0,1,2.087-.426A4.009,4.009,0,0,1,5.019-10.6,4.341,4.341,0,0,1,6.055-7.475Zm10.5,0-.6-1.559h-.082A4.619,4.619,0,0,1,14.243-.179a5.252,5.252,0,0,1-2.179.385,3.523,3.523,0,0,1-2.6-.943,3.623,3.623,0,0,1-.948-2.687A3.025,3.025,0,0,1,9.792-6.116a7.4,7.4,0,0,1,3.85-.959l1.989-.062v-.5a1.559,1.559,0,0,0-1.784-1.743,8.131,8.131,0,0,0-3.23.831L9.582-10.664A9.32,9.32,0,0,1,13.971-11.7a5.467,5.467,0,0,1,3.538,1,3.714,3.714,0,0,1,1.23,3.056V0Zm-.923-5.312-1.21.041a3.875,3.875,0,0,0-2.03.492A1.546,1.546,0,0,0,11.725-3.4q0,1.323,1.518,1.323a2.4,2.4,0,0,0,1.738-.625,2.2,2.2,0,0,0,.651-1.661ZM29.936,0H20.882V-1.846l5.312-7.229H21.2v-2.389h8.552v2.03L24.584-2.389h5.353Zm9.546,0-.6-1.559H38.8A4.619,4.619,0,0,1,37.17-.179a5.252,5.252,0,0,1-2.179.385,3.523,3.523,0,0,1-2.6-.943,3.623,3.623,0,0,1-.948-2.687A3.025,3.025,0,0,1,32.72-6.116a7.4,7.4,0,0,1,3.85-.959l1.989-.062v-.5a1.559,1.559,0,0,0-1.784-1.743,8.131,8.131,0,0,0-3.23.831L32.51-10.664A9.32,9.32,0,0,1,36.9-11.7a5.467,5.467,0,0,1,3.538,1,3.714,3.714,0,0,1,1.23,3.056V0ZM38.56-5.312l-1.21.041a3.875,3.875,0,0,0-2.03.492A1.546,1.546,0,0,0,34.653-3.4q0,1.323,1.518,1.323a2.4,2.4,0,0,0,1.738-.625,2.2,2.2,0,0,0,.651-1.661ZM52.885-3.4A3.156,3.156,0,0,1,51.659-.718a6.054,6.054,0,0,1-3.666.923A11.514,11.514,0,0,1,45.861.036a8.067,8.067,0,0,1-1.651-.5V-3.045a10.9,10.9,0,0,0,1.964.687,7.951,7.951,0,0,0,1.923.277q1.7,0,1.7-.984a.822.822,0,0,0-.226-.6,3.271,3.271,0,0,0-.779-.523q-.554-.292-1.477-.682A9.276,9.276,0,0,1,45.374-5.9a2.886,2.886,0,0,1-.9-1.082,3.571,3.571,0,0,1-.282-1.5,2.723,2.723,0,0,1,1.184-2.364,5.769,5.769,0,0,1,3.358-.836,9.532,9.532,0,0,1,4.03.9l-.943,2.256q-.861-.369-1.61-.6a5.055,5.055,0,0,0-1.528-.236q-1.384,0-1.384.749a.88.88,0,0,0,.446.728,12.13,12.13,0,0,0,1.953.913,9.075,9.075,0,0,1,1.969,1.015,3,3,0,0,1,.923,1.087A3.34,3.34,0,0,1,52.885-3.4Z" transform="translate(1569.263 1641.382)"/>
      <rect id="Rectángulo_2799" data-name="Rectángulo 2799" width="198.174" height="198.174" rx="20" transform="translate(1909.228 1537.695)" fill="#db9122"/>
      <path id="Trazado_20505" data-name="Trazado 20505" d="M-63.021,0h-8.634V-14.991h8.634v2.6h-5.455V-9.1H-63.4v2.6h-5.076v3.866h5.455Zm10.879-3.4A3.156,3.156,0,0,1-53.366-.718a6.054,6.054,0,0,1-3.666.923A11.514,11.514,0,0,1-59.165.036a8.067,8.067,0,0,1-1.651-.5V-3.045a10.9,10.9,0,0,0,1.964.687,7.951,7.951,0,0,0,1.923.277q1.7,0,1.7-.984a.822.822,0,0,0-.226-.6,3.271,3.271,0,0,0-.779-.523q-.554-.292-1.477-.682A9.276,9.276,0,0,1-59.652-5.9a2.886,2.886,0,0,1-.9-1.082,3.571,3.571,0,0,1-.282-1.5,2.723,2.723,0,0,1,1.184-2.364,5.769,5.769,0,0,1,3.358-.836,9.532,9.532,0,0,1,4.03.9l-.943,2.256q-.861-.369-1.61-.6a5.055,5.055,0,0,0-1.528-.236q-1.384,0-1.384.749a.88.88,0,0,0,.446.728,12.13,12.13,0,0,0,1.953.913,9.075,9.075,0,0,1,1.969,1.015,3,3,0,0,1,.923,1.087A3.34,3.34,0,0,1-52.141-3.4Zm7.27,1.118A6.779,6.779,0,0,0-42.9-2.646V-.318a7.02,7.02,0,0,1-2.871.523,3.514,3.514,0,0,1-2.733-.948,4.128,4.128,0,0,1-.856-2.845V-9.116h-1.5v-1.323l1.723-1.046.9-2.42h2v2.44h3.209v2.348h-3.209v5.527a1.221,1.221,0,0,0,.374.984A1.477,1.477,0,0,0-44.871-2.287Zm10.685-9.393a5.044,5.044,0,0,1,1.056.092l-.236,2.933a3.583,3.583,0,0,0-.923-.1,3.316,3.316,0,0,0-2.333.769,2.78,2.78,0,0,0-.836,2.153V0h-3.127V-11.464h2.369l.461,1.928h.154A4.309,4.309,0,0,1-36.16-11.09,3.552,3.552,0,0,1-34.187-11.679ZM-24.189,0l-.6-1.559h-.082A4.619,4.619,0,0,1-26.5-.179,5.252,5.252,0,0,1-28.68.205a3.523,3.523,0,0,1-2.6-.943,3.623,3.623,0,0,1-.948-2.687,3.025,3.025,0,0,1,1.277-2.692,7.4,7.4,0,0,1,3.85-.959l1.989-.062v-.5A1.559,1.559,0,0,0-26.9-9.382a8.131,8.131,0,0,0-3.23.831l-1.036-2.112A9.32,9.32,0,0,1-26.773-11.7a5.467,5.467,0,0,1,3.538,1A3.714,3.714,0,0,1-22-7.639V0Zm-.923-5.312-1.21.041a3.875,3.875,0,0,0-2.03.492A1.546,1.546,0,0,0-29.019-3.4q0,1.323,1.518,1.323a2.4,2.4,0,0,0,1.738-.625,2.2,2.2,0,0,0,.651-1.661Zm11.156,3.025a6.779,6.779,0,0,0,1.969-.359V-.318a7.02,7.02,0,0,1-2.871.523,3.514,3.514,0,0,1-2.733-.948,4.128,4.128,0,0,1-.856-2.845V-9.116h-1.5v-1.323l1.723-1.046.9-2.42h2v2.44h3.209v2.348h-3.209v5.527a1.221,1.221,0,0,0,.374.984A1.477,1.477,0,0,0-13.956-2.287Zm9.034-7.167a1.984,1.984,0,0,0-1.559.631,2.919,2.919,0,0,0-.646,1.789h4.389a2.607,2.607,0,0,0-.6-1.789A2.048,2.048,0,0,0-4.922-9.454ZM-4.481.205A5.917,5.917,0,0,1-8.808-1.323,5.785,5.785,0,0,1-10.367-5.65a6.363,6.363,0,0,1,1.441-4.455,5.13,5.13,0,0,1,3.984-1.574,5.049,5.049,0,0,1,3.784,1.384A5.237,5.237,0,0,1,.195-6.47v1.518H-7.2a3.01,3.01,0,0,0,.79,2.082,2.778,2.778,0,0,0,2.071.749,8.6,8.6,0,0,0,1.958-.215A9.8,9.8,0,0,0-.451-3.025V-.6A7.344,7.344,0,0,1-2.2.005,11.055,11.055,0,0,1-4.481.205Zm17.2-11.669v1.589l-1.794.461a3.128,3.128,0,0,1,.492,1.723,3.478,3.478,0,0,1-1.287,2.876A5.574,5.574,0,0,1,6.552-3.784l-.564-.031-.461-.051a1.04,1.04,0,0,0-.482.82q0,.677,1.723.677H8.716a4.444,4.444,0,0,1,2.876.81A2.9,2.9,0,0,1,12.582.82a3.528,3.528,0,0,1-1.677,3.117A8.731,8.731,0,0,1,6.091,5.045a6.665,6.665,0,0,1-3.666-.836A2.653,2.653,0,0,1,1.159,1.866,2.453,2.453,0,0,1,1.8.133,3.668,3.668,0,0,1,3.7-.861a2.093,2.093,0,0,1-.841-.672,1.6,1.6,0,0,1-.359-.99,1.6,1.6,0,0,1,.379-1.092,4.386,4.386,0,0,1,1.1-.856,3.077,3.077,0,0,1-1.43-1.251,3.807,3.807,0,0,1-.528-2.03,3.58,3.58,0,0,1,1.22-2.9,5.276,5.276,0,0,1,3.486-1.025,8.923,8.923,0,0,1,1.143.087q.661.087.846.128ZM3.866,1.62a1.133,1.133,0,0,0,.62,1.015A3.413,3.413,0,0,0,6.224,3a6.156,6.156,0,0,0,2.635-.461,1.406,1.406,0,0,0,.954-1.261A.893.893,0,0,0,9.249.39,4.618,4.618,0,0,0,7.506.144H5.886A2.453,2.453,0,0,0,4.445.549,1.249,1.249,0,0,0,3.866,1.62ZM5-7.711a2.334,2.334,0,0,0,.426,1.477,1.546,1.546,0,0,0,1.3.543,1.514,1.514,0,0,0,1.292-.543,2.4,2.4,0,0,0,.41-1.477q0-2.071-1.7-2.071Q5-9.782,5-7.711Zm9.464-6.716q0-1.528,1.7-1.528t1.7,1.528a1.49,1.49,0,0,1-.426,1.133,1.789,1.789,0,0,1-1.277.405Q14.468-12.889,14.468-14.427ZM17.729,0H14.6V-11.464h3.127ZM28.291,0l-.6-1.559H27.6A4.619,4.619,0,0,1,25.978-.179,5.252,5.252,0,0,1,23.8.205a3.523,3.523,0,0,1-2.6-.943,3.623,3.623,0,0,1-.948-2.687,3.025,3.025,0,0,1,1.277-2.692,7.4,7.4,0,0,1,3.85-.959l1.989-.062v-.5a1.559,1.559,0,0,0-1.784-1.743,8.131,8.131,0,0,0-3.23.831l-1.036-2.112A9.32,9.32,0,0,1,25.707-11.7a5.467,5.467,0,0,1,3.538,1,3.714,3.714,0,0,1,1.23,3.056V0Zm-.923-5.312-1.21.041a3.875,3.875,0,0,0-2.03.492A1.546,1.546,0,0,0,23.461-3.4q0,1.323,1.518,1.323a2.4,2.4,0,0,0,1.738-.625,2.2,2.2,0,0,0,.651-1.661ZM41.692-3.4A3.156,3.156,0,0,1,40.467-.718,6.054,6.054,0,0,1,36.8.205,11.514,11.514,0,0,1,34.668.036a8.067,8.067,0,0,1-1.651-.5V-3.045a10.9,10.9,0,0,0,1.964.687,7.951,7.951,0,0,0,1.923.277q1.7,0,1.7-.984a.822.822,0,0,0-.226-.6,3.271,3.271,0,0,0-.779-.523q-.554-.292-1.477-.682A9.276,9.276,0,0,1,34.181-5.9a2.886,2.886,0,0,1-.9-1.082A3.571,3.571,0,0,1,33-8.48a2.723,2.723,0,0,1,1.184-2.364,5.769,5.769,0,0,1,3.358-.836,9.532,9.532,0,0,1,4.03.9l-.943,2.256q-.861-.369-1.61-.6a5.055,5.055,0,0,0-1.528-.236q-1.384,0-1.384.749a.88.88,0,0,0,.446.728,12.13,12.13,0,0,0,1.953.913,9.075,9.075,0,0,1,1.969,1.015A3,3,0,0,1,41.4-4.871,3.34,3.34,0,0,1,41.692-3.4ZM52.961,0H49.834V-14.991h8.593v2.6H52.961v3.866h5.086v2.594H52.961ZM70.116,0,69.029-3.568H63.564L62.477,0H59.052l5.291-15.053h3.886L73.541,0ZM68.271-6.234q-1.507-4.85-1.7-5.486t-.272-1q-.338,1.313-1.938,6.491Z" transform="translate(2003.584 1641.382)"/>
    </g>
  </g>
</svg>
